<svg width="250" height="280" fill="none" xmlns="http://www.w3.org/2000/svg"><g opacity=".15" clip-path="url(#a)"><path d="M1056.18 282.701H-750.18v92.506c4.516-2.939 5.475-28.349 7.845-30.53 11.163-10.27 35.747-6.66 36.362 10.02.286 7.759-2.461 16.815 6.812 20.001 5.725 1.967 13.928-1.219 19.87-1.182-4.151-8.864-8.203-24.411-.387-32.527 6.117-6.353 19.276-4.716 27.386-4.25 29.994 1.724-.871 29.518 18.405 35.979 4.831 1.619 17.046 1.381 19.906-3.166 4.162-6.619-3.63-15.64 1.562-23.119 7.134-10.277 36.328-19.458 42.922-4.739 6.159 13.748-8.461 26.535 14.206 28.428 8.305.693 16.122.884 18.336-8.364 1.741-7.277-3.245-16.375 1.632-23.144 8.459-11.738 35.692-7.128 40.242 5.772 1.963 5.567.287 11.974 5.325 16.198 3.497 2.932 15.675 5.556 18.822.978 6.836-9.944-7.993-22.254 9.822-27.983 14.711-4.73 31.686-.412 32.276 16.059.429 11.948.908 19.579 14.723 21.65 6.742 1.01 12.149.547 14.449-6.256 4.003-11.825-7.175-25.944 10.053-30.888 13.475-3.867 34.728-.314 33.841 16.454-.472 8.941-4.838 17.083 5.848 20.961 5.294 1.922 16.828 3.401 21.132-.753 9.827-9.49-5.696-27.401 11.691-33.3 14.217-4.822 31.151-5.48 34.015 11.378 1.589 9.349-.988 24.628 12.574 24.159 18.461-.639 6.217-19.413 12.026-28.928 7.256-11.881 33.709-7.255 37.533 5.286 2.525 8.282-3.624 16.453 6.214 20.935 6.067 2.763 15.708.56 22.098.248-2.44-20.457-8.499-39.017 19.205-37.435 6.535.373 17.493-.543 22.734 4.033 6.724 5.872 2.505 13.865 4.412 21.19 2.098 8.052 8.338 11.509 17.18 9.982 11.628-2.008 6.327-9.688 7.382-18.31 1.659-13.574 28.324-18.88 39.215-12.395 12.822 7.636-3.34 31.306 16.021 33.754 18.555 2.347 1.207-24.183 10.966-33.148 10.024-9.209 39.968-3.893 42.442 9.98 1.368 7.663-3.186 15.977 2.88 22.632 5.405 5.927 16.145 5.201 23.36 5.201-3.008-.156-2.042-29.697.292-33.026 7.023-10.023 36.346-7.088 44.024.581 7.886 7.875 1.698 24.917 10.578 31.612 14.181 10.689 14.032-11.617 13.177-18.768-2.553-21.335 15.402-18.461 31.648-16.819 5.792.585 11.878-.231 15.383 5.083 4.289 6.509-1.443 15.551.414 22.295 2.919 10.594 9.968 4.948 17.851 5.786 2.221.236 4.668 3.525 6.474 2.491v-.096c4.516-2.939 5.475-28.349 7.845-30.53 11.163-10.27 35.746-6.66 36.363 10.02.284 7.759-2.462 16.815 6.811 20.001 5.725 1.967 13.928-1.219 19.87-1.182-4.152-8.864-8.203-24.411-.388-32.527 6.118-6.353 19.275-4.716 27.387-4.25 29.993 1.724-.872 29.518 18.406 35.979 4.831 1.619 17.045 1.381 19.906-3.166 4.162-6.619-3.63-15.64 1.561-23.119 7.133-10.277 36.329-19.458 42.921-4.739 6.161 13.748-8.459 26.535 14.208 28.428 8.304.693 16.122.884 18.335-8.364 1.742-7.277-3.246-16.375 1.633-23.144 8.459-11.738 35.691-7.128 40.241 5.772 1.963 5.567.287 11.974 5.325 16.198 3.497 2.932 15.675 5.556 18.822.978 6.836-9.944-7.993-22.254 9.822-27.983 14.711-4.73 31.686-.412 32.276 16.059.429 11.948.908 19.579 14.723 21.65 6.741 1.01 12.149.547 14.449-6.256 4.003-11.825-7.175-25.944 10.053-30.888 13.475-3.867 34.728-.314 33.841 16.454-.472 8.941-4.838 17.083 5.848 20.961 5.294 1.922 16.828 3.401 21.132-.753 9.827-9.49-5.696-27.401 11.691-33.3 14.217-4.822 31.151-5.48 34.015 11.378 1.589 9.349-.988 24.628 12.574 24.159 18.461-.639 6.216-19.413 12.026-28.928 7.257-11.881 33.709-7.255 37.534 5.286 2.524 8.282-3.625 16.453 6.213 20.935 6.067 2.763 15.709.56 22.098.248-2.44-20.457-8.499-39.017 19.205-37.435 6.535.373 17.493-.543 22.734 4.033 6.724 5.872 2.505 13.865 4.412 21.19 2.098 8.052 8.338 11.509 17.18 9.982 11.628-2.008 6.327-9.688 7.382-18.31 1.659-13.574 28.324-18.88 39.215-12.395 12.823 7.636-3.341 31.306 16.021 33.754 18.555 2.347 1.207-24.183 10.966-33.148 10.024-9.209 39.968-3.893 42.442 9.98 1.368 7.663-3.186 15.977 2.881 22.632 5.404 5.927 16.143 5.201 23.359 5.201-3.008-.156-2.042-29.697.292-33.026 7.023-10.023 36.346-7.088 44.024.581 7.886 7.875 1.698 24.917 10.578 31.612 14.181 10.689 14.032-11.617 13.177-18.768-2.553-21.335 15.402-18.461 31.652-16.819 5.79.585 11.87-.231 15.38 5.083 4.29 6.509-1.44 15.551.41 22.295 2.92 10.594 9.97 4.948 17.85 5.786 2.23.236 4.67 3.525 6.48 2.491v-92.602ZM-750.18 383.345v56.578h1806.36V383.42c-7.23 4.899-31.31-.459-33.96-9.476-2.37-8.066 4.25-19.236-4.61-24.539-3.11-1.862-21.911-2.004-23.611.652-5.354 8.359 12.971 30.272-2.515 36.244-8.808 3.436-26.368 4.853-32.271-4.501-5.814-9.213 4.268-23.338-5.756-31.084-4.42-3.415-21.978-4.749-26.669-1.124-9.304 7.191 3.444 21.29-.044 30.187-4.374 11.165-19.812 6.369-28.328 3.755-13.36-4.102-17.89-9.356-18.013-23.389-.056-6.465 1.833-10.522-5.031-13.489-2.903-1.255-12.522-.635-15.6.345-13.714 4.369-1.616 17.886-6.599 28.341-7.85 16.465-32.717 2.906-35.704-10.5-1.274-5.721 2.178-12.236-3.087-16.429-3.155-2.511-10.431-1.775-14.191-.58-12.334 3.92-5.378 10.018-7.512 19.623-2.71 12.202-16.452 12.101-26.582 11.243-12.421-1.052-18.31-3.941-19.064-16.908-.657-11.293 1.694-17.889-12.17-18.654-10.727-.592-17.146 2.564-16.777 13.756.414 12.514 6.664 22.256-11 24.652-8.049 1.092-27.268.347-32.555-6.975-5.337-7.395 3.078-19.451-4.665-24.589-9.75-6.468-17.356 2.723-17.216 10.996.205 12.327 2.466 20.559-13.066 21.975-9.59.874-20.631-.477-25.431-9.676-4.128-7.911-.005-22.988-9.497-27.51-13.229-6.302-16.49 8.471-16.931 16.875-.634 12.08-4.914 20.341-17.777 20.717-6.865.201-23.389.016-29.14-4.499-10.33-8.113 1.645-23.967-8.36-31.736-6.099-4.735-17.221-5.144-19.967 2.069-3.533 9.273 4.919 21.424-3.957 29.512-6.288 5.73-19.138 4.003-26.544 2.421-11.83-2.526-16.139-6.674-16.847-18.745-.556-9.436 2.409-18.716-9.424-19.4-15.137-.874-12.898 8.591-13.408 18.841-.525 10.5-7.541 12.954-17.488 12.607-13.309-.464-22.199-4.412-24.309-17.828-1.476-9.395-8.675-18.821-20.142-12.408-7.888 4.413-3.495 13.174-4.675 21.319-1.474 10.161-7.69 12.843-17.408 14.294-9.548 1.425-26.279 3.239-32.806-5.673-5.711-7.798-2.185-19.622-2.267-28.474-7.897.205-18.783.627-23.01 8.499-4.114 7.663 3.153 18.147-2.97 25.066-7.936 8.969-39.335 7.672-43.955-4.042-2.854-7.238 2.004-14.531 2.13-21.681.146-8.317-2.599-7.125-11.366-7.323-24.256-.549-3.866 19.032-12.948 31.981-5.568 7.939-30.865 10.721-38.822 6.471-10.646-5.685-2.447-15.369-3.707-23.987-1.257-8.601-10.361-13.194-18.302-8.472-7.921 4.712-4.456 12.913-5.968 20.554-.91 4.604-5.87 7.682-11.289 10.621v.075c-7.225 4.899-31.31-.459-33.959-9.476-2.37-8.066 4.251-19.236-4.608-24.539-3.114-1.862-21.912-2.004-23.612.652-5.354 8.359 12.972 30.272-2.515 36.244-8.808 3.436-26.368 4.853-32.27-4.501-5.815-9.213 4.267-23.338-5.757-31.084-4.42-3.415-21.978-4.749-26.67-1.124-9.303 7.191 3.445 21.29-.043 30.187-4.373 11.165-19.812 6.369-28.328 3.755-13.36-4.102-17.89-9.356-18.013-23.389-.055-6.465 1.833-10.522-5.031-13.489-2.903-1.255-12.522-.635-15.6.345-13.714 4.369-1.616 17.886-6.6 28.341-7.849 16.465-32.716 2.906-35.703-10.5-1.274-5.721 2.178-12.236-3.087-16.429-3.156-2.511-10.431-1.775-14.191-.58-12.334 3.92-5.378 10.018-7.512 19.623-2.71 12.202-16.452 12.101-26.582 11.243-12.421-1.052-18.31-3.941-19.064-16.908-.657-11.293 1.694-17.889-12.17-18.654-10.727-.592-17.146 2.564-16.777 13.756.414 12.514 6.664 22.256-11 24.652-8.049 1.092-27.268.347-32.555-6.975-5.337-7.395 3.078-19.451-4.665-24.589-9.75-6.468-17.356 2.723-17.216 10.996.205 12.327 2.466 20.559-13.066 21.975-9.591.874-20.631-.477-25.431-9.676-4.128-7.911-.005-22.988-9.497-27.51-13.23-6.302-16.491 8.471-16.931 16.875-.634 12.08-4.914 20.341-17.777 20.717-6.865.201-23.389.016-29.14-4.499-10.33-8.113 1.644-23.967-8.36-31.736-6.099-4.735-17.221-5.144-19.967 2.069-3.533 9.273 4.919 21.424-3.957 29.512-6.288 5.73-19.137 4.003-26.544 2.421-11.83-2.526-16.139-6.674-16.847-18.745-.556-9.436 2.409-18.716-9.424-19.4-15.137-.874-12.898 8.591-13.408 18.841-.525 10.5-7.541 12.954-17.488 12.607-13.309-.464-22.199-4.412-24.309-17.828-1.476-9.395-8.676-18.821-20.142-12.408-7.888 4.413-3.494 13.174-4.675 21.319-1.474 10.161-7.69 12.843-17.409 14.294-9.547 1.425-26.279 3.239-32.805-5.673-5.711-7.798-2.185-19.622-2.267-28.474-7.896.205-18.783.627-23.009 8.499-4.114 7.663 3.153 18.147-2.971 25.066-7.937 8.969-39.335 7.672-43.955-4.042-2.854-7.238 2.003-14.531 2.13-21.681.147-8.317-2.598-7.125-11.365-7.323-24.257-.549-3.866 19.032-12.948 31.981-5.568 7.939-30.865 10.721-38.824 6.471-10.645-5.685-2.445-15.369-3.705-23.987-1.257-8.601-10.361-13.194-18.302-8.472-7.922 4.712-4.456 12.913-5.968 20.554-.911 4.604-5.871 7.682-11.29 10.621Zm0-545.542v95.882c4.516-2.938 5.475-28.35 7.845-30.53 11.163-10.27 35.747-6.659 36.362 10.02.286 7.76-2.461 16.815 6.812 20.002 5.725 1.965 13.928-1.219 19.87-1.183-4.151-8.865-8.203-24.41-.387-32.526 6.117-6.354 19.276-4.716 27.386-4.251 29.994 1.724-.871 29.518 18.405 35.978 4.831 1.62 17.046 1.382 19.906-3.165 4.162-6.619-3.63-15.64 1.562-23.12 7.134-10.276 36.328-19.457 42.922-4.739 6.159 13.748-8.461 26.537 14.206 28.43 8.305.69 16.122.884 18.336-8.365 1.741-7.276-3.245-16.375 1.632-23.143 8.459-11.739 35.692-7.129 40.242 5.77 1.963 5.57.287 11.976 5.325 16.198 3.497 2.933 15.675 5.556 18.822.977 6.836-9.942-7.993-22.251 9.822-27.981 14.711-4.73 31.686-.412 32.276 16.06.429 11.948.908 19.578 14.723 21.65 6.742 1.008 12.149.546 14.449-6.255 4.003-11.829-7.175-25.947 10.053-30.889 13.475-3.868 34.728-.316 33.841 16.452-.472 8.943-4.838 17.083 5.848 20.961 5.294 1.922 16.828 3.403 21.132-.754 9.827-9.49-5.696-27.399 11.691-33.297 14.217-4.822 31.151-5.482 34.015 11.378 1.589 9.347-.988 24.626 12.574 24.157 18.461-.638 6.217-19.413 12.026-28.928 7.256-11.879 33.709-7.255 37.533 5.286 2.525 8.283-3.624 16.455 6.214 20.937 6.067 2.763 15.708.559 22.098.246-2.44-20.456-8.499-39.015 19.205-37.433 6.535.371 17.493-.544 22.734 4.032 6.724 5.872 2.505 13.865 4.412 21.19 2.098 8.051 8.338 11.51 17.18 9.983 11.628-2.009 6.327-9.69 7.382-18.312 1.659-13.572 28.324-18.88 39.215-12.394 12.822 7.635-3.34 31.306 16.021 33.755 18.555 2.346 1.207-24.184 10.966-33.148 10.024-9.21 39.968-3.894 42.442 9.978 1.368 7.664-3.186 15.978 2.88 22.633 5.405 5.927 16.145 5.2 23.36 5.2-3.008-.154-2.042-29.697.292-33.025 7.023-10.022 36.346-7.088 44.024.58 7.886 7.876 1.698 24.918 10.578 31.612 14.181 10.69 14.032-11.617 13.177-18.767-2.553-21.335 15.402-18.461 31.648-16.819 5.792.585 11.878-.231 15.383 5.082 4.289 6.51-1.443 15.552.414 22.295 2.919 10.595 9.968 4.95 17.851 5.785 2.221.239 4.668 3.526 6.474 2.493v-.096c4.516-2.938 5.475-28.35 7.845-30.53 11.163-10.27 35.746-6.659 36.363 10.02.284 7.76-2.462 16.815 6.811 20.002 5.725 1.965 13.928-1.219 19.87-1.183-4.152-8.865-8.203-24.41-.388-32.526 6.118-6.354 19.275-4.716 27.387-4.251 29.993 1.724-.872 29.518 18.406 35.978 4.831 1.62 17.045 1.382 19.906-3.165 4.162-6.619-3.63-15.64 1.561-23.12 7.133-10.276 36.329-19.457 42.921-4.739 6.161 13.748-8.459 26.537 14.208 28.43 8.304.69 16.122.884 18.335-8.365 1.742-7.276-3.246-16.375 1.633-23.143 8.459-11.739 35.691-7.129 40.241 5.77 1.963 5.57.287 11.976 5.325 16.198 3.497 2.933 15.675 5.556 18.822.977 6.836-9.942-7.993-22.251 9.822-27.981 14.711-4.73 31.686-.412 32.276 16.06.429 11.948.908 19.578 14.723 21.65 6.741 1.008 12.149.546 14.449-6.255 4.003-11.829-7.175-25.947 10.053-30.889 13.475-3.868 34.728-.316 33.841 16.452-.472 8.943-4.838 17.083 5.848 20.961 5.294 1.922 16.828 3.403 21.132-.754 9.827-9.49-5.696-27.399 11.691-33.297 14.217-4.822 31.151-5.482 34.015 11.378 1.589 9.347-.988 24.626 12.574 24.157 18.461-.638 6.216-19.413 12.026-28.928 7.257-11.879 33.709-7.255 37.534 5.286 2.524 8.283-3.625 16.455 6.213 20.937 6.067 2.763 15.709.559 22.098.246-2.44-20.456-8.499-39.015 19.205-37.433 6.535.371 17.493-.544 22.734 4.032 6.724 5.872 2.505 13.865 4.412 21.19 2.098 8.051 8.338 11.51 17.18 9.983 11.628-2.009 6.327-9.69 7.382-18.312 1.659-13.572 28.324-18.88 39.215-12.394 12.823 7.635-3.341 31.306 16.021 33.755 18.555 2.346 1.207-24.184 10.966-33.148 10.024-9.21 39.968-3.894 42.442 9.978 1.368 7.664-3.186 15.978 2.881 22.633 5.404 5.927 16.143 5.2 23.359 5.2-3.008-.154-2.042-29.697.292-33.025 7.023-10.022 36.346-7.088 44.024.58 7.886 7.876 1.698 24.918 10.578 31.612 14.181 10.69 14.032-11.617 13.177-18.767-2.553-21.335 15.402-18.461 31.652-16.819 5.79.585 11.87-.231 15.38 5.082 4.29 6.51-1.44 15.552.41 22.295 2.92 10.595 9.97 4.95 17.85 5.785 2.23.239 4.67 3.526 6.48 2.493v-95.978H-750.18Zm0 104.02v53.201h1806.36v-53.126c-7.23 4.899-31.31-.458-33.96-9.475-2.37-8.068 4.25-19.237-4.61-24.54-3.11-1.862-21.911-2.004-23.611.653-5.354 8.357 12.971 30.272-2.515 36.242-8.808 3.437-26.368 4.853-32.271-4.501-5.814-9.213 4.268-23.338-5.756-31.084-4.42-3.415-21.978-4.75-26.669-1.122-9.304 7.19 3.444 21.288-.044 30.185-4.374 11.166-19.812 6.37-28.328 3.755-13.36-4.102-17.89-9.355-18.013-23.389-.056-6.464 1.833-10.52-5.031-13.487-2.903-1.255-12.522-.636-15.6.344-13.714 4.37-1.616 17.886-6.599 28.34-7.85 16.465-32.717 2.908-35.704-10.498-1.274-5.722 2.178-12.237-3.087-16.43-3.155-2.512-10.431-1.775-14.191-.58-12.334 3.92-5.378 10.018-7.512 19.623-2.71 12.202-16.452 12.1-26.582 11.243-12.421-1.052-18.31-3.942-19.064-16.907-.657-11.294 1.694-17.89-12.17-18.654-10.727-.592-17.146 2.563-16.777 13.755.414 12.514 6.664 22.257-11 24.65-8.049 1.094-27.268.35-32.555-6.972-5.337-7.396 3.078-19.453-4.665-24.59-9.75-6.47-17.356 2.724-17.216 10.994.205 12.33 2.466 20.561-13.066 21.978-9.59.874-20.631-.477-25.431-9.678-4.128-7.91-.005-22.989-9.497-27.51-13.229-6.302-16.49 8.471-16.931 16.875-.634 12.08-4.914 20.342-17.777 20.717-6.865.203-23.389.017-29.14-4.499-10.33-8.111 1.645-23.967-8.36-31.734-6.099-4.735-17.221-5.144-19.967 2.069-3.533 9.273 4.919 21.423-3.957 29.511-6.288 5.73-19.138 4.003-26.544 2.42-11.83-2.526-16.139-6.673-16.847-18.745-.556-9.434 2.409-18.716-9.424-19.4-15.137-.874-12.898 8.591-13.408 18.842-.525 10.5-7.541 12.955-17.488 12.606-13.309-.463-22.199-4.413-24.309-17.828-1.476-9.395-8.675-18.82-20.142-12.406-7.888 4.412-3.495 13.172-4.675 21.317-1.474 10.162-7.69 12.845-17.408 14.295-9.548 1.426-26.279 3.24-32.806-5.672-5.711-7.799-2.185-19.622-2.267-28.476-7.897.205-18.783.629-23.01 8.5-4.114 7.664 3.153 18.148-2.97 25.067-7.936 8.967-39.335 7.671-43.955-4.043-2.854-7.238 2.004-14.53 2.13-21.682.146-8.316-2.599-7.124-11.366-7.321-24.256-.55-3.866 19.031-12.948 31.98-5.568 7.94-30.865 10.722-38.822 6.47-10.646-5.683-2.447-15.368-3.707-23.988-1.257-8.6-10.361-13.193-18.302-8.47-7.921 4.71-4.456 12.912-5.968 20.554-.91 4.605-5.87 7.683-11.289 10.621v.075c-7.225 4.899-31.31-.458-33.959-9.475-2.37-8.068 4.251-19.237-4.608-24.54-3.114-1.862-21.912-2.004-23.612.653-5.354 8.357 12.972 30.272-2.515 36.242-8.808 3.437-26.368 4.853-32.27-4.501-5.815-9.213 4.267-23.338-5.757-31.084-4.42-3.415-21.978-4.75-26.67-1.122-9.303 7.19 3.445 21.288-.043 30.185-4.373 11.166-19.812 6.37-28.328 3.755-13.36-4.102-17.89-9.355-18.013-23.389-.055-6.464 1.833-10.52-5.031-13.487-2.903-1.255-12.522-.636-15.6.344-13.714 4.37-1.616 17.886-6.6 28.34-7.849 16.465-32.716 2.908-35.703-10.498-1.274-5.722 2.178-12.237-3.087-16.43-3.156-2.512-10.431-1.775-14.191-.58-12.334 3.92-5.378 10.018-7.512 19.623-2.71 12.202-16.452 12.1-26.582 11.243-12.421-1.052-18.31-3.942-19.064-16.907-.657-11.294 1.694-17.89-12.17-18.654-10.727-.592-17.146 2.563-16.777 13.755.414 12.514 6.664 22.257-11 24.65-8.049 1.094-27.268.35-32.555-6.972-5.337-7.396 3.078-19.453-4.665-24.59-9.75-6.47-17.356 2.724-17.216 10.994.205 12.33 2.466 20.561-13.066 21.978-9.591.874-20.631-.477-25.431-9.678-4.128-7.91-.005-22.989-9.497-27.51-13.23-6.302-16.491 8.471-16.931 16.875-.634 12.08-4.914 20.342-17.777 20.717-6.865.203-23.389.017-29.14-4.499-10.33-8.111 1.644-23.967-8.36-31.734-6.099-4.735-17.221-5.144-19.967 2.069-3.533 9.273 4.919 21.423-3.957 29.511-6.288 5.73-19.137 4.003-26.544 2.42-11.83-2.526-16.139-6.673-16.847-18.745-.556-9.434 2.409-18.716-9.424-19.4-15.137-.874-12.898 8.591-13.408 18.842-.525 10.5-7.541 12.955-17.488 12.606-13.309-.463-22.199-4.413-24.309-17.828-1.476-9.395-8.676-18.82-20.142-12.406-7.888 4.412-3.494 13.172-4.675 21.317-1.474 10.162-7.69 12.845-17.409 14.295-9.547 1.426-26.279 3.24-32.805-5.672-5.711-7.799-2.185-19.622-2.267-28.476-7.896.205-18.783.629-23.009 8.5-4.114 7.664 3.153 18.148-2.971 25.067-7.937 8.967-39.335 7.671-43.955-4.043-2.854-7.238 2.003-14.53 2.13-21.682.147-8.316-2.598-7.124-11.365-7.321-24.257-.55-3.866 19.031-12.948 31.98-5.568 7.94-30.865 10.722-38.824 6.47-10.645-5.683-2.445-15.368-3.705-23.988-1.257-8.6-10.361-13.193-18.302-8.47-7.922 4.71-4.456 12.912-5.968 20.554-.911 4.605-5.871 7.683-11.29 10.621ZM558.63 244.976c-1.589-1.274-2.553-5.192-2.071-8.034.193-1.126 2.553-6.173 5.156-11.17 6.508-12.297 9.931-16.068 20.147-22.045 12.195-7.152 15.328-10.875 15.28-18.274-.048-3.526-1.108-4.849-7.857-9.699-6.507-4.752-14.701-12.934-23.424-23.271-3.76-4.506-7.953-9.015-9.302-10.043-3.663-2.693-6.267-2.255-16.195 2.791-8.675 4.362-9.157 4.704-11.182 7.45-3.134 4.161-8.531 9.207-13.061 12.196-5.879 3.921-8.772 7.055-12.676 13.719-1.64 2.839-4.771 7.054-6.941 9.357l-3.905 4.212h-4.53c-3.085 0-5.157-.342-6.604-1.079-4.867-2.497-4.578-6.905.581-9.258 4.434-2.057 7.131-5.145 11.712-13.569 2.553-4.605 5.638-9.259 7.854-11.759 3.615-4.017 11.279-10.286 16.243-13.326 4.773-2.842 11.086-7.887 12.726-10.043 2.457-3.283 4.868-10.385 5.976-17.44 2.266-14.598 3.422-17.782 7.856-22.095 2.941-2.84 3.567-4.506 2.459-6.71-1.977-3.919-5.737-6.125-12.049-7.105-1.737-.294-3.134-1.125-4.967-3.035-2.215-2.206-2.601-2.989-2.601-5.096 0-3.43 2.216-5.241 8.194-6.614 5.927-1.322 10.746-.881 16.869 1.52l4.626 1.86 4.868-5.047c5.253-5.34 12.098-9.747 19.328-12.394 4.338-1.616 14.701-3.33 20.099-3.33 8.001 0 23.521 4.703 30.363 9.161 3.519 2.3 12.387 10.338 15.039 13.57 2.844 3.576 4.241 6.515 6.168 12.981 3.278 10.925 3.567 20.186.918 29.249-3.76 12.637-6.556 16.558-14.702 20.674-9.349 4.702-17.35 5.535-27.81 2.84-11.568-2.938-18.266-7.69-22.219-15.626-1.929-3.871-2.073-4.656-2.073-9.603 0-4.212.289-6.122 1.399-8.868 2.794-6.809 9.109-13.865 13.639-15.185 2.652-.785 5.831.587 6.363 2.74.434 1.667.338 2.207-1.254 7.693-1.156 4.116-.867 7.006 1.206 11.267 1.156 2.452 2.023 3.48 3.42 3.969 3.375 1.178 6.123.834 8.919-1.226 3.709-2.743 4.386-4.899 4.145-13.372-.193-6.32-.436-7.495-1.929-10.582-1.06-2.156-2.459-4.018-3.664-4.752-2.649-1.667-9.638-2.647-17.158-2.351-6.074.195-6.604.294-11.519 2.791-8.435 4.312-12.773 7.936-15.569 13.129-4.289 7.84-6.409 20.92-4.048 24.497 1.11 1.763 4.289 3.819 10.219 6.758 1.927.982 5.494 3.087 7.856 4.655 2.361 1.616 6.698 4.261 9.687 5.928 10.99 5.978 13.495 7.447 23.473 13.767 10.749 6.808 12.435 8.475 14.942 14.99 2.457 6.467 2.746 17.637.819 33.999-.867 7.838-1.204 8.966-2.796 9.798-3.471 1.911-5.301.05-7.808-7.74-2.698-8.376-4.868-12.738-6.506-12.984-2.218-.291-6.989 3.871-12.145 10.633-5.689 7.495-9.353 10.484-16.677 13.668-14.027 6.124-15.954 7.692-18.846 15.48-3.664 9.701-8.483 16.461-11.761 16.461-.771 0-1.975-.489-2.7-1.078ZM238.852 90.327c-1.751 0-2.857 1.51-2.857 3.91 0 2.167-3.121 7.162-5.368 8.593-4.075 2.555-21.746 7.317-27.117 7.317-2.286 0-3.695-.581-3.695-1.51 0-.154 1.219-.465 2.744-.658 3.046-.349 9.901-2.94 13.899-5.226 3.504-2.014 7.505-5.884 7.885-7.625.838-3.989-2.856-5.807-4.838-2.402-1.864 3.216-10.549 6.08-19.993 6.621-5.446.27-5.903.232-9.027-1.006-1.79-.699-5.142-2.517-7.387-4.066-6.17-4.14-13.75-9.754-13.75-10.18 0-.232-.532-.697-1.219-1.046-.647-.347-3.275-3.059-5.787-6-2.553-2.94-6.59-7.548-8.95-10.219a281.713 281.713 0 0 1-6.438-7.47c-1.142-1.472-5.178-6.116-8.95-10.297l-6.816-7.628 2.476-3.444c1.332-1.895 2.779-4.22 3.16-5.149.609-1.47.609-1.78-.077-2.864-1.255-1.936-3.427-1.394-5.178 1.238-1.257 1.898-1.486 2.052-1.79 1.24-.19-.503-.38-1.589-.38-2.362-.077-2.71-2.553-4.066-4.42-2.36-.609.58-.874 1.469-.874 3.367 0 1.43-.154 2.594-.381 2.594-.192 0-.992-.658-1.753-1.434-2.209-2.36-4.988-1.818-4.988.969 0 1.433 1.674 3.793 4.417 6.233.951.889 1.751 1.857 1.751 2.167 0 .812-6.816 8.671-10.51 12.156-1.715 1.585-6.59 6.85-10.855 11.65-4.57 5.188-8.531 9.215-9.673 9.872-2.933 1.664-14.282 9.482-19.422 13.355-2.476 1.857-6.666 4.877-9.256 6.696-2.627 1.82-6.664 4.723-8.95 6.464-3.769 2.789-4.342 3.098-5.864 2.828-.916-.154-2.666-.853-3.847-1.626-1.18-.737-3.504-2.091-5.103-3.02-1.638-.968-4.798-2.98-7.045-4.528-3.085-2.13-4.38-2.79-5.41-2.674-1.827.234-2.702 1.898-1.98 3.912.61 1.818 6.704 8.167 10.588 11.031 4.456 3.292 6.894 5.845 6.894 7.162 0 1.084-.152 1.161-1.751.892-2.019-.35-14.511-6.698-19.425-9.873-4.15-2.709-5.942-4.412-8.682-8.244-3.58-5.072-5.446-6-7.238-3.678-1.18 1.51-1.103 1.896 1.296 6.929 1.98 4.143 6.36 9.174 10.778 12.349 4.227 3.018 17.213 9.638 20.489 10.453l2.856.696-.151 2.398c-.078 1.356-.23 22.452-.381 46.956-.19 43.318-.19 44.673.8 50.788 1.295 8.362 2.131 11.458 3.884 14.711 2.551 4.645 4.15 5.883 10.627 8.207 4.874 1.741 9.785 2.167 30.2 2.477 35.038.542 65.999.542 70.761 0 2.476-.271 5.941-.852 7.692-1.238 1.751-.426 7.39-1.472 12.493-2.401 13.671-2.438 23.345-6.309 25.935-10.374.609-.929 1.486-2.904 1.979-4.336.839-2.555.877-5.381.877-57.95v-55.279l1.905-.812c1.065-.426 5.749-2.09 10.472-3.677 15.044-5.07 18.625-7.433 22.165-14.593 2.325-4.723 1.638-8.981-1.447-8.981Zm-84.851-14.284c.533.542 2.818 3.136 5.065 5.807 8.151 9.561 22.127 21.483 30.506 26.091 1.828.968 4.266 2.709 5.407 3.832 2.018 1.975 4.685 5.961 4.266 6.387-.114.116-1.371.426-2.741.696-3.047.583-3.505.583-6.058-.231-2.589-.853-3.959-1.78-8.492-5.73-6.932-6.077-12.567-13.083-23.574-29.343-1.941-2.902-3.96-6-4.456-6.89l-.876-1.585.953.966Zm-8.266-1.084c.077-.077 2.667 3.6 5.713 8.206 12.568 18.815 18.777 26.671 25.937 33.058 2.361 2.091 4.15 3.989 4.037 4.182-.116.233-2.553.387-5.41.387-5.939 0-5.939 0-9.749-5.069-6.587-8.789-7.654-10.725-14.738-26.556-4.19-9.251-6.093-13.936-5.79-14.208Zm-5.864 1.626c.19.233 1.37 2.789 2.589 5.691 3.429 8.206 7.96 18.078 12.873 28.102 2.476 5.072 4.494 9.485 4.494 9.795 0 .465-1.599.619-6.435.619-4.723 0-6.513-.154-6.628-.619-.304-.814-2.057-14.128-2.628-19.665-.609-5.807-1.676-11.922-3.35-18.812-.725-3.02-1.144-5.304-.915-5.111Zm-14.319 23.846c.533-3.562 1.522-8.981 2.132-12.04 1.524-7.432 2.134-12.813 2.134-18.078 0-2.553.19-4.181.419-3.947.874.968 5.52 16.683 6.284 21.33 1.637 9.715 3.35 30.579 2.663 32.4-.226.581-1.979.696-9.405.696h-9.101l.226-1.083c.154-.619.992-3.717 1.944-6.93.912-3.213 2.131-8.75 2.704-12.348Zm-1.676-40.376.152 8.167c.113 7.24-.039 8.828-1.103 14.054-.687 3.213-1.638 7.975-2.173 10.607-1.789 9.097-6.361 22.994-8.798 26.787-.684 1.084-.913 1.122-7.996 1.122-4 0-7.428-.115-7.58-.31-.151-.154.533-1.392 1.525-2.787 1.79-2.399 11.159-19.085 14.28-25.392 3.353-6.698 6.628-15.215 9.104-23.539l2.589-8.709Zm-10.055 8.517c1.486-2.245 2.666-3.832 2.666-3.562 0 .31-.838 3.292-1.867 6.698-3.085 10.065-10.282 23.692-17.252 32.748a431.678 431.678 0 0 0-4.646 6.038c-1.18 1.548-3.656 4.492-5.445 6.544-3.505 3.949-3.505 3.949-7.428 3.251-1.18-.234-4.569-.619-7.54-.93-6.436-.619-7.35-.968-5.637-2.09.687-.463 3.543-3.018 6.361-5.728 2.818-2.709 6.322-5.806 7.77-6.852 9.33-6.929 13.519-10.838 20.183-18.966 7.047-8.596 8.418-10.415 12.835-17.151Zm-63.714 46.103c.19-1.277.57-2.633.838-2.979.722-.93 8.035-6.388 16.298-12.195 3.923-2.748 8.418-6.038 9.978-7.24 2.4-1.856 9.637-6.85 18.967-13.044.99-.657 2.857-2.283 4.075-3.639a518.17 518.17 0 0 1 4.798-5.108l2.515-2.671-2.286 3.405c-2.666 3.91-12.568 16.065-15.31 18.774-1.065 1.007-2.855 2.517-4.074 3.37-1.182.85-4.8 3.637-8.037 6.192-3.237 2.555-8.112 6.115-10.89 7.936-2.744 1.78-6.78 4.566-8.95 6.195-3.048 2.206-4.456 2.94-6.094 3.135l-2.173.232.345-2.363Zm-1.563 13.434 1.067-2.247 5.484.041c3.008 0 11.349.27 18.547.581 33.134 1.469 93.917 2.09 103.247 1.045 2.514-.272 6.855-.814 9.598-1.161 2.741-.388 6.322-.853 7.921-1.007l2.97-.349.496 1.898c.267 1.004.609 2.787.8 3.87.267 1.934.229 2.011-1.067 2.284-5.255 1.083-10.472 1.394-17.784.968-11.084-.581-24.071-.504-33.82.192-8.57.658-10.817.892-24.261 2.556-6.512.775-10.433.93-22.85.852-8.265-.041-17.251-.233-19.994-.426-2.744-.156-7.77-.349-11.197-.388-5.333-.038-15.501-1.433-20.147-2.786-.913-.272-.458-3.02.99-5.923Zm-.839 51.176c-.113-.388-.264-2.091-.341-3.832l-.114-3.138 9.75.079c5.368.077 13.825.347 18.812.619 4.952.27 26.698.619 48.293.773 33.475.234 39.875.157 43.112-.465 2.093-.385 5.065-.85 6.664-1.006 1.56-.155 4.036-.501 5.445-.735 2.628-.465 17.062-2.399 17.749-2.399.647 0 .419 5.807-.229 6-.342.115-4.037.464-8.228.734-8.986.66-17.403 1.705-22.24 2.787-2.972.66-11.235.775-60.936.968-47.948.195-57.508.157-57.737-.385Zm-.226-14.557v-7.78l2.245.273c4.38.578 12.302 1.779 15.616 2.398 3.808.696 19.613.735 70.456.232 38.388-.388 42.389-.619 53.051-3.483 5.294-1.433 9.559-2.324 9.788-2.091.19.193-.457 5.227-.951 7.472-.306 1.315-2.096 1.741-12.416 3.058-10.626 1.315-13.367 1.469-41.626 2.05-13.75.311-30.125.583-36.409.619-13.901.156-42.73-.85-46.654-1.626-1.6-.308-5.178-.657-7.999-.811l-5.1-.311Zm149.709 18.232v5.768l-4.266.853c-3.617.734-7.16.85-22.623.891-10.091.039-21.746.308-25.934.58-4.188.27-15.995.658-26.202.889-30.354.737-67.218 1.045-67.485.622-.116-.234-.381-1.511-.571-2.867l-.306-2.475 52.977-.35c29.171-.195 54.499-.542 56.327-.773 1.828-.233 6.968-.968 11.423-1.705 6.474-1.007 9.978-1.276 17.368-1.354l9.292-.079ZM49.117 216.677c.19-2.051.494-3.871.723-4.102.532-.582 9.063-.155 15.956.774 3.162.425 12.035 1.045 19.766 1.355 7.731.309 15.882.697 18.09.852l4.037.309v5.806l-15.234.039c-8.377.039-17.48-.116-20.221-.348-2.744-.232-9.14-.543-14.244-.697l-9.218-.27.345-3.718Zm59.677 22.376-.152 1.394-23.08.077c-12.68.039-23.841-.077-24.754-.232-4.266-.813-7.39-2.091-9.218-3.833-1.712-1.626-1.902-2.091-2.283-5.11-.229-1.897-.19-3.522.036-3.755.877-.929 11.997-1.471 18.358-.89 3.427.31 7.96.542 10.091.542 4.42 0 14.663 1.084 20.605 2.206 2.247.387 5.332.891 6.931 1.084l2.857.349.38 3.367c.191 1.859.306 4.026.229 4.801Zm1.867-37.085c-.687.736-1.561 2.129-1.98 3.135l-.764 1.82h-3.73c-2.019 0-3.847-.116-4.001-.31-.151-.155-10.091-.271-22.088-.232-18.851.039-27.307-.271-28.068-1.046-.114-.116 0-1.392.19-2.825l.38-2.593 7.58.037c4.188 0 14.663.195 23.27.426 11.463.31 17.214.234 21.67-.192 4.455-.465 6.361-.465 7.389-.078l1.37.541-1.218 1.317Zm42.502 39.794-16.529-.077c-9.102-.039-17.558-.194-18.813-.271l-2.286-.194v-15.91c0-13.935.114-16.142.8-17.651.458-.93 1.142-1.781 1.561-1.898 3.124-.928 11.464-2.748 14.663-3.212 4.874-.697 12.721-.426 14.662.542 1.561.774 1.371 0 3.086 12.31.493 3.716 1.37 9.715 1.866 13.315.532 3.563.99 7.976.99 9.795v3.251Zm2.322-37.742-.684-1.665c-.381-.891-.877-1.781-1.144-1.975-1.257-.773-.229-1.199 2.895-1.199 1.866 0 4.571-.311 6.055-.696 4.99-1.317 12.606-2.209 18.625-2.209 3.311 0 7.996-.346 10.397-.773 2.399-.387 4.836-.657 5.407-.58 1.219.154 1.715 1.471 1.789 4.839.039 2.593.61 2.283-6.17 3.522-3.16.581-7.883.736-20.641.736h-16.529Zm43.531 21.638c-.039 1.665-.342 3.794-.61 4.723-.532 1.549-.912 1.781-5.635 3.639-7.274 2.864-14.473 4.607-27.192 6.504-6.019.928-6.209.928-6.513.115-.115-.347-.154-2.709-.077-5.186l.116-4.568 3.808-.31c3.311-.232 9.939-1.82 13.747-3.29.687-.271 3.199-.813 5.636-1.239 2.437-.426 6.476-1.277 8.95-1.935 2.476-.62 5.258-1.201 6.17-1.317l1.677-.155-.077 3.019Zm.686-13.083-.115 3.755-2.171.541c-9.978 2.594-15.804 3.446-27.61 4.065-4.875.271-9.179.58-9.598.774-.494.194-.951-.039-1.257-.58-.381-.774-1.523-6.93-1.523-8.362 0-.348 2.286-.541 6.552-.541 3.617 0 7.883-.194 9.482-.465 1.599-.271 6.093-.697 9.978-.968 3.923-.271 9.025-.813 11.387-1.2 2.361-.388 4.456-.696 4.646-.736.229 0 .304 1.665.229 3.717Zm-7.618-64.723c-13.1 3.521-19.954 4.373-35.036 4.412-5.674.038-13.406.27-17.216.503-3.808.272-9.901.542-13.557.658-9.711.231-49.092-.581-55.49-1.161-3.007-.272-9.33-.619-14.014-.814-4.723-.154-8.837-.501-9.179-.773-.38-.311-.61-1.819-.61-4.336v-3.87l10.36.231c5.713.116 15.92.504 22.736.814 13.902.696 43.988.386 49.74-.464 1.98-.311 5.178-.815 7.158-1.2 12.531-2.324 14.282-2.401 38.923-1.744 16.566.427 23.307.776 23.536 1.164.19.308.38 1.392.38 2.398 0 2.13.152 2.053-7.731 4.182Zm-214.13-39.297c-.94-.956-1.173-.908-4.088.429-1.738.811-4.556 2.292-6.341 3.343-1.785 1.05-6.672 3.485-10.853 5.395-7.613 3.439-7.707 3.487-13.249 3.487-5.498 0-5.592-.048-9.068-2.387-8.364-5.636-12.076-8.74-12.076-10.173 0-.86 4.981-7.64 9.304-12.703 3.006-3.533 9.865-8.93 10.477-8.309.14.19-.424 4.918-1.27 10.554-.845 5.636-1.454 11.176-1.36 12.368.234 2.293 1.785 3.916 2.818 2.866 1.879-1.91 7.047-22.397 7.047-27.888 0-2.39 4.136-6.019 5.12-4.49.282.43 1.788 4.774 3.43 9.695 2.445 7.45 3.148 8.979 4.136 9.12.705.143 1.55-.19 1.972-.717 1.033-1.24-.515-10.696-3.006-18.48l-1.878-5.875 2.018-1.765c1.127-.956 3.666-2.531 5.686-3.485 3.618-1.72 5.027-3.632 3.994-5.301-.8-1.337-4.557-.624-8.974 1.765-2.443 1.291-4.745 2.387-5.12 2.387-.376 0-2.163-2.242-3.994-4.966-1.833-2.722-6.014-8.02-9.35-11.749-8.128-9.07-11.794-13.894-14.284-18.67-1.127-2.197-2.349-4.155-2.676-4.345-.754-.48-2.303.763-2.303 1.862 0 1.958 4.557 9.98 8.41 14.756 2.3 2.912 5.215 6.496 6.436 8.071 2.724 3.437 4.275 8.31 4.839 15.137.611 7.833.282 8.931-3.382 10.795-3.43 1.718-11.558 4.39-15.13 4.964-2.16.383-2.536.19-8.314-4.583-7.377-6.017-8.552-6.734-14-8.596-6.202-2.15-10.807-2.054-13.909.238-1.315.956-2.912 2.483-3.524 3.437-2.208 3.297-8.502 20.393-8.644 23.497-.048 1.192.234 1.482 1.409 1.482 1.315 0 1.691-.576 3.384-5.066 3.242-8.69 6.671-14.706 9.725-16.999 2.349-1.767 8.975-1.72 12.92.094 2.96 1.385 10.946 8.216 10.946 9.41 0 .38-1.785 1.147-4.039 1.766-7.565 1.958-15.318 6.495-18.324 10.65-3.102 4.297-4.463 8.167-6.341 18.052-2.539 13.562-4.466 19.147-9.35 27.601-3.384 5.874-4.229 8.502-4.229 13.704 0 3.632.376 5.255 1.972 9.314 1.082 2.673 3.009 8.261 4.23 12.367 1.221 4.061 2.866 8.598 3.663 9.983 1.927 3.437 1.505 4.774-2.912 8.594-6.907 6.066-10.055 9.17-13.155 13.086-4.933 6.304-13.719 19.245-13.719 20.296-.048.954 1.082 2.339 1.785 2.339.236 0 1.597-1.242 3.054-2.77l2.632-2.816 1.643 2.673c.894 1.434 2.678 4.919 3.899 7.689 3.102 6.924 3.054 6.829 4.511 7.068 1.034.143 1.221-.096 1.221-1.672 0-1.003-.657-3.486-1.457-5.491-1.69-4.252-1.736-4.775-.609-4.298.47.143 1.409 0 2.066-.383 1.739-.907 2.303-.334 6.296 6.209 1.785 3.008 3.806 6.064 4.511 6.781 1.363 1.576 3.476 1.576 3.806 0 .094-.574-.612-2.15-1.503-3.581-.939-1.386-2.96-4.919-4.511-7.832l-2.772-5.253 2.49-3.392c1.363-1.862 4.699-5.873 7.423-8.881 3.899-4.298 5.826-5.969 8.738-7.451 5.029-2.482 6.062-3.915 6.062-8.26 0-3.344-1.645-9.743-8.598-33.093-1.503-5.065-2.818-10.747-3.006-12.991-.282-3.917-.188-4.155 2.348-8.642 3.76-6.592 9.444-14.518 13.955-19.485 2.112-2.341 4.933-5.587 6.202-7.162a310.795 310.795 0 0 1 3.85-4.682l1.504-1.814 6.108 3.723c3.384 2.103 7.846 4.921 9.961 6.354 4.463 3.056 6.578 3.292 12.404 1.385 4.65-1.481 30.443-14.853 31.288-16.238.472-.812.378-1.289-.375-2.052Zm-85.79 78.413c2.35 7.259 4.275 13.656 4.275 14.182 0 2.102-1.831 4.441-4.885 6.209-3.242 1.862-6.577 5.444-17.43 18.814-3.054 3.773-5.732 6.925-5.92 6.925-.236 0-.8-1.002-1.269-2.196-.518-1.242-1.315-3.247-1.833-4.441-.891-2.199-.891-2.199 1.221-5.398 4.841-7.163 9.256-11.938 15.082-16.188 6.765-4.967 8.035-6.448 8.41-10.029.234-2.1-.048-3.341-1.457-6.209-2.066-4.107-6.014-16.857-6.014-19.338 0-1.385.33-1.768 1.645-2.009 2.161-.428 2.255-.332 3.102 3.298.422 1.719 2.676 9.072 5.073 16.38Zm889.934 60.802c-1.375-.581-3.196-3.522-3.872-6.208-.658-2.581-.429-5.193.985-11.837.315-1.611.847-5.25 1.112-8.085.475-4.901.427-5.655-.896-14.008l-1.387-8.778-2.936-6.609c-2.623-5.971-2.981-7.11-3.709-11.713-.869-5.267-.819-5.638.581-16.416.301-2.153 1.124-5.983 1.84-8.456 1.24-4.114 1.298-4.884.881-8.411-.39-3.603-.573-4.079-2.314-6.743-1.036-1.578-2.361-3.182-2.956-3.56-.674-.438-2.581-.754-5.231-.807-4.549-.113-4.747-.009-7.305 2.789-1.888 2.04-4.263 3.505-8.261 5.08-4.33 1.736-6.486 1.642-15.159-.615-9.855-2.504-10.065-2.471-11.433 1.735-.508 1.531-1.787 4.055-2.897 5.611-1.982 2.816-2.936 3.548-7.582 5.769-1.756.859-1.932 1.105-3.037 4.725-2.148 6.944-4.319 10.154-7.548 11.171-3.23 1.018-9.071-.706-10.79-3.228-1.915-2.854-4.432-9.058-5.701-14.154-1.554-6.212-1.467-7.931.694-13.678 1.536-4.051 3.932-7.623 9.45-14.266 4.076-4.925 6.25-8.097 8.953-13.35.763-1.5 2.757-4.682 4.378-7.078 2.467-3.582 3.276-5.234 4.49-9.307 1.476-4.877 1.64-6.32.761-6.688-.231-.108-2.669 1.402-5.441 3.292-5.942 4.167-7.57 4.933-11.871 5.723-2.984.544-3.64.465-7.088-.585-4.683-1.4-7.127-3.08-7.007-4.805.154-1.73 1.66-2.148 5.976-1.708 3.629.371 6.599.19 7.037-.421.111-.2-.407-1.207-1.187-2.317-1.657-2.35-1.816-2.905-.923-4.027.981-1.243 1.771-1.224 4.511.087 1.347.62 2.539.939 2.645.705.101-.27-.055-1.262-.388-2.225-.426-1.347-.416-1.965.039-2.69.778-1.176 1.568-1.373 3.379-.752 2.269.802 3.473.284 6.83-2.859 3.883-3.66 12.132-14.47 13.664-17.868.922-2.07 1.074-3.146.936-6.498-.344-6.91.116-7.382 6.629-7.288.713-.003 1.086-.571 1.715-2.703.435-1.52.804-3.935.828-5.354.055-4.398.116-4.696 1.151-5.368 1.677-1.137 3.131-.06 4.839 3.514 1.553 3.273 2.179 4.082 3.051 3.942.313-.048 2.197-2.124 4.201-4.58 4.395-5.376 5.568-6.323 7.095-5.911 1.684.496 2.026 1.965 1.238 5.57-.84 3.943-1.351 5.003-4.684 10.321-1.424 2.293-2.508 4.46-2.447 4.848.067.424.701 1.267 1.404 1.881 1.459 1.33 1.811 2.655 1.084 4.148-.535 1.137-9.239 9.516-13.001 12.577-1.241.959-3.524 2.553-5.049 3.519-1.558.97-4.214 2.916-5.92 4.31-2.553 2.144-2.943 2.604-2.203 2.778 1.743.414 18.901-2.59 24.489-4.27 8.962-2.688 13.321-5.59 25.458-16.87 9.296-8.69 9.296-8.69 16.269-9.973 8.567-1.573 10.718-1.296 20.951 2.71 12.226 4.85 14.068 4.995 28.473 2.425 13.054-2.317 12.618-2.139 24.588-9.511 4.719-2.888 11.874-6.847 15.949-8.834l7.426-3.606 6.999-1.105c8.6-1.361 13.379-1.39 19.082-.08 10.968 2.546 16.04 5.952 22.488 15.128 1.939 2.777 2.575 4.092 3.078 6.37 1.221 5.468.727 10.696-1.753 18.49-.721 2.218-1.409 5.082-1.561 6.378-.123 1.252-.715 4.501-1.282 7.24-2.015 9.607-2.092 15.207-.481 25.616 1.257 7.965 2.784 13.093 5.872 19.533 6.922 14.651 6.659 13.895 6.936 19.039.239 5.113-1.206 23.516-2.384 30.053-.426 2.281-1.231 6-1.804 8.23-.571 2.266-1.332 5.58-1.691 7.377-1.423 6.793-2.921 9.061-5.578 8.284-.71-.214-1.768-1.026-2.327-1.845-.907-1.236-1.134-2.215-1.95-8.725-.533-4.051-.916-9.178-.916-11.428.037-2.257.068-5.453.053-7.119.022-1.674.386-4.343.846-5.94.759-2.659 4.094-9.099 5.571-10.821 1.418-1.638-.653-6.606-4.526-11.002-1.168-1.303-4.834-5.075-8.179-8.393-3.343-3.317-7.148-7.286-8.461-8.82l-2.409-2.811-.419-3.779c-.842-7.813-2.02-14.593-2.663-15.036-.733-.571-5.015 2.825-9.044 7.127-3.724 4-7.361 7.403-9.726 9.157-2.945 2.136-10.688 6.662-15.922 9.229-4.53 2.276-4.598 2.288-13.235 3.654-8.74 1.382-9.239 1.387-17.562.672-3.146-.263-3.668-.181-5.773.732-3.64 1.589-10.651 3.752-15.899 4.872-5.799 1.243-10.216 1.072-13.008-.556-2.432-1.392-3.815-1.101-5.381 1.18-.667.975-2.733 3.261-4.527 4.995-7.313 7.033-8.534 8.569-10.304 12.948-1.563 3.875-2.83 9.41-3.822 16.676-.429 2.934-.248 4.757 1.688 19.035 2.678 19.42 3.844 30.846 3.618 34.836-.364 6.043-2.556 12.956-4.771 14.975-1.246 1.141-3.599 1.84-4.63 1.422Zm-959.181-1.99c-.575-.344-1.897-.619-2.88-.619-2.64-.034-3.319-.585-4.74-3.717-1.592-3.615-4.335-7.504-7.416-10.499-1.356-1.308-3.86-4.165-5.623-6.368-3.115-3.959-8.228-8.262-9.82-8.262-1.084 0-7.789-2.409-9.145-3.269-6.874-4.407-12.969-9.914-14.932-13.357-.407-.756-.542-.756-2.541.379-1.862 1.067-2.508 1.205-6.029 1.205-4.809 0-10.361-.723-13.511-1.721-1.253-.413-5.995-2.478-10.499-4.579-7.654-3.545-8.331-3.957-10.159-6.127-1.084-1.274-3.453-3.786-5.25-5.609-5.248-5.267-12.158-15.766-17.78-27.057-.879-1.722-1.625-2.685-2.064-2.685-.847 0-1.05.585-1.423 3.649-.169 1.206-.744 3.581-1.354 5.267-1.05 3.133-2.406 4.786-4.675 5.852-.541.241-.982.619-.982.894 0 .241.983 2.03 2.134 3.96 2.878 4.783 5.453 13.044 6.334 20.411.744 5.92 1.556 8.881 3.386 12.047 1.93 3.34 3.623 7.264 5.757 13.322 2.336 6.781 5.486 14.009 7.382 17.073.949 1.48 1.693 3.167 1.693 3.718 0 1.445-1.014 2.168-2.438 1.824-3.046-.757-3.487-.757-4.978.173-1.387.894-1.558.894-2.471.309-.848-.585-1.118-1.342-1.729-5.335-1.048-6.919-2.946-13.012-5.993-19.277-3.995-8.157-6.266-11.393-14.224-20.342-3.42-3.856-5.419-8.194-5.419-11.773-.034-5.404-2.165-9.672-9.278-18.658-3.726-4.68-5.758-7.572-8.162-11.599-4.164-6.918-3.928-6.125-3.928-13.355 0-7.228.542-9.605 3.521-15.456 1.999-3.923 3.793-5.749 7.789-7.95 2.982-1.655 3.285-1.963 3.285-3.133 0-.689-.371-1.826-.845-2.479-1.017-1.481-5.284-4.337-8.806-5.852-2.777-1.238-3.692-2.546-2.608-3.856 1.356-1.65 8.536.241 12.565 3.304 2.235 1.688 5.316 5.267 6.163 7.127.407.893.745.997 3.387.997 3.555 0 7.822 1.207 10.465 2.926 1.05.725 3.42 2.652 5.281 4.338 1.864 1.686 5.285 4.646 7.587 6.609 2.303 1.929 6.366 5.438 9.075 7.745 7.621 6.506 22.115 16.523 34.34 23.683 9.788 5.713 12.835 6.505 17.17 4.439 2.336-1.135 2.946-1.72 4.538-4.579.609-1.064 2.066-3.268 3.251-4.887 2.539-3.511 4.063-6.746 5.928-12.461.879-2.649 1.929-4.887 2.81-6.024.812-.997 2.303-3.027 3.319-4.578 2.098-3.028 4.097-4.509 9.075-6.643l3.114-1.375 2.847-5.13c2.606-4.749 2.912-5.164 4.063-5.164 1.896 0 2.37 1.378 1.559 4.579-1.084 4.405-.643 4.164 5.52-3.167 5.383-6.438 6.062-7.402 7.789-11.703 1.387-3.408 1.421-3.582 1.421-10.12 0-4.338-.236-7.609-.643-9.329-.744-3.34-4.776-13.632-6.739-17.418-2.201-4.164-6.265-8.02-14.191-13.458-8.601-5.887-12.192-6.92-24.347-6.92h-7.621l-8.499 2.893c-8.94 3.03-10.229 3.716-17.375 9.431-3.723 2.96-5.823 6.024-7.382 10.704-.643 1.962-.845 3.684-.845 7.745 0 4.649.168 5.886 1.522 10.88 1.761 6.606 3.285 9.706 6.301 12.836 3.588 3.753 7.449 5.475 16.254 7.231 6.096 1.238 9.042 1.134 14.427-.448 5.52-1.619 7.315-2.753 8.736-5.576 2.237-4.51 2.473-14.183.474-18.622-1.626-3.649-4.74-7.746-7.652-10.053-1.389-1.135-3.591-2.994-4.877-4.164-1.286-1.135-3.861-3.168-5.689-4.475-4.641-3.339-5.893-5.576-4.099-7.435 1.525-1.515 4.268-1.17 7.789 1.067 2.71 1.686 3.218 1.859 4.945 1.652 2.302-.241 2.743.173 3.083 2.856.303 2.445 1.996 4.27 4.333 4.615 2.304.378 3.015 1.134 3.318 3.613.306 2.203 1.592 3.89 5.217 6.746 1.727 1.344 2.033 2.34 1.219 3.926-.61 1.17-.61 1.445.034 2.926.373.927.847 2.683 1.016 3.923.202 1.412.845 3.131 1.659 4.442 1.287 2.03 1.32 2.167.677 3.164-.339.586-1.084 1.103-1.592 1.17-1.387.208-2.302 4.579-1.421 6.817.879 2.375-.137 3.856-2.642 3.856-1.761.033-4.301 2.582-5.352 5.368-.946 2.479-2.268 2.96-4.164 1.515-1.286-.963-1.322-.963-3.658-.207-3.013.93-4.299 1.756-4.299 2.755 0 .964-1.289 2.202-2.305 2.202-.405 0-1.59-.793-2.606-1.72-1.66-1.585-2.033-1.722-4.167-1.722-1.828 0-2.743.277-4.403 1.274-3.217 2.03-4.096 1.79-4.911-1.411-.37-1.515-.676-1.79-2.81-2.65-2.336-.963-2.37-.963-4.808-.207-3.692 1.171-5.351.104-4.674-2.994.238-1.103.067-1.343-1.66-2.377-1.084-.619-2.235-1.582-2.572-2.134-.407-.619-1.39-1.204-2.474-1.481-2.572-.652-3.114-1.994-1.861-4.61.845-1.79.881-2.066.305-3.1-.373-.688-1.356-1.444-2.372-1.823-3.251-1.24-3.757-2.237-2.269-4.508.61-.964.848-2.033.848-4.133 0-2.616-.067-2.89-1.084-3.338-.575-.275-1.356-.516-1.659-.516-.576 0-1.932-1.548-1.932-2.203 0-.171.882-1.308 1.898-2.479 1.794-2.064 2.606-4.164 2.303-5.852-.169-.826-.61-1.135-2.811-1.96-3.488-1.309-2.336-4.717 1.592-4.717 1.252 0 2.946-1.377 2.946-2.374 0-.277.71-1.55 1.524-2.756 2.404-3.545 2.606-4.475 1.286-6.057-1.32-1.619-1.389-2.72-.202-3.58.643-.48 1.185-.517 2.064-.206 1.255.448 2.642-.241 6.402-3.167 1.491-1.17 1.558-1.274 1.117-2.72-.407-1.24-.339-1.618.304-2.34.982-1.101 1.864-1.101 4.47.033l2.1.896 3.083-1.24c3.013-1.238 3.047-1.274 3.555-3.338.78-3.098 1.999-3.616 3.759-1.686l1.051 1.136 3.046-.688c1.693-.38 3.692-.827 4.437-.966 1.117-.205 1.389-.446 1.389-1.342 0-2.892 1.862-3.511 4.437-1.445.879.723 1.626 1.308 1.659 1.342.034 0 2.606.103 5.757.24l5.722.241.848-1.652c1.491-2.926 4.436-2.34 4.436.896 0 1.96.407 2.341 3.726 3.51 1.693.587 3.724 1.48 4.538 1.962l1.488.896 2.134-1.411c1.794-1.17 2.336-1.342 3.285-1 .848.277 1.151.725 1.219 1.653.441 4.855.339 4.715 3.557 6.505 1.66.896 3.555 2.377 4.266 3.27 1.356 1.79 2.268 1.997 5.149 1.171 1.286-.378 1.794-.308 2.64.24 1.322.86 1.288 1.482-.27 4.235-.677 1.274-1.253 2.548-1.253 2.823 0 .277.677 1.584 1.489 2.89l1.491 2.341 2.1-.275c3.555-.481 5.248 1.378 3.454 3.753-1.592 2.064-1.761 2.719-1.084 4.06.373.69.778 2.033.949 2.997l.303 1.722 2.744.204c1.49.104 2.981.379 3.251.552 1.219.792.272 3.512-1.963 5.61-1.763 1.688-1.965 3.374-.915 7.675.915 3.581 1.626 4.648 3.047 4.648 1.016 0 2.032 1.583 1.763 2.686-.138.482-.882 1.137-1.66 1.479-1.592.655-1.999 1.308-3.116 4.889-1.354 4.268-1.424 5.368-.576 7.743.882 2.548.576 3.444-1.39 4.027-2.945.932-3.622 1.344-4.807 2.996-.814 1.101-1.356 2.512-1.525 3.856-.305 2.339-1.185 3.509-2.336 3.131-.441-.137-1.185-.344-1.626-.515-.71-.207-1.016.171-1.895 2.201-1.592 3.652-1.457 4.615 1.048 7.471 2.709 3.064 4.47 5.749 6.808 10.395 1.828 3.615 3.929 6.094 7.484 8.95 2.1 1.686 2.336 3.134.744 4.201-.879.582-1.387.619-3.283.204-1.221-.274-2.88-.859-3.658-1.341-.812-.482-1.491-.793-1.525-.723-.067.07-.27.793-.508 1.619-.304 1.204-.643 1.546-1.592 1.652-1.455.171-2.606-.829-3.249-2.893-.781-2.374-3.692-8.501-4.302-8.949-.306-.241-2.709-.689-5.419-.964-3.218-.378-5.994-.997-8.23-1.823-1.929-.689-3.793-1.137-4.332-1-1.188.275-2.676 3.168-3.895 7.539-.508 1.756-1.288 4.475-1.729 5.99-.439 1.548-1.286 6.298-1.896 10.568-1.423 10.188-1.895 13.389-2.403 15.626-.646 2.96-2.811 7.021-4.844 8.917l-1.828 1.755 1.693 2.339c2.946 3.993 5.925 6.816 10.971 10.293 6.775 4.681 8.027 6.127 10.532 11.91 3.252 7.538 11.414 18.656 16.662 22.649 2.811 2.169 3.456 4.785 1.356 5.611-.915.379-1.084.344-2.303-.379Zm-67.866-152.006c-1.187-.759-2.846-3.649-2.846-5.026 0-1.72 1.12-4.268 2.574-5.954 1.525-1.722 1.66-1.79 4.133-1.79 2.438 0 2.674.102 4.299 1.686 2.033 2.03 2.71 3.924 2.474 6.746-.239 2.375-1.151 3.65-3.184 4.509-1.929.86-5.995.759-7.45-.17Zm-350.07-16.12c-6.131-3.603-7.771-4.723-10.217-7.083l-2.473-2.324-.515-3.447c-.319-1.915-1.256-7.093-2.113-11.52-1.467-7.627-1.604-8.107-2.599-8.853-1.179-.889-2.612-.84-3.583.1-1.08 1.094-1.23 4.907-.495 12.012.481 4.316.589 7.225.354 8.059-.347 1.182-.499.607-1.743-6.19-.777-4.107-1.488-7.989-1.612-8.603-.507-2.517-3.574-3.124-5.355-1.029-.893 1.031-.93 1.436-.611 5.545.2 2.43.328 6.134.25 8.24-.143 5.606-1.278 15.086-1.955 16.252-.235.4-1.847.775-5.59 1.334-4.959.74-5.449.746-9.035-.048-5.066-1.07-10.853-2.799-10.921-3.254-.238-1.594 2.09-8.126 2.954-8.256.224-.034.949.224 1.625.59 2.092 1.084 13.828 5.414 14.435 5.322 1.056-.156 2.149-1.816 1.979-2.955-.252-1.69-1.835-2.652-7.997-4.923-7.755-2.863-7.455-2.608-6.692-6.48.561-2.81.556-3.939-.105-9.459-1.414-12.09-4.447-17.722-7.676-14.381l-.971.944 1.279 7.688c.966 5.807 1.193 8.2.992 9.925-.145 1.219-.331 2.377-.445 2.493-.19.263-.871-.135-5.84-3.182-1.482-.944-3.665-1.98-4.835-2.37-1.198-.354-4.424-1.367-7.2-2.215-2.781-.882-5.203-1.551-5.396-1.523-1.727.258-.749-4.142 1.619-7.555 2.265-3.23 2.912-5.689 2.378-9.265-.282-1.886-.581-2.572-1.74-3.762-1.898-1.978-4.026-2.426-8.313-1.785-4.063.607-5.393 1.34-7.042 3.878-1.567 2.43-1.62 4.699-.113 8.66 1.415 3.78 1.344 5.054-.537 7.13-1.093 1.228-1.51 2.155-1.636 3.504-.153 1.385-.575 2.279-1.808 3.66-.897.998-2.094 2.84-2.623 4.117-1.176 2.635-2.365 3.875-3.964 4.116-1.184.176-3.528 1.125-5.245 2.112-1.325.764-1.937 2.582-1.611 4.762.219 1.464.51 1.886 2.201 3.13 1.096.767 2.519 1.752 3.236 2.176 1.477.91 1.581 1.825.664 6.85-1.105 6.182-2.083 14.74-2.217 19.315-.069 2.604-.189 6.178-.242 8.016-.109 4.304-.749 5.93-2.485 6.353-1.479.388-10.582-.546-21.827-2.256-6.792-1.014-17.438-2.216-21.623-2.421-.042-.002-.085-.005-.127-.005v58.281c.159.917.323 1.929.48 2.979 1.025 6.862 1.04 6.958.282 13.056a594.942 594.942 0 0 1-.762 6.043v54.533c.482.267 1.021.54 1.629.834 4.164 2.038 5.045 2.239 6.498 1.457 2.123-1.115 2.376-3.58.864-8.009-.404-1.169-1.465-4.768-2.403-7.985l-1.689-5.832.483-3.331c.557-3.939 1.247-7.202 2.898-13.665.654-2.625 1.288-5.612 1.425-6.663.137-1.051.456-2.861.733-4.068 1.702-7.001 2.477-12.105 3.328-22.172.276-2.967.532-5.631.584-5.939.07-.41.459-.434 1.703.012 5.545 1.864 22.759 5.209 27.291 5.332.883 0 3.715.342 6.226.732 5.926.911 8.811 1.176 12.866 1.168 1.799-.002 4.257.029 5.506.075 1.213.019 5.557-.462 9.621-1.069 4.063-.61 8.443-1.065 9.688-1.05 1.25.045 3.826-.005 5.738-.126l3.44-.18.148 1.206c.07.687-.06 3.102-.31 5.366-.251 2.267-.465 6.52-.491 9.415-.02 2.929-.071 6.527-.108 8.03-.047 2.533-.688 8.314-1.24 11.19-.176.79.616 7.621 2.103 18.237 2.675 19.216 2.519 18.608 6.527 22.231 2.302 2.051 3.879 2.314 5.945 1.041 1.89-1.147 2.36-2.814 1.784-6.451-.389-2.602-.697-3.353-2.525-6.172l-2.114-3.208-.851-5.691c-.51-3.415-.754-6.803-.668-8.412.102-1.511.076-3.436-.019-4.287-.354-2.373.43-11.134 1.953-22.399.216-1.397.705-6.224 1.088-10.67l.753-8.092 2.496-.373c1.344-.2 3.188-.773 4.067-1.238 1.604-.872 2.578-.918 2.242-.101-.099.211-.134 1.946-.049 3.829.238 5.316.224 8.943.013 12.131-.182 2.722-.199 5.017-.123 11.657.044 1.39-.121 4.008-.333 5.868-.213 1.86-.496 5.659-.641 8.407-.235 4.557-.301 6.961-.364 15.082-.05 4.263 1.067 10.646 2.425 13.602 1.676 3.772 3.767 6.386 5.562 7.015 2.975 1.085 7.318-.495 8.034-2.929.409-1.424-.429-3.526-2.38-5.862-2.151-2.571-2.992-5.138-3.613-11.263-.309-2.945-.473-6.013-.398-6.823.071-.841.108-3.44.014-5.82-.151-4.732.368-10.893 2.013-23.307l1.093-8.011-1.696-11.349-1.691-11.317 1.646-4.966c1.601-4.827 2.479-8.584 2.637-11.467.039-.836.429-4.352.879-7.91.455-3.526.791-7.398.772-8.627-.123-4.104.252-6.852 1.603-12.042.753-2.837 1.549-6.05 1.819-7.088 1.924-7.7 2.899-10.805 4.763-15.407 1.17-2.9 2.686-5.887 3.389-6.655 3.023-3.41 7.104-1.493 12.109 5.737 1.961 2.832 2.656 3.326 4.192 3.097 2.016-.3 2.656-1.926 1.615-4.296-.958-2.252-.714-2.587.574-.752 1.205 1.715 2.269 2.488 3.897 2.876 2.907.629 5.229-2.876 3.926-5.908-1.355-3.153-8.03-9.304-13.735-12.676ZM-673.726 56.8c.278-.108 1.919.147 3.584.561 5.885 1.515 11.908 5.27 12.263 7.645.122.812.007 1.36-.281 1.404-.64.096-5.483-1.674-7.782-2.828-2.298-1.15-8.468-6.546-7.784-6.782Zm42.582 33.9c-1.742 5.414-5.558 12.933-8.567 16.873-2.131 2.813-7.605 7.553-10.198 8.803-1.554.766-3.376 1.272-6.101 1.645-3.428.479-4.975.41-13.506-.643-5.296-.638-9.928-1.209-10.3-1.286-.61-.142-.866-1.199-1.964-8.55-1.433-9.593-1.39-10.4.658-22.307 1.246-7.202 4.713-20.12 5.672-20.93.372-.354 1.37.195 3.908 2.076 2.538 1.883 4.46 2.924 7.361 3.955 2.176.77 4.197 1.599 4.465 1.86.337.28.443.996.348 2.109-.061.906-.185 2.919-.287 4.431-.302 4.764-1.837 8.72-5.167 13.139-1.643 2.14-3.547 4.287-4.266 4.728-1.884 1.18-2.558 2.143-2.363 3.444.247 1.659 1.909 2.707 3.502 2.203 2.373-.753 3.916-2.247 7.53-7.177 3.098-4.22 3.824-5.491 4.74-8.555.587-1.982 1.292-3.615 1.515-3.649.256-.038 1.917.345 3.633.887 1.744.503 4.977 1.351 7.183 1.886 3.628.855 4.516.888 8.796.414 5.473-.585 5.186-.973 3.408 4.643Zm136.422 49.636c-10.015-6.383-18.657-10.378-27.621-12.796-2.794-.745-15.552-5.355-21.991-7.951-3.101-1.267-12.103-3.945-12.839-3.834-.256.038-1.916-.347-3.664-.882-1.776-.501-4.189-1.103-5.335-1.332-1.146-.226-2.569-.778-3.127-1.228-1.433-1.048-1.724-2.998-.598-3.998.75-.679 1.106-.698 3.91-.32 3.171.424 17.389 3.853 26.707 6.45 7.748 2.167 15.107 4.79 18.377 6.529.712.393 2.21 1 3.242 1.346 4.026 1.327 12.525 5.675 17.951 9.153 6.158 4 14.003 8.781 16.633 10.183 5.149 2.721 6.18 3.93 4.906 5.684-1 1.411-2.293 1.071-8.107-2.149-3.136-1.724-6.963-3.911-8.444-4.855Zm132.608 72.05c-.982 2.839-4.581 3.942-8.441 2.623-2.069-.721-3.127-1.893-5.097-5.655a108.597 108.597 0 0 0-3.468-6.131c-1.002-1.678-2.317-3.909-2.866-4.956-4.615-8.555-5.954-11.18-7.177-13.89-.778-1.712-1.694-3.239-2.043-3.386-.419-.169-1.24.019-2.338.549l-1.679.816.433 2.462c.236 1.361 1.889 6.069 3.661 10.491 1.768 4.391 3.666 9.427 4.222 11.173 1.14 3.686 1.821 4.747 4.43 6.884 2.309 1.883 2.866 3.861 1.519 5.359-1.122 1.231-2.488 1.302-5.648.279-4.571-1.478-7.066-5.029-8.94-12.761-1.134-4.751-2.919-8.374-7.141-14.527-3.562-5.219-4.583-6.363-6.221-6.816-.715-.193-5.744.294-14.53 1.471-9.916 1.284-13.977 1.691-15.448 1.479-1.905-.282-2.098-.253-3.712.985-1.561 1.166-1.736 1.525-2.211 4.254-1.312 7.411-1.698 11.625-1.365 15.165l.325 3.709 2.613 3.698c3.141 4.385 3.728 6.558 2.343 8.461-2.083 2.904-4.718 1.47-13.058-7.059-1.853-1.885-2.17-9.051-.766-18.271.691-4.559.734-6.026.31-8.856-.277-1.855-.763-3.81-1.103-4.323-.561-.916-1.693-1.477-2.023-1.062-.298.409-.368 3.446-.301 11.117.041 4.215-.079 9.753-.255 12.306-.455 6.151.046 8.404 2.271 10.166 3.526 2.798 4.379 4.998 2.854 7.287-.696 1.034-1.151 1.269-3.037 1.551-4.769.712-7.77-1.865-9.846-8.537-1.187-3.778-1.346-9.007-.633-20.22.188-2.685.192-7.242.021-10.142l-.301-5.308-2.454-1.527c-6.317-3.979-8.309-6.142-10.491-11.335-.665-1.594-1.421-2.945-1.725-3.001-.78-.183-7.798 7.351-10.681 11.472-1.426 2.074-2.968 3.801-3.582 4.058-1.633.677-3.022.352-3.94-.973-1.24-1.743-.843-3.897 1.163-6.226.899-.997 3.179-3.899 5.116-6.481 1.972-2.558 4.516-5.462 5.684-6.402 5.6-4.561 5.987-5.016 9.8-11.905 1.698-3.078 2.442-4.019 4.138-5.139 1.134-.735 2.943-1.537 4.017-1.797 2.878-.662 8.384.511 15.2 3.215 6.467 2.558 9.937 3.468 17.023 4.473 8.189 1.17 14.974 1.052 23.781-.429 7.019-1.18 7.522-1.322 8.825-2.449 2.117-1.812 2.421-2.854 1.98-7.11-.316-3.211-.614-4.331-1.968-7.486-1.284-2.902-1.77-4.624-2.261-7.909-1.084-7.252-3.314-11.007-8.146-13.577-2.883-1.563-5.094-2.131-10.046-2.654-3.591-.395-4.988-.32-10.939.568-6.402.925-11.92 1.217-16.623.822-3.871-.287-10.424-1.467-12.835-2.271-1.308-.436-4.07-1.188-6.106-1.682-3.261-.809-4.971-1.517-10.517-4.279-3.784-1.896-13.469-8.261-14.324-9.396-.746-1.052.13-2.847 1.474-3.047 1.313-.197 2.313.152 8.654 3.197 9.54 4.523 30.108 10.826 36.192 11.05 3.618.122 13.09-1.06 13.36-1.665.137-.387-3.36-1.459-13.649-4.212-9.605-2.553-17.09-6.024-24.041-11.168-9.567-7.117-14.027-13.1-11.248-15.077.472-.337 1.26-.554 1.722-.523 1.301.171 5.819 3.485 10.468 7.678 7.15 6.48 15.939 10.785 29.224 14.319 4.458 1.163 6.662 1.466 6.57.847-.098-.65-5.896-6.832-8.67-9.212-6.604-5.662-21.13-15.759-26.026-18.088-2.498-1.187-2.37-4.265.221-4.653 1.857-.277 8.618 2.072 14.01 4.89 6.07 3.181 16.963 12.16 20.887 17.191 2.435 3.163 7.179 8.203 7.437 7.967.405-.36-.975-4.776-2.777-8.962-2.247-5.183-5.009-9.657-8.299-13.29a403.3 403.3 0 0 1-5.658-6.567c-2.553-3.076-2.856-3.563-2.575-4.536.745-2.67 2.488-2.167 7.216 2.113 4.504 4.082 7.727 7.923 11.108 13.27 4.34 6.932 6.32 11.421 8.659 19.851 1.397 4.978 3.015 6.397 12.603 11.016 4.687 2.26 4.656 2.264 3.989-2.425-.376-2.736-.511-2.982-3.531-6.984-1.749-2.3-7.084-8.885-11.874-14.685-9.617-11.597-12.464-15.325-15.236-19.865-3.524-5.858-8.114-16.874-7.885-19.07.108-1.246 1.146-1.966 2.488-1.735.908.164 1.731 1.303 6.454 9.042 2.214 3.66 6.024 9.01 11.221 15.778 1.296 1.669 4.01 5.388 6.072 8.237 2.033 2.888 4.155 5.696 4.694 6.247 1.012 1.08 4.242 2.99 4.914 2.89.927-.14-.81-3.003-5.241-8.593-5.851-7.404-7.385-9.569-12.421-17.892-4.518-7.472-4.648-7.683-7.478-13.71-2.3-4.88-2.601-6.028-1.811-7.078.619-.891 2.177-1.19 2.861-.561.299.255 1.698 2.606 3.133 5.216 2.801 5.17 6.048 10.037 9.446 14.182 3.396 4.113 12.211 16.262 13.377 18.384a74.924 74.924 0 0 0 2.428 3.99l1.361 2.093-.28-2.519c-.221-2.363-.455-2.825-3.049-6.626-4.834-6.958-12.411-20.888-15.27-27.974-.944-2.385-2.256-5.48-2.924-6.876-1.883-4.075-1.806-5.516.403-5.846 1.375-.207 2.211.566 3.774 3.591.732 1.388 2.322 4.143 3.564 6.118 1.243 1.975 2.471 4.053 2.744 4.576.672 1.43 8.304 13.986 9.491 15.57 1.106 1.499 6.034 9.307 7.238 11.453.489.86 1.026 3.14 1.517 6.424 1.132 7.577 1.082 10.31-.306 15.04-1.938 6.508-1.907 8.464.099 12.92.831 1.837 1.301 2.131 4.853 2.931 3.931.908 9.408 3.415 10.321 4.708 2.521 3.514-.473 6.686-7.289 7.705l-2.367.354.578 2.107c.301 1.152 1.349 3.558 2.307 5.374.92 1.792 2.404 4.927 3.237 6.996 1.421 3.379 1.621 4.28 2.411 10.446.708 5.845.74 7.37.289 11.794-.272 2.768-.45 6.183-.378 7.536.072 1.352-.096 4.172-.371 6.272-.744 6.197-.607 7.107 1.968 11.209 1.207 1.949 3.29 6.026 4.588 9.025 3.911 8.89 7.926 14.741 10.434 15.329 2.738.589 4.072 2.949 3.152 5.548Zm1417.354-49.603c-.62-.639-4.98-2.746-5.53-2.664-.74.111-.99.612-2.11 4.672-.54 1.908-1.32 4.75-1.8 6.385-.45 1.597-.79 3.011-.77 3.141.02.161-.38 1.621-.92 3.261-1.63 5.067-3.43 17.536-3.51 24.232-.02 1.631.8 8.456 1.99 16.392l2.04 13.626 1.69 2.805c2.08 3.414 2.64 6.056 1.7 7.859-1.05 1.984-2.77 2.508-6.45 1.96-1.71-.276-3.44-.683-3.84-.956-1.7-1.108-3.4-4.411-4.91-9.472-1.3-4.56-1.49-5.596-1.74-10.545-.15-3.002-.8-9.987-1.43-15.479-.66-5.52-1.14-11.132-1.12-12.534.03-1.366.04-3.695.04-5.193-.06-4.81.38-10.595 1.04-13.651.88-4.155 2.15-13.155 2.26-15.932.3-7.226.21-8.011-1.56-13.731-1.38-4.446-1.89-6.765-2.61-12.476-.84-6.491-.95-7.006-1.54-6.553-1.12.833-4.44 6.416-5.58 9.313-2.58 6.768-6.11 12.715-8.91 14.995-.79.648-3.16 2.067-5.26 3.112-3.25 1.65-4.53 2.074-8.953 2.902-4.904.899-5.388.937-9.147.301-2.209-.334-4.752-.72-5.686-.845-2.997-.349-4.355-2.442-3.392-5.178.867-2.524 5.041-4.145 11.154-4.393 5.983-.229 10.744-1.007 12.194-1.99 1.34-.929 5.04-6.105 10.32-14.373 3.55-5.583 6.39-8.668 9.91-10.723.9-.501 1.8-1.101 2-1.296 1-.98 6.88-5.151 8.69-6.153 5.53-3.107 15.16-5.116 22.68-4.808v58.281c-.41-2.387-.8-4.145-.94-4.292Zm.94 26.37c-.59 4.502-1.18 8.55-1.78 12.223-.32 1.977-.77 5.136-1.01 7-.21 1.861-.9 6.916-1.49 11.261-1.09 7.642-1.1 7.977-.38 13.855.8 6.738 1.32 8.337 4.66 10.194v-54.533ZM-718.381 250.63c-1.639.018-3.311.032-4.871-.468-4.724-1.514-6.771-6.979-7.825-11.826-.846-3.89-1.464-7.882-1.098-11.846.332-3.58 1.455-7.032 2.573-10.449 1.057-3.229 2.212-6.612 4.73-8.894 1.106-1.002 2.421-1.738 3.724-2.465 6.15-3.432 12.355-6.888 19.077-8.986 6.009-1.876 12.302-2.628 18.554-3.369 1.85-.22 3.799-.427 5.516.298 2.265.954 3.626 3.367 4.073 5.783.447 2.417.146 4.899.015 7.354a53.053 53.053 0 0 0 6.306 27.955c1.156 2.13 2.494 4.297 2.587 6.718.137 3.569-2.593 6.764-5.856 8.217-6.457 2.877-14.653.987-21.564 1.53-8.588.674-17.329.35-25.941.448Zm121.406-6.66c-5.507-4.561-8.776-11.706-8.627-18.854.165-7.871 4.153-15.071 6.603-22.553 3.87-11.814 3.92-24.536 2.933-36.927-.445-5.581-1.08-11.294.372-16.698 1.452-5.405 5.564-10.528 11.108-11.294 2.254-.313 4.537.106 6.773.523 17.844 3.329 35.775 6.681 52.884 12.746 1.206.428 2.463.908 3.288 1.886.884 1.05 1.116 2.492 1.205 3.863.477 7.285-2.063 14.405-2.851 21.664-.788 7.259.833 15.708 7.096 19.461 3.633 2.176 8.205 2.363 11.796 4.608 5.769 3.606 7.264 11.142 10.321 17.219 4.557 9.061 13.352 15.529 22.962 18.776 9.61 3.246 19.998 3.531 30.092 2.539 4.198-.413 8.74-1.227 11.553-4.37 3.23-3.609 3.105-8.978 3.977-13.742.869-4.765 4.279-10.136 9.077-9.476 4.133.569 6.192 5.111 8.473 8.605 4.437 6.799 12.332 11.205 20.448 11.411 4.172.106 9.14-.515 11.756 2.737 2.278 2.832 1.194 7.313-1.448 9.81-2.642 2.496-6.36 3.449-9.942 4.074-8.928 1.558-18.039.552-27.102.639-21.058.201-42.168 1.499-63.122-.614-11.206-1.13-22.35 1.226-33.598.614-13.08-.713-26.19-2.035-39.179-.482-10.302 1.231-20.912 1.371-31.302.056-5.626-.712-11.132-2.566-15.546-6.221Zm372.513 5.924c-13.651.482-21.339-.595-32.103-.482-1.394.015-2.878-1.695-4.065-2.428-.711-.44-1.248-1.109-1.758-1.771a100.275 100.275 0 0 1-11.395-18.61c-.45-.955-.893-1.966-.833-3.02.087-1.493 1.17-2.746 2.375-3.635 5.077-3.756 12.121-2.791 18.29-1.442a272.91 272.91 0 0 1 48.208 15.343c1.647.698 3.331 1.442 4.573 2.724 2.594 2.674 2.392 7.531-.416 9.979-1.597 1.39-3.729 1.967-5.795 2.423a83.043 83.043 0 0 1-22.088 1.835l5.007-.916Zm-115.123 0c-4.429-.267-9.506-1.877-11.96-5.573-1.759-2.651-1.573-6.169-.639-9.21.932-3.042 2.524-5.849 3.452-8.893.987-3.25 1.19-6.679 1.385-10.07.248-4.35.486-8.815-.831-12.968-1.527-4.823-4.998-8.763-7.214-13.308a27.532 27.532 0 0 1-2.75-10.886c-.087-2.074.219-4.453 1.922-5.638 1.433-.997 3.456-.769 4.956.125 1.503.894 2.592 2.331 3.587 3.769 7.62 11.012 12.249 24.151 21.536 33.8 4.584 4.759 10.191 8.539 14.184 13.8 3.547 4.671 12.548 22.97 3.974 24.089-11.077 1.445-21.749 1.557-31.602.963Zm171.522-20.343c-4.838-7.535-10.633-14.434-15.253-22.106-4.619-7.671-8.08-16.414-7.56-25.354.072-1.265.253-2.594 1.024-3.601 1.264-1.655 3.632-1.884 5.715-1.888 7.498-.024 15.277.982 22.278-1.701 2.057-.787 4.032-1.912 5.465-3.586 3.428-4.005 3.628-10.855 8.452-12.984 1.334-.59 2.945-.67 4.227.029.614.335 1.129.831 1.543 1.394 1.477 2.007 1.609 4.658 1.853 7.137a55.985 55.985 0 0 0 2.89 13.061c1.336 3.808 3.104 7.909 1.775 11.719-1.142 3.281-4.268 5.367-7.076 7.412-3.326 2.421-6.515 5.161-8.702 8.646-3.035 4.835-3.909 10.739-3.861 16.448.051 5.71.949 11.38 1.151 17.086.063 1.749-.024 3.711-1.283 4.926-3.197 3.083-5.09-2.669-5.949-4.53-1.932-4.185-4.198-8.231-6.689-12.108Zm628.856 19.219c-3.102.384-6.476.758-9.152-.856-1.529-.922-2.635-2.39-3.688-3.83a323.416 323.416 0 0 1-29.207-48.243c-1.715-3.488-3.406-7.183-3.244-11.067.226-5.463 3.993-10.012 6.799-14.704 9.162-15.316 9.258-35.559 21.32-48.712 2.439-2.659 5.279-4.913 8.107-7.153 7.572-5.999 15.25-12.061 24.082-15.973a57.405 57.405 0 0 1 22.984-4.896c.857-.003 1.811.053 2.411.662.494.503.619 1.257.667 1.958.359 5.243-2.083 10.224-4.46 14.911-4.776 9.405-9.557 18.822-15.008 27.852-8.579 14.212-18.998 27.892-22.538 44.109-1.833 8.398-.853 18.812 6.541 23.196 2.375 1.409 5.152 2.002 7.903 2.251 8.429.763 16.808-1.507 24.971-3.756l22.671-6.246c2.962-.816 5.98-1.64 9.053-1.544 3.071.097 6.262 1.255 8.095 3.724 2.656 3.581 1.749 8.536 1.329 12.975a48.325 48.325 0 0 0 1.344 16.663c1.075 4.119 4.996 13.174 1.354 16.922-2.963 3.046-12.151 3.629-15.783 3.363-14.321-1.05-28.704-1.492-43.044-.723-7.857.422-15.699-1.851-23.507-.883Zm157.269.262c-4.075.269-8.406.074-11.871-2.089-3.466-2.163-5.636-6.85-3.799-10.499 2.168-4.301 7.984-4.781 12.797-4.934 9.882-.313 19.73-1.68 29.323-4.069 1.813-.451 3.649-.953 5.226-1.952 2.264-1.436 3.801-3.773 5.019-6.163a39.077 39.077 0 0 0 4.136-14.843c.274-3.794.002-7.677 1.05-11.335 1.048-3.656 3.88-7.17 7.671-7.493 4.224-.359 7.62 3.146 11.19 5.434 4.882 3.126 10.782 4.142 16.524 4.93 2.753.378 5.583.715 8.278.043 3.249-.809 5.956-2.998 8.471-5.207a150.717 150.717 0 0 0 21.365-23.143c2.13-2.857 4.244-5.87 7.279-7.739 3.034-1.869 7.305-2.271 9.976.09 2.627 2.319 2.818 6.276 2.863 9.783a388.848 388.848 0 0 0 3.673 48.618c.605 4.336 1.284 8.706.961 13.073-.322 4.367-1.753 8.805-4.824 11.925-5.022 5.101-12.965 5.545-20.12 5.655l-115.188-.085Zm225.667-1.082c-7.331-.219-15.13-.655-21.098-4.919-6.07-4.338-9.008-11.774-11.181-18.912a179.732 179.732 0 0 1-5.539-23.973c-.838-5.24-1.421-10.746.361-15.746 2.758-7.748 10.622-12.579 18.526-14.858 7.903-2.28 16.253-2.63 24.191-4.783 6.645-1.799 12.95-4.848 19.735-6.016 6.782-1.166 14.562-.024 19.027 5.217 5.417 6.36 3.998 15.852 5.872 23.995 2.093 9.092 8.56 16.727 16.298 21.942 7.736 5.214 16.703 8.274 25.67 10.856 3.557 1.025 7.191 1.992 10.893 1.95 4.275-.049 8.408-1.437 12.457-2.81 7.755-2.629 16.192-5.809 20.166-12.969 3.114-5.616 2.753-12.483 4.718-18.596 1.337-4.147 4.352-8.316 8.688-8.774 3.714-.395 7.235 2.168 9.117 5.395 1.88 3.228 2.45 7.028 2.98 10.723 1.01 6.946 2.02 13.965 1.43 20.959-.59 6.993 5.05 22.974.17 28.024-5.85 6.066-22.337 3.881-30.745 4.471-36.813 2.583-67.697-.419-101.295-.627a1287.21 1287.21 0 0 1-30.441-.549ZM659.859 55.024a61.77 61.77 0 0 1-9.878-16.941c-.508-1.318-.977-2.722-.768-4.119.441-2.945 3.606-5.852 6.486-6.613 8.269-2.182 17.016-.887 25.547-1.445 7.801-.511 11.973-.482 23.333.004 1.436.06 2.842.617 4.039 1.414 1.325.882 2.283 2.23 2.97 3.668 2.247 4.706 1.734 10.357-.193 15.205-1.929 4.846-5.137 9.056-8.307 13.198-3.451 4.514-6.979 9.1-11.616 12.387-4.475 3.175-13.54 7.019-17.466 1.361-2.064-2.975-3.632-6.098-5.992-8.904-2.64-3.14-5.55-6.045-8.155-9.215ZM-90.045 44.858c-2.136 2.534-5.52 3.548-8.668 4.593-8.577 2.844-16.929 6.912-23.406 13.215-5.12 4.986-8.877 11.166-13.032 16.982-.462.648-1.002 1.34-1.78 1.508-.922.2-1.818-.412-2.505-1.06-3.913-3.68-5.303-9.212-7.061-14.287a77.078 77.078 0 0 0-9.769-19.063c-2.97-4.217-6.549-14.263-6.021-19.395 14.689-3.223 29.711-1.332 44.749-1.445 4.678-.037 18.914-.67 23.456.448 5.46 1.341 10.487 10.86 4.037 18.504Zm-305.412-10.636c.971-1.385 2.483-2.283 3.991-3.05 12.531-6.37 27.209-4.168 41.262-4.062 21.758.161 43.514-1.912 65.272-1.749 1.486.01 3.057.046 4.321.826 3.052 1.891 2.324 6.597.465 9.663-1.994 3.285-4.81 6.012-6.777 9.311-5.47 9.174-3.49 20.75-1.768 31.289.289 1.78.546 3.7-.28 5.3-1.38 2.682-4.959 3.137-7.972 3.192-9.292.171-18.711-.274-27.606-2.967-3.066-.927-6.076-2.122-9.253-2.527-3.177-.404-6.643.094-9.058 2.197-3.44 2.999-3.746 8.112-4.263 12.645a67.73 67.73 0 0 1-2.435 11.815c-.942 3.129-2.327 6.448-5.205 7.994-.79.424-1.72.694-2.589.465-.716-.188-1.306-.689-1.826-1.214-3.747-3.781-5.113-9.232-6.611-14.34-5.689-19.39-15.561-35.6-27.384-51.746-2.486-3.394-5.034-9.119-2.284-13.042Zm-90.39 21.303c-9.027 8.213-16.329 18.129-24.886 26.83-3.541 3.599-7.415 7.064-12.127 8.878-2.856 1.098-5.921 1.549-8.972 1.79-12.717 1-26.102-1.8-36.074-9.755-10.061-8.025-15.643-20.26-20.798-32.054-2.13-4.872-4.268-9.817-5.079-15.072-.433-2.811-.302-6.101 1.876-7.93 1.33-1.117 3.143-1.425 4.867-1.637 5.17-.638 10.387-.773 15.595-.884 35.544-.756 71.111-.438 106.636.95 2.645.103 5.805.532 6.941 2.92 2.327 4.885-6.76 10.186-10.043 12.385-6.231 4.176-12.38 8.524-17.936 13.579ZM548.05 25.67c16.734-.278 33.49-.458 50.202.602 3.418.216 6.941.518 9.962 2.129 3.017 1.613 5.414 4.891 4.932 8.278-.05.368-.152.758-.436.994-.323.27-.785.268-1.206.25-4.812-.182-9.625-.368-14.437-.55-5.831-.225-11.739-.444-17.432.825-4.687 1.043-9.085 3.062-13.543 4.844a142.868 142.868 0 0 1-20.918 6.556c-3.61.833-7.452 1.515-10.961.33-4.241-1.43-7.343-5.73-7.365-10.207-.007-1.431.27-2.85.617-4.24.428-1.724.98-3.453 2.006-4.903 1.57-2.225 4.133-3.593 6.78-4.239 3.815-.932 7.9-.604 11.799-.67Zm508.13 69.118c-.86-.005-20.71.125-39.15-.985-4.5-.272-8.94 1.664-12.98 3.68-3.05 1.52-5.764 3.63-8.457 5.723l-11.554 8.986c-3.836 2.984-8.229 6.134-13.058 5.563-4.186-.496-7.618-3.832-9.323-7.685-1.708-3.856-1.968-8.179-2.007-12.397-.101-10.893 1.106-21.755 2.31-32.584l1.243-11.175c.571-5.152 1.146-10.309 2.134-15.398.679-3.497 1.787-7.295 4.79-9.21 2.19-1.394 4.938-1.48 7.534-1.522l23.028-.376c13.66-.224 27.32-.448 40.98-.67 4.57-.074 9.2-.11 14.51-.11v68.16Zm-1787.445-68.16c3.77.347 7.755 2.197 10.783 4.47 4.185 3.143 5.363 8.998 4.864 14.208-.499 5.21-2.333 10.219-2.889 15.424-.645 6.035.447 12.16-.228 18.193-.676 6.034-3.816 12.47-9.621 14.244-1.457.446-2.991.566-4.51.686-5.727.449-11.527.764-17.314.935v-68.16" fill="#F8F9FA"/></g><defs><clipPath id="a"><path fill="#fff" transform="matrix(1 0 0 -1 0 280)" d="M0 0h250v279.263H0z"/></clipPath></defs></svg>