<svg width="401" height="445" fill="none" xmlns="http://www.w3.org/2000/svg"><g opacity=".15" clip-path="url(#a)"><path d="M1788.44-477.997-275.491 713.615l61.024 105.696c3.221-6.337-12.446-36.003-11.177-40.057 5.98-19.1 36.452-31.192 48.157-12.54 5.445 8.677 8.282 20.836 20.978 18.359 7.838-1.529 15.11-10.58 21.924-14.458-10.591-7.389-25.476-22.48-21.9-36.91 2.799-11.293 18.913-18.103 28.487-22.921 35.408-17.817 18.478 34.302 44.764 28.967 6.588-1.337 20.388-9.666 20.656-16.748.39-10.309-14.464-15.476-13.466-27.447 1.372-16.447 28.673-46.197 45.916-33.729 16.106 11.646 7.837 35.9 34.985 23.11 9.946-4.686 19.004-9.625 15.433-21.651-2.811-9.464-14.51-16.57-13.402-27.521 1.921-18.993 36.079-31.691 49.787-19.953 5.916 5.067 8.226 13.492 16.77 14.995 5.93 1.044 21.575-3.991 22.151-11.299 1.25-15.87-23.814-20.154-7.237-38.452 13.688-15.109 35.932-21.373 47.472-2.943 8.372 13.369 13.953 21.772 31.104 15.025 8.369-3.293 14.242-7.389 12.382-16.679-3.227-16.153-25.313-24.911-8.889-41.924 12.846-13.308 39.472-23.268 49.521-3.525 5.359 10.528 5.74 22.711 20.509 20.092 7.316-1.296 21.471-7.214 23.648-14.801 4.968-17.325-24.584-27.55-8.609-45.759 13.064-14.888 31.978-26.812 46.371-9.439 7.983 9.633 15.118 28.791 30.305 19.308 20.671-12.908-5.704-26.282-5.343-40.986.454-18.362 33.73-30.525 46.373-18.719 8.347 7.797 6.712 21.19 20.91 19.821 8.755-.845 18.318-9.723 25.412-14.295-16.282-21.765-35.45-38.974-2.751-55.442 7.712-3.884 19.629-12.159 28.636-10.388 11.557 2.273 12.008 14.189 19.02 21.3 7.709 7.817 17.119 7.65 26.214.072 11.962-9.965.838-15.243-3.644-25.79-7.058-16.604 19.908-40.257 36.63-40.032 19.688.266 16.835 37.974 40.573 27.999 22.748-9.559-14.575-28.427-9.338-45.108 5.378-17.135 43.1-30.815 55.078-16.596 6.618 7.853 6.899 20.358 18.221 23.959 10.085 3.207 21.876-4.707 30.121-9.467-3.539 1.807-21.924-32.585-21.453-37.927 1.413-16.086 36.853-32.076 50.686-28.378 14.204 3.796 18.377 27.349 32.939 29.14 23.255 2.86 8.37-22.529 2.675-30.135-16.991-22.694 5.421-31.254 25.065-40.095 7.004-3.153 13.42-8.1 20.93-4.34 9.195 4.608 8.61 18.721 15.181 25.201 10.324 10.179 14.654-.922 24.213-5.166 2.693-1.195 7.659.949 9.041-1.423l-.063-.111c3.221-6.337-12.447-36.003-11.177-40.057 5.98-19.1 36.45-31.191 48.158-12.54 5.443 8.678 8.28 20.837 20.977 18.36 7.838-1.53 15.11-10.58 21.923-14.458-10.592-7.39-25.476-22.48-21.9-36.91 2.799-11.293 18.912-18.103 28.488-22.922 35.407-17.816 18.477 34.303 44.764 28.967 6.589-1.337 20.387-9.666 20.657-16.749.389-10.307-14.464-15.475-13.468-27.445 1.372-16.448 28.674-46.198 45.919-33.73 16.1 11.645 7.84 35.9 34.98 23.11 9.95-4.686 19.01-9.625 15.44-21.652-2.81-9.463-14.52-16.568-13.41-27.52 1.93-18.993 36.08-31.69 49.79-19.952 5.92 5.066 8.23 13.492 16.77 14.995 5.93 1.043 21.58-3.992 22.15-11.3 1.25-15.87-23.81-20.154-7.24-38.452 13.69-15.109 35.94-21.372 47.48-2.942 8.37 13.369 13.95 21.771 31.1 15.024 8.37-3.292 14.24-7.389 12.38-16.678-3.22-16.153-25.31-24.912-8.89-41.925 12.85-13.308 39.48-23.268 49.52-3.525 5.36 10.528 5.75 22.711 20.51 20.093 7.32-1.296 21.47-7.215 23.65-14.801 4.97-17.326-24.58-27.55-8.61-45.76 13.07-14.888 31.98-26.811 46.37-9.438 7.99 9.632 15.12 28.79 30.31 19.308 20.67-12.909-5.71-26.282-5.34-40.986.45-18.362 33.73-30.526 46.37-18.72 8.35 7.798 6.71 21.191 20.91 19.821 8.75-.845 18.32-9.722 25.41-14.294-16.28-21.765-35.45-38.974-2.75-55.442 7.71-3.885 19.63-12.16 28.64-10.389 11.55 2.273 12 14.189 19.02 21.301 7.7 7.816 17.11 7.649 26.21.072 11.96-9.965.84-15.243-3.64-25.791-7.06-16.603 19.9-40.256 36.63-40.032 19.68.266 16.83 37.975 40.57 28 22.75-9.559-14.58-28.428-9.34-45.109 5.38-17.135 43.1-30.814 55.08-16.595 6.62 7.853 6.9 20.357 18.22 23.958 10.08 3.207 21.88-4.707 30.12-9.467-3.54 1.807-21.92-32.584-21.45-37.927 1.41-16.085 36.85-32.076 50.68-28.378 14.21 3.796 18.38 27.35 32.94 29.141 23.26 2.859 8.37-22.529 2.68-30.136-16.99-22.693 5.42-31.254 25.06-40.095 7.01-3.153 13.42-8.1 20.93-4.339 9.2 4.607 8.61 18.72 15.18 25.2 10.33 10.18 14.66-.922 24.22-5.166 2.69-1.195 7.66.95 9.04-1.423l-61.09-105.807ZM-209.098 828.61l37.323 64.645L1892.16-298.356l-37.28-64.56c-5.02 10.363-36.07 20.13-45.05 11.575-8.03-7.653-7.83-24.784-21.45-24.998-4.79-.074-26.36 12.165-26.55 16.321-.61 13.083 34.79 26.032 21.03 43.071-7.79 9.737-26.92 22.94-39.84 16.146-12.72-6.691-10.52-29.482-27.08-31.72-7.3-.987-28.24 9.072-31.21 16.309-5.89 14.354 17.98 22.054 19.86 34.521 2.37 15.641-18.44 20.346-29.89 22.977-17.97 4.127-26.61 1.112-36.01-14.841-4.33-7.351-4.85-13.231-14.65-12.093-4.14.48-14.72 7.534-17.59 10.685-12.79 14.038 9.95 21.502 11.15 36.735 1.89 23.991-35.46 24.904-47.72 11.556-5.23-5.697-5.58-15.417-14.37-16.736-5.26-.787-13.09 4.854-16.59 8.699-11.51 12.616.46 14.994 4.36 27.377 4.95 15.729-10.82 24.679-22.96 30.382-14.88 6.991-23.52 7.575-32.93-6.744-8.2-12.47-9.87-21.556-26.21-13.285-12.65 6.4-17.9 14.24-10.1 26.785 8.73 14.026 22.3 21.033 3.7 35.423-8.48 6.557-30.93 18.385-41.8 13.507-10.98-4.929-9.32-24.256-21.55-25.018-15.41-.959-18.04 14.561-12.42 23.92 8.36 13.951 16.38 21.864-.43 33.728-10.39 7.326-23.89 13.065-35.44 5.721-9.94-6.316-15.17-26.263-29-25.168-19.28 1.526-13.26 20.558-8.22 30.45 7.25 14.22 7.81 26.483-6.64 35.399-7.71 4.758-26.72 15.448-36.27 14.082-17.15-2.455-13.93-28.469-30.48-30.746-10.09-1.387-23.07 5.482-21.45 15.535 2.08 12.926 19.75 21.234 14.95 36.331-3.41 10.696-19.23 17.198-28.74 20.277-15.18 4.917-22.84 3.02-31.61-10.305-6.86-10.414-9.6-22.974-23.57-15.949-17.87 8.987-9.07 18.324-2.89 30.373 6.33 12.343-.07 19.775-11.66 25.94-15.52 8.25-28.28 9.603-39.54-4.334-7.88-9.76-22.33-15.782-31.2-.89-6.1 10.246 4.7 17.358 8.72 27.443 5.02 12.583-.31 19.748-10.46 27.816-9.97 7.926-27.89 21.036-41.22 15.16-11.67-5.144-15.444-20.98-21.376-31.04-8.889 5.444-21.049 13.108-20.686 24.891.355 11.469 15.574 18.655 13.143 30.6-3.152 15.482-39.884 34.713-52.889 24.377-8.036-6.387-7.296-17.925-11.87-26.177-5.319-9.6-7.669-6.427-17.817-.87-28.077 15.374 8.138 24.296 6.303 45.083-1.125 12.744-28.193 32.61-40.089 33.004-15.914.526-12.935-15.947-20.06-24.963-7.11-8.998-20.542-8.24-26.5 2.394-5.943 10.609 3.427 17.693 6.74 27.422 1.997 5.86-1.639 12.649-5.892 19.582l.05.086c-5.025 10.363-36.078 20.13-45.053 11.575-8.029-7.654-7.833-24.784-21.452-24.999-4.787-.073-26.359 12.166-26.55 16.322-.603 13.083 34.792 26.031 21.036 43.071-7.797 9.736-26.926 22.939-39.842 16.145-12.72-6.691-10.519-29.481-27.082-31.719-7.303-.987-28.244 9.072-31.214 16.309-5.887 14.353 17.98 22.054 19.865 34.52 2.367 15.642-18.436 20.347-29.892 22.978-17.97 4.126-26.613 1.111-36.01-14.841-4.328-7.351-4.847-13.232-14.647-12.094-4.144.481-14.726 7.535-17.596 10.686-12.788 14.038 9.952 21.502 11.155 36.735 1.893 23.991-35.465 24.903-47.721 11.556-5.23-5.697-5.584-15.418-14.366-16.736-5.261-.788-13.089 4.854-16.597 8.699-11.506 12.616.464 14.994 4.362 27.377 4.953 15.728-10.816 24.679-22.956 30.381-14.886 6.992-23.52 7.575-32.935-6.743-8.201-12.47-9.866-21.556-26.211-13.286-12.648 6.4-17.9 14.24-10.096 26.785 8.729 14.026 22.297 21.034 3.695 35.423-8.477 6.558-30.928 18.386-41.799 13.508-10.977-4.93-9.315-24.256-21.551-25.018-15.407-.96-18.034 14.56-12.417 23.92 8.366 13.95 16.38 21.864-.433 33.728-10.381 7.326-23.887 13.065-35.44 5.721-9.936-6.316-15.171-26.264-28.999-25.169-19.273 1.527-13.254 20.558-8.214 30.451 7.246 14.22 7.805 26.483-6.645 35.399-7.71 4.757-26.713 15.447-36.263 14.082-17.155-2.455-13.931-28.469-30.487-30.746-10.092-1.388-23.07 5.482-21.449 15.535 2.08 12.925 19.752 21.234 14.947 36.331-3.405 10.695-19.226 17.198-28.731 20.276-15.184 4.918-22.844 3.021-31.616-10.304-6.86-10.414-9.595-22.974-23.566-15.949-17.872 8.986-9.069 18.324-2.89 30.373 6.326 12.342-.072 19.774-11.666 25.94-15.513 8.249-28.275 9.603-39.535-4.334-7.885-9.761-22.33-15.781-31.199-.89-6.103 10.246 4.698 17.357 8.72 27.443 5.02 12.582-.312 19.747-10.461 27.817-9.968 7.925-27.89 21.035-41.225 15.158-11.67-5.143-15.44-20.978-21.373-31.038-8.888 5.442-21.048 13.106-20.684 24.889.354 11.47 15.574 18.655 13.141 30.6-3.153 15.483-39.883 34.714-52.889 24.378-8.036-6.387-7.297-17.925-11.869-26.178-5.319-9.6-7.669-6.427-17.817-.87-28.077 15.374 8.138 24.297 6.303 45.083-1.125 12.744-28.193 32.611-40.09 33.004-15.913.527-12.933-15.947-20.058-24.963-7.11-8.998-20.543-8.24-26.501 2.394-5.943 10.609 3.428 17.693 6.741 27.422 1.995 5.861-1.64 12.65-5.893 19.583Zm-359.881-623.332 63.251 109.553c3.221-6.336-12.447-36.004-11.177-40.057 5.98-19.099 36.451-31.191 48.156-12.54 5.447 8.678 8.282 20.837 20.979 18.361 7.837-1.531 15.11-10.581 21.924-14.459-10.592-7.391-25.476-22.479-21.9-36.909 2.798-11.295 18.913-18.104 28.487-22.923 35.408-17.816 18.477 34.302 44.763 28.967 6.589-1.336 20.388-9.666 20.656-16.748.39-10.308-14.464-15.476-13.465-27.446 1.371-16.448 28.672-46.198 45.915-33.73 16.106 11.645 7.838 35.901 34.987 23.111 9.944-4.688 19.003-9.625 15.431-21.652-2.81-9.462-14.51-16.57-13.401-27.52 1.921-18.993 36.078-31.691 49.786-19.953 5.917 5.067 8.228 13.493 16.77 14.993 5.931 1.045 21.575-3.991 22.151-11.299 1.251-15.869-23.813-20.151-7.237-38.45 13.689-15.11 35.933-21.374 47.473-2.943 8.372 13.37 13.953 21.772 31.104 15.025 8.369-3.294 14.241-7.39 12.383-16.678-3.229-16.155-25.315-24.913-8.89-41.925 12.845-13.31 39.471-23.27 49.52-3.526 5.36 10.529 5.74 22.71 20.509 20.092 7.317-1.296 21.473-7.213 23.648-14.802 4.968-17.325-24.583-27.548-8.608-45.757C-22.7-28.825-3.787-40.75 10.607-23.376c7.983 9.632 15.117 28.79 30.304 19.307 20.672-12.908-5.704-26.281-5.343-40.986.455-18.36 33.73-30.526 46.373-18.72 8.348 7.799 6.713 21.192 20.911 19.823 8.755-.846 18.317-9.724 25.411-14.297-16.281-21.762-35.449-38.97-2.749-55.439 7.71-3.887 19.628-12.162 28.634-10.39 11.557 2.273 12.009 14.19 19.02 21.3 7.709 7.816 17.12 7.651 26.215.074 11.961-9.966.838-15.245-3.645-25.792-7.057-16.602 19.908-40.257 36.631-40.031 19.687.265 16.834 37.973 40.573 27.999 22.748-9.56-14.575-28.428-9.338-45.108 5.378-17.136 43.099-30.816 55.077-16.597 6.619 7.854 6.899 20.358 18.221 23.959 10.086 3.208 21.876-4.708 30.121-9.468-3.539 1.808-21.923-32.584-21.453-37.926 1.414-16.084 36.854-32.076 50.685-28.379 14.206 3.797 18.378 27.351 32.94 29.141 23.256 2.86 8.37-22.529 2.676-30.136-16.991-22.692 5.42-31.254 25.065-40.093 7.004-3.153 13.42-8.101 20.929-4.342 9.196 4.609 8.61 18.721 15.181 25.202 10.324 10.18 14.655-.921 24.213-5.167 2.695-1.192 7.66.95 9.042-1.422l-.064-.11c3.222-6.337-12.447-36.004-11.177-40.058 5.981-19.098 36.451-31.19 48.158-12.54 5.444 8.679 8.281 20.837 20.978 18.361 7.838-1.531 15.11-10.58 21.923-14.459-10.593-7.39-25.476-22.479-21.9-36.908 2.798-11.295 18.913-18.104 28.488-22.924 35.407-17.815 18.476 34.303 44.763 28.966 6.59-1.335 20.388-9.664 20.657-16.747.389-10.308-14.465-15.477-13.468-27.445 1.372-16.449 28.674-46.199 45.915-33.73 16.109 11.643 7.841 35.9 34.988 23.111 9.945-4.689 19.005-9.626 15.433-21.653-2.811-9.463-14.512-16.569-13.402-27.521 1.921-18.992 36.078-31.69 49.786-19.952 5.916 5.068 8.227 13.493 16.769 14.994 5.931 1.045 21.575-3.992 22.152-11.3 1.251-15.868-23.813-20.151-7.237-38.45 13.688-15.11 35.932-21.373 47.473-2.942 8.372 13.369 13.952 21.771 31.104 15.024 8.368-3.294 14.241-7.389 12.382-16.678-3.229-16.155-25.314-24.913-8.89-41.925 12.845-13.309 39.472-23.269 49.521-3.526 5.359 10.529 5.74 22.711 20.509 20.092 7.316-1.296 21.468-7.212 23.648-14.801 4.97-17.325-24.583-27.549-8.608-45.758 13.068-14.888 31.978-26.813 46.368-9.438 7.99 9.631 15.12 28.789 30.31 19.306 20.67-12.908-5.71-26.281-5.35-40.986.46-18.36 33.73-30.526 46.38-18.72 8.34 7.799 6.71 21.192 20.91 19.823 8.75-.845 18.31-9.723 25.41-14.296-16.28-21.763-35.45-38.971-2.75-55.44 7.71-3.886 19.63-12.161 28.63-10.39 11.56 2.273 12.01 14.191 19.02 21.301 7.71 7.816 17.12 7.651 26.22.073 11.96-9.966.84-15.244-3.65-25.792-7.05-16.602 19.91-40.257 36.63-40.03 19.69.264 16.84 37.973 40.58 27.999 22.75-9.56-14.58-28.428-9.34-45.109 5.38-17.136 43.1-30.816 55.08-16.596 6.61 7.854 6.9 20.358 18.22 23.959 10.08 3.207 21.87-4.708 30.12-9.469-3.54 1.809-21.92-32.583-21.45-37.926 1.41-16.084 36.85-32.076 50.68-28.379 14.21 3.797 18.38 27.351 32.94 29.141 23.26 2.861 8.37-22.529 2.68-30.135-16.99-22.693 5.42-31.254 25.06-40.094 7.01-3.152 13.42-8.1 20.93-4.341 9.2 4.609 8.61 18.721 15.18 25.201 10.33 10.18 14.66-.921 24.21-5.166 2.7-1.193 7.66.949 9.05-1.423l-63.32-109.663L-568.979 205.278Zm68.619 118.852 35.096 60.787L1598.67-806.694l-35.05-60.702c-5.02 10.364-36.08 20.132-45.05 11.576-8.03-7.655-7.83-24.783-21.45-24.999-4.79-.073-26.36 12.165-26.55 16.322-.61 13.081 34.79 26.032 21.03 43.07-7.79 9.737-26.92 22.939-39.84 16.145-12.72-6.691-10.52-29.482-27.08-31.719-7.31-.987-28.25 9.071-31.21 16.31-5.89 14.353 17.97 22.053 19.86 34.519 2.37 15.643-18.44 20.348-29.89 22.978-17.97 4.126-26.62 1.113-36.01-14.841-4.33-7.35-4.85-13.23-14.65-12.092-4.14.481-14.73 7.534-17.6 10.684-12.78 14.039 9.96 21.502 11.16 36.735 1.89 23.99-35.47 24.904-47.72 11.557-5.23-5.698-5.59-15.418-14.37-16.736-5.26-.789-13.09 4.853-16.59 8.698-11.51 12.616.46 14.995 4.36 27.378 4.95 15.728-10.82 24.679-22.96 30.381-14.88 6.991-23.52 7.574-32.93-6.742-8.2-12.47-9.87-21.559-26.21-13.286-12.65 6.4-17.9 14.239-10.1 26.784 8.73 14.026 22.3 21.034 3.69 35.422-8.47 6.559-30.92 18.388-41.79 13.509-10.98-4.93-9.32-24.257-21.56-25.019-15.4-.96-18.03 14.561-12.41 23.919 8.36 13.952 16.38 21.866-.44 33.731-10.38 7.325-23.88 13.064-35.44 5.719-9.93-6.314-15.17-26.264-28.99-25.168-19.28 1.526-13.26 20.557-8.22 30.449 7.25 14.222 7.81 26.484-6.64 35.399-7.71 4.76-26.717 15.449-36.267 14.083-17.154-2.454-13.931-28.47-30.486-30.744-10.092-1.388-23.07 5.481-21.449 15.535 2.08 12.925 19.752 21.233 14.946 36.329-3.405 10.695-19.226 17.199-28.732 20.276-15.184 4.918-22.843 3.021-31.615-10.304-6.859-10.412-9.595-22.974-23.566-15.95-17.873 8.987-9.069 18.324-2.891 30.373 6.328 12.345-.07 19.777-11.665 25.94-15.513 8.252-28.275 9.603-39.536-4.333-7.885-9.762-22.327-15.781-31.198-.888-6.102 10.245 4.696 17.355 8.721 27.441 5.019 12.582-.314 19.749-10.461 27.816-9.968 7.927-27.889 21.037-41.225 15.161-11.67-5.144-15.44-20.979-21.375-31.041-8.888 5.444-21.047 13.109-20.684 24.891.355 11.47 15.574 18.656 13.143 30.601-3.152 15.48-39.884 34.713-52.89 24.375-8.035-6.386-7.296-17.924-11.87-26.177-5.318-9.599-7.669-6.426-17.816-.868-28.077 15.373 8.138 24.296 6.302 45.081-1.124 12.747-28.192 32.612-40.089 33.005-15.913.528-12.934-15.946-20.06-24.964-7.11-8.998-20.542-8.24-26.499 2.395-5.944 10.608 3.426 17.692 6.739 27.422 1.998 5.862-1.638 12.65-5.891 19.582l.049.086c-5.024 10.364-36.077 20.131-45.052 11.576-8.031-7.655-7.833-24.784-21.453-25-4.786-.073-26.359 12.166-26.549 16.323-.604 13.081 34.791 26.031 21.035 43.069-7.796 9.737-26.926 22.94-39.842 16.145-12.72-6.69-10.519-29.481-27.082-31.718-7.303-.987-28.245 9.071-31.213 16.31-5.888 14.352 17.979 22.052 19.864 34.518 2.368 15.644-18.435 20.349-29.891 22.978-17.971 4.127-26.613 1.114-36.011-14.841-4.328-7.349-4.846-13.229-14.646-12.091-4.144.48-14.727 7.533-17.597 10.684-12.787 14.039 9.952 21.502 11.155 36.735 1.893 23.99-35.464 24.904-47.719 11.557-5.231-5.698-5.586-15.419-14.367-16.737-5.262-.789-13.09 4.853-16.598 8.698-11.505 12.617.465 14.996 4.363 27.378 4.953 15.729-10.816 24.68-22.956 30.382-14.886 6.991-23.521 7.573-32.935-6.743-8.201-12.47-9.867-21.558-26.211-13.285-12.648 6.4-17.9 14.239-10.096 26.784 8.729 14.025 22.297 21.034 3.694 35.422-8.476 6.559-30.927 18.387-41.797 13.509-10.978-4.93-9.317-24.258-21.553-25.02-15.407-.96-18.033 14.562-12.417 23.92 8.366 13.952 16.381 21.866-.432 33.73-10.381 7.326-23.887 13.065-35.44 5.72-9.935-6.315-15.172-26.264-29-25.168-19.273 1.525-13.254 20.557-8.214 30.449 7.246 14.221 7.805 26.484-6.645 35.399-7.71 4.76-26.712 15.448-36.263 14.082-17.154-2.453-13.93-28.469-30.486-30.744-10.091-1.387-23.07 5.482-21.449 15.535 2.08 12.926 19.752 21.234 14.947 36.33-3.406 10.695-19.226 17.198-28.732 20.276-15.184 4.917-22.843 3.021-31.616-10.305-6.859-10.412-9.594-22.973-23.566-15.95-17.872 8.988-9.069 18.325-2.89 30.374 6.327 12.345-.07 19.777-11.666 25.94-15.512 8.251-28.275 9.603-39.535-4.334-7.885-9.761-22.329-15.78-31.198-.888-6.103 10.246 4.697 17.355 8.72 27.442 5.019 12.582-.313 19.748-10.462 27.817-9.967 7.926-27.888 21.036-41.224 15.159-11.67-5.143-15.441-20.978-21.374-31.04-8.888 5.443-21.047 13.109-20.684 24.89.355 11.471 15.574 18.656 13.142 30.602-3.153 15.481-39.883 34.713-52.89 24.375-8.036-6.386-7.296-17.924-11.869-26.177-5.318-9.6-7.668-6.427-17.816-.869-28.077 15.374 8.138 24.296 6.302 45.081-1.124 12.747-28.192 32.613-40.09 33.006-15.912.527-12.932-15.947-20.058-24.965-7.11-8.998-20.543-8.24-26.5 2.395-5.944 10.609 3.427 17.692 6.74 27.422 1.997 5.862-1.639 12.651-5.893 19.583Zm1695.42-517.01c-2.66-.408-6.34-4.249-7.67-7.814-.52-1.413-1.15-8.737-1.47-16.164-.68-18.343.74-24.91 8.47-38.479 9.22-16.216 10.34-22.537 5.41-30.96-2.38-3.997-4.47-4.808-15.38-5.899-10.57-1.136-25.33-5.079-42.11-11.136-7.27-2.669-15.04-5.054-17.26-5.339-5.96-.66-8.65 1.558-16.66 13.872-7.04 10.707-7.36 11.415-7.86 15.889-.84 6.822-3.68 16.148-6.88 22.552-4.13 8.358-5.37 13.846-5.43 24.036-.01 4.327-.8 11.208-1.76 15.271l-1.69 7.388-5.17 2.989c-3.53 2.035-6.12 3.011-8.26 3.123-7.21.358-9.79-4.869-5.44-10.961 3.71-5.275 4.75-10.582 4.43-23.23-.12-6.946.33-14.298 1.22-18.616 1.48-6.975 6.1-19.194 9.76-25.942 3.58-6.396 7.47-16.326 7.92-19.87.64-5.372-1.29-15.078-4.68-23.869-7.04-18.174-7.82-22.575-5.6-30.429 1.49-5.184 1.11-7.501-1.61-9.289-4.85-3.173-10.6-3.213-18.46-.169-2.18.81-4.32.782-7.67-.191-3.99-1.059-4.95-1.699-6.34-4.107-2.26-3.919-.92-7.45 5-12.962 5.9-5.421 11.7-8.097 20.28-9.392l6.51-.927 2.23-8.977c2.48-9.566 7.4-19.117 13.91-26.911 3.89-4.708 14.6-13.504 20.77-17.065 9.14-5.278 29.98-10.142 40.74-9.562 5.53.307 20.97 3.64 26.13 5.584 5.61 2.21 9.14 4.646 15.61 10.764 10.95 10.32 17.39 20.711 20.34 32.814 4.05 16.919 3.44 23.244-3.15 33.32-7.59 11.54-16.18 17.77-29.91 21.591-15.15 4.273-25.94 3.262-35.69-3.198-4.76-3.15-5.44-3.951-8.71-9.604-2.78-4.813-3.71-7.186-4.25-11.055-1.3-9.623 1.26-21.852 5.57-26.349 2.51-2.646 7.05-3.175 9.08-1.066 1.59 1.619 1.84 2.299 3.64 9.618 1.39 5.465 3.63 8.577 8.81 12.077 2.94 2.039 4.61 2.642 6.53 2.279 4.63-.88 7.54-3.086 9.38-7.284 2.43-5.581 1.78-8.49-4.09-18.013-4.39-7.094-5.44-8.276-9.18-10.819-2.64-1.764-5.46-2.968-7.32-3.013-4.13-.157-12.76 3.334-21.16 8.633-6.81 4.23-7.35 4.692-11.32 10.789-6.79 10.49-9.36 17.493-9.13 25.27.27 11.788 6.48 28.131 11.54 30.661 2.43 1.282 7.42 1.535 16.13.98 2.85-.148 8.31-.096 12.05.137 3.76.29 10.46.45 14.98.382 16.5-.419 20.33-.393 35.9.246 16.77.688 19.8 1.481 26.96 7.271 7.07 5.768 14.77 18.34 23.36 38.307 4.18 9.527 4.54 11.038 3.27 13.04-2.7 4.472-6.02 3.553-14.02-3.694-8.61-7.791-13.97-11.343-16-10.543-2.73 1.13-5.44 9.033-6.87 20.161-1.55 12.317-3.77 18.148-10.03 26.618-11.99 16.251-13.16 19.313-11.33 30.12 2.22 13.501 1.17 24.404-2.57 26.566-.89.509-2.58.744-3.8.55Zm-467.395 34.249c-2.001 1.156-2.267 3.61-.685 6.351 1.43 2.477 1.159 10.243-.465 13.36-2.971 5.608-20.02 22.706-26.157 26.249-2.612 1.508-4.604 1.774-5.218.712-.101-.176 1.086-1.335 2.701-2.561 3.251-2.409 9.373-9.892 12.434-15.141 2.675-4.612 4.693-11.673 3.979-13.914-1.673-5.11-7.094-4.751-7.112.448-.009 4.904-8.044 13.905-18.476 20.754-6.045 3.901-6.593 4.158-10.979 4.805-2.505.382-7.535.516-11.122.227-9.781-.66-22.145-2.074-22.426-2.561-.153-.265-1.068-.445-2.082-.391-.969.031-5.761-1.334-10.571-3.037a2479.003 2479.003 0 0 0-16.967-5.772 374.602 374.602 0 0 1-12.285-4.29c-2.275-.928-9.95-3.571-17.018-5.86l-12.82-4.219.557-5.569c.272-3.044.393-6.654.214-7.968-.273-2.08-.478-2.435-1.977-3.221-2.711-1.385-4.836.668-5.1 4.831-.185 2.997-.344 3.325-1.227 2.597-.549-.449-1.483-1.565-1.993-2.448-1.875-3.045-5.599-2.961-6.607.218-.313 1.065-.03 2.256 1.222 4.424.944 1.635 1.535 3.066 1.277 3.215-.22.127-1.568-.097-2.949-.481-4.08-1.24-6.899 1.213-5.06 4.397.945 1.637 4.414 3.23 9.158 4.208 1.674.388 3.226.967 3.431 1.322.535.927-2.068 14.403-3.991 20.822-.914 2.942-3.01 12.174-4.717 20.472-1.798 8.942-3.669 16.156-4.54 17.66-2.253 3.838-10.063 20.257-13.381 28.072-1.604 3.755-4.4 9.97-6.159 13.756-1.801 3.814-4.498 9.793-5.961 13.29-2.467 5.674-2.919 6.404-4.836 7.1-1.147.428-3.609.785-5.467.68-1.835-.064-5.383-.077-7.824-.084-2.51-.026-7.447-.24-11.036-.527-4.93-.397-6.846-.296-7.945.514-1.934 1.473-1.835 3.951.319 5.775 1.895 1.676 13.046 4.91 19.374 5.62 7.263.822 11.732 2.131 12.601 3.637.715 1.238.592 1.426-1.413 2.173-2.536.932-20.999 1.92-28.707 1.534-6.529-.359-9.699-1.122-15.359-3.693-7.435-3.434-10.18-3.262-10.695.573-.353 2.504-.01 2.893 6.051 7.062 4.995 3.427 13.32 6.286 20.461 7 6.82.659 26.026-.343 30.306-1.574l3.723-1.089 1.409 2.841c.806 1.6 14.549 25.805 30.541 53.903 28.358 49.619 29.252 51.168 34.417 57.502 6.997 8.7 9.994 11.686 14.143 14.246 5.978 3.624 8.623 3.985 17.555 2.367 6.719-1.226 12.611-3.979 36.141-17.091 40.392-22.495 75.768-42.92 80.851-46.68 2.65-1.943 6.227-4.893 7.972-6.49 1.72-1.641 7.472-6.556 12.691-10.984 14.011-11.804 22.512-22.609 22.789-28.962.083-1.463-.217-4.297-.598-6.26-.728-3.471-2.548-6.726-37.226-66.79l-36.467-63.162 1.641-2.185c.936-1.189 5.19-6.181 9.54-11.11 13.843-15.716 16.377-20.779 15.699-31.296-.46-6.929-4.054-11.342-7.579-9.307Zm-106.373 39.653c.966.268 5.289 1.724 9.618 3.293 15.62 5.549 39.454 9.951 52.067 9.688 2.728-.1 6.661.282 8.706.811 3.609.925 9.285 3.721 9.087 4.485-.053.206-1.284 1.39-2.672 2.603-3.097 2.676-3.62 2.978-7.074 3.732-3.52.733-5.698.578-13.483-.945-11.928-2.37-22.99-6.658-46.292-17.975-4.133-2.036-8.482-4.243-9.637-4.934l-2.047-1.233 1.727.475Zm-10.159 4.214c.037-.139 5.421 2.356 11.94 5.607 26.772 13.208 39.049 18.088 51.444 20.663 4.076.832 7.372 1.82 7.37 2.115.022.343-2.661 2.127-5.925 4.011-6.786 3.918-6.786 3.918-14.484.639-13.324-5.697-15.821-7.205-34.357-20.621-10.891-7.805-16.156-11.903-15.988-12.414Zm-5.629 5.727c.372.141 3.406 2.282 6.713 4.794 9.332 7.114 21.021 15.405 33.247 23.617 6.175 4.163 11.392 7.873 11.597 8.228.307.53-1.419 1.762-6.945 4.952-5.396 3.116-7.543 4.12-7.981 3.665-.884-.73-11.671-14.785-15.975-20.735-4.527-6.233-9.78-12.517-16.239-19.286-2.82-2.972-4.805-5.305-4.417-5.235Zm-.629 36.692c-1.742-4.421-4.186-11.266-5.507-15.163-3.161-9.498-6.014-16.048-9.488-22.064-1.684-2.917-2.54-4.902-2.125-4.786 1.638.529 17.313 15.42 21.251 20.225 8.28 10.02 24 32.731 24.417 35.264.125.813-1.803 2.102-10.287 7l-10.399 6.004-.456-1.387c-.233-.81-1.318-4.901-2.351-9.2-1.076-4.273-3.336-11.404-5.055-15.893Zm-28.55-45.027 5.561 9.231c4.905 8.198 5.779 10.111 8.01 16.785 1.335 4.124 3.389 10.192 4.515 13.553 3.956 11.574 7.901 30.468 7.618 36.41-.066 1.69-.302 1.885-8.396 6.558-4.571 2.639-8.563 4.767-8.865 4.645-.275-.076-.31-1.942-.096-4.19.462-3.921.16-29.167-.435-38.434-.588-9.864-2.463-21.756-5.125-32.9l-2.787-11.658Zm-5.871 16.364c.217-3.545.518-6.137.696-5.829.205.355 1.214 4.314 2.286 8.884 3.114 13.536 3.881 33.853 1.891 48.799-.434 2.965-1.015 7.488-1.325 9.963-.327 2.548-1.215 7.544-1.905 11.07-1.399 6.824-1.399 6.824-6.342 8.614-1.503.512-5.629 2.307-9.23 3.913-7.761 3.538-9.035 3.741-7.819 1.33.48-.982 2.058-5.786 3.49-10.741 1.432-4.955 3.393-10.805 4.357-12.955 6.09-14.072 8.297-21.301 10.549-34.985 2.382-14.47 2.748-17.452 3.352-28.063ZM528.068-6.301c-.625-1.584-1.085-3.384-1.008-3.957.212-1.539 4.967-12.598 10.578-24.684 2.67-5.728 5.635-12.452 6.625-14.855 1.516-3.704 6.492-14.183 13.066-27.416.698-1.405 1.758-4.493 2.256-6.847a672.313 672.313 0 0 1 2.112-9.001l1.111-4.71-.365 5.398c-.468 6.225-3.762 26.646-5.109 31.551-.552 1.853-1.601 4.759-2.431 6.537-.79 1.751-3.085 7.322-5.098 12.377-2.013 5.055-5.235 12.338-7.209 16.252-1.961 3.843-4.734 9.69-6.14 12.982-2.026 4.53-3.151 6.3-4.894 7.603l-2.329 1.697-1.165-2.927Zm7.076 16.382-.263-3.272 6.293-3.57c3.437-1.985 13.145-7.18 21.575-11.573C601.577-28.513 671.436-67.9 681.408-75.25c2.693-1.97 7.295-5.452 10.2-7.658 2.876-2.251 6.661-5.145 8.387-6.376l3.163-2.358 1.819 1.841c.968.971 2.534 2.782 3.466 3.895 1.582 2.034 1.589 2.147.288 3.313-5.29 4.705-11.046 8.501-19.682 12.838-13.047 6.648-27.834 15.303-38.515 22.53-9.357 6.404-11.771 8.154-26.034 18.924-6.93 5.182-11.308 7.945-25.545 16.047-9.472 5.406-19.866 11.114-23.128 12.704-3.237 1.63-9.108 4.726-13.049 6.943-6.118 3.473-18.657 8.588-24.858 10.106-1.223.292-2.515-3.149-2.776-7.42Zm32.801 59.025c-.385-.368-1.681-2.214-2.918-4.153l-2.2-3.51L574.02 55.1c6.184-3.453 16.024-8.723 21.903-11.703 5.836-2.958 30.913-16.904 55.689-30.974 38.402-21.816 45.663-26.125 48.952-28.97 2.137-1.821 5.227-4.313 6.95-5.547 1.682-1.206 4.282-3.235 5.738-4.432 2.696-2.264 17.912-13.996 18.696-14.449.741-.427 4.31 6.359 3.697 7.006-.315.358-4.306 3.194-8.916 6.267-9.832 6.682-18.761 13.43-23.573 17.855-2.961 2.715-12.326 8.298-68.987 41.305-54.657 31.853-65.605 38.115-66.224 37.647Zm-9.861-16.483-5.132-8.889 2.745-1.17c5.387-2.23 15.23-6.082 19.425-7.56 4.81-1.717 22.894-12.1 80.654-46.214 43.607-25.767 48.026-28.67 58.319-38.976 5.104-5.13 9.389-8.962 9.805-8.846.344.095 2.925 6.274 3.841 9.164.518 1.705-1.245 3.372-12.168 11.685-11.274 8.513-14.304 10.497-46.209 29.802-15.506 9.425-34.036 20.539-41.192 24.725-15.781 9.35-49.385 27.218-54.38 28.92-2.031.702-6.35 2.664-9.674 4.348l-6.034 3.01Zm183.083-77.927 3.805 6.59-4.311 3.788c-3.649 3.226-7.62 5.695-25.26 15.942-11.506 6.701-24.644 14.698-29.25 17.772-4.608 3.07-17.842 11.302-29.352 18.3-34.196 20.866-76.113 45.536-76.699 45.229-.286-.191-1.431-1.475-2.542-2.899l-1.983-2.627 60.3-35.346c33.203-19.467 61.913-36.571 63.849-38.041 1.935-1.473 7.323-5.703 11.928-9.485 6.733-5.42 10.559-8.04 18.951-13.003l10.564-6.22ZM594.225 110.9c-1.136-2.47-1.989-4.749-1.881-5.165.225-1.015 10.253-6.156 18.743-9.64 3.893-1.602 14.44-6.746 23.478-11.492 9.038-4.748 18.606-9.68 21.232-10.96l4.816-2.31 1.915 3.317 1.915 3.317-17.38 10.094c-9.545 5.57-20.05 11.399-23.334 12.942-3.288 1.544-10.802 5.409-16.735 8.6l-10.71 5.771-2.059-4.474Zm82.948-13.802.746 1.693-26.321 15.313c-14.463 8.41-27.292 15.64-28.437 16.065-5.41 1.885-9.822 2.486-13.06 1.701-3.029-.728-3.554-1.134-5.98-4.333-1.513-2.016-2.541-3.898-2.436-4.314.389-1.639 12.737-9.594 20.388-13.127 4.121-1.906 9.453-4.631 11.888-6.037 5.05-2.916 17.469-8.435 24.998-11.072 2.823-1.04 6.681-2.5 8.635-3.334l3.494-1.486 2.656 3.596c1.444 1.999 3.006 4.399 3.429 5.335Zm-22.332-43.604c-.298 1.294-.379 3.461-.194 4.888l.328 2.583-4.262 2.46c-2.306 1.332-4.471 2.406-4.776 2.286-.275-.077-11.709 6.347-25.39 14.306-21.514 12.48-31.38 17.704-32.761 17.32-.206-.057-.918-1.59-1.646-3.353l-1.276-3.214 8.685-4.957c4.786-2.763 16.882-9.45 26.87-14.864 13.301-7.207 19.822-11.089 24.632-14.515 4.784-3.47 6.961-4.727 8.391-4.964l1.923-.285-.524 2.309Zm74.815 17.43-18.937 10.817c-10.426 5.959-20.19 11.36-21.674 12.1l-2.74 1.286L675.81 76.95c-9.193-15.923-10.52-18.519-10.731-20.697-.091-1.364.13-2.787.531-3.197 2.957-3.122 11.286-10.703 14.635-13.343 5.11-4.012 14.255-8.879 17.111-9.053 2.294-.146 1.566-.904 11.646 12.03 3.015 3.92 7.975 10.196 10.917 13.982 2.958 3.72 6.392 8.46 7.592 10.539l2.145 3.714Zm-22.245-44.656-1.88-1.45c-1.023-.767-2.177-1.457-2.61-1.502-1.947-.055-1.053-1.22 2.517-3.28 2.132-1.232 5.018-3.37 6.459-4.79C716.73 10.45 724.843 4.407 731.72.436c3.784-2.184 8.908-5.67 11.37-7.742 2.486-2.025 5.092-3.941 5.795-4.23 1.495-.628 2.931.55 5.237 4.349 1.755 2.938 2.203 2.207-4.727 8.094-3.227 2.749-8.521 6.041-23.098 14.457l-18.886 10.904Zm64.012-3.992c1.054 1.927 2.112 4.56 2.419 5.798.414 2.121.132 2.637-4.039 7.876-6.421 8.071-13.497 14.811-26.778 25.369-6.265 5.031-6.482 5.157-7.365 4.428-.362-.32-1.963-2.993-3.51-5.875l-2.881-5.295 4.146-2.866c3.631-2.45 10.157-8.637 13.538-12.829.605-.762 3.118-3.038 5.622-5.133 2.504-2.094 6.557-5.732 8.949-8.115 2.42-2.342 5.216-4.84 6.182-5.576l1.813-1.282 1.904 3.5Zm-7.847-15.402 2.345 4.367-2.122 2.05c-9.69 9.546-15.785 14.363-28.866 22.86-5.391 3.525-10.105 6.717-10.456 7.215-.436.547-1.113.583-1.819.166-.946-.633-6.311-6.914-7.255-8.55-.231-.398 2.254-2.126 7.127-4.94 4.134-2.387 8.88-5.422 10.528-6.786 1.649-1.365 6.503-4.817 10.763-7.689 4.304-2.897 9.775-6.882 12.219-8.882 2.441-2 4.632-3.736 4.823-3.906.262-.151 1.445 1.702 2.713 4.095Zm-51.4-68.926c-12.645 12.664-19.914 18.16-37.121 28.154-6.458 3.787-15.14 9.151-19.339 11.932-4.171 2.823-10.956 7.15-15.057 9.694-10.943 6.67-56.475 31.722-64.167 35.279-3.617 1.673-11.069 5.447-16.55 8.315-5.498 2.94-10.427 5.257-10.998 5.171-.64-.104-1.896-1.675-3.556-4.551l-2.553-4.422 11.988-6.57c6.604-3.636 18.523-9.927 26.516-14.068 16.343-8.375 50.515-28.578 56.525-33.343 2.057-1.661 5.38-4.346 7.388-6.093 12.785-10.922 14.735-12.165 43.323-27.669 19.209-10.44 27.142-14.489 27.659-14.197.421.227 1.353 1.34 2.017 2.49 1.405 2.433 1.527 2.245-6.075 9.878Zm310.554-32.106c-6.08.426-9.28-.901-14.02-5.658-9.831-9.828-21.457-20.654-24.67-22.762-5.472-3.625-24.167-12.129-24.616-11.253-.238.489.576 3.101 1.817 5.999 3.542 8.087 1.389 12.767-5.985 13.06-3.402.114-7.023-2.554-9.731-7.245-1.183-2.05-2.158-2.988-2.807-2.613-3.836 2.215-13.049 29.653-13.671 40.586-.31 6.523 1.278 8.073 8.443 8.167 9.594.1 15.476 4.283 16.248 11.326.374 4.105-1.693 6.531-8.212 9.5-10.807 5.007-19.251 4.948-25.5-.17-4.388-3.544-8.297-19.175-7.871-31.052.322-9.35 15.338-48.508 21.849-57.205l1.952-2.624-8.203-14.209c-6.104-10.572-9.93-16.296-15.323-22.785-3.965-4.763-8.144-9.751-9.216-11.157-1.727-2.089-2.242-2.232-3.508-.973-.824.828-1.88 1.702-2.4 2.002-.454.262-2.243 3.321-3.917 6.58-2.715 5.358-2.992 7.279-2.789 15.443.209 5.167-.216 10.436-.875 11.697-1.661 3.428-6.075 5.092-9.513 3.643-2.613-1.221-3.098-1.914-7.023-10.663-3.05-6.784-4.281-10.568-4.352-13.698-.137-7.589 4.825-15.213 16.613-25.277 3.86-3.373 4.542-4.296 3.778-5.619-.839-1.453-1.77-1.268-8.994 2.286-10.238 4.943-14.833 6.447-27.816 9.184-18.579 3.854-40.238 3.582-70.892-1.01-19.329-2.853-28.402-3.695-37.376-3.624-6.271.094-7.335.356-9.387 2.509-7.982 8.399-23.588 9.744-30.905 2.778-4.972-4.71-6.409-10.045-4.74-16.916 1.849-7.76 5.647-13.042 11.984-16.785 4.356-2.515 5.651-2.827 11.285-2.373 3.49.186 7.593.988 8.995 1.763 2.972 1.546 7.894 9.015 9.659 14.78l1.04 3.454 7.929-.083c4.356.039 15.405 1.153 24.571 2.469 31.443 4.757 56.118 5.753 72.066 2.889 12.047-2.108 29.119-7.822 33.69-11.166l2.213-1.722-4.043-7.003-4.044-7.004-11.686 6.039c-12.658 6.604-18.26 8.161-34.06 9.622-7.119.584-9.919.087-29.628-5.368-12.031-3.273-23.838-6.15-26.382-6.355-4.07-.295-4.837-.117-7.108 2.255-4.428 4.494-14.439 6.219-18.328 3.093-4.004-3.331-9.38-10.094-10.553-13.472-2.189-6.048.565-14.338 6.404-18.943 3.846-3.101 14.591-5.958 18.812-4.957 5.598 1.439 10.617 7.883 11.378 14.756l.4 3.997 18.792 5.368c10.394 2.985 20.378 5.414 22.136 5.459 1.861.07 6.671.291 10.743.582 9.703.742 19.05-1.836 32.462-8.787 9.788-5.119 10.139-5.414 9.263-6.93-.726-1.258-2.329-1.48-6.9-.691-8.043 1.386-27.117-.117-37.394-2.906-8.152-2.254-8.553-2.198-13.8.127-6.131 2.747-9.587 3.065-14.72 1.534-10.338-3.194-15.608-15.925-10.399-24.92 2.853-4.821 6.567-7.85 13.553-10.914 5.249-2.323 6.256-2.376 11.103-1.036 4.956 1.37 5.662 1.843 9.35 7.03 4.388 6.1 5.219 8.442 4.669 13.342l-.358 3.289 4.515 1.356c4.616 1.393 20.894 3.01 27.425 2.762l3.534-.191-1.855-2.011c-1.024-1.17-3.468-3.902-5.413-6.217-3.145-3.648-4.018-4.112-7.562-4.092-7.19.009-10.022-1.438-13.768-7.032-2.971-4.541-3.358-5.814-3.638-11.556-.137-3.535.287-8.363.932-10.849 1.204-4.218 1.581-4.615 7.109-7.807 4.877-2.815 6.667-3.317 10.856-3.269 6.721.082 9.666 1.731 14.803 8.372 5.095 6.576 6.609 10.545 6.204 16.155-.173 3.45.138 4.591 1.753 6.036 1.538 1.317 2.458 1.403 3.771.38 1.994-1.503 10.573-14.125 11.964-17.57.835-2.155.796-2.224-3.245-5.619-5.795-4.935-9.176-11.089-8.323-15.02 1.176-5.17 8.748-14.127 15.055-17.769 4.747-2.741 6.043-3.045 10.292-2.592 6.63.667 10.548 3.252 14.07 9.504 6.409 11.101 3.593 21.54-7.356 27.946-4.293 2.478-5.075 3.374-8.741 10.686-2.242 4.38-6.027 10.884-8.532 14.356-6.753 9.626-7.793 12.781-5.504 16.746 1.031 1.786 2.195 3.052 2.586 2.826.457-.264 3.336-2.63 6.466-5.318 7.209-6.28 16.756-17.079 23.066-26.27 2.805-4.001 6.486-9.032 8.202-11.171 3.966-4.843 11.8-19.497 13.549-25.181 1.309-4.19 1.334-4.293-1.439-6.394-1.564-1.211-4.559-4.593-6.61-7.548-3.216-4.667-3.707-5.968-3.887-10.183-.127-2.921.698-6.747 2.151-9.791 2.192-4.612 2.727-5.185 9.554-9.127 8.518-4.917 12.119-5.588 19.174-3.581 6.666 1.791 10.969 6.091 12.066 11.893 1.725 8.695-.801 15.881-8.278 24.252-1.947 2.181-4.504 5.862-5.535 8.131-4.476 9.369-19.797 34.78-23.933 39.634-2.443 2.823-5.899 7.196-7.72 9.748-3.093 4.252-17.514 20.419-26.413 29.784l-3.917 4.026 2.061 3.569c2.365 4.098 3.343 4.59 4.646 2.341.551-.85 3.932-4.299 7.625-7.664 3.627-3.327 8.535-8.19 10.965-10.738 2.434-2.546 9.281-8.704 15.227-13.722 18.875-15.657 32.587-32.295 39.342-47.478 1.439-3.208 4.716-10.3 7.264-15.649 2.506-5.414 5.461-12.759 6.544-16.291l1.938-6.405-4.163-4.205c-5.788-5.824-7.146-9.975-5.373-16.811 2.124-8.187 8.56-13.404 19.853-16.221 7.701-1.98 16.191 2.368 20.961 10.629 6.22 10.774.79 23.6-13.07 30.813l-6.396 3.34-.614 4.497c-.871 5.698-9.987 25.943-15.593 34.555-10.437 16.16-20.593 27.395-49.542 55.036-13.261 12.767-26.707 27.318-27.9 30.209-.253.762.159 2.378.939 3.424 1.479 1.964 1.712 1.917 6.812-1.115 2.95-1.791 9.315-6.083 14.006-9.671 7.88-5.875 9.026-6.445 12.415-6.728 2.083-.146 5.681.683 8.052 1.783 3.874 1.906 4.705 2.747 9.288 10.235 4.394 7.158 5.277 9.286 6.837 16.494 1.917 9.028 1.105 11.522-4.029 12.989-3.347.964-6.644-1.447-13.408-9.705-3.158-3.817-7.14-7.862-8.771-9.034l-3.044-2.12-7.31 4.308c-3.991 2.392-7.755 5.182-8.425 6.277l-1.222 1.938 8.967 9.977c8.636 9.551 9.391 10.704 17.955 26.289l8.945 16.249 12.409 3.323c14.922 4.072 22.753 8.625 39.079 22.641 6.05 5.228 12.33 10.241 13.77 11.084 1.54.871 6.05 1.617 10.07 1.675 12.06.173 16.07 3.06 14.63 10.324-.8 3.721-1.21 4.219-7.06 8.04-5.38 3.456-6.92 4.082-11.59 4.403ZM441.589 34.304c-1.704-.473-1.939-.264-4.387 3.186-1.452 2.075-3.694 5.626-5.041 8.003-1.346 2.377-5.324 8.383-8.841 13.324-6.43 8.952-6.506 9.069-12.838 12.725-6.282 3.627-6.421 3.634-11.935 3.254-13.275-.921-19.564-2.02-20.509-3.657-.568-.983.651-12.015 2.251-20.651 1.103-6.02 5.38-16.712 6.489-16.406.285.125 2.76 5.9 5.512 12.896 2.752 6.997 5.71 13.729 6.604 15.029 1.779 2.466 4.622 3.297 5.11 1.416.887-3.422-6.722-30.239-10.344-36.513-1.577-2.73.754-9.605 2.889-8.508.604.304 5.19 4.276 10.313 8.814 7.708 6.9 9.52 8.183 10.742 7.694.9-.303 1.647-1.241 1.781-2.122.362-2.098-7.645-11.88-15.626-19.132l-6.022-5.473 1.142-3.348c.657-1.837 2.519-5.31 4.198-7.734 2.999-4.35 3.348-7.465 1.066-8.69-1.796-1-5.618 2.293-9.089 7.936-1.939 3.086-3.847 5.857-4.276 6.105-.429.248-3.951-1.135-7.839-3.04-3.889-1.9-12.162-5.197-18.433-7.256-15.271-5.001-22.642-8.095-28.638-11.91-2.737-1.766-5.424-3.197-5.924-3.199-1.177-.05-2.127 2.392-1.402 3.646 1.291 2.238 11.79 8.398 19.344 11.313 4.549 1.81 10.243 3.982 12.677 4.976 5.38 2.13 10.366 6.674 15.514 14.104 5.866 8.546 6.214 10.019 3.258 14.565-2.786 4.225-10.31 12.641-14.013 15.653-2.216 1.862-2.772 1.89-12.523.247-12.398-2.007-14.215-2.052-21.668-.585-8.505 1.633-13.703 4.781-15.734 9.447-.872 1.96-1.69 4.759-1.759 6.252-.349 5.224 3.738 28.909 5.624 32.55.731 1.394 1.244 1.538 2.587.763 1.502-.868 1.552-1.773.525-8.02-2.029-12.067-2.079-21.204-.102-25.838 1.517-3.57 9.119-7.885 14.823-8.416 4.296-.37 17.927 2.166 18.715 3.531.251.435-1.283 2.487-3.45 4.682-7.352 7.227-13.217 17.526-13.911 24.256-.71 6.956.288 12.276 4.662 24.809 6.047 17.171 7.529 24.823 7.525 37.705.009 8.944.777 12.504 4.208 18.448 2.396 4.15 3.896 5.757 8.398 9.34 2.999 2.342 8.887 7.455 12.991 11.342 4.074 3.834 8.947 7.933 10.771 8.99 4.469 2.656 4.869 4.461 2.343 11.74-3.891 11.488-5.44 17.111-6.399 23.63-1.477 10.456-2.979 31.039-2.286 32.24.574 1.122 2.779 1.959 3.582 1.495.27-.156 1.005-2.472 1.662-5.179l1.15-4.955 3.641 1.971c1.966 1.048 6.304 3.853 9.527 6.213 8.112 5.864 7.994 5.788 9.817 5.1 1.275-.518 1.332-.916.292-2.716-.661-1.146-3.05-3.549-5.287-5.313-4.736-3.742-5.134-4.311-3.532-4.509.631-.146 1.61-.929 2.109-1.8 1.388-2.185 2.411-1.901 11.289 2.941 4.024 2.259 8.349 4.418 9.628 4.772 2.597.901 5.011-.492 4.348-2.511-.271-.717-2.117-2.053-4.08-3.1-1.987-.963-6.627-3.668-10.321-5.973l-6.632-4.173.608-5.518c.329-3.028 1.494-9.811 2.623-15.044 1.62-7.484 2.719-10.664 5.069-14.278 4.108-6.154 4.343-8.473 1.477-13.437-2.206-3.821-8.307-10.047-31.655-32.14-5.059-4.796-10.309-10.42-12.005-12.861-2.905-4.289-2.955-4.623-3.017-11.423-.053-10.012 1.213-22.818 3.091-31.468.869-4.069 1.95-9.639 2.361-12.276a420.27 420.27 0 0 1 1.311-7.89l.521-3.064 9.435.225c5.254.17 12.212.446 15.574.689 7.115.548 9.687-.577 15.085-6.6 4.337-4.76 24.986-37.054 25.039-39.194.004-1.239-.418-1.722-1.783-2.097Zm-46.296 146.188c7.474 6.743 13.894 12.784 14.24 13.384 1.387 2.402.839 6.282-1.485 10.316-2.475 4.267-3.924 10.56-7.504 32.996-1.001 6.325-1.981 11.694-2.196 11.818-.27.155-1.575-.618-2.899-1.672-1.411-1.078-3.645-2.843-5.024-3.866-2.468-1.924-2.468-1.924-2.165-6.972.806-11.378 2.7-19.747 6.553-28.447 4.454-10.138 4.927-12.667 2.994-17.007-1.119-2.553-2.259-3.785-5.761-6.133-5.07-3.329-17.992-15.293-19.628-18.128-.914-1.582-.789-2.237.554-3.38 2.186-1.915 2.357-1.867 5.72 1.721 1.616 1.687 9.042 8.601 16.601 15.37ZM1452.24-337.105c-1.96.244-5.98-1.915-8.52-4.538-2.46-2.516-3.92-5.651-6.69-14.175-.7-2.048-2.49-6.558-4.06-9.972-2.69-5.912-3.24-6.742-10.26-15.414l-7.38-9.115-7.71-5.615c-6.94-5.091-8.1-6.156-11.97-10.935-4.47-5.445-4.65-5.902-10.17-19.14-1.07-2.659-2.66-7.578-3.47-10.876-1.3-5.519-1.74-6.437-4.54-10.191-2.82-3.86-3.35-4.284-7.1-6.179-2.22-1.119-4.79-2.078-5.72-2.118-1.06-.056-3.45.842-6.51 2.529-5.27 2.872-5.43 3.121-6.51 8.006-.81 3.576-2.56 6.816-6.08 11.253-3.81 4.841-6.33 6.156-17.73 9.299-12.91 3.639-13.13 3.816-11.92 9.523.43 2.086.63 5.813.39 8.323-.41 4.525-1.01 5.991-4.86 11.593-1.43 2.14-1.47 2.537-.35 7.403 2.13 9.35 1.77 14.45-1.25 17.742-3.02 3.295-10.83 5.177-14.46 3.431-4.07-1.998-11.04-7.427-15.85-12.413-5.88-6.072-6.91-8.094-8.23-16.085-.92-5.643-.54-11.305 1.38-22.534 1.41-8.316 1.8-13.375 1.43-21.16-.12-2.218.06-7.169.33-10.976.46-5.719.29-8.141-1.01-13.595-1.53-6.547-2.29-8.303-3.54-8.144-.34.029-2.13 3.362-4.05 7.351-4.04 8.68-5.39 10.629-9.79 14.37-3.05 2.59-3.85 2.931-8.48 4.007-6.27 1.49-10.18 1.181-11.18-.868-.96-2.078.48-3.55 5.71-5.893 4.39-1.971 7.66-4.136 7.76-5.124-.01-.302-1.26-1.111-2.89-1.865-3.44-1.592-3.99-2.12-3.71-3.992.3-2.067 1.22-2.566 5.21-2.877 1.95-.178 3.52-.601 3.49-.938-.06-.375-.89-1.406-1.91-2.287-1.38-1.257-1.77-1.971-1.73-3.099.11-1.857.89-2.603 3.36-3.088 3.13-.58 4.16-1.967 5.92-7.773 2.02-6.744 4.32-24.536 3.83-29.429-.31-2.973-.85-4.303-3.22-8.043-4.95-7.668-4.74-8.511 2.77-12.7.81-.473.86-1.368.17-4.219-.5-2.024-1.67-5.027-2.58-6.664-2.84-5.061-2.97-5.442-2.23-6.893 1.17-2.405 3.54-2.134 7.85.823 3.93 2.715 5.18 3.227 6.09 2.492.32-.262 1.1-3.876 1.77-8.005 1.48-9.042 2.2-10.897 4.21-11.434 2.25-.544 3.61.909 5.09 5.549 1.64 5.059 1.76 6.607 1.46 14.882-.12 3.559.07 6.75.4 7.153.36.44 1.64.986 2.84 1.223 2.55.557 3.82 1.838 3.98 4.024.14 1.652-4.28 16.968-6.56 22.947-.78 1.914-2.34 5.242-3.45 7.351-1.14 2.137-2.89 6.113-3.92 8.831-1.5 4.134-1.64 4.916-.68 4.627 2.26-.677 19.89-15.428 25.16-21.034 8.47-8.984 11.54-15.175 17.96-36.068 4.89-16.062 4.89-16.062 12.01-22.129 8.75-7.448 11.39-8.55 25.73-10.725 17.17-2.522 19.37-3.572 34.13-16.011 13.39-11.259 13.01-10.768 21.82-27.088 3.49-6.412 9.05-15.657 12.4-20.615l6.1-9.018 7.27-5.88c8.93-7.229 14.37-10.414 21.75-12.679 14.21-4.327 22.25-3.782 35.67 2.45 4.05 1.894 5.65 2.977 7.72 5.248 5.01 5.441 7.89 11.741 10.2 22.283.64 3.01 1.74 6.736 2.42 8.317.69 1.512 2.15 5.615 3.31 9.117 4.04 12.307 7.64 18.756 16.35 29.587 6.69 8.271 11.82 13.123 19.6 18.445 17.57 12.173 16.77 11.482 20.48 17.177 3.65 5.686 14.14 27.666 17.1 35.912 1.02 2.887 2.55 7.667 3.37 10.593.84 2.966 2.16 7.255 2.93 9.545 2.86 8.7 2.64 12.279-.9 13.145-.96.224-2.7-.007-3.88-.573-1.85-.814-2.76-1.783-7.98-8.683-3.28-4.277-7.1-9.883-8.59-12.454-1.45-2.602-3.52-6.274-4.63-8.169-1.08-1.927-2.43-5.216-2.96-7.344-.88-3.539-1.32-13.098-.77-16.039.54-2.808-5.1-7.118-12.43-9.586-2.19-.718-8.87-2.609-14.88-4.194-6.01-1.585-12.97-3.609-15.49-4.497l-4.6-1.622-2.97-4.042c-6.12-8.371-11.94-15.34-12.97-15.422-1.21-.17-3.86 6.535-5.63 14.108-1.61 7.028-3.53 13.315-5.07 16.879-1.96 4.384-7.82 14.663-12.11 21.049-3.67 5.589-3.74 5.647-12.71 12.905-9.07 7.345-9.64 7.68-19.62 12.354-3.77 1.775-4.31 2.213-6.11 4.644-3.11 4.217-9.7 11.314-14.95 16.055-5.81 5.246-10.97 7.965-15.23 7.946-3.7.014-5.09 1.259-5.37 4.898-.12 1.554-.98 5.529-1.88 8.694-3.72 12.859-4.1 15.421-3.23 21.591.77 5.459 2.97 12.619 6.63 21.576 1.45 3.635 2.85 5.599 14.49 20.635 15.87 20.423 24.74 32.709 27.11 37.417 3.57 7.145 5.63 16.489 4.43 20.258-.67 2.125-2.9 4.476-4.35 4.678ZM354.97 293.37c-.885-.013-2.577.545-3.7 1.193-3.038 1.703-4.178 1.521-7.868-1.12-4.203-3.08-9.903-5.714-15.399-7.104-2.412-.6-7.159-2.212-10.626-3.566-6.17-2.47-14.851-4.012-16.67-2.962-1.238.715-10.489 2.385-12.605 2.297-10.762-.501-21.36-2.772-25.873-5.411-.964-.595-1.118-.506-2.654 2.109-1.423 2.447-2.07 3.031-6.093 5.354-5.496 3.172-12.316 6.008-16.574 6.946-1.703.355-8.484 1.123-15.015 1.695-11.085.998-12.13.974-15.65-.299-2.079-.741-6.444-2.048-9.699-2.946-9.471-2.556-24.292-9.994-38.164-19.186-2.14-1.388-3.629-1.996-4.13-1.707-.968.559-.813 1.361.781 5.108.603 1.49 1.512 4.583 1.928 6.911.868 4.273.408 7.056-1.48 9.771-.461.633-.715 1.356-.534 1.67.159.275 2.462 1.671 5.051 3.116 6.443 3.567 14.835 11.307 20.702 19.144 4.756 6.273 7.636 9.12 11.816 11.531 4.408 2.543 8.931 5.909 15.366 11.424 7.142 6.207 15.51 12.388 19.697 14.638 2.061 1.065 4.023 2.501 4.387 3.131.954 1.651.272 3.146-1.582 3.692-3.98 1.144-4.484 1.435-5.574 3.481-.995 1.937-1.19 2.05-2.619 1.984-1.355-.109-2.163-.797-5.495-4.955-5.762-7.215-11.95-12.925-19.564-18.073-9.946-6.684-14.676-8.884-29.672-13.859-6.451-2.15-11.597-5.787-13.958-9.877-3.604-6.153-8.854-9.623-22.909-15.199-7.344-2.889-11.575-4.853-16.978-7.868-9.321-5.157-8.528-4.407-13.298-12.668-4.768-8.259-5.717-11.332-6.172-19.982-.304-5.802.542-9.071 3.655-14.222 2.315-3.858 2.459-4.41 1.686-5.748-.454-.787-1.628-1.841-2.6-2.274-2.139-1.022-8.9-1.47-13.922-.878-3.99.417-5.898-.473-5.524-2.685.46-2.78 9.912-5.356 16.536-4.514 3.668.455 9.549 2.512 11.744 4.078 1.054.752 1.508.648 4.527-1.095 4.062-2.345 9.734-3.782 13.887-3.56 1.678.136 5.657.774 8.897 1.472 3.242.697 9.102 1.823 13.028 2.546 3.903.686 10.861 2.015 15.479 2.864 12.998 2.406 36.167 4.29 54.859 4.406 14.953.071 18.957-1.034 22.547-6.255 1.921-2.837 2.231-3.908 2.164-8.224-.006-1.619.205-5.098.491-7.729.584-5.687.193-10.388-1.448-18.148-.743-3.607-1.019-6.857-.762-8.737.27-1.675.634-4.978.772-7.421.4-4.843 1.707-7.854 5.987-13.576l2.651-3.626-.131-7.74c-.156-7.145-.08-7.82 1.236-8.58 2.166-1.25 3.617.011 4.801 4.204 1.667 5.748 2.012 5.182 4.218-7.261 1.903-10.907 2.044-12.456 1.179-18.51-.663-4.809-.739-5.029-5.052-12.5-2.862-4.957-5.289-8.538-6.888-10.234-3.054-3.326-14.45-12.426-19.191-15.457-5.262-3.306-12.448-5.031-25.092-6.016-13.71-1.052-18.495.136-32.384 8.155l-8.707 5.027-7.803 8.912c-8.217 9.36-9.236 10.994-13.631 22.238-2.301 5.839-2.68 10.724-1.374 17.099.561 2.667 1.465 4.769 4.144 9.408 3.067 5.311 4.076 6.615 8.916 11.426 6.37 6.387 10.157 8.923 15.667 10.512 6.576 1.92 12.123 1.341 23.343-2.462 7.781-2.607 11.079-4.668 16.188-10.029 5.24-5.491 6.542-7.97 6.303-12.133-.419-6.63-6.53-17.838-11.742-21.591-4.265-3.097-10.526-5.723-15.375-6.439-2.336-.379-6.078-1.051-8.32-1.54-2.218-.448-6.5-1.072-9.452-1.361-7.505-.752-10.412-2.482-9.588-5.791.742-2.736 4.104-4.152 9.603-3.919 4.208.139 4.904.002 6.74-1.374 2.472-1.794 3.249-1.611 5.407 1.23 1.959 2.593 5.098 3.562 7.995 2.415 2.883-1.089 4.193-.693 6.175 1.938 1.803 2.316 4.385 3.394 10.411 4.267 2.86.396 3.867 1.334 3.982 3.682.076 1.739.257 2.053 1.969 3.321 1.038.813 2.739 2.506 3.75 3.812 1.162 1.479 3.031 3.02 4.825 3.98 2.809 1.472 2.938 1.606 2.861 3.17-.002.892-.51 1.975-1.046 2.387-1.449 1.152.389 6.751 2.872 8.726 2.571 2.133 2.387 4.496-.475 6.148-1.989 1.2-3.212 5.788-2.573 9.665.553 3.456-.64 4.878-3.759 4.478-2.105-.253-2.146-.229-4.317 2.176-2.829 3.05-3.754 4.843-3.094 5.985.635 1.1-.02 3.365-1.182 4.035-.462.267-2.339.144-4.112-.245-2.941-.716-3.458-.627-5.896.781-2.089 1.206-2.952 2.126-4.19 4.36-2.338 4.442-3.501 4.747-6.543 1.627-1.423-1.487-1.953-1.598-4.959-1.173-3.305.44-3.343.462-5.629 2.934-3.447 3.774-6.047 3.649-7.317-.336-.455-1.418-.809-1.58-3.464-1.622-1.646.008-3.597-.333-4.346-.741-.874-.439-2.383-.459-3.804-.061-3.369.951-4.874-.224-5.168-4.039-.215-2.602-.356-2.942-1.695-3.743-.881-.541-2.503-.757-3.914-.518-4.533.727-5.769-.078-5.566-3.655.06-1.503-.373-2.882-1.758-5.282-1.725-2.988-1.984-3.258-3.44-3.099-.839.066-1.89.305-2.237.506-.657.379-3.228-.496-3.66-1.244-.113-.195.144-2.076.533-4.084.689-3.542.231-6.477-1.23-8.206-.737-.833-1.444-.894-4.504-.386-4.848.807-5.781-3.847-1.292-6.438 1.431-.826 2.456-3.517 1.799-4.657-.183-.316-.21-2.238-.076-4.154.408-5.636.026-6.832-2.526-7.769-2.576-.979-3.382-2.19-2.592-3.956.416-.975 1.012-1.373 2.221-1.598 1.729-.316 2.86-2.018 5.226-7.842.931-2.321.94-2.484-.517-3.844-1.284-1.149-1.456-1.625-1.198-2.875.397-1.906 1.404-2.488 5.13-2.911l2.99-.361 2.705-3.451c2.626-3.402 2.64-3.466 1.859-6.16-1.151-4.053-.1-5.449 3.184-4.406l1.95.606 3.027-2.797c1.683-1.551 3.673-3.38 4.431-4.03 1.142-.97 1.294-1.425.703-2.45-1.908-3.304-.189-5.24 4.116-4.577 1.481.246 2.72.422 2.781.438.039-.022 3.046-1.6 6.736-3.522l6.697-3.5-.121-2.447c-.227-4.327 3.525-5.601 5.66-1.903 1.294 2.24 2.01 2.407 6.572 1.552 2.323-.446 5.232-.764 6.48-.75l2.292.041 1.507-3.02c1.278-2.521 1.784-3.074 3.094-3.31 1.151-.242 1.794.07 2.482 1.085 3.707 5.257 3.499 5.164 8.356 5.086 2.487-.071 5.63.37 7.032.923 2.729 1.15 3.909.785 6.655-2.06 1.22-1.28 1.847-1.535 3.175-1.466 2.078.11 2.45.843 2.485 5.016.067 1.902.25 3.738.431 4.052.183.316 1.819 1.364 3.608 2.32l3.247 1.691 2.219-1.699c3.744-2.895 6.905-1.888 6.421 2.01-.457 3.408-.217 4.268 1.441 5.354.881.54 2.23 1.81 3.061 2.797l1.482 1.768 3.27-1.576c1.771-.865 3.656-1.535 4.079-1.515 1.915.102 2.627 3.833 1.457 7.704-.9 3.093-.019 5.152 4.018 9.375 3.408 3.488 4.924 4.238 6.548 3.301 1.161-.671 3.366.467 3.786 1.905.16.641-.258 1.881-.921 2.785-1.387 1.798-1.421 2.813-.336 7.642 1.269 5.769 1.915 7.073 4.451 9.227 2.688 2.33 2.929 3.556 1.068 5.518-2.75 3.008-3.252 3.925-3.516 6.595-.204 1.794.108 3.764.802 5.411 1.193 2.874.961 4.791-.604 5.119-.594.134-1.581.388-2.198.483-.948.232-1.048.866-.713 3.766.589 5.222 1.379 6.234 6.125 7.845 5.117 1.713 8.9 3.62 14.637 7.386 4.474 2.925 8.508 4.371 14.455 5.29 3.511.54 4.736 2.039 3.621 4.308-.62 1.246-1.177 1.622-3.616 2.399-1.576.492-3.859.918-5.065.881-1.245-.015-2.226.078-2.219.18-.031.124.215 1.084.487 2.185.448 1.576.285 2.191-.729 2.938-1.549 1.155-3.524.772-5.62-1.162-2.459-2.199-9.828-7.279-10.819-7.388-.509-.074-3.551 1-6.828 2.474-3.926 1.69-7.507 2.815-10.606 3.345-2.658.486-5.084 1.204-5.61 1.717-1.175 1.097-.968 5.384.523 11.182.578 2.342 1.48 5.963 1.976 7.985.521 2.059 2.685 8.045 4.806 13.326 5.094 12.579 6.666 16.548 7.562 19.44 1.215 3.808 1.42 9.876.348 13.382l-.931 3.212 3.477 1.556c6 2.619 11.266 3.879 19.325 4.523 10.83.88 13.214 1.705 19.891 6.66 8.688 6.469 25.349 13.788 33.979 14.888 4.642.624 7.105 3.187 5.251 5.516-.796 1.037-1.012 1.108-2.881 1.086ZM177.152 164.459c-1.857-.083-5.66-2.291-6.569-3.865-1.134-1.965-1.535-5.615-.985-8.501.606-2.974.715-3.14 3.541-4.771 2.785-1.608 3.122-1.648 6.025-.91 3.662.979 5.684 2.695 7.276 6.076 1.294 2.871 1.092 4.929-.664 7.252-1.637 2.255-6.349 4.822-8.624 4.719Zm-410.621 212.514c-9.383-.072-11.995-.27-16.347-1.353l-4.359-1.024-2.862-3.598c-1.628-1.978-6.114-7.276-10.015-11.768-6.707-7.748-7.18-8.206-8.809-8.402-1.934-.238-3.539.762-4.027 2.479-.512 1.961 1.831 6.417 7.358 14.05 3.397 4.614 5.439 7.868 5.72 8.975.384 1.58-.169 1.022-6.074-5.923-3.597-4.179-6.971-8.147-7.518-8.766-2.239-2.542-6.144-1.212-6.796 2.357-.34 1.767-.116 2.254 2.959 6.738 1.831 2.645 4.421 6.793 5.721 9.249 3.535 6.501 8.491 18.082 8.487 19.86-.004.611-1.598 2.104-5.507 5.212-5.178 4.116-5.733 4.448-10.355 5.905-6.494 2.121-14.246 3.962-14.624 3.487-1.324-1.665-2.973-10.664-2.072-11.382.234-.187 1.233-.371 2.246-.398 3.106-.142 19.371-2.936 20.005-3.441 1.103-.876 1.258-3.493.312-4.682-1.404-1.765-3.847-1.819-12.385-.35-10.75 1.844-10.239 1.938-11.922-2.99-1.211-3.579-1.962-4.867-6.359-10.738-9.592-12.882-16.771-17.315-18.258-11.368l-.487 1.72 6.534 7.94c4.934 5.998 6.772 8.583 7.681 10.686.638 1.488 1.189 2.935 1.136 3.142-.044.425-1.084.42-8.772.217-2.316-.101-5.493.156-7.088.482-1.602.385-5.957 1.355-9.688 2.218-3.759.827-6.969 1.66-7.169 1.82-1.804 1.434-3.59-4.239-3.135-9.701.457-5.184-.426-8.421-3.396-12.155-1.566-1.969-2.36-2.556-4.469-3.151-3.473-1.007-6.2-.115-10.676 3.445-4.242 3.374-5.279 5.088-5.488 9.076-.187 3.811 1.248 6.438 5.585 9.97 4.11 3.385 4.868 4.887 4.089 8.501-.438 2.124-.304 3.459.443 5.082.738 1.684.845 2.983.349 5.376-.368 1.732-.52 4.626-.282 6.434.394 3.786-.146 5.987-1.815 7.318-1.236.982-3.289 3.612-4.599 5.873-1.011 1.747-.51 4.228 1.3 6.503 1.216 1.529 1.828 1.818 4.581 2.126 1.757.152 4.033.339 5.132.35 2.288.066 3.011 1.043 5.277 7.389 2.817 7.792 7.344 18.215 10.209 23.532 1.639 3.021 3.859 7.184 5.012 9.318 2.714 4.99 3.055 7.27 1.352 8.899-1.435 1.419-12.452 6.356-26.429 11.82-8.429 3.322-21.386 8.972-26.303 11.499-.049.025-.1.05-.148.078l38.447 66.591c.787.943 1.641 1.991 2.513 3.087 5.698 7.164 5.778 7.265 8.936 14.732a836.764 836.764 0 0 1 3.115 7.407l35.974 62.309a44.26 44.26 0 0 0 2.412-.121c6.102-.419 7.24-.77 8.385-2.622 1.69-2.675.353-5.659-4.296-9.721-1.233-1.07-4.819-4.482-8.014-7.539l-5.777-5.549-1.645-4.125c-1.963-4.868-3.326-9.051-5.703-17.525-.984-3.431-2.231-7.262-2.768-8.553a68.305 68.305 0 0 1-1.845-5.131c-2.674-9.123-5.156-15.465-10.825-27.529-1.641-3.573-3.106-6.786-3.25-7.172-.19-.514.238-.798 1.954-1.11 7.565-1.528 29.441-9.061 34.7-11.91 1.009-.583 4.47-2.06 7.597-3.271 7.371-2.869 10.843-4.47 15.471-7.153 2.053-1.189 4.883-2.775 6.341-3.547 1.398-.778 6.044-4.194 10.286-7.568 4.241-3.376 8.946-6.786 10.378-7.591 1.458-.772 4.368-2.529 6.474-3.928l3.811-2.476.965 1.281c.533.738 1.977 3.584 3.185 6.336 1.209 2.755 3.769 7.756 5.65 11.081a777.103 777.103 0 0 1 5.173 9.246c1.618 2.926 4.699 9.954 5.966 13.604.32 1.019 5.731 8.302 14.433 19.449 15.733 20.192 15.153 19.601 22.124 21.097 3.982.824 5.957.085 7.479-2.733 1.402-2.557.84-4.772-2.217-8.548-2.161-2.716-3.009-3.372-6.957-5.387l-4.532-2.27-4.727-5.942c-2.835-3.565-5.35-7.275-6.312-9.171-.881-1.793-2.18-3.975-2.849-4.885-1.971-2.478-6.854-13.005-12.546-26.881-.674-1.739-3.299-7.576-5.795-12.909l-4.477-9.743 2.605-2.073c1.404-1.115 3.132-2.986 3.83-4.098 1.257-2.053 2.34-2.749 2.495-1.594.027.307 1.13 2.312 2.47 4.408 3.779 5.916 6.155 10.07 8.018 13.852 1.588 3.23 3.082 5.864 7.549 13.4.968 1.559 2.506 4.659 3.49 6.925.984 2.266 3.167 6.793 4.814 10.029 2.737 5.361 4.247 8.151 9.534 17.473 2.755 4.903 8.242 11.46 11.743 13.941 4.403 3.205 8.517 4.812 10.982 4.346 4.115-.723 8.036-5.393 7.248-8.646-.473-1.897-2.816-3.747-6.587-5.128-4.153-1.519-6.808-3.897-11.557-10.486-2.296-3.161-4.507-6.558-4.956-7.533-.475-1.008-2.146-4.002-3.824-6.659-3.293-5.307-6.765-12.688-13.075-27.959l-4.036-9.873-9.424-11.849-9.397-11.816-1.396-6.76c-1.355-6.571-2.83-11.443-4.551-14.841-.507-.981-2.381-5.256-4.214-9.617-1.806-4.329-3.976-8.976-4.809-10.367-2.847-4.608-4.232-7.995-6.113-14.817-1.01-3.738-2.22-7.935-2.597-9.299-2.881-10.067-3.814-14.258-4.721-20.746-.577-4.085-.814-8.497-.518-9.839 1.205-5.891 7.132-6.392 17.62-1.433 4.109 1.943 5.229 2.048 6.833.774 2.105-1.674 1.764-3.954-.989-5.975-2.58-1.941-2.522-2.485.161-1.238 2.508 1.165 4.233 1.346 6.349.715 3.737-1.199 4.078-6.735.589-9.34-3.628-2.708-15.313-5.333-24.055-5.423Zm-103.688 28.093c.246-.307 2.289-1.098 4.465-1.723 7.723-2.151 17.082-1.835 19.054.645.675.847.906 1.55.606 1.789-.668.533-7.37 1.705-10.757 1.903-3.385.201-13.995-1.893-13.368-2.614Zm71.016 10.643c1.581 7.335 2.182 18.444 1.343 24.931-.58 4.62-3.707 13.647-5.846 16.786-1.27 1.9-3.018 3.68-5.885 5.904-3.601 2.809-5.415 3.75-15.856 8.175-6.473 2.764-12.142 5.168-12.617 5.325-.791.24-1.781-.799-7.885-8.474-7.966-10.015-8.449-10.965-13.964-25.922-3.326-9.05-7.887-26.099-7.326-27.656.192-.65 1.694-.68 5.835-.205 4.142.477 7.025.398 11.02-.338 2.995-.555 5.851-.941 6.328-.821.57.1 1.164.847 1.789 2.181.528 1.075 1.714 3.458 2.596 5.253 2.798 5.642 3.652 11.174 2.763 18.42-.465 3.53-1.224 7.238-1.755 8.216-1.375 2.592-1.509 4.137-.429 5.495 1.378 1.732 3.967 1.834 5.455.208 2.214-2.427 2.993-5.151 3.87-13.169.756-6.865.747-8.797-.227-12.902-.637-2.652-.91-4.982-.676-5.168.267-.213 2.416-.871 4.735-1.384 2.324-.575 6.578-1.739 9.452-2.584 4.709-1.416 5.746-1.963 10.322-5.329 5.868-4.279 5.284-4.532 6.958 3.058Zm188.618-33.28c-15.652-.687-28.163.449-40.001 3.6-3.682.992-21.301 4.142-30.371 5.423-4.378.597-16.431 3.476-17.199 4.088-.267.213-2.418.868-4.768 1.41-2.36.599-5.513 1.503-6.974 1.997-1.459.498-3.449.806-4.384.66-2.327-.252-3.947-2.289-3.32-4.174.408-1.27.803-1.528 4.257-2.946 3.902-1.607 22.409-7.067 34.769-10.247 10.283-2.635 20.422-4.493 25.304-4.663 1.074-.021 3.185-.316 4.594-.601 5.474-1.139 18.053-1.778 26.547-1.384 9.676.508 21.793.796 25.723.663 7.678-.287 9.654.414 9.355 3.258-.211 2.272-1.913 2.737-10.68 2.893-4.72.098-10.536.124-12.852.023Zm199.047-5.155c.751 3.892-2.633 7.526-7.914 8.566-2.84.541-4.821-.1-9.554-3.099-2.119-1.363-5.72-3.488-8.007-4.718-2.252-1.256-5.227-2.938-6.544-3.772-10.917-6.731-14.178-8.847-17.364-11.136-2.018-1.443-4.071-2.584-4.567-2.521-.59.083-1.405.84-2.31 2.17l-1.38 2.04 2.12 2.526c1.167 1.4 6.16 5.69 11.103 9.573 4.916 3.85 10.407 8.352 12.195 9.98 3.733 3.46 5.212 4.223 9.602 4.945 3.881.627 5.821 2.52 5.271 5.12-.47 2.147-1.983 3.129-6.269 4.044-6.198 1.327-11.391-1.084-18.633-8.683-4.43-4.68-8.86-7.641-17.743-11.887-7.513-3.614-9.434-4.247-11.604-3.684-.945.251-6.37 4.125-15.632 11.266-10.482 8.008-14.854 11.152-16.675 11.881-2.362.935-2.564 1.095-3.59 3.574-1.015 2.361-.98 2.887.279 6.318 3.39 9.335 5.729 14.403 8.444 18.229l2.818 4.023 5.425 2.502c6.481 2.938 8.586 5.033 8.26 8.121-.465 4.693-4.422 4.792-19.578.549-3.36-.931-8.45-8.91-12.928-20.371-2.218-5.665-3.136-7.37-5.487-10.324-1.54-1.936-3.386-3.85-4.113-4.212-1.245-.675-2.908-.57-3.012.121-.071.665 1.853 4.181 6.99 12.902 2.827 4.788 6.343 11.195 7.826 14.228 3.538 7.329 5.597 9.573 9.301 10.118 5.875.871 8.3 2.822 8.068 6.443-.112 1.641-.478 2.21-2.446 3.776-4.98 3.959-10.109 2.994-16.882-3.259-3.849-3.534-7.48-9.404-14.062-22.686-1.557-3.192-4.558-8.402-6.666-11.602l-3.846-5.867-3.811-.125c-9.843-.379-13.546-1.536-19.464-6.03-1.812-1.383-3.567-2.428-3.95-2.291-1.013.305-4.062 13.543-4.638 20.153-.26 3.31-.883 6.3-1.415 7-1.419 1.85-3.221 2.396-5.144 1.487-2.567-1.174-3.533-3.896-2.777-7.881.368-1.731 1.06-6.552 1.57-10.78.566-4.223 1.556-9.22 2.27-11.064 3.39-8.906 3.532-9.682 3.345-20.067-.09-4.637.138-6.204 1.337-8.602.811-1.588 2.349-3.698 3.405-4.704 2.851-2.655 9.916-4.947 19.488-6.353 9.076-1.343 13.642-2.592 22.401-6.119 10.129-4.065 17.803-8.675 26.89-16.178 7.24-5.978 7.721-6.473 8.467-8.62 1.224-3.466.883-4.858-2.428-9.43-2.479-3.46-3.559-4.543-7.187-7.255-3.381-2.469-5.073-4.116-7.801-7.545-6.023-7.571-11.048-10.39-18.264-10.139-4.325.116-7.226.925-13.229 3.594-4.363 1.918-5.91 2.925-12.124 7.866-6.704 5.28-12.817 9.253-18.452 11.904-4.611 2.226-12.878 5.201-16.163 5.872-1.782.365-5.434 1.329-8.085 2.107-4.26 1.227-6.68 1.546-14.84 2.048-5.575.331-20.839-.554-22.564-1.286-1.548-.71-1.73-3.339-.326-4.454 1.369-1.091 2.742-1.352 11.996-2.057 13.884-1.125 41.543-7.492 48.642-11.249 4.215-2.246 14.258-9.846 14.167-10.715-.099-.533-4.801.549-18.374 4.191-12.658 3.419-23.5 4.392-34.837 3.099-15.625-1.821-24.668-5.714-22.797-9.807.317-.697 1.074-1.464 1.623-1.733 1.599-.663 8.948.143 17.025 1.868 12.444 2.685 25.327 1.808 42.837-2.919 5.861-1.612 8.58-2.719 8.066-3.365-.541-.678-11.244-3.918-15.984-4.807-11.28-2.113-34.538-4.067-41.669-3.498-3.637.291-5.521-3.31-2.816-5.463 1.939-1.541 11.213-3.318 19.233-3.656 9.034-.368 27.404 2.705 35.205 5.865 4.869 2.007 13.615 4.637 13.754 4.197.224-.679-4.265-4.813-9.085-8.408-5.986-4.439-12.095-7.73-18.25-9.709a535.392 535.392 0 0 1-10.797-3.773c-4.946-1.83-5.614-2.186-5.933-3.483-.912-3.543 1.412-4.118 9.638-2.347 7.839 1.694 14.055 3.957 21.446 7.836 9.531 5.056 14.755 8.88 22.988 16.969 4.88 4.767 7.665 5.32 21.668 4.273 6.846-.511 6.813-.484 2.957-5.402-2.234-2.879-2.55-3.07-8.642-5.652-3.515-1.474-13.954-5.479-23.254-8.945-18.638-6.906-24.35-9.288-30.513-12.647-7.89-4.368-20.402-13.927-21.59-16.588-.697-1.494.014-3.002 1.7-3.623 1.145-.411 2.837.347 13.339 6.073 4.944 2.723 12.826 6.321 23.23 10.626 2.58 1.052 8.135 3.51 12.37 5.406 4.228 1.958 8.505 3.767 9.485 4.042 1.868.565 6.818.617 7.52.061.968-.772-2.905-2.898-11.656-6.362-11.569-4.6-14.75-6.062-25.995-12.25-10.091-5.556-10.38-5.712-17.588-10.731-5.847-4.058-6.95-5.172-6.74-6.893.12-1.426 1.704-2.796 2.9-2.529.51.095 3.659 1.858 7.021 3.894 6.61 4.058 13.531 7.478 20.148 9.972 6.594 2.46 24.68 10.525 27.412 12.181a98.283 98.283 0 0 0 5.406 2.958l2.936 1.494-1.981-2.694c-1.812-2.554-2.384-2.928-7.855-5.559-10.113-4.762-27.96-15.68-35.901-21.891-2.652-2.101-6.193-4.772-7.877-5.928-4.84-3.413-5.702-5.11-3.397-6.944 1.435-1.144 2.9-.811 6.682 1.614 1.751 1.102 5.385 3.201 8.108 4.638 2.723 1.437 5.498 3.002 6.153 3.419 1.712 1.191 18.715 10.502 21.117 11.53 2.252.982 13.033 6.653 15.824 8.311 1.126.659 3.245 2.911 5.972 6.338 6.291 7.911 8.037 11.068 9.572 17.387 2.078 8.715 3.404 10.929 8.635 14.696 2.162 1.552 2.893 1.578 7.48.148 5.09-1.555 13.001-2.304 14.897-1.428 5.2 2.352 3.871 7.951-3.244 13.611l-2.472 1.966 2.05 2.027c1.104 1.117 3.888 3.175 6.182 4.618 2.233 1.44 5.997 4.044 8.314 5.858 3.852 2.924 4.675 3.821 9.645 10.345 4.665 6.212 5.707 7.933 8.11 13.285 1.515 3.342 3.564 7.362 4.54 8.861.974 1.496 2.642 4.829 3.713 7.41 3.238 7.572 3.996 8.522 9.643 11.51 2.664 1.43 7.734 4.715 11.196 7.284 10.334 7.578 18.781 11.615 22.034 10.633 3.517-1.134 6.599.683 7.261 4.259ZM1708.26-614.399c-1.12-.321-7.51.153-8.07.606-.77.612-.73 1.35.66 6.733.65 2.533 1.63 6.298 2.16 8.479.55 2.12 1.08 3.963 1.19 4.099.14.168.64 2.103 1.1 4.333 1.48 6.866 7.65 22.301 11.98 30.001 1.05 1.877 6.5 9.132 13.08 17.418l11.32 14.225 3.79 2.088c4.63 2.528 7.01 5.178 7.12 7.86.12 2.956-1.5 4.689-6.07 6.491-2.14.812-4.38 1.488-5.02 1.44-2.67-.143-6.8-2.793-11.86-7.58-4.5-4.35-5.39-5.412-8.95-10.902-2.15-3.328-7.5-10.88-11.84-16.744-4.4-5.87-8.65-11.966-9.55-13.581-.87-1.577-2.39-4.247-3.38-5.961-3.24-5.453-6.55-12.356-7.82-16.281-1.73-5.331-6.21-16.453-7.92-19.698-4.43-8.449-5.05-9.291-10.84-14.659-4.52-4.166-6.63-6.481-11.22-12.529-5.24-6.862-5.71-7.38-6.08-6.475-.73 1.69-.84 10.26-.23 14.32 1.51 9.439 1.41 18.56-.29 23.014-.47 1.258-2.24 4.444-3.95 7.024-2.63 4.031-3.81 5.359-8.32 9.223-5.01 4.261-5.54 4.625-10.25 6.378-2.75 1.075-5.91 2.312-7.06 2.785-3.65 1.578-6.58.083-7.29-3.679-.67-3.456 3.03-8.061 9.85-12.377 6.68-4.208 11.61-8.237 12.62-10.319.91-1.943 1.73-10.302 2.3-23.229.38-8.719 1.59-14.12 4.26-18.789.7-1.17 1.33-2.444 1.42-2.799.5-1.778 4.47-10.427 5.88-12.769 4.26-7.191 13.94-15.84 22.74-20.449l38.44 66.59c-2.04-2.455-3.64-4.211-3.9-4.287Zm18.47 29.514c2.29 5.533 4.29 10.548 6.03 15.137.94 2.473 2.51 6.376 3.46 8.667.99 2.267 3.54 8.495 5.73 13.849 3.8 9.448 4.01 9.84 8.7 16.084 5.37 7.167 7.01 8.656 12.05 8.572l-35.97-62.309ZM-260.314 655.993c-1.86 1.102-3.762 2.221-5.875 2.679-6.396 1.387-12.34-3.507-16.741-8.35-3.534-3.888-6.873-8.04-9.07-12.812-1.983-4.308-2.976-8.994-3.952-13.635-.923-4.388-1.835-9.014-.463-13.283.602-1.874 1.62-3.583 2.629-5.273 4.763-7.978 9.572-16.02 15.869-22.852 5.628-6.108 12.323-11.118 18.976-16.089 1.97-1.472 4.06-2.994 6.5-3.298 3.217-.404 6.364 1.455 8.469 3.92 2.105 2.467 3.399 5.502 4.868 8.393 5.783 11.378 14.766 21.108 25.647 27.781 2.725 1.671 5.683 3.265 7.387 5.97 2.511 3.988 1.499 9.439-1.27 13.252-5.48 7.546-16.092 10.793-23.63 15.972-9.368 6.436-19.569 11.832-29.344 17.625Zm134.323-87.698c-9.3-1.578-17.749-7.585-22.294-15.851-5.003-9.102-5.197-19.96-7.332-30.125-3.373-16.052-11.708-30.62-21.01-44.127-4.189-6.083-8.684-12.192-10.59-19.325-1.906-7.133-.587-15.699 5.242-20.231 2.368-1.845 5.253-2.872 8.083-3.871 22.585-7.969 45.285-15.966 68.834-20.324 1.66-.305 3.413-.587 5-.013 1.704.616 2.92 2.112 3.926 3.618 5.35 8.011 7.145 17.821 11.034 26.635 3.888 8.814 11.313 17.398 20.945 17.554 5.587.091 10.935-2.712 16.519-2.516 8.97.315 15.65 7.939 23.15 12.866 11.185 7.347 25.501 8.935 38.623 6.305 13.121-2.63 25.179-9.156 36.057-16.949 4.524-3.241 9.178-7.168 10.318-12.615 1.31-6.253-2.375-12.306-4.522-18.324-2.149-6.018-1.796-14.405 4.122-16.815 5.097-2.077 10.446 1.754 15.357 4.241 9.554 4.843 21.482 4.669 30.892-.45 4.836-2.631 10.103-6.618 15.237-4.628 4.472 1.733 6.19 7.568 4.817 12.164-1.372 4.595-4.992 8.137-8.672 11.213-9.173 7.671-20.248 12.531-30.546 18.609-23.927 14.122-47.191 29.53-72.527 40.938-13.55 6.102-24.728 16.146-37.984 22.865-15.415 7.814-31.266 14.953-45.084 25.296-10.959 8.203-22.988 15.361-35.727 20.713-6.898 2.898-14.413 4.412-21.868 3.147Zm599.055-339.487c-3.356 1.858-6.791 3.744-10.57 4.4-3.778.656-8.033-.135-10.623-2.963-3.729-4.075-2.76-10.41-1.834-15.855 3.021-17.742 2.558-37.515-8.466-51.741-4.253-5.485-9.831-9.801-14.346-15.072-4.517-5.27-8.044-12.084-6.916-18.932 1.249-7.554 7.654-13.009 13.516-17.938 7.574-6.373 15.076-13.195 19.767-21.91 3.855-7.165 5.611-15.227 7.79-23.064 2.183-7.836 4.958-15.778 10.383-21.838 5.424-6.06 14.085-9.853 21.858-7.454 8.295 2.56 13.126 10.966 17.059 18.705 13.771 27.112 26.817 55.238 47.639 77.398 4.888 5.2 10.234 10.112 13.805 16.291 3.568 6.18 5.111 14.083 1.875 20.444-3.079 6.056-9.625 9.374-15.704 12.407-22.519 11.24-44.073 24.331-66.085 36.519l-19.148 10.603ZM826.593 26.006c-2.123 1.305-4.35 2.66-6.836 2.828-5.389.365-9.383-4.723-12.284-9.279-13.014-20.442-25.124-41.443-37.227-62.437-5.682-9.855-11.418-19.834-14.557-30.768-1.899-6.62-2.794-13.801-.628-20.339 2.502-7.557 8.963-13.989 8.791-21.951-.046-2.134-.586-4.269-.3-6.386.398-2.953 2.327-5.439 3.451-8.194 1.599-3.917 1.549-8.306 2.705-12.379 2.815-9.913 13.574-16.877 23.768-15.388 8.74 1.276 15.691 7.647 22.846 12.821a97.99 97.99 0 0 0 25.873 13.355c7.753 2.631 15.854 4.295 23.307 7.69 7.451 3.392 14.428 8.911 17.162 16.627 2.139 6.037 1.455 12.681.397 18.997-1.152 6.877-2.716 13.732-2.768 20.704-.048 6.97 1.584 14.233 6.115 19.532 3.465 4.052 8.322 6.636 12.261 10.23 3.941 3.591 7.073 9.041 5.422 14.113-1.145 3.52-4.291 5.952-7.294 8.122C885.853-8.188 874.742-.79 862.809 5.45a602.561 602.561 0 0 0-36.216 20.557Zm259.177-150.011c-3.29 2.486-6.9 5.139-11.02 5.06-2.35-.044-4.58-.993-6.74-1.944a426.52 426.52 0 0 1-65.19-35.855c-4.265-2.854-8.634-5.96-11.012-10.505-3.345-6.391-2.042-14.074-1.931-21.285.364-23.544-12.879-46.737-7.774-69.722 1.033-4.648 2.791-9.097 4.544-13.521 4.694-11.85 9.468-23.842 16.983-34.137a75.654 75.654 0 0 1 23.03-20.757c.98-.568 2.1-1.134 3.19-.834.9.25 1.54 1.029 2.05 1.798 3.87 5.754 4.37 13.056 4.74 19.979.75 13.897 1.5 27.811 1.23 41.723-.43 21.898-3.31 44.402 3.34 65.267 3.45 10.805 11.44 22.057 22.78 22.189 3.64.043 7.21-1.112 10.51-2.641 10.14-4.689 18.22-12.811 26.06-20.765l21.78-22.092c2.85-2.887 5.75-5.819 9.33-7.736 3.57-1.916 7.98-2.697 11.7-1.085 5.4 2.339 7.63 8.599 10.08 13.948a63.738 63.738 0 0 0 12.53 18.152c3.94 3.998 14.4 11.757 12.71 18.442-1.38 5.434-11.49 12.162-15.82 14.254-17.05 8.248-33.78 17.23-49.65 27.569-8.7 5.665-19.16 8.242-27.45 14.498Zm179.87-103.447c-4.48 2.996-9.55 5.63-14.94 5.445-5.39-.186-10.96-4.109-11.27-9.491-.36-6.344 5.97-10.729 11.37-14.079a184.819 184.819 0 0 0 30.82-23.993c1.77-1.712 3.54-3.495 4.68-5.678 1.64-3.134 1.86-6.818 1.67-10.353a51.603 51.603 0 0 0-5.06-19.687c-2.19-4.516-5.07-8.773-6.28-13.645-1.22-4.868-.3-10.752 3.82-13.621 4.59-3.197 10.78-1.433 16.37-1.173 7.64.351 15.05-2.38 22.13-5.268 3.4-1.384 6.85-2.866 9.49-5.411 3.18-3.068 4.83-7.356 6.24-11.538a198.298 198.298 0 0 0 9.15-40.537c.55-4.669.98-9.506 3.21-13.644 2.24-4.137 6.85-7.413 11.46-6.479 4.53.917 7.36 5.313 9.72 9.29a514.965 514.965 0 0 0 36.27 53.127c3.55 4.556 7.21 9.101 9.72 14.304 2.52 5.202 3.81 11.217 2.36 16.808-2.37 9.14-11.16 14.887-19.26 19.733l-131.67 75.89Zm257.13-150.103c-8.52 4.585-17.72 9.233-27.35 8.298-9.8-.954-18.06-7.511-25.25-14.234a236.3 236.3 0 0 1-22.14-23.737c-4.42-5.434-8.72-11.341-9.98-18.23-1.96-10.672 3.84-21.379 11.37-29.197 7.52-7.819 16.83-13.727 24.48-21.423 6.41-6.44 11.6-14.083 18.58-19.894 6.98-5.805 16.63-9.633 25.19-6.59 10.38 3.694 15.02 15.475 22.53 23.543 8.39 9.008 20.82 13.466 33.1 14.319 12.28.855 24.54-1.564 36.49-4.529 4.74-1.175 9.53-2.469 13.74-4.959 4.85-2.876 8.65-7.188 12.37-11.427 7.13-8.121 14.67-17.32 14.49-28.122-.15-8.471-5.09-16.079-6.87-24.36-1.21-5.62-.52-12.373 4.13-15.756 3.99-2.901 9.7-2.296 13.98.153 4.27 2.448 7.43 6.414 10.48 10.281 5.73 7.273 11.51 14.628 15.46 23.007 3.94 8.378 20.92 22.919 18.68 31.906-2.68 10.791-22.96 19.171-32.18 25.391-40.36 27.237-77.63 44.179-116.15 66.106a1708.013 1708.013 0 0 1-35.15 19.454Zm-337.35-99.141a81.51 81.51 0 0 1-22.47-12.841c-1.45-1.17-2.91-2.465-3.59-4.199-1.44-3.656.26-9.066 3.05-11.836 8.01-7.947 18.85-12.237 28.23-18.503 8.58-5.73 13.37-8.449 26.67-15.387 1.68-.878 3.65-1.171 5.54-1.049 2.1.133 4.08 1.042 5.82 2.232 5.67 3.895 8.81 10.689 9.81 17.5.99 6.809.1 13.736-.79 20.56-.96 7.434-1.97 15.001-5.1 21.816-3.02 6.579-10.84 16.951-19.06 13.077-4.32-2.037-8.17-4.572-12.72-6.221-5.09-1.847-10.33-3.247-15.39-5.149Zm-495.204 295c4.988 5.03 5.64 10.316 4.551 17.417-.46 2.995-1.075 6.011-2.432 8.72-3.069 6.135-9.645 9.935-16.38 11.241-6.739 1.304-13.693.446-20.467-.655-11.579-1.879-23.389-4.597-32.997-11.331a45.2 45.2 0 0 1-13.805-15.535c-2.137-3.969-3.652-8.873-1.595-12.886 1.418-2.763 4.227-4.488 6.904-6.066 10.13-5.988 20.294-11.981 31.014-16.831 4.94-2.236 10.095-4.251 15.506-4.583 5.407-.333 11.166 1.241 14.822 5.239 1.597 1.75 2.723 3.866 3.835 5.957 3.281 6.186 6.103 14.327 11.044 19.313Zm-198.644 63.431c4.632-1.485 10.458-1.37 15.039.267 2.539.908 4.702 2.613 6.798 4.312 2.61 2.119 5.25 4.34 6.901 7.269 3.212 5.69 2.075 12.739.844 19.155-1.039 5.413-2.132 10.976-5.094 15.625-4.313 6.772-11.947 10.633-19.473 13.44-7.522 2.81-15.456 4.969-21.991 9.633-4.616 3.293-8.316 7.693-11.778 12.183-2.007 2.6-3.987 5.285-6.582 7.304-2.596 2.017-5.955 3.31-9.178 2.672-3.41-.67-6.027-3.294-8.79-5.404-10.875-8.3-25.421-9.236-38.898-11.6-1.984-.348-4.013-.754-5.736-1.8-1.722-1.045-3.108-2.873-3.077-4.886.018-1.512.806-2.899 1.655-4.148 5.311-7.803 12.724-14.512 20.797-19.397 13.625-8.248 27.424-16.186 41.049-24.434 5.694-3.445 11.266-6.416 17.11-9.684 6.723-3.76 13.07-8.154 20.404-10.507Zm-614.901 397.936c-4.896 15.339-6.699 31.486-10.735 47.073-1.672 6.447-3.812 12.963-8 18.143-2.539 3.139-5.743 5.676-9.07 7.963-13.871 9.532-31.012 15.164-47.653 12.653-16.79-2.533-31.239-12.83-44.91-22.906-5.647-4.162-11.352-8.401-15.745-13.871-2.349-2.925-4.37-6.771-3.088-10.296.784-2.155 2.651-3.703 4.481-5.082 5.486-4.14 11.358-7.736 17.236-11.298a2333.582 2333.582 0 0 1 122.468-69.261c3.089-1.626 6.983-3.221 9.858-1.241 5.88 4.046-1.006 16.098-3.306 20.776-4.364 8.882-8.522 17.905-11.536 27.347ZM1038.3-436.479c18.94-11.355 37.96-22.615 57.76-32.429 4.05-2.007 8.27-3.987 12.78-4.139 4.52-.147 9.42 2.018 11.1 6.205.19.454.33.967.16 1.424-.19.521-.72.823-1.22 1.082-5.61 2.965-11.24 5.928-16.85 8.893-6.81 3.591-13.71 7.238-19.38 12.444-4.66 4.283-8.36 9.491-12.28 14.468a187.44 187.44 0 0 1-19.57 21.289c-3.58 3.334-7.52 6.647-12.31 7.608-5.79 1.164-12.17-1.702-15.15-6.804-.95-1.63-1.57-3.433-2.09-5.25-.65-2.253-1.16-4.593-.94-6.926.33-3.579 2.35-6.833 4.95-9.316 3.74-3.582 8.63-5.902 13.04-8.549Zm626.18-256.226c-.99.564-23.59 13.807-45.38 24.698-5.33 2.661-9.12 7.799-12.4 12.768-2.49 3.75-4.2 7.951-5.89 12.119-2.43 5.964-4.85 11.925-7.28 17.889-2.41 5.94-5.35 12.438-11.25 14.971-5.11 2.195-11.23.647-15.72-2.631-4.49-3.279-7.64-8.047-10.47-12.841-7.3-12.38-13.09-25.587-18.85-38.754-1.99-4.53-3.97-9.058-5.96-13.588-2.74-6.263-5.49-12.535-7.72-19.001-1.53-4.444-2.77-9.515-.6-13.684 1.58-3.037 4.67-4.949 7.61-6.708 8.68-5.207 17.37-10.415 26.06-15.624l46.38-27.797a1154.65 1154.65 0 0 1 16.51-9.696l44.96 77.879ZM-422.804 408.55c4.536-2.091 10.31-2.606 15.269-2.006 6.856.83 12.064 6.743 14.931 13.025 2.866 6.281 4.074 13.216 6.872 19.529 3.245 7.322 8.534 13.599 11.742 20.939 3.208 7.339 3.865 16.763-1.597 22.621-1.37 1.47-3.043 2.62-4.699 3.759a472.713 472.713 0 0 1-19.167 12.49l-44.963-77.879" fill="#F8F9FA"/></g><defs><clipPath id="a"><path fill="#fff" transform="scale(1 -1) rotate(30 920.784 121.723)" d="M0 0h250v368.446H0z"/></clipPath></defs></svg>