<svg width="250" height="384" fill="none" xmlns="http://www.w3.org/2000/svg"><g opacity=".15" clip-path="url(#a)"><path d="M796.923 387.526H-1685.7v127.138c6.21-4.039 7.52-38.963 10.78-41.959 15.34-14.116 49.13-9.154 49.98 13.77.39 10.664-3.38 23.111 9.36 27.49 7.87 2.703 19.14-1.675 27.31-1.625-5.71-12.183-11.28-33.55-.53-44.705 8.4-8.73 26.49-6.481 37.64-5.84 41.22 2.369-1.2 40.569 25.29 49.448 6.64 2.225 23.43 1.898 27.36-4.351 5.72-9.097-4.99-21.495 2.15-31.775 9.8-14.123 49.93-26.742 58.99-6.513 8.46 18.895-11.63 36.47 19.52 39.071 11.42.953 22.16 1.215 25.2-11.495 2.4-10.001-4.46-22.505 2.25-31.808 11.62-16.133 49.05-9.797 55.3 7.932 2.7 7.652.4 16.457 7.32 22.262 4.81 4.031 21.54 7.637 25.87 1.344 9.4-13.666-10.99-30.585 13.5-38.459 20.22-6.501 43.55-.565 44.36 22.072.59 16.421 1.25 26.909 20.23 29.755 9.27 1.389 16.7.752 19.86-8.597 5.5-16.254-9.86-35.658 13.82-42.453 18.52-5.314 47.73-.431 46.51 22.614-.65 12.289-6.65 23.478 8.04 28.808 7.27 2.642 23.12 4.675 29.04-1.035 13.51-13.043-7.83-37.659 16.07-45.766 19.54-6.627 42.81-7.532 46.75 15.638 2.18 12.848-1.36 33.848 17.28 33.203 25.37-.879 8.54-26.681 16.53-39.758 9.97-16.329 46.326-9.97 51.583 7.265 3.469 11.383-4.982 22.613 8.54 28.773 8.338 3.798 21.589.77 30.371.34-3.354-28.116-11.682-53.624 26.395-51.449 8.98.512 24.041-.746 31.244 5.543 9.242 8.07 3.443 19.055 6.065 29.123 2.883 11.067 11.459 15.817 23.611 13.718 15.981-2.759 8.696-13.315 10.146-25.165 2.28-18.655 38.927-25.948 53.896-17.035 17.623 10.495-4.591 43.027 22.019 46.392 25.501 3.225 1.658-33.237 15.071-45.558 13.777-12.658 54.932-5.351 58.332 13.716 1.88 10.531-4.379 21.958 3.959 31.104 7.428 8.146 22.188 7.148 32.105 7.148-4.134-.213-2.807-40.815.401-45.39 9.652-13.775 49.953-9.741 60.506.799 10.837 10.823 2.334 34.245 14.538 43.446 19.49 14.692 19.285-15.965 18.11-25.793-3.509-29.323 21.169-25.372 43.496-23.117 7.961.804 16.325-.317 21.142 6.987 5.895 8.946-1.983 21.373.569 30.641 4.012 14.561 13.701 6.801 24.535 7.952 3.052.325 6.415 4.845 8.898 3.425v-.133c6.206-4.039 7.524-38.963 10.781-41.959 15.342-14.116 49.129-9.154 49.977 13.77.39 10.664-3.383 23.111 9.361 27.49 7.868 2.703 19.143-1.675 27.309-1.625-5.707-12.183-11.275-33.55-.533-44.705 8.407-8.73 26.491-6.481 37.64-5.84 41.221 2.369-1.199 40.569 25.296 49.448 6.64 2.225 23.426 1.898 27.358-4.351 5.72-9.097-4.988-21.495 2.145-31.775 9.805-14.123 49.931-26.742 58.991-6.513 8.467 18.895-11.626 36.47 19.526 39.071 11.414.953 22.159 1.215 25.201-11.495 2.393-10.001-4.463-22.505 2.244-31.808 11.625-16.133 49.053-9.797 55.306 7.932 2.698 7.652.394 16.457 7.319 22.262 4.806 4.031 21.542 7.637 25.869 1.344 9.394-13.666-10.987-30.585 13.499-38.459 20.218-6.501 43.548-.565 44.36 22.072.588 16.421 1.247 26.909 20.234 29.755 9.265 1.389 16.696.752 19.858-8.597 5.501-16.254-9.861-35.658 13.816-42.453 18.52-5.314 47.73-.431 46.511 22.614-.648 12.289-6.65 23.478 8.038 28.808 7.275 2.642 23.128 4.675 29.043-1.035 13.505-13.043-7.829-37.659 16.067-45.766 19.54-6.627 42.814-7.532 46.75 15.638 2.185 12.848-1.357 33.848 17.282 33.203 25.373-.879 8.544-26.681 16.528-39.758 9.973-16.329 46.329-9.97 51.586 7.265 3.469 11.383-4.982 22.613 8.54 28.773 8.338 3.798 21.589.77 30.37.34-3.353-28.116-11.681-53.624 26.396-51.449 8.98.512 24.041-.746 31.244 5.543 9.242 8.07 3.443 19.055 6.065 29.123 2.883 11.067 11.459 15.817 23.611 13.718 15.981-2.759 8.696-13.315 10.145-25.165 2.281-18.655 38.928-25.948 53.896-17.035 17.624 10.495-4.591 43.027 22.019 46.392 25.502 3.225 1.659-33.237 15.072-45.558 13.777-12.658 54.932-5.351 58.331 13.716 1.881 10.531-4.379 21.958 3.96 31.104 7.428 8.146 22.187 7.148 32.105 7.148-4.135-.213-2.807-40.815.4-45.39 9.653-13.775 49.954-9.741 60.507.799 10.837 10.823 2.333 34.245 14.538 43.446 19.49 14.692 19.285-15.965 18.11-25.793-3.509-29.323 21.168-25.372 43.496-23.117 7.961.804 16.325-.317 21.141 6.987 5.896 8.946-1.982 21.373.57 30.641 4.012 14.561 13.701 6.801 24.535 7.952 3.052.325 6.415 4.845 8.898 3.425V387.526ZM-1685.7 525.849v77.759H796.923v-77.655c-9.931 6.732-43.033-.631-46.674-13.024-3.257-11.087 5.843-26.439-6.332-33.726-4.28-2.56-30.116-2.754-32.453.896-7.359 11.488 17.828 41.605-3.456 49.813-12.105 4.723-36.239 6.67-44.353-6.186-7.99-12.662 5.866-32.076-7.911-42.722-6.074-4.694-30.205-6.527-36.653-1.545-12.788 9.883 4.733 29.261-.06 41.489-6.011 15.344-27.229 8.753-38.934 5.16-18.361-5.637-24.588-12.858-24.757-32.145-.076-8.886 2.519-14.46-6.915-18.538-3.988-1.725-17.209-.873-21.44.474-18.848 6.005-2.221 24.582-9.069 38.951-10.788 22.629-44.966 3.994-49.071-14.431-1.751-7.863 2.993-16.817-4.243-22.58-4.336-3.451-14.336-2.439-19.504-.797-16.951 5.388-7.391 13.768-10.324 26.97-3.724 16.769-22.611 16.63-36.534 15.451-17.071-1.445-25.164-5.416-26.2-23.237-.904-15.522 2.327-24.586-16.726-25.638-14.744-.814-23.565 3.523-23.059 18.906.569 17.199 9.159 30.588-15.118 33.881-11.062 1.501-37.477.477-44.743-9.586-7.335-10.164 4.231-26.734-6.412-33.795-13.399-8.89-23.853 3.743-23.661 15.112.282 16.943 3.39 28.256-17.957 30.203-13.181 1.201-28.355-.656-34.952-13.299-5.674-10.872-.007-31.595-13.052-37.809-18.183-8.662-22.665 11.642-23.271 23.192-.87 16.603-6.752 27.957-24.432 28.474-9.434.276-32.145.022-40.05-6.184-14.197-11.15 2.261-32.939-11.49-43.616-8.38-6.508-23.667-7.071-27.44 2.843-4.857 12.744 6.759 29.444-5.44 40.561-8.642 7.875-26.302 5.501-36.48 3.327-16.26-3.472-22.182-9.172-23.155-25.763-.765-12.968 3.31-25.723-12.953-26.663-20.804-1.201-17.726 11.808-18.427 25.895-.722 14.43-10.364 17.803-24.036 17.326-18.291-.638-30.509-6.064-33.409-24.502-2.029-12.913-11.923-25.867-27.683-17.053-10.84 6.065-4.803 18.106-6.425 29.3-2.026 13.966-10.569 17.652-23.926 19.646-13.121 1.958-36.117 4.451-45.087-7.797-7.849-10.718-3.003-26.968-3.115-39.134-10.854.281-25.816.861-31.625 11.681-5.654 10.531 4.333 24.941-4.082 34.45-10.907 12.326-54.062 10.544-60.41-5.555-3.923-9.948 2.754-19.971 2.926-29.798.202-11.431-3.572-9.793-15.621-10.065-33.337-.754-5.313 26.158-17.795 43.954-7.653 10.912-42.42 14.735-53.357 8.894-14.631-7.814-3.363-21.123-5.094-32.968-1.728-11.821-14.24-18.133-25.154-11.643-10.887 6.475-6.124 17.747-8.203 28.249-1.251 6.327-8.066 10.558-15.514 14.597v.104c-9.931 6.732-43.032-.631-46.674-13.024-3.257-11.087 5.843-26.439-6.332-33.726-4.28-2.56-30.116-2.754-32.453.896-7.358 11.488 17.829 41.605-3.456 49.813-12.105 4.723-36.239 6.67-44.353-6.186-7.99-12.662 5.866-32.076-7.911-42.722-6.074-4.694-30.205-6.527-36.653-1.545-12.787 9.883 4.733 29.261-.06 41.489-6.011 15.344-27.229 8.753-38.934 5.16-18.361-5.637-24.588-12.858-24.757-32.145-.076-8.886 2.519-14.46-6.915-18.538-3.988-1.725-17.209-.873-21.44.474-18.848 6.005-2.221 24.582-9.069 38.951-10.788 22.629-44.966 3.994-49.07-14.431-1.751-7.863 2.992-16.817-4.244-22.58-4.336-3.451-14.336-2.439-19.503-.797-16.952 5.388-7.392 13.768-10.325 26.97-3.724 16.769-22.611 16.63-36.534 15.451-17.07-1.445-25.164-5.416-26.2-23.237-.903-15.522 2.327-24.586-16.726-25.638-14.744-.814-23.565 3.523-23.059 18.906.57 17.199 9.159 30.588-15.117 33.881-11.063 1.501-37.478.477-44.744-9.586-7.335-10.164 4.231-26.734-6.411-33.795-13.4-8.89-23.854 3.743-23.662 15.112.282 16.943 3.39 28.256-17.96 30.203-13.18 1.201-28.35-.656-34.95-13.299-5.67-10.872-.01-31.595-13.05-37.809-18.18-8.662-22.67 11.642-23.27 23.192-.87 16.603-6.75 27.957-24.43 28.474-9.44.276-32.15.022-40.05-6.184-14.2-11.15 2.26-32.939-11.49-43.616-8.38-6.508-23.67-7.071-27.44 2.843-4.86 12.744 6.75 29.444-5.44 40.561-8.65 7.875-26.31 5.501-36.48 3.327-16.26-3.472-22.19-9.172-23.16-25.763-.76-12.968 3.31-25.723-12.95-26.663-20.81-1.201-17.73 11.808-18.43 25.895-.72 14.43-10.36 17.803-24.03 17.326-18.3-.638-30.51-6.064-33.41-24.502-2.03-12.913-11.93-25.867-27.69-17.053-10.84 6.065-4.8 18.106-6.42 29.3-2.03 13.966-10.57 17.652-23.93 19.646-13.12 1.958-36.12 4.451-45.08-7.797-7.85-10.718-3.01-26.968-3.12-39.134-10.85.281-25.82.861-31.62 11.681-5.66 10.531 4.33 24.941-4.09 34.45-10.91 12.326-54.06 10.544-60.41-5.555-3.92-9.948 2.76-19.971 2.93-29.798.2-11.431-3.57-9.793-15.62-10.065-33.34-.754-5.31 26.158-17.8 43.954-7.65 10.912-42.42 14.735-53.35 8.894-14.63-7.814-3.37-21.123-5.1-32.968-1.72-11.821-14.24-18.133-25.15-11.643-10.89 6.475-6.12 17.747-8.2 28.249-1.26 6.327-8.07 10.558-15.52 14.597Zm0-749.781v131.778c6.21-4.039 7.52-38.964 10.78-41.96 15.34-14.115 49.13-9.153 49.98 13.77.39 10.666-3.38 23.112 9.36 27.491 7.87 2.701 19.14-1.675 27.31-1.625-5.71-12.185-11.28-33.549-.53-44.704 8.4-8.732 26.49-6.481 37.64-5.842 41.22 2.37-1.2 40.569 25.29 49.447 6.64 2.228 23.43 1.9 27.36-4.35 5.72-9.096-4.99-21.496 2.15-31.774 9.8-14.124 49.93-26.743 58.99-6.514 8.46 18.894-11.63 36.471 19.52 39.073 11.42.95 22.16 1.215 25.2-11.496 2.4-10-4.46-22.506 2.25-31.808 11.62-16.133 49.05-9.798 55.3 7.931 2.7 7.654.4 16.459 7.32 22.261 4.81 4.032 21.54 7.637 25.87 1.344 9.4-13.664-10.99-30.582 13.5-38.457 20.22-6.501 43.55-.566 44.36 22.072.59 16.422 1.25 26.908 20.23 29.755 9.27 1.387 16.7.751 19.86-8.597 5.5-16.256-9.86-35.66 13.82-42.452 18.52-5.317 47.73-.434 46.51 22.611-.65 12.291-6.65 23.479 8.04 28.809 7.27 2.641 23.12 4.677 29.04-1.036 13.51-13.042-7.83-37.657 16.07-45.763 19.54-6.627 42.81-7.534 46.75 15.637 2.18 12.847-1.36 33.846 17.28 33.2 25.37-.876 8.54-26.679 16.53-39.758 9.97-16.325 46.326-9.97 51.583 7.266 3.469 11.384-4.982 22.615 8.54 28.775 8.338 3.797 21.589.768 30.371.338-3.354-28.113-11.682-53.621 26.395-51.446 8.98.509 24.041-.749 31.244 5.541 9.242 8.07 3.443 19.056 6.065 29.123 2.883 11.065 11.459 15.819 23.611 13.72 15.981-2.761 8.696-13.317 10.146-25.167 2.28-18.653 38.927-25.948 53.896-17.034 17.623 10.493-4.591 43.025 22.019 46.392 25.501 3.224 1.658-33.237 15.071-45.558 13.777-12.658 54.932-5.353 58.332 13.714 1.88 10.533-4.379 21.96 3.959 31.106 7.428 8.146 22.188 7.146 32.105 7.146-4.134-.212-2.807-40.814.401-45.389 9.652-13.773 49.953-9.741 60.506.798 10.837 10.824 2.334 34.247 14.538 43.446 19.49 14.694 19.285-15.965 18.11-25.793-3.509-29.321 21.169-25.372 43.496-23.115 7.961.805 16.325-.317 21.142 6.985 5.895 8.947-1.983 21.374.569 30.642 4.012 14.561 13.701 6.802 24.535 7.95 3.052.329 6.415 4.847 8.898 3.427v-.132c6.206-4.039 7.524-38.964 10.781-41.96 15.342-14.115 49.129-9.153 49.977 13.77.39 10.666-3.383 23.112 9.361 27.491 7.868 2.701 19.143-1.675 27.309-1.625-5.707-12.185-11.275-33.549-.533-44.704 8.407-8.732 26.491-6.481 37.64-5.842 41.221 2.37-1.199 40.569 25.296 49.447 6.64 2.228 23.426 1.9 27.358-4.35 5.72-9.096-4.988-21.496 2.145-31.774 9.805-14.124 49.931-26.743 58.991-6.514 8.467 18.894-11.626 36.471 19.526 39.073 11.414.95 22.159 1.215 25.201-11.496 2.393-10-4.463-22.506 2.244-31.808 11.625-16.133 49.053-9.798 55.306 7.931 2.698 7.654.394 16.459 7.319 22.261 4.806 4.032 21.542 7.637 25.869 1.344 9.394-13.664-10.987-30.582 13.499-38.457 20.218-6.501 43.548-.566 44.36 22.072.588 16.422 1.247 26.908 20.234 29.755 9.265 1.387 16.696.751 19.858-8.597 5.501-16.256-9.861-35.66 13.816-42.452 18.52-5.317 47.73-.434 46.511 22.611-.648 12.291-6.65 23.479 8.038 28.809 7.275 2.641 23.128 4.677 29.043-1.036 13.505-13.042-7.829-37.657 16.067-45.763 19.54-6.627 42.814-7.534 46.75 15.637 2.185 12.847-1.357 33.846 17.282 33.2 25.373-.876 8.544-26.679 16.528-39.758 9.973-16.325 46.329-9.97 51.586 7.266 3.469 11.384-4.982 22.615 8.54 28.775 8.338 3.797 21.589.768 30.37.338-3.353-28.113-11.681-53.621 26.396-51.446 8.98.509 24.041-.749 31.244 5.541 9.242 8.07 3.443 19.056 6.065 29.123 2.883 11.065 11.459 15.819 23.611 13.72 15.981-2.761 8.696-13.317 10.145-25.167 2.281-18.653 38.928-25.948 53.896-17.034 17.624 10.493-4.591 43.025 22.019 46.392 25.502 3.224 1.659-33.237 15.072-45.558 13.777-12.658 54.932-5.353 58.331 13.714 1.881 10.533-4.379 21.96 3.96 31.106 7.428 8.146 22.187 7.146 32.105 7.146-4.135-.212-2.807-40.814.4-45.389 9.653-13.773 49.954-9.741 60.507.798 10.837 10.824 2.333 34.247 14.538 43.446 19.49 14.694 19.285-15.965 18.11-25.793-3.509-29.321 21.168-25.372 43.496-23.115 7.961.805 16.325-.317 21.141 6.985 5.896 8.947-1.982 21.374.57 30.642 4.012 14.561 13.701 6.802 24.535 7.95 3.052.329 6.415 4.847 8.898 3.427v-131.91H-1685.7Zm0 142.963v73.118H796.923v-73.016c-9.931 6.733-43.033-.629-46.674-13.022-3.257-11.089 5.843-26.438-6.332-33.727-4.28-2.559-30.116-2.754-32.453.897-7.359 11.486 17.828 41.605-3.456 49.811-12.105 4.724-36.239 6.67-44.353-6.186-7.99-12.662 5.866-32.076-7.911-42.721-6.074-4.694-30.205-6.528-36.653-1.543-12.788 9.881 4.733 29.259-.06 41.486-6.011 15.346-27.229 8.756-38.934 5.16-18.361-5.636-24.588-12.856-24.757-32.144-.076-8.885 2.519-14.459-6.915-18.537-3.988-1.725-17.209-.874-21.44.473-18.848 6.005-2.221 24.581-9.069 38.95-10.788 22.63-44.966 3.996-49.071-14.428-1.751-7.865 2.993-16.819-4.243-22.582-4.336-3.452-14.336-2.44-19.504-.798-16.951 5.389-7.391 13.77-10.324 26.971-3.724 16.77-22.611 16.63-36.534 15.452-17.071-1.446-25.164-5.418-26.2-23.237-.904-15.521 2.327-24.588-16.726-25.637-14.744-.815-23.565 3.522-23.059 18.904.569 17.2 9.159 30.59-15.118 33.88-11.062 1.502-37.477.48-44.743-9.583-7.335-10.166 4.231-26.737-6.412-33.797-13.399-8.891-23.853 3.744-23.661 15.111.282 16.945 3.39 28.259-17.957 30.205-13.181 1.202-28.355-.655-34.952-13.3-5.674-10.871-.007-31.596-13.052-37.809-18.183-8.663-22.665 11.642-23.271 23.191-.87 16.604-6.752 27.958-24.432 28.474-9.434.278-32.145.023-40.05-6.183-14.197-11.149 2.261-32.94-11.49-43.615-8.38-6.508-23.667-7.07-27.44 2.844-4.857 12.744 6.759 29.443-5.44 40.559-8.642 7.875-26.302 5.501-36.48 3.327-16.26-3.473-22.182-9.173-23.155-25.763-.765-12.966 3.31-25.724-12.953-26.664-20.804-1.201-17.726 11.808-18.427 25.896-.722 14.432-10.364 17.805-24.036 17.325-18.291-.635-30.509-6.064-33.409-24.502-2.029-12.913-11.923-25.865-27.683-17.05-10.84 6.064-4.803 18.103-6.425 29.298-2.026 13.965-10.569 17.653-23.926 19.646-13.121 1.96-36.117 4.452-45.087-7.796-7.849-10.718-3.003-26.968-3.115-39.136-10.854.282-25.816.864-31.625 11.682-5.654 10.533 4.333 24.942-4.082 34.452-10.907 12.324-54.062 10.543-60.41-5.558-3.923-9.947 2.754-19.97 2.926-29.798.202-11.43-3.572-9.791-15.621-10.063-33.337-.755-5.313 26.157-17.795 43.952-7.653 10.914-42.42 14.737-53.357 8.895-14.631-7.812-3.363-21.122-5.094-32.969-1.728-11.821-14.24-18.133-25.154-11.642-10.887 6.475-6.124 17.746-8.203 28.249-1.251 6.329-8.066 10.56-15.514 14.598v.102c-9.931 6.733-43.032-.629-46.674-13.022-3.257-11.089 5.843-26.438-6.332-33.727-4.28-2.559-30.116-2.754-32.453.897-7.358 11.486 17.829 41.605-3.456 49.811-12.105 4.724-36.239 6.67-44.353-6.186-7.99-12.662 5.866-32.076-7.911-42.721-6.074-4.694-30.205-6.528-36.653-1.543-12.787 9.881 4.733 29.259-.06 41.486-6.011 15.346-27.229 8.756-38.934 5.16-18.361-5.636-24.588-12.856-24.757-32.144-.076-8.885 2.519-14.459-6.915-18.537-3.988-1.725-17.209-.874-21.44.473-18.848 6.005-2.221 24.581-9.069 38.95-10.788 22.63-44.966 3.996-49.07-14.428-1.751-7.865 2.992-16.819-4.244-22.582-4.336-3.452-14.336-2.44-19.503-.798-16.952 5.389-7.392 13.77-10.325 26.971-3.724 16.77-22.611 16.63-36.534 15.452-17.07-1.446-25.164-5.418-26.2-23.237-.903-15.521 2.327-24.588-16.726-25.637-14.744-.815-23.565 3.522-23.059 18.904.57 17.2 9.159 30.59-15.117 33.88-11.063 1.502-37.478.48-44.744-9.583-7.335-10.166 4.231-26.737-6.411-33.797-13.4-8.891-23.854 3.744-23.662 15.111.282 16.945 3.39 28.259-17.96 30.205-13.18 1.202-28.35-.655-34.95-13.3-5.67-10.871-.01-31.596-13.05-37.809-18.18-8.663-22.67 11.642-23.27 23.191-.87 16.604-6.75 27.958-24.43 28.474-9.44.278-32.15.023-40.05-6.183-14.2-11.149 2.26-32.94-11.49-43.615-8.38-6.508-23.67-7.07-27.44 2.844-4.86 12.744 6.75 29.443-5.44 40.559-8.65 7.875-26.31 5.501-36.48 3.327-16.26-3.473-22.19-9.173-23.16-25.763-.76-12.966 3.31-25.724-12.95-26.664-20.81-1.201-17.73 11.808-18.43 25.896-.72 14.432-10.36 17.805-24.03 17.325-18.3-.635-30.51-6.064-33.41-24.502-2.03-12.913-11.93-25.865-27.69-17.05-10.84 6.064-4.8 18.103-6.42 29.298-2.03 13.965-10.57 17.653-23.93 19.646-13.12 1.96-36.12 4.452-45.08-7.796-7.85-10.718-3.01-26.968-3.12-39.136-10.85.282-25.82.864-31.62 11.682-5.66 10.533 4.33 24.942-4.09 34.452-10.91 12.324-54.06 10.543-60.41-5.558-3.92-9.947 2.76-19.97 2.93-29.798.2-11.43-3.57-9.791-15.62-10.063-33.34-.755-5.31 26.157-17.8 43.952-7.65 10.914-42.42 14.737-53.35 8.895-14.63-7.812-3.37-21.122-5.1-32.969-1.72-11.821-14.24-18.133-25.15-11.642-10.89 6.475-6.12 17.746-8.2 28.249-1.26 6.329-8.07 10.56-15.52 14.598ZM113.103 335.678c-2.185-1.752-3.509-7.137-2.847-11.042.265-1.548 3.508-8.485 7.087-15.352 8.944-16.9 13.648-22.084 27.689-30.298 16.76-9.83 21.066-14.947 21-25.116-.066-4.846-1.523-6.663-10.798-13.33-8.944-6.531-20.205-17.776-32.194-31.983-5.167-6.193-10.931-12.39-12.784-13.803-5.035-3.701-8.613-3.098-22.258 3.836-11.923 5.995-12.585 6.465-15.369 10.239-4.306 5.72-11.725 12.654-17.95 16.762-8.081 5.389-12.057 9.696-17.422 18.855-2.254 3.903-6.558 9.695-9.54 12.86l-5.366 5.789h-6.226c-4.24 0-7.087-.47-9.077-1.483-6.69-3.432-6.292-9.49.798-12.724 6.094-2.827 9.801-7.07 16.097-18.649 3.509-6.329 7.75-12.725 10.795-16.16 4.968-5.522 15.501-14.138 22.323-18.316 6.561-3.906 15.237-10.84 17.491-13.803 3.377-4.512 6.69-14.273 8.213-23.969 3.115-20.063 4.704-24.439 10.798-30.367 4.041-3.903 4.902-6.194 3.38-9.222-2.718-5.386-7.885-8.418-16.561-9.765-2.387-.404-4.307-1.546-6.826-4.171-3.045-3.032-3.575-4.108-3.575-7.004 0-4.714 3.045-7.203 11.261-9.09 8.146-1.817 14.77-1.212 23.185 2.088l6.359 2.556 6.689-6.935c7.22-7.338 16.627-13.396 26.564-17.034 5.962-2.221 20.206-4.578 27.624-4.578 10.996 0 32.327 6.465 41.731 12.592 4.836 3.161 17.024 14.207 20.668 18.65 3.91 4.915 5.83 8.953 8.478 17.841 4.505 15.015 4.902 27.743 1.261 40.199-5.167 17.368-9.01 22.757-20.205 28.414-12.85 6.462-23.847 7.607-38.223 3.903-15.898-4.038-25.104-10.569-30.536-21.476-2.651-5.32-2.85-6.399-2.85-13.198 0-5.789.397-8.414 1.923-12.188 3.84-9.358 12.519-19.057 18.746-20.871 3.644-1.079 8.014.808 8.745 3.767.596 2.291.464 3.032-1.724 10.573-1.589 5.657-1.192 9.629 1.658 15.485 1.589 3.37 2.78 4.783 4.7 5.455 4.638 1.619 8.415 1.145 12.258-1.685 5.098-3.77 6.028-6.733 5.697-18.378-.265-8.686-.6-10.301-2.652-14.545-1.456-2.962-3.38-5.521-5.035-6.531-3.641-2.29-13.247-3.637-23.581-3.23-8.348.268-9.077.404-15.833 3.836-11.592 5.925-17.554 10.907-21.397 18.044-5.895 10.774-8.808 28.752-5.564 33.668 1.526 2.423 5.895 5.249 14.045 9.288 2.648 1.35 7.551 4.243 10.798 6.398 3.244 2.221 9.205 5.856 13.313 8.147 15.105 8.216 18.547 10.235 32.261 18.921 14.773 9.357 17.091 11.648 20.536 20.602 3.377 8.888 3.774 24.24 1.126 46.728-1.192 10.772-1.655 12.322-3.843 13.466-4.77 2.626-7.286.068-10.732-10.638-3.707-11.512-6.69-17.507-8.941-17.845-3.048-.4-9.606 5.32-16.693 14.614-7.818 10.301-12.853 14.409-22.919 18.786-19.279 8.416-21.927 10.57-25.902 21.275-5.035 13.333-11.659 22.623-16.164 22.623-1.059 0-2.714-.672-3.71-1.481Zm-439.497-212.546c-2.407 0-3.926 2.075-3.926 5.372 0 2.979-4.29 9.845-7.378 11.811-5.601 3.512-29.888 10.056-37.27 10.056-3.141 0-5.077-.798-5.077-2.075 0-.212 1.675-.639 3.77-.904 4.187-.48 13.608-4.042 19.103-7.183 4.816-2.767 10.314-8.087 10.837-10.48 1.152-5.482-3.926-7.981-6.65-3.3-2.562 4.419-14.498 8.355-27.478 9.099-7.484.371-8.113.318-12.406-1.383-2.459-.96-7.067-3.459-10.152-5.588-8.481-5.69-18.898-13.406-18.898-13.992 0-.318-.732-.957-1.675-1.436-.89-.477-4.502-4.204-7.954-8.246a2576.447 2576.447 0 0 0-12.301-14.045 388.734 388.734 0 0 1-8.848-10.268c-1.569-2.023-7.117-8.405-12.3-14.151l-9.368-10.483 3.403-4.734c1.83-2.605 3.82-5.8 4.343-7.077.837-2.02.837-2.446-.106-3.936-1.725-2.661-4.711-1.916-7.117 1.702-1.728 2.608-2.043 2.82-2.46 1.704-.261-.691-.523-2.184-.523-3.247-.106-3.724-3.508-5.588-6.074-3.244-.837.798-1.201 2.02-1.201 4.628 0 1.966-.212 3.565-.523 3.565-.265 0-1.364-.904-2.41-1.97-3.036-3.244-6.856-2.5-6.856 1.33 0 1.97 2.301 5.214 6.071 8.568 1.308 1.221 2.407 2.552 2.407 2.979 0 1.115-9.368 11.916-14.446 16.706-2.357 2.178-9.056 9.414-14.919 16.011-6.279 7.13-11.724 12.665-13.293 13.569-4.032 2.287-19.63 13.032-26.693 18.355-3.403 2.552-9.163 6.703-12.721 9.202-3.612 2.502-9.16 6.491-12.301 8.884-5.18 3.833-5.968 4.257-8.06 3.886-1.258-.211-3.665-1.171-5.287-2.234-1.622-1.013-4.816-2.873-7.014-4.151-2.251-1.331-6.594-4.095-9.682-6.223-4.24-2.926-6.021-3.833-7.435-3.674-2.512.321-3.714 2.608-2.721 5.375.838 2.5 9.213 11.225 14.552 15.161 6.124 4.525 9.474 8.034 9.474 9.844 0 1.49-.209 1.596-2.407 1.225-2.774-.48-19.944-9.205-26.696-13.568-5.704-3.724-8.166-6.064-11.933-11.331-4.919-6.971-7.485-8.246-9.948-5.055-1.621 2.076-1.516 2.606 1.781 9.524 2.721 5.693 8.742 12.608 14.813 16.971 5.81 4.148 23.658 13.247 28.16 14.366l3.926.957-.209 3.297c-.106 1.863-.314 30.857-.523 64.535-.261 59.534-.261 61.397 1.099 69.802 1.781 11.492 2.93 15.748 5.339 20.218 3.506 6.383 5.704 8.086 14.605 11.279 6.7 2.394 13.449 2.979 41.506 3.405 48.156.745 90.708.745 97.253 0 3.402-.372 8.166-1.171 10.572-1.702 2.407-.586 10.156-2.023 17.17-3.299 18.789-3.352 32.085-8.672 35.644-14.259.837-1.276 2.042-3.99 2.721-5.959 1.152-3.511 1.205-7.395 1.205-79.644v-75.975l2.618-1.116c1.463-.586 7.901-2.873 14.393-5.054 20.675-6.968 25.597-10.215 30.463-20.057 3.194-6.491 2.251-12.343-1.989-12.343Zm-116.617-19.633c.731.745 3.873 4.31 6.961 7.981 11.201 13.141 30.41 29.527 41.926 35.859 2.513 1.331 5.863 3.724 7.432 5.267 2.774 2.714 6.438 8.192 5.862 8.778-.155.159-1.883.586-3.767.957-4.187.801-4.816.801-8.325-.318-3.558-1.172-5.442-2.446-11.672-7.875-9.526-8.351-17.272-17.981-32.4-40.328-2.667-3.988-5.441-8.245-6.123-9.47l-1.205-2.178 1.311 1.327Zm-11.361-1.489c.106-.106 3.664 4.948 7.852 11.277 17.272 25.859 25.806 36.657 35.647 45.436 3.244 2.873 5.703 5.481 5.548 5.746-.159.321-3.509.533-7.435.533-8.163 0-8.163 0-13.399-6.968-9.054-12.079-10.52-14.74-20.255-36.498-5.76-12.714-8.375-19.152-7.958-19.526Zm-8.06 2.234c.261.321 1.883 3.833 3.558 7.822 4.714 11.278 10.94 24.846 17.693 38.623 3.403 6.971 6.177 13.035 6.177 13.462 0 .639-2.198.851-8.845.851-6.491 0-8.95-.212-9.109-.851-.417-1.118-2.827-19.417-3.612-27.027-.837-7.981-2.304-16.385-4.604-25.856-.997-4.151-1.573-7.289-1.258-7.024Zm-19.679 32.774c.731-4.896 2.092-12.344 2.929-16.548 2.096-10.215 2.933-17.61 2.933-24.846 0-3.508.262-5.746.576-5.425 1.202 1.33 7.587 22.93 8.637 29.315 2.25 13.353 4.604 42.029 3.661 44.531-.312.798-2.721.957-12.927.957h-12.509l.311-1.489c.212-.851 1.364-5.108 2.672-9.524 1.254-4.416 2.929-12.026 3.717-16.971Zm-2.304-55.492.209 11.225c.155 9.951-.053 12.132-1.516 19.315-.944 4.416-2.251 10.96-2.986 14.578-2.46 12.502-8.742 31.602-12.092 36.816-.94 1.489-1.255 1.542-10.99 1.542-5.498 0-10.208-.159-10.417-.427-.208-.212.732-1.913 2.095-3.83 2.46-3.297 15.336-26.23 19.626-34.899 4.608-9.205 9.11-20.91 12.513-32.35l3.558-11.97Zm-13.82 11.705c2.043-3.085 3.664-5.266 3.664-4.896 0 .427-1.151 4.525-2.565 9.206-4.24 13.833-14.131 32.562-23.711 45.008-1.936 2.45-4.816 6.227-6.385 8.299-1.622 2.128-5.025 6.173-7.484 8.994-4.816 5.428-4.816 5.428-10.209 4.468-1.622-.321-6.279-.85-10.364-1.277-8.845-.851-10.099-1.331-7.746-2.874.944-.635 4.87-4.147 8.743-7.871s8.689-7.981 10.678-9.418c12.824-9.523 18.58-14.895 27.739-26.067 9.686-11.814 11.569-14.313 17.64-23.572Zm-87.567 63.363c.262-1.754.785-3.618 1.152-4.094.993-1.278 11.043-8.779 22.4-16.76 5.392-3.777 11.569-8.298 13.714-9.95 3.297-2.552 13.244-9.414 26.067-17.928 1.361-.904 3.926-3.138 5.601-5.002a725.281 725.281 0 0 1 6.594-7.02l3.456-3.671-3.141 4.68c-3.665 5.373-17.273 22.079-21.043 25.803-1.463 1.384-3.923 3.459-5.597 4.631-1.626 1.168-6.598 4.998-11.047 8.51-4.448 3.512-11.148 8.405-14.968 10.907-3.771 2.446-9.318 6.276-12.301 8.514-4.187 3.032-6.124 4.042-8.374 4.31l-2.986.318.473-3.248Zm-2.148 18.464 1.466-3.088 7.537.056c4.135 0 15.598.371 25.492.798 45.538 2.019 129.076 2.873 141.9 1.437 3.456-.374 9.421-1.119 13.191-1.596 3.767-.533 8.689-1.172 10.887-1.384l4.082-.48.681 2.609c.368 1.38.838 3.83 1.099 5.319.368 2.658.315 2.764-1.466 3.138-7.223 1.49-14.393 1.917-24.442 1.331-15.233-.798-33.082-.692-46.481.265-11.778.904-14.866 1.225-33.344 3.512-8.95 1.066-14.339 1.278-31.403 1.172-11.361-.057-23.711-.321-27.481-.586-3.77-.215-10.679-.48-15.389-.533-7.329-.053-21.304-1.97-27.69-3.83-1.254-.374-.629-4.151 1.361-8.14Zm-1.152 70.335c-.156-.533-.364-2.874-.47-5.267l-.156-4.313 13.4.109c7.378.106 19 .477 25.855.851 6.806.371 36.694.851 66.373 1.063 46.008.321 54.803.215 59.251-.639 2.877-.53 6.962-1.169 9.16-1.384 2.145-.212 5.548-.688 7.484-1.01 3.611-.638 23.449-3.296 24.393-3.296.89 0 .576 7.98-.315 8.245-.47.159-5.548.639-11.307 1.01-12.351.907-23.92 2.343-30.566 3.83-4.085.907-15.442 1.065-83.751 1.33-65.899.268-79.037.215-79.351-.529Zm-.311-20.007v-10.692l3.085.374c6.021.795 16.908 2.446 21.463 3.297 5.233.957 26.955 1.01 96.832.318 52.761-.533 58.259-.851 72.913-4.787 7.276-1.969 13.138-3.194 13.453-2.873.261.265-.629 7.183-1.308 10.268-.42 1.808-2.88 2.394-17.064 4.204-14.604 1.808-18.371 2.019-57.209 2.817-18.898.427-41.404.801-50.04.851-19.106.215-58.729-1.169-64.121-2.234-2.198-.424-7.117-.904-10.993-1.116l-7.011-.427Zm205.756 25.058v7.928l-5.862 1.172c-4.972 1.009-9.841 1.168-31.092 1.224-13.87.053-29.888.424-35.644.798-5.757.371-21.983.904-36.012 1.222-41.717 1.012-92.383 1.436-92.75.854-.159-.322-.523-2.076-.785-3.94l-.42-3.402 72.81-.48c40.093-.268 74.902-.745 77.415-1.063 2.512-.321 9.576-1.331 15.7-2.343 8.898-1.384 13.714-1.755 23.869-1.861l12.771-.109Zm-203.505 46.341c.261-2.82.678-5.321.993-5.639.731-.799 12.456-.213 21.93 1.065 4.346.583 16.541 1.435 27.166 1.861 10.626.425 21.827.958 24.863 1.171l5.548.424v7.981l-20.937.053c-11.513.054-24.025-.159-27.792-.477-3.771-.321-12.562-.747-19.577-.958l-12.668-.373.474-5.108Zm82.019 30.752-.209 1.916-31.721.105c-17.428.054-32.767-.105-34.022-.319-5.862-1.117-10.155-2.873-12.668-5.268-2.353-2.234-2.615-2.873-3.138-7.023-.314-2.606-.261-4.84.05-5.16 1.205-1.277 16.488-2.022 25.23-1.223 4.71.426 10.94.745 13.869.745 6.075 0 20.153 1.489 28.319 3.032 3.088.532 7.329 1.224 9.527 1.489l3.926.48.522 4.628c.262 2.554.421 5.533.315 6.598Zm2.565-50.969c-.943 1.012-2.145 2.926-2.721 4.309l-1.049 2.501h-5.127c-2.774 0-5.287-.159-5.499-.426-.208-.213-13.869-.372-30.357-.319-25.909.054-37.531-.372-38.577-1.437-.155-.16 0-1.914.262-3.883l.523-3.564 10.417.052c5.756 0 20.152.267 31.983.585 15.753.426 23.657.321 29.781-.264 6.124-.64 8.742-.64 10.156-.108l1.883.745-1.675 1.809Zm58.415 54.693-22.718-.106c-12.509-.054-24.131-.267-25.856-.372l-3.141-.267V308.65c0-19.153.156-22.186 1.099-24.261.629-1.277 1.569-2.447 2.145-2.608 4.293-1.276 15.756-3.777 20.152-4.414 6.7-.958 17.485-.586 20.153.745 2.145 1.063 1.883 0 4.24 16.918.678 5.107 1.883 13.353 2.565 18.301.732 4.896 1.361 10.961 1.361 13.461v4.469Zm3.191-51.873-.94-2.288c-.523-1.224-1.205-2.447-1.573-2.714-1.728-1.063-.314-1.648 3.979-1.648 2.565 0 6.283-.427 8.322-.957 6.858-1.81 17.325-3.035 25.597-3.035 4.552 0 10.99-.477 14.29-1.063 3.297-.533 6.647-.903 7.432-.797 1.674.211 2.356 2.022 2.459 6.65.053 3.564.838 3.138-8.481 4.84-4.342.799-10.834 1.012-28.368 1.012h-22.717Zm59.828 29.74c-.053 2.287-.471 5.214-.838 6.49-.732 2.129-1.254 2.448-7.746 5.002-9.996 3.936-19.891 6.332-37.371 8.938-8.273 1.277-8.534 1.277-8.951.159-.159-.478-.212-3.723-.106-7.128l.159-6.278 5.233-.426c4.552-.319 13.661-2.501 18.895-4.522.943-.372 4.395-1.117 7.745-1.702 3.35-.585 8.901-1.756 12.301-2.66 3.403-.853 7.226-1.651 8.481-1.81l2.304-.213-.106 4.15Zm.943-17.982-.159 5.161-2.982.744c-13.714 3.564-21.722 4.735-37.948 5.587-6.7.372-12.615.797-13.191 1.063-.679.267-1.307-.053-1.728-.798-.523-1.063-2.092-9.523-2.092-11.491 0-.479 3.141-.745 9.004-.745 4.971 0 10.834-.266 13.032-.638 2.198-.373 8.374-.958 13.714-1.33 5.392-.373 12.403-1.118 15.65-1.649 3.244-.534 6.124-.958 6.385-1.012.315 0 .418 2.288.315 5.108Zm-10.47-88.954c-18.004 4.839-27.425 6.011-48.153 6.064-7.799.053-18.424.371-23.661.692-5.233.374-13.608.745-18.633.903-13.347.318-67.471-.797-76.263-1.595-4.134-.374-12.823-.851-19.262-1.119-6.491-.212-12.145-.688-12.615-1.062-.523-.427-.837-2.5-.837-5.959v-5.319l14.237.318c7.852.158 21.88.691 31.248 1.118 19.106.957 60.457.53 68.361-.638 2.721-.427 7.117-1.119 9.838-1.649 17.223-3.194 19.629-3.3 53.496-2.396 22.767.585 32.032 1.065 32.347 1.598.261.424.523 1.914.523 3.297 0 2.926.208 2.821-10.626 5.747Zm-294.297-54.009c-1.291-1.314-1.612-1.248-5.617.589-2.39 1.116-6.263 3.152-8.716 4.595-2.453 1.443-9.169 4.79-14.915 7.415-10.464 4.727-10.593 4.793-18.209 4.793-7.558 0-7.687-.066-12.463-3.281-11.496-7.745-16.597-12.012-16.597-13.982 0-1.181 6.845-10.5 12.787-17.458 4.131-4.856 13.558-12.274 14.399-11.42.192.262-.583 6.76-1.745 14.506-1.161 7.745-1.999 15.359-1.87 16.997.321 3.151 2.453 5.383 3.873 3.939 2.582-2.625 9.686-30.781 9.686-38.328 0-3.284 5.683-8.272 7.037-6.17.387.589 2.456 6.561 4.714 13.323 3.36 10.239 4.326 12.34 5.683 12.536.97.195 2.132-.262 2.711-.987 1.42-1.704-.708-14.7-4.131-25.399l-2.582-8.073 2.774-2.426c1.549-1.315 5.038-3.48 7.816-4.79 4.971-2.364 6.908-4.992 5.488-7.286-1.099-1.837-6.263-.857-12.334 2.427-3.356 1.774-6.521 3.28-7.037 3.28-.517 0-2.973-3.082-5.489-6.826-2.519-3.74-8.265-11.022-12.85-16.147-11.171-12.466-16.209-19.096-19.632-25.66-1.549-3.019-3.228-5.71-3.678-5.971-1.036-.66-3.164 1.049-3.164 2.558 0 2.691 6.263 13.718 11.559 20.282 3.161 4.002 7.166 8.927 8.845 11.092 3.743 4.723 5.875 11.42 6.65 20.804.84 10.765.387 12.274-4.648 14.836-4.713 2.361-15.885 6.035-20.794 6.823-2.969.526-3.486.261-11.427-6.3-10.139-8.268-11.754-9.255-19.242-11.814-8.523-2.956-14.853-2.823-19.116.328-1.807 1.314-4.002 3.413-4.843 4.724-3.035 4.531-11.685 28.027-11.88 32.294-.066 1.638.321 2.035 1.936 2.035 1.808 0 2.324-.791 4.651-6.961 4.456-11.943 9.169-20.212 13.367-23.363 3.227-2.43 12.333-2.363 17.755.129 4.069 1.904 15.045 11.291 15.045 12.933 0 .523-2.453 1.576-5.551 2.426-10.397 2.691-21.053 8.928-25.184 14.638-4.263 5.905-6.133 11.225-8.715 24.81-3.489 18.639-6.137 26.315-12.85 37.934-4.651 8.073-5.813 11.685-5.813 18.835 0 4.992.516 7.223 2.711 12.8 1.486 3.674 4.134 11.354 5.813 16.998 1.678 5.581 3.939 11.817 5.034 13.72 2.648 4.724 2.069 6.561-4.002 11.812-9.493 8.337-13.82 12.603-18.08 17.985-6.779 8.664-18.854 26.45-18.854 27.894-.067 1.312 1.486 3.215 2.452 3.215.325 0 2.195-1.707 4.198-3.807l3.618-3.871 2.257 3.675c1.228 1.969 3.681 6.76 5.359 10.567 4.264 9.516 4.198 9.385 6.2 9.714 1.42.197 1.679-.132 1.679-2.298 0-1.378-.904-4.791-2.003-7.547-2.324-5.843-2.387-6.563-.838-5.907.646.197 1.937 0 2.841-.526 2.389-1.247 3.164-.459 8.652 8.533 2.453 4.134 5.23 8.335 6.2 9.32 1.874 2.166 4.777 2.166 5.23 0 .129-.788-.84-2.955-2.065-4.922-1.291-1.904-4.069-6.76-6.2-10.764l-3.81-7.219 3.423-4.662c1.873-2.56 6.458-8.072 10.201-12.206 5.36-5.907 8.008-8.204 12.01-10.24 6.911-3.412 8.331-5.382 8.331-11.353 0-4.596-2.261-13.391-11.817-45.483-2.065-6.961-3.873-14.769-4.131-17.855-.387-5.382-.258-5.71 3.227-11.876 5.168-9.06 12.98-19.954 19.179-26.78 2.903-3.217 6.78-7.679 8.524-9.844a429.95 429.95 0 0 1 5.293-6.435l2.066-2.493 8.394 5.118c4.651 2.89 10.785 6.763 13.691 8.732 6.134 4.201 9.04 4.525 17.047 1.903 6.392-2.035 41.841-20.413 43.003-22.317.649-1.115.519-1.771-.517-2.82Zm-117.908 107.769c3.231 9.977 5.876 18.77 5.876 19.492 0 2.889-2.516 6.104-6.713 8.533-4.456 2.56-9.04 7.482-23.956 25.858-4.197 5.186-7.878 9.518-8.136 9.518-.325 0-1.099-1.378-1.745-3.019-.711-1.707-1.807-4.463-2.519-6.104-1.224-3.021-1.224-3.021 1.679-7.418 6.653-9.844 12.721-16.408 20.728-22.249 9.298-6.826 11.043-8.861 11.559-13.783.321-2.887-.066-4.592-2.003-8.534-2.84-5.644-8.265-23.168-8.265-26.577 0-1.904.453-2.43 2.261-2.761 2.969-.589 3.098-.457 4.263 4.532.579 2.363 3.678 12.469 6.971 22.512Zm1223.108 83.565c-1.89-.798-4.392-4.84-5.322-8.532-.904-3.547-.589-7.137 1.354-16.269.433-2.213 1.165-7.215 1.529-11.112.652-6.734.586-7.771-1.231-19.251l-1.907-12.065-4.035-9.083c-3.605-8.206-4.098-9.772-5.098-16.098-1.195-7.239-1.125-7.749.798-22.562.414-2.959 1.546-8.222 2.529-11.622 1.705-5.653 1.784-6.713 1.212-11.559-.537-4.952-.788-5.607-3.182-9.268-1.423-2.168-3.244-4.373-4.061-4.893-.927-.602-3.549-1.036-7.19-1.109-6.253-.155-6.524-.013-10.039 3.834-2.596 2.803-5.86 4.816-11.354 6.981-5.952 2.386-8.915 2.257-20.834-.844-13.546-3.443-13.834-3.397-15.714 2.383-.698 2.105-2.456 5.574-3.982 7.713-2.724 3.869-4.035 4.875-10.42 7.927-2.414 1.182-2.655 1.52-4.175 6.495-2.952 9.543-5.935 13.956-10.374 15.353-4.439 1.4-12.466-.97-14.829-4.436-2.632-3.923-6.091-12.45-7.835-19.454-2.135-8.537-2.016-10.9.953-18.798 2.112-5.568 5.406-10.477 12.989-19.606 5.601-6.77 8.59-11.129 12.304-18.349 1.049-2.062 3.79-6.435 6.018-9.728 3.389-4.922 4.502-7.193 6.17-12.791 2.029-6.703 2.254-8.685 1.046-9.192-.318-.149-3.668 1.927-7.478 4.525-8.166 5.727-10.403 6.779-16.315 7.865-4.102.748-5.002.639-9.742-.804-6.435-1.924-9.795-4.234-9.63-6.604.212-2.377 2.281-2.953 8.213-2.347 4.988.51 9.07.261 9.672-.579.153-.275-.559-1.659-1.632-3.185-2.277-3.23-2.495-3.992-1.267-5.534 1.347-1.708 2.433-1.682 6.2.119 1.85.854 3.488 1.291 3.634.97.139-.371-.076-1.735-.533-3.059-.586-1.85-.573-2.701.053-3.697 1.069-1.616 2.155-1.887 4.644-1.033 3.118 1.102 4.774.391 9.388-3.929 5.336-5.032 16.673-19.888 18.778-24.558 1.268-2.844 1.477-4.323 1.288-8.931-.473-9.497.159-10.146 9.11-10.017.98-.003 1.493-.784 2.357-3.714.599-2.088 1.105-5.409 1.138-7.358.076-6.045.159-6.455 1.583-7.379 2.303-1.562 4.303-.082 6.649 4.83 2.136 4.498 2.996 5.61 4.194 5.419.431-.066 3.019-2.92 5.773-6.296 6.041-7.389 7.653-8.69 9.752-8.123 2.314.681 2.784 2.7 1.702 7.656-1.156 5.419-1.857 6.875-6.439 14.184-1.956 3.151-3.445 6.13-3.363 6.663.093.583.964 1.742 1.93 2.586 2.006 1.827 2.489 3.648 1.49 5.7-.735 1.562-12.698 13.078-17.868 17.285-1.705 1.318-4.843 3.51-6.939 4.837-2.141 1.334-5.793 4.008-8.136 5.925-3.509 2.946-4.045 3.578-3.029 3.816 2.397.57 25.978-3.558 33.658-5.868 12.317-3.695 18.308-7.683 34.988-23.185 12.777-11.943 12.778-11.943 22.36-13.707 11.775-2.162 14.731-1.781 28.796 3.724 16.802 6.666 19.334 6.865 39.132 3.333 17.941-3.184 17.342-2.94 33.794-13.072 6.484-3.969 16.319-9.41 21.919-12.142l10.206-4.955 9.619-1.52c11.82-1.87 18.388-1.91 26.226-.108 15.075 3.498 22.046 8.179 30.907 20.79 2.665 3.817 3.539 5.625 4.231 8.756 1.678 7.514.999 14.7-2.41 25.412-.99 3.049-1.936 6.985-2.145 8.766-.169 1.721-.983 6.186-1.761 9.95-2.771 13.204-2.876 20.9-.662 35.207 1.728 10.946 3.827 17.994 8.07 26.845 9.514 20.136 9.153 19.096 9.534 26.167.327 7.027-1.659 32.32-3.277 41.304-.586 3.135-1.692 8.246-2.48 11.311-.784 3.115-1.83 7.67-2.323 10.139-1.957 9.336-4.016 12.453-7.667 11.386-.976-.295-2.43-1.411-3.198-2.536-1.247-1.698-1.559-3.044-2.681-11.991-.731-5.568-1.258-12.615-1.258-15.707.05-3.102.093-7.494.073-9.785.03-2.3.53-5.968 1.162-8.163 1.043-3.654 5.627-12.506 7.656-14.872 1.95-2.251-.897-9.08-6.219-15.121-1.606-1.791-6.644-6.975-11.242-11.536-4.594-4.558-9.824-10.013-11.628-12.122l-3.31-3.863-.576-5.193c-1.159-10.739-2.777-20.057-3.661-20.666-1.007-.784-6.892 3.883-12.43 9.795-5.117 5.498-10.116 10.175-13.367 12.585-4.048 2.936-14.69 9.156-21.883 12.685-6.226 3.128-6.319 3.144-18.189 5.021-12.013 1.9-12.698 1.907-24.138.924-4.323-.361-5.041-.248-7.934 1.006-5.002 2.185-14.638 5.157-21.851 6.697-7.971 1.708-14.041 1.473-17.878-.765-3.343-1.913-5.243-1.513-7.395 1.622-.917 1.34-3.757 4.482-6.223 6.865-10.05 9.666-11.728 11.778-14.161 17.796-2.148 5.326-3.889 12.932-5.253 22.919-.589 4.032-.341 6.538 2.32 26.16 3.681 26.691 5.283 42.395 4.972 47.878-.5 8.307-3.512 17.807-6.557 20.582-1.712 1.568-4.946 2.529-6.363 1.954Zm-1318.278-2.734c-.791-.473-2.609-.852-3.959-.852-3.628-.046-4.561-.804-6.514-5.108-2.188-4.968-5.959-10.314-10.192-14.43-1.864-1.797-5.307-5.724-7.73-8.751-4.28-5.442-11.307-11.355-13.495-11.355-1.49 0-10.705-3.311-12.569-4.493-9.447-6.057-17.825-13.626-20.523-18.358-.559-1.039-.745-1.039-3.492.521-2.559 1.466-3.446 1.656-8.285 1.656-6.611 0-14.241-.994-18.575-2.366-1.72-.567-8.23-3.405-14.42-6.292-10.52-4.873-11.45-5.439-13.97-8.421-1.49-1.751-4.74-5.204-7.21-7.709-7.22-7.24-16.71-21.669-24.44-37.187-1.21-2.366-2.23-3.691-2.84-3.691-1.16 0-1.44.805-1.95 5.015-.23 1.659-1.02 4.923-1.86 7.24-1.45 4.306-3.31 6.577-6.43 8.043-.74.331-1.35.851-1.35 1.228 0 .331 1.35 2.791 2.94 5.442 3.95 6.574 7.49 17.928 8.7 28.054 1.02 8.136 2.14 12.205 4.66 16.557 2.65 4.59 4.97 9.982 7.91 18.309 3.21 9.32 7.54 19.254 10.14 23.465 1.31 2.034 2.33 4.352 2.33 5.11 0 1.986-1.39 2.98-3.35 2.507-4.19-1.041-4.79-1.041-6.84.237-1.91 1.229-2.14 1.229-3.4.425-1.16-.804-1.54-1.845-2.38-7.332-1.44-9.509-4.04-17.884-8.23-26.494-5.49-11.211-8.61-15.659-19.55-27.958-4.7-5.299-7.45-11.261-7.45-16.18-.05-7.428-2.98-13.293-12.75-25.644-5.12-6.431-7.91-10.407-11.22-15.941-5.72-9.507-5.4-8.418-5.4-18.355 0-9.934.75-13.201 4.84-21.242 2.75-5.392 5.22-7.901 10.71-10.926 4.1-2.275 4.51-2.698 4.51-4.307 0-.947-.51-2.509-1.16-3.406-1.4-2.036-7.26-5.962-12.1-8.044-3.82-1.701-5.08-3.499-3.59-5.299 1.87-2.268 11.74.331 17.27 4.541 3.07 2.321 7.31 7.239 8.47 9.795.56 1.228 1.03 1.37 4.66 1.37 4.88 0 10.75 1.659 14.38 4.022 1.44.997 4.7 3.645 7.26 5.962 2.56 2.317 7.26 6.385 10.43 9.083 3.16 2.651 8.75 7.474 12.47 10.645 10.47 8.941 30.39 22.708 47.196 32.549 13.452 7.852 17.639 8.941 23.598 6.101 3.211-1.559 4.048-2.364 6.236-6.293.838-1.463 2.84-4.492 4.469-6.716 3.489-4.826 5.584-9.272 8.146-17.127 1.208-3.641 2.652-6.716 3.863-8.279 1.116-1.37 3.165-4.161 4.562-6.292 2.883-4.161 5.63-6.197 12.472-9.13l4.28-1.89 3.913-7.05c3.582-6.528 4.002-7.097 5.584-7.097 2.605 0 3.257 1.893 2.142 6.292-1.49 6.054-.884 5.723 7.587-4.353 7.398-8.848 8.331-10.172 10.705-16.084 1.906-4.684 1.953-4.922 1.953-13.909 0-5.962-.325-10.457-.884-12.82-1.023-4.591-6.564-18.736-9.262-23.94-3.025-5.723-8.61-11.022-19.503-18.496-11.821-8.09-16.756-9.51-33.463-9.51h-10.473l-11.682 3.975c-12.287 4.164-14.058 5.107-23.879 12.963-5.12 4.068-8 8.278-10.15 14.71-.88 2.698-1.16 5.064-1.16 10.645 0 6.389.23 8.09 2.09 14.952 2.42 9.08 4.52 13.34 8.66 17.643 4.94 5.158 10.242 7.524 22.344 9.938 8.378 1.701 12.426 1.559 19.828-.616 7.587-2.225 10.053-3.784 12.006-7.663 3.075-6.2 3.399-19.494.652-25.594-2.234-5.015-6.515-10.646-10.517-13.817-1.909-1.56-4.935-4.114-6.703-5.723-1.767-1.56-5.306-4.353-7.818-6.15-6.379-4.588-8.1-7.663-5.634-10.219 2.095-2.082 5.866-1.609 10.705 1.466 3.724 2.318 4.422 2.556 6.796 2.271 3.164-.33 3.77.239 4.237 3.926.417 3.36 2.744 5.869 5.955 6.342 3.168.52 4.144 1.56 4.561 4.966.421 3.028 2.188 5.345 7.17 9.271 2.373 1.847 2.794 3.218 1.675 5.396-.838 1.609-.838 1.986.046 4.022.513 1.274 1.165 3.687 1.397 5.392.278 1.94 1.162 4.303 2.281 6.104 1.767 2.79 1.814 2.979.93 4.349-.467.805-1.49 1.517-2.188 1.609-1.907.285-3.165 6.293-1.953 9.368 1.208 3.264-.189 5.3-3.631 5.3-2.42.046-5.912 3.548-7.355 7.378-1.301 3.406-3.119 4.068-5.724 2.082-1.767-1.324-1.817-1.324-5.028-.285-4.141 1.278-5.909 2.413-5.909 3.787 0 1.324-1.77 3.026-3.167 3.026-.556 0-2.185-1.089-3.582-2.364-2.281-2.178-2.794-2.367-5.727-2.367-2.512 0-3.77.381-6.05 1.751-4.423 2.791-5.631 2.46-6.75-1.939-.51-2.082-.93-2.46-3.863-3.641-3.214-1.325-3.254-1.325-6.604-.285-5.08 1.609-7.36.142-6.43-4.115.33-1.516.09-1.847-2.28-3.267-1.49-.851-3.07-2.175-3.53-2.933-.56-.85-1.91-1.655-3.4-2.035-3.54-.897-4.28-2.741-2.56-6.336 1.16-2.459 1.21-2.84.42-4.26-.51-.947-1.87-1.986-3.26-2.506-4.47-1.705-5.17-3.075-3.12-6.197.84-1.324 1.16-2.793 1.16-5.68 0-3.595-.09-3.972-1.48-4.588-.8-.377-1.87-.708-2.29-.708-.79 0-2.65-2.129-2.65-3.029 0-.235 1.21-1.797 2.61-3.406 2.46-2.837 3.58-5.723 3.16-8.044-.23-1.135-.83-1.559-3.86-2.694-4.79-1.798-3.21-6.481 2.19-6.481 1.72 0 4.05-1.894 4.05-3.264 0-.38.97-2.129 2.09-3.787 3.3-4.873 3.58-6.15 1.77-8.325-1.81-2.225-1.91-3.737-.28-4.92.88-.661 1.63-.71 2.84-.284 1.72.616 3.63-.33 8.8-4.353 2.05-1.608 2.14-1.75 1.53-3.737-.56-1.705-.46-2.224.42-3.217 1.35-1.513 2.56-1.513 6.14.046l2.889 1.232 4.237-1.705c4.141-1.702 4.188-1.751 4.886-4.588 1.072-4.257 2.747-4.969 5.167-2.317l1.443 1.562 4.188-.947c2.327-.523 5.074-1.135 6.097-1.327 1.536-.281 1.91-.612 1.91-1.844 0-3.975 2.559-4.826 6.097-1.986 1.209.993 2.235 1.798 2.281 1.844.046 0 3.582.142 7.911.331l7.865.331 1.165-2.27c2.049-4.023 6.098-3.218 6.098 1.23 0 2.695.559 3.218 5.121 4.824 2.327.807 5.117 2.035 6.236 2.697l2.046 1.232 2.932-1.94c2.466-1.609 3.211-1.844 4.515-1.374 1.166.38 1.583.997 1.675 2.27.606 6.674.467 6.482 4.89 8.942 2.28 1.231 4.885 3.267 5.862 4.495 1.863 2.46 3.118 2.744 7.077 1.609 1.768-.52 2.466-.424 3.628.33 1.817 1.182 1.771 2.036-.371 5.82-.93 1.751-1.721 3.502-1.721 3.88 0 .38.93 2.178 2.046 3.972l2.049 3.217 2.886-.377c4.886-.662 7.213 1.893 4.747 5.157-2.188 2.837-2.42 3.737-1.49 5.58.513.948 1.069 2.795 1.304 4.119l.418 2.366 3.77.282c2.049.142 4.098.52 4.468.758 1.675 1.089.375 4.826-2.697 7.709-2.423 2.321-2.701 4.638-1.258 10.55 1.258 4.922 2.234 6.388 4.187 6.388 1.397 0 2.794 2.175 2.423 3.691-.188.662-1.211 1.563-2.28 2.033-2.188.9-2.748 1.797-4.284 6.719-1.86 5.866-1.956 7.379-.791 10.642 1.212 3.503.791 4.734-1.91 5.535-4.048 1.281-4.978 1.847-6.607 4.118-1.119 1.513-1.864 3.452-2.095 5.299-.421 3.215-1.629 4.823-3.211 4.304-.606-.189-1.629-.474-2.235-.709-.976-.284-1.396.235-2.605 3.026-2.188 5.018-2.002 6.342 1.44 10.268 3.724 4.21 6.144 7.901 9.358 14.287 2.512 4.968 5.399 8.374 10.285 12.3 2.886 2.317 3.211 4.307 1.023 5.773-1.209.801-1.907.851-4.512.281-1.678-.377-3.959-1.181-5.028-1.843-1.116-.662-2.049-1.089-2.096-.993-.092.096-.37 1.089-.698 2.224-.417 1.655-.884 2.125-2.188 2.271-1.999.235-3.582-1.139-4.465-3.976-1.073-3.264-5.075-11.685-5.912-12.3-.421-.331-3.724-.947-7.448-1.324-4.423-.52-8.239-1.371-11.311-2.506-2.651-.947-5.214-1.563-5.955-1.374-1.632.377-3.678 4.353-5.353 10.361-.698 2.413-1.771 6.15-2.376 8.232-.603 2.129-1.768 8.656-2.605 14.525-1.957 14.002-2.606 18.401-3.304 21.477-.887 4.068-3.863 9.649-6.657 12.254l-2.512 2.413 2.327 3.214c4.048 5.488 8.143 9.368 15.078 14.146 9.311 6.434 11.032 8.421 14.475 16.369 4.469 10.361 15.687 25.641 22.9 31.129 3.863 2.98 4.75 6.576 1.863 7.711-1.258.521-1.489.473-3.164-.52Zm-93.274-208.914c-1.632-1.043-3.912-5.015-3.912-6.909 0-2.363 1.539-5.865 3.538-8.182 2.095-2.367 2.281-2.46 5.68-2.46 3.35 0 3.675.139 5.909 2.317 2.794 2.791 3.724 5.393 3.399 9.272-.327 3.264-1.582 5.015-4.376 6.197-2.651 1.181-8.239 1.042-10.238-.235Zm-481.13-22.155c-8.43-4.952-10.68-6.491-14.04-9.735l-3.4-3.195-.71-4.737c-.44-2.631-1.72-9.748-2.9-15.832-2.02-10.483-2.21-11.142-3.57-12.168-1.63-1.222-3.59-1.155-4.93.139-1.48 1.503-1.69 6.743-.68 16.508.66 5.931.81 9.93.49 11.075-.48 1.626-.69.834-2.4-8.507-1.07-5.644-2.04-10.98-2.21-11.824-.7-3.459-4.92-4.293-7.36-1.413-1.23 1.417-1.28 1.973-.84 7.62.27 3.34.45 8.43.34 11.324-.2 7.706-1.76 20.735-2.69 22.337-.32.549-2.53 1.066-7.68 1.834-6.82 1.016-7.49 1.026-12.42-.066-6.96-1.47-14.91-3.847-15.01-4.472-.32-2.192 2.88-11.169 4.06-11.348.31-.046 1.31.308 2.24.811 2.87 1.49 19 7.442 19.84 7.316 1.45-.215 2.95-2.496 2.72-4.062-.35-2.323-2.53-3.644-10.99-6.766-10.66-3.936-10.25-3.585-9.2-8.907.77-3.86.76-5.412-.15-13-1.94-16.617-6.11-24.356-10.55-19.764l-1.33 1.297 1.76 10.566c1.32 7.981 1.64 11.271 1.36 13.641-.2 1.675-.46 3.268-.61 3.426-.26.361-1.2-.185-8.03-4.372-2.03-1.298-5.03-2.721-6.64-3.257-1.65-.487-6.08-1.88-9.9-3.046-3.82-1.211-7.15-2.132-7.41-2.092-2.38.354-1.03-5.693 2.22-10.384 3.11-4.439 4-7.819 3.27-12.734-.39-2.592-.8-3.535-2.39-5.17-2.61-2.718-5.54-3.334-11.43-2.453-5.58.834-7.41 1.84-9.68 5.33-2.15 3.339-2.22 6.457-.15 11.902 1.94 5.194 1.85 6.945-.74 9.798-1.5 1.689-2.07 2.963-2.25 4.817-.21 1.903-.79 3.131-2.48 5.031-1.24 1.37-2.88 3.903-3.61 5.657-1.61 3.621-3.25 5.326-5.45 5.657-1.62.242-4.85 1.546-7.2 2.903-1.83 1.05-2.67 3.549-2.22 6.544.3 2.013.7 2.592 3.03 4.304 1.5 1.052 3.46 2.406 4.44 2.989 2.03 1.251 2.18 2.509.92 9.414-1.52 8.497-2.87 20.258-3.05 26.547-.1 3.579-.26 8.491-.33 11.017-.15 5.915-1.03 8.149-3.42 8.732-2.03.533-14.54-.752-30-3.102-9.33-1.393-23.96-3.045-29.72-3.327a2.874 2.874 0 0 0-.17-.006v80.099c.22 1.261.44 2.652.66 4.095 1.41 9.43 1.43 9.563.39 17.944-.35 2.89-.7 5.654-1.05 8.305v74.949c.66.368 1.4.742 2.24 1.147 5.72 2.801 6.93 3.076 8.93 2.002 2.92-1.533 3.27-4.921 1.19-11.008-.56-1.607-2.02-6.553-3.31-10.974l-2.32-8.016.67-4.578c.76-5.414 1.71-9.897 3.98-18.78.9-3.608 1.77-7.714 1.96-9.158.19-1.444.62-3.932 1.01-5.59 2.33-9.623 3.4-16.637 4.57-30.474.38-4.078.73-7.739.8-8.162.1-.563.63-.596 2.34.016 7.62 2.562 31.28 7.16 37.51 7.329 1.22 0 5.11.47 8.56 1.006 8.14 1.251 12.11 1.615 17.68 1.606 2.47-.004 5.85.039 7.57.102 1.67.027 7.64-.635 13.22-1.47 5.59-.837 11.61-1.463 13.32-1.443 1.71.063 5.26-.006 7.88-.172l4.73-.248.2 1.658c.1.944-.08 4.264-.42 7.375-.35 3.115-.64 8.961-.68 12.94-.02 4.025-.09 8.97-.15 11.036-.06 3.482-.94 11.427-1.7 15.379-.24 1.086.85 10.475 2.89 25.064 3.68 26.411 3.46 25.576 8.97 30.555 3.17 2.818 5.33 3.18 8.17 1.43 2.6-1.576 3.25-3.867 2.45-8.866-.53-3.576-.95-4.609-3.47-8.483l-2.9-4.409-1.17-7.822c-.7-4.693-1.04-9.349-.92-11.561.14-2.077.1-4.722-.03-5.891-.48-3.262.6-15.303 2.69-30.785.3-1.92.97-8.554 1.49-14.664l1.04-11.122 3.43-.513c1.85-.275 4.38-1.063 5.59-1.702 2.2-1.198 3.54-1.261 3.08-.139-.14.291-.18 2.675-.07 5.263.33 7.306.31 12.291.02 16.674-.25 3.74-.27 6.895-.17 16.019.06 1.911-.16 5.51-.46 8.065-.29 2.558-.68 7.779-.88 11.555-.32 6.263-.41 9.567-.5 20.729-.07 5.859 1.47 14.632 3.34 18.693 2.3 5.185 5.17 8.778 7.64 9.642 4.09 1.491 10.06-.68 11.04-4.025.56-1.958-.59-4.847-3.27-8.056-2.96-3.535-4.11-7.063-4.97-15.48-.42-4.048-.65-8.264-.54-9.377.09-1.157.15-4.729.02-8-.21-6.503.5-14.97 2.76-32.033l1.51-11.009-2.34-15.598-2.32-15.554 2.26-6.826c2.2-6.634 3.41-11.797 3.63-15.76.05-1.148.59-5.981 1.21-10.87.62-4.846 1.08-10.169 1.06-11.857-.17-5.641.34-9.418 2.2-16.551 1.03-3.899 2.13-8.315 2.5-9.742 2.64-10.582 3.98-14.849 6.55-21.175 1.6-3.985 3.69-8.09 4.65-9.146 4.16-4.687 9.77-2.052 16.65 7.885 2.69 3.893 3.65 4.571 5.76 4.257 2.77-.414 3.65-2.648 2.22-5.906-1.32-3.095-.98-3.555.79-1.032 1.65 2.356 3.11 3.419 5.35 3.952 4 .864 7.19-3.952 5.4-8.12-1.86-4.333-11.04-12.787-18.88-17.421Zm-108.17-28.663c.38-.149 2.63.202 4.92.771 8.09 2.082 16.37 7.243 16.86 10.507.16 1.115.01 1.87-.39 1.93-.88.132-7.54-2.3-10.69-3.886-3.16-1.583-11.64-8.998-10.7-9.322Zm58.52 46.591c-2.39 7.441-7.64 17.775-11.77 23.191-2.93 3.866-10.46 10.38-14.02 12.098-2.14 1.053-4.64 1.748-8.38 2.261-4.72.659-6.84.563-18.57-.884-7.28-.877-13.64-1.661-14.15-1.767-.84-.196-1.19-1.649-2.7-11.751-1.97-13.185-1.91-14.294.9-30.659 1.71-9.898 6.48-27.653 7.8-28.766.51-.486 1.88.269 5.37 2.854 3.49 2.589 6.13 4.019 10.12 5.435 2.99 1.06 5.76 2.198 6.13 2.556.46.387.61 1.37.48 2.899-.08 1.245-.25 4.012-.39 6.091-.42 6.548-2.53 11.983-7.11 18.057-2.25 2.943-4.87 5.892-5.86 6.498-2.59 1.622-3.51 2.946-3.25 4.733.34 2.281 2.63 3.721 4.82 3.029 3.26-1.036 5.38-3.088 10.35-9.864 4.25-5.8 5.25-7.547 6.51-11.758.81-2.724 1.78-4.968 2.08-5.015.36-.053 2.64.474 5 1.218 2.39.692 6.84 1.857 9.87 2.592 4.98 1.175 6.2 1.222 12.09.57 7.52-.805 7.12-1.338 4.68 6.382Zm187.5 68.219c-13.77-8.772-25.65-14.264-37.97-17.587-3.83-1.023-21.37-7.359-30.22-10.927-4.26-1.741-16.63-5.422-17.64-5.27-.36.053-2.64-.476-5.04-1.211-2.44-.689-5.76-1.516-7.33-1.831-1.58-.311-3.53-1.069-4.3-1.688-1.97-1.44-2.37-4.121-.82-5.495 1.03-.933 1.52-.96 5.37-.44 4.36.582 23.9 5.296 36.71 8.864 10.65 2.98 20.76 6.584 25.25 8.974.98.54 3.04 1.374 4.46 1.851 5.53 1.824 17.21 7.798 24.67 12.578 8.47 5.498 19.25 12.069 22.86 13.996 7.08 3.74 8.49 5.402 6.74 7.812-1.37 1.939-3.15 1.473-11.14-2.953-4.31-2.37-9.57-5.376-11.6-6.673Zm182.25 99.024c-1.35 3.902-6.3 5.417-11.6 3.606-2.84-.991-4.3-2.602-7.01-7.773-1.2-2.333-3.34-6.125-4.76-8.427-1.38-2.306-3.19-5.372-3.94-6.811-6.34-11.758-8.18-15.366-9.87-19.09-1.06-2.353-2.32-4.452-2.8-4.654-.58-.231-1.71.027-3.22.755l-2.3 1.122.59 3.383c.33 1.87 2.6 8.342 5.03 14.419 2.43 6.035 5.04 12.956 5.81 15.355 1.56 5.066 2.5 6.525 6.08 9.462 3.18 2.587 3.94 5.306 2.09 7.365-1.54 1.693-3.42 1.79-7.76.384-6.28-2.032-9.71-6.912-12.29-17.539-1.56-6.53-4.01-11.508-9.81-19.966-4.9-7.173-6.3-8.745-8.55-9.367-.99-.265-7.9.403-19.97 2.022-13.63 1.764-19.21 2.324-21.23 2.033-2.62-.388-2.89-.348-5.11 1.353-2.14 1.603-2.38 2.096-3.03 5.846-1.81 10.187-2.34 15.978-1.88 20.843l.45 5.098 3.59 5.083c4.31 6.026 5.12 9.013 3.22 11.628-2.86 3.992-6.49 2.02-17.95-9.702-2.54-2.59-2.98-12.44-1.05-25.111.95-6.266 1.01-8.282.43-12.172-.39-2.549-1.05-5.236-1.52-5.942-.77-1.257-2.33-2.029-2.78-1.459-.41.562-.51 4.737-.42 15.279.06 5.793-.1 13.404-.35 16.913-.62 8.454.07 11.551 3.13 13.972 4.84 3.846 6.01 6.87 3.92 10.015-.96 1.422-1.58 1.744-4.18 2.132-6.55.979-10.67-2.564-13.53-11.733-1.63-5.193-1.85-12.38-.87-27.79.26-3.691.27-9.953.03-13.939l-.41-7.296-3.38-2.098c-8.68-5.469-11.42-8.441-14.41-15.578-.92-2.191-1.96-4.048-2.37-4.124-1.08-.252-10.72 10.102-14.69 15.766-1.95 2.85-4.07 5.223-4.92 5.578-2.24.93-4.15.483-5.41-1.338-1.71-2.396-1.16-5.355 1.6-8.556 1.23-1.371 4.37-5.36 7.03-8.908 2.71-3.515 6.2-7.507 7.81-8.798 7.69-6.27 8.23-6.896 13.47-16.363 2.33-4.23 3.35-5.524 5.68-7.063 1.56-1.01 4.05-2.112 5.53-2.47 3.95-.91 11.52.702 20.89 4.419 8.88 3.516 13.65 4.767 23.39 6.147 11.26 1.609 20.58 1.447 32.69-.589 9.64-1.622 10.33-1.817 12.13-3.366 2.91-2.49 3.32-3.923 2.72-9.772-.44-4.413-.85-5.952-2.71-10.288-1.76-3.989-2.43-6.356-3.11-10.871-1.49-9.967-4.55-15.127-11.19-18.659-3.96-2.148-7-2.929-13.81-3.648-4.93-.543-6.85-.44-15.03.781-8.8 1.271-16.38 1.672-22.85 1.129-5.32-.394-14.33-2.016-17.64-3.121-1.8-.599-5.59-1.632-8.39-2.311-4.48-1.112-6.83-2.085-14.46-5.882-5.2-2.605-18.51-11.354-19.68-12.913-1.03-1.446.18-3.913 2.02-4.187 1.81-.272 3.18.208 11.9 4.392 13.11 6.217 41.38 14.879 49.74 15.187 4.97.169 17.99-1.456 18.36-2.287.19-.533-4.62-2.006-18.76-5.789-13.2-3.509-23.49-8.279-33.04-15.35-13.15-9.781-19.28-18.004-15.46-20.721.65-.464 1.73-.762 2.37-.719 1.79.236 8 4.79 14.38 10.553 9.83 8.905 21.91 14.823 40.17 19.679 6.13 1.599 9.16 2.016 9.03 1.165-.14-.893-8.1-9.391-11.92-12.661-9.07-7.782-29.04-21.658-35.77-24.86-3.43-1.631-3.25-5.862.31-6.395 2.55-.38 11.84 2.847 19.25 6.72 8.35 4.373 23.32 16.713 28.71 23.628 3.35 4.346 9.87 11.274 10.22 10.95.56-.497-1.34-6.564-3.82-12.317-3.08-7.124-6.88-13.274-11.4-18.266-2.11-2.38-5.59-6.428-7.78-9.026-3.51-4.228-3.92-4.896-3.54-6.233 1.03-3.671 3.42-2.98 9.92 2.903 6.19 5.61 10.62 10.89 15.27 18.239 5.96 9.526 8.68 15.696 11.9 27.282 1.92 6.842 4.14 8.792 17.32 15.141 6.44 3.104 6.4 3.111 5.48-3.334-.52-3.76-.7-4.098-4.85-9.599-2.4-3.161-9.74-12.211-16.32-20.182-13.22-15.939-17.13-21.063-20.94-27.302-4.84-8.05-11.15-23.192-10.84-26.21.15-1.712 1.58-2.701 3.42-2.384 1.25.225 2.38 1.791 8.87 12.427 3.04 5.031 8.28 12.383 15.42 21.685 1.79 2.293 5.52 7.404 8.35 11.32 2.79 3.969 5.71 7.829 6.45 8.587 1.39 1.483 5.83 4.108 6.75 3.972 1.28-.192-1.11-4.128-7.2-11.811-8.04-10.175-10.15-13.15-17.07-24.59-6.21-10.269-6.39-10.56-10.28-18.842-3.16-6.707-3.57-8.286-2.49-9.729.85-1.225 3-1.635 3.94-.771.41.35 2.33 3.581 4.3 7.17 3.85 7.103 8.31 13.793 12.98 19.49 4.67 5.654 16.79 22.35 18.39 25.266.8 1.434 2.29 3.906 3.34 5.485l1.87 2.877-.39-3.463c-.3-3.247-.62-3.882-4.19-9.106-6.64-9.563-17.06-28.709-20.99-38.447-1.29-3.277-3.1-7.53-4.01-9.45-2.59-5.602-2.49-7.581.55-8.035 1.89-.284 3.04.778 5.19 4.936 1 1.907 3.19 5.693 4.9 8.408 1.7 2.714 3.39 5.57 3.77 6.289.92 1.966 11.41 19.222 13.04 21.4 1.52 2.06 8.29 12.79 9.95 15.74.67 1.182 1.41 4.316 2.08 8.828 1.56 10.414 1.49 14.171-.42 20.672-2.66 8.944-2.62 11.632.14 17.756 1.14 2.526 1.79 2.929 6.67 4.028 5.4 1.248 12.93 4.694 14.18 6.472 3.47 4.829-.65 9.189-10.01 10.589l-3.26.487.8 2.896c.41 1.582 1.85 4.889 3.17 7.385 1.26 2.463 3.3 6.772 4.45 9.616 1.95 4.644 2.22 5.882 3.31 14.356.97 8.034 1.02 10.129.4 16.21-.38 3.803-.62 8.497-.52 10.357.1 1.857-.13 5.734-.51 8.62-1.03 8.517-.84 9.768 2.7 15.406 1.66 2.677 4.52 8.282 6.31 12.403 5.37 12.219 10.89 20.26 14.34 21.068 3.76.81 5.6 4.054 4.33 7.625Zm1947.988-68.174c-.851-.877-6.855-3.773-7.603-3.661-1.013.153-1.358.841-2.907 6.422-.734 2.622-1.814 6.528-2.466 8.775-.615 2.195-1.089 4.138-1.062 4.317.033.222-.524 2.228-1.265 4.482-2.241 6.964-4.717 24.101-4.823 33.303-.026 2.242 1.106 11.623 2.734 22.529l2.801 18.728 2.327 3.855c2.86 4.692 3.628 8.324 2.334 10.802-1.437 2.726-3.8 3.446-8.858 2.693-2.35-.379-4.727-.939-5.277-1.313-2.34-1.523-4.68-6.063-6.756-13.019-1.791-6.267-2.046-7.69-2.39-14.494-.212-4.125-1.105-13.725-1.963-21.274-.91-7.585-1.569-15.299-1.542-17.226.036-1.877.053-5.077.059-7.136-.089-6.611.52-14.562 1.424-18.762 1.215-5.71 2.962-18.08 3.111-21.897.404-9.931.288-11.01-2.145-18.871-1.903-6.111-2.601-9.299-3.595-17.147-1.155-8.921-1.304-9.629-2.111-9.007-1.536 1.145-6.101 8.818-7.664 12.8-3.554 9.302-8.401 17.475-12.25 20.61-1.079.89-4.34 2.84-7.226 4.276-4.473 2.268-6.23 2.85-12.308 3.989-6.739 1.235-7.405 1.288-12.572.414-3.035-.46-6.53-.99-7.815-1.162-4.118-.48-5.985-3.357-4.661-7.117 1.192-3.469 6.928-5.697 15.33-6.038 8.222-.314 14.763-1.383 16.762-2.734 1.834-1.278 6.928-8.391 14.178-19.755 4.876-7.673 8.785-11.913 13.621-14.737 1.245-.688 2.473-1.512 2.748-1.781 1.37-1.347 9.46-7.08 11.952-8.457 7.587-4.27 20.825-7.031 31.163-6.607v80.099c-.567-3.28-1.093-5.697-1.285-5.899Zm1.285 36.243a561.521 561.521 0 0 1-2.44 16.799c-.447 2.718-1.059 7.058-1.394 9.621-.294 2.557-1.235 9.506-2.049 15.476-1.489 10.504-1.509 10.965-.526 19.042 1.109 9.261 1.814 11.46 6.409 14.011v-74.949ZM-1642 343.448c-2.25.025-4.55.045-6.69-.643-6.49-2.081-9.31-9.591-10.75-16.253-1.17-5.347-2.02-10.833-1.51-16.282.45-4.919 2-9.664 3.53-14.36 1.46-4.439 3.04-9.087 6.5-12.223 1.52-1.378 3.33-2.389 5.12-3.389 8.45-4.716 16.98-9.467 26.22-12.35 8.26-2.579 16.91-3.611 25.5-4.631 2.54-.301 5.22-.586 7.58.411 3.11 1.31 4.98 4.627 5.6 7.947.61 3.322.2 6.734.02 10.107-.71 13.277 2.33 26.734 8.67 38.421 1.59 2.927 3.42 5.906 3.55 9.234.19 4.905-3.56 9.296-8.05 11.293-8.87 3.954-20.14 1.356-29.63 2.102-11.81.927-23.82.481-35.66.616Zm166.86-9.154c-7.57-6.267-12.06-16.087-11.85-25.912.22-10.817 5.7-20.714 9.07-30.996 5.32-16.237 5.39-33.721 4.03-50.752-.61-7.67-1.48-15.521.51-22.949 2-7.428 7.65-14.469 15.27-15.522 3.1-.43 6.23.146 9.31.719 24.52 4.574 49.17 9.182 72.68 17.517 1.66.589 3.39 1.248 4.52 2.592 1.22 1.443 1.53 3.426 1.66 5.309.65 10.014-2.84 19.798-3.92 29.775-1.09 9.977 1.14 21.589 9.75 26.746 4.99 2.992 11.28 3.249 16.21 6.335 7.93 4.955 9.99 15.312 14.19 23.664 6.26 12.454 18.35 21.344 31.56 25.805 13.2 4.462 27.48 4.854 41.35 3.49 5.77-.567 12.02-1.686 15.88-6.006 4.44-4.959 4.27-12.339 5.47-18.887 1.19-6.548 5.88-13.93 12.47-13.022 5.68.781 8.51 7.024 11.65 11.825 6.1 9.345 16.95 15.401 28.1 15.684 5.73.145 12.56-.708 16.16 3.761 3.13 3.893 1.64 10.052-1.99 13.483-3.63 3.431-8.74 4.74-13.67 5.599-12.27 2.142-24.79.758-37.24.878-28.95.277-57.96 2.06-86.76-.844-15.4-1.553-30.72 1.686-46.17.844-17.98-.98-36-2.796-53.85-.662-14.16 1.692-28.74 1.884-43.02.077-7.73-.978-15.3-3.527-21.37-8.551Zm511.976 8.143c-18.762.662-29.328-.818-44.116-.662-1.92.02-3.96-2.33-5.59-3.338-.98-.604-1.72-1.524-2.42-2.434a137.87 137.87 0 0 1-15.66-25.577c-.62-1.313-1.23-2.702-1.14-4.151.11-2.052 1.6-3.774 3.26-4.996 6.98-5.161 16.66-3.836 25.14-1.982a375.259 375.259 0 0 1 66.253 21.088c2.264.959 4.578 1.981 6.286 3.744 3.565 3.674 3.287 10.35-.573 13.714-2.194 1.911-5.124 2.704-7.964 3.33a114.087 114.087 0 0 1-30.357 2.523l6.881-1.259Zm-158.226 0c-6.08-.367-13.06-2.58-16.43-7.66-2.42-3.644-2.17-8.478-.88-12.658 1.28-4.18 3.47-8.038 4.74-12.222 1.36-4.467 1.64-9.18 1.91-13.841.34-5.978.66-12.114-1.15-17.823-2.1-6.627-6.87-12.043-9.91-18.289a37.775 37.775 0 0 1-3.78-14.962c-.12-2.85.3-6.12 2.64-7.749 1.97-1.37 4.75-1.056 6.81.172 2.07 1.228 3.56 3.204 4.93 5.181 10.48 15.134 16.84 33.192 29.6 46.453 6.3 6.54 14.01 11.736 19.49 18.967 4.88 6.419 17.25 31.569 5.47 33.107-15.23 1.986-29.89 2.14-43.44 1.324Zm235.74-27.96c-6.65-10.356-14.614-19.838-20.963-30.381-6.349-10.544-11.105-22.56-10.39-34.847.099-1.738.347-3.565 1.406-4.949 1.738-2.274 4.992-2.588 7.855-2.595 10.305-.033 20.997 1.351 30.619-2.337 2.827-1.082 5.542-2.628 7.511-4.929 4.711-5.504 4.985-14.919 11.616-17.845 1.833-.811 4.048-.92 5.809.04.844.46 1.552 1.142 2.122 1.917 2.029 2.757 2.211 6.401 2.545 9.808a77.108 77.108 0 0 0 3.972 17.951c1.838 5.233 4.267 10.87 2.44 16.107-1.569 4.508-5.866 7.375-9.725 10.186-4.572 3.328-8.954 7.094-11.96 11.882-4.171 6.647-5.372 14.76-5.306 22.607.069 7.847 1.304 15.641 1.582 23.483.086 2.404-.033 5.099-1.764 6.769-4.393 4.238-6.995-3.668-8.176-6.225-2.655-5.752-5.77-11.313-9.193-16.642Zm127.769 25.57c-3.995-.071-8.076-.159-11.827-1.535-3.75-1.376-7.176-4.306-8.04-8.207-1.242-5.618 2.933-10.828 6.604-15.258 11.966-14.432 21.847-32.512 19.311-51.088-.98-7.163-3.764-13.962-5.091-21.069-1.331-7.107-.963-15.091 3.621-20.682 5.062-6.163 13.681-7.749 21.536-9.142 10.152-1.804 20.474-4.052 29.246-9.471 7.209-4.455 12.992-10.814 19.04-16.749 6.051-5.932 12.691-11.652 20.741-14.293 8.05-2.642 17.839-1.553 23.602 4.66 6.15 6.631 6.13 16.73 5.647 25.76-1.698 31.632-4.578 63.8 2.664 94.637 1.702 7.237 3.966 14.454 3.969 21.887 0 7.434-2.724 15.367-8.957 19.42-5.932 3.86-13.565 3.444-20.629 3.014-26.17-1.589-52.433-1.006-78.64-1.475l-22.797-.409Zm424.565 1.181c-2.595.071-5.309.135-7.64-1.009-5.051-2.478-6.004-9.148-6.249-14.769-1.093-25.22-1.079-50.474-1.063-75.718.007-11.85.03-23.839 2.893-35.339 1.735-6.961 4.668-13.906 10.027-18.676 6.193-5.515 15.372-7.951 19.364-15.223 1.069-1.95 1.695-4.158 3.055-5.919 1.897-2.456 4.932-3.694 7.382-5.594 3.482-2.701 5.723-6.687 8.888-9.758 7.702-7.478 21.036-8.157 29.457-1.503 7.219 5.703 10.172 15.071 13.932 23.465a102.06 102.06 0 0 0 16.386 25.525c5.624 6.412 12.065 12.132 17.02 19.077 4.956 6.941 8.375 15.554 6.823 23.939-1.215 6.56-5.293 12.198-9.537 17.345-4.621 5.604-9.603 10.973-13.28 17.236-3.674 6.262-5.985 13.666-4.658 20.805 1.017 5.461 4.052 10.322 5.734 15.615 1.684 5.293 1.671 11.841-2.46 15.556-2.866 2.58-6.971 3.135-10.811 3.529-13.992 1.433-27.868 2.32-41.883 1.734a627.467 627.467 0 0 0-43.38-.318Zm838.253-1.463c-10.077-.302-20.795-.9-28.998-6.76-8.341-5.963-12.38-16.182-15.366-25.992a246.91 246.91 0 0 1-7.613-32.949c-1.152-7.202-1.953-14.769.497-21.641 3.79-10.648 14.598-17.289 25.462-20.42 10.86-3.135 22.336-3.615 33.247-6.574 9.132-2.473 17.799-6.663 27.123-8.269 9.322-1.602 20.013-.033 26.15 7.17 7.445 8.742 5.495 21.788 8.071 32.979 2.876 12.496 11.764 22.989 22.399 30.156 10.633 7.167 22.957 11.373 35.28 14.921 4.889 1.409 9.884 2.738 14.972 2.68 5.876-.067 11.556-1.975 17.12-3.862 10.659-3.613 22.254-7.984 27.716-17.825 4.28-7.717 3.784-17.156 6.485-25.557 1.837-5.7 5.981-11.43 11.94-12.059 5.104-.542 9.943 2.98 12.525 7.415 2.582 4.436 3.367 9.659 4.105 14.737 1.384 9.547 2.767 19.193 1.96 28.805-.808 9.612 6.937 31.575.238 38.516-8.044 8.337-30.702 5.335-42.258 6.145-50.596 3.551-93.042-.576-139.219-.862a1768.178 1768.178 0 0 1-41.836-.754ZM-348.165 82.817c1.88 7.137-.285 12.245-4.965 18.084-1.977 2.463-4.102 4.862-6.737 6.6-5.965 3.936-13.876 3.939-20.632 1.609-6.759-2.334-12.585-6.73-18.123-11.251-9.467-7.726-18.706-16.33-23.866-27.408a47.083 47.083 0 0 1-4.363-21.205c.139-4.694 1.327-9.908 5.273-12.456 2.718-1.755 6.15-1.847 9.387-1.877 12.258-.126 24.549-.239 36.747.97 5.62.556 11.32 1.423 16.375 3.942 5.051 2.516 9.427 6.935 10.642 12.446.53 2.41.444 4.906.358 7.372-.262 7.289-1.957 16.104-.096 23.174Zm-212.245-46.24c4.952 1.073 10.149 4.211 13.43 8.074 1.817 2.142 2.88 4.807 3.886 7.432 1.251 3.27 2.476 6.65 2.439 10.152-.066 6.805-4.763 12.572-9.215 17.72-3.757 4.342-7.64 8.79-12.734 11.442-7.418 3.863-16.316 3.37-24.568 1.983-8.249-1.383-16.531-3.568-24.856-2.764-5.879.566-11.51 2.609-16.972 4.856-3.164 1.301-6.348 2.691-9.741 3.161-3.393.467-7.097-.115-9.673-2.37-2.727-2.38-3.72-6.11-5.114-9.454-5.488-13.15-18.123-21.572-29.05-30.724-1.608-1.348-3.227-2.771-4.237-4.611-1.009-1.84-1.307-4.211-.231-6.012.804-1.354 2.237-2.194 3.654-2.88 8.855-4.273 19.037-6.464 28.865-6.666 16.587-.344 33.171-.318 49.758-.662 6.931-.143 13.505.08 20.48.175 8.024.11 16.038-.55 23.879 1.149ZM-778.423 60.64c-2.937 3.483-7.587 4.876-11.914 6.313-11.787 3.91-23.267 9.5-32.168 18.163-7.037 6.852-12.201 15.346-17.911 23.34-.636.89-1.377 1.84-2.446 2.072-1.268.275-2.5-.566-3.443-1.457-5.379-5.058-7.289-12.661-9.705-19.636a105.903 105.903 0 0 0-13.426-26.2c-4.082-5.796-9.001-19.602-8.276-26.656 20.189-4.43 40.834-1.83 61.503-1.986 6.428-.05 25.995-.92 32.238.615 7.504 1.844 14.412 14.926 5.548 25.432Zm-419.757-14.617c1.34-1.904 3.42-3.139 5.49-4.191 17.22-8.755 37.39-5.73 56.71-5.584 29.9.221 59.8-2.629 89.71-2.403 2.04.013 4.2.062 5.94 1.135 4.19 2.598 3.19 9.066.64 13.28-2.75 4.515-6.61 8.263-9.32 12.797-7.52 12.609-4.8 28.517-2.43 43.003.4 2.446.75 5.084-.38 7.285-1.9 3.685-6.82 4.31-10.96 4.386-12.77.235-25.72-.377-37.94-4.078-4.21-1.274-8.35-2.916-12.72-3.472-4.36-.556-9.13.129-12.45 3.019-4.72 4.121-5.15 11.148-5.86 17.378a93.665 93.665 0 0 1-3.34 16.24c-1.3 4.3-3.2 8.861-7.16 10.986-1.08.583-2.36.953-3.56.639-.98-.258-1.79-.947-2.5-1.668-5.15-5.197-7.03-12.688-9.09-19.709-7.82-26.65-21.39-48.927-37.64-71.119-3.41-4.664-6.92-12.532-3.14-17.924ZM-1322.41 75.3c-12.4 11.288-22.44 24.916-34.2 36.875-4.87 4.946-10.19 9.709-16.67 12.201-3.92 1.51-8.13 2.129-12.33 2.46-17.47 1.374-35.87-2.473-49.58-13.406-13.82-11.03-21.5-27.845-28.58-44.055-2.93-6.697-5.87-13.492-6.98-20.715-.6-3.863-.42-8.385 2.58-10.897 1.83-1.536 4.32-1.96 6.69-2.251 7.1-.877 14.27-1.063 21.43-1.215 48.85-1.04 97.73-.602 146.56 1.304 3.63.143 7.98.732 9.54 4.016 3.2 6.713-9.29 13.998-13.8 17.02-8.57 5.74-17.02 11.715-24.66 18.663Zm2119.333 53.962c-1.185-.006-28.468.172-53.801-1.354-6.193-.374-12.287 2.288-17.841 5.058-4.194 2.089-7.925 4.989-11.626 7.865-5.293 4.118-10.586 8.233-15.879 12.35-5.273 4.102-11.31 8.431-17.947 7.647-5.753-.682-10.47-5.267-12.814-10.563-2.347-5.299-2.704-11.241-2.757-17.037-.139-14.972 1.519-29.901 3.174-44.783l1.708-15.36c.785-7.08 1.576-14.167 2.933-21.161.933-4.807 2.456-10.027 6.584-12.658 3.009-1.917 6.786-2.036 10.354-2.092l31.655-.517c18.772-.308 37.544-.615 56.319-.92 6.273-.103 12.642-.152 19.938-.152v93.677ZM-1659.7 35.585c5.18.476 10.66 3.019 14.82 6.143 5.75 4.32 7.37 12.367 6.68 19.527-.68 7.16-3.21 14.045-3.97 21.198-.89 8.296.62 16.713-.31 25.005-.93 8.292-5.25 17.137-13.23 19.577-2 .612-4.11.777-6.19.943-7.88.616-15.85 1.049-23.8 1.284V35.585" fill="#F8F9FA"/></g><defs><clipPath id="a"><path fill="#fff" transform="matrix(1 0 0 -1 0 383.813)" d="M0 0h250v383.813H0z"/></clipPath></defs></svg>