<svg width="755" height="1080" viewBox="0 0 755 1080" fill="none" xmlns="http://www.w3.org/2000/svg">
<g clip-path="url(#clip0_3104_22098)">
<path d="M221.21 839.58C221.21 839.58 242.36 877.38 278.21 867.6C279.56 867.23 280.99 867.51 282.14 868.29C292.2 875.11 311.18 880.62 336.94 870.07C338.33 869.5 339.92 869.64 341.17 870.47C361.76 884.12 390.68 888.83 416.23 868.34C417 867.72 418.04 867.56 418.96 867.93C432.54 873.39 440.63 873.06 457.38 866.64C460.29 865.52 462.32 865.09 463.62 865.2C467.71 865.54 476.3 871.6 493.42 866.86C487.5 884.32 442.16 897.96 442.16 897.96L293.66 909.85L215.08 878.49L221.21 839.58Z" fill="#93B4F6"/>
<path d="M91.0201 667.06C45.0001 668.39 40.2601 698.27 40.2501 705.6C40.2301 713.8 43.2201 721.27 50.2301 723.2C58.7801 725.56 62.7701 717.26 58.3001 714.22C51.5301 709.63 52.7501 705.51 56.1101 703.54C60.8601 700.77 84.8101 702.72 75.3901 741.84C72.0301 755.81 66.2001 757.74 64.3701 763.88C65.0201 780.57 73.0701 779.32 90.4301 779.32C121.43 779.32 143.76 752.82 143.76 721.82C143.74 690.83 122.01 666.17 91.0201 667.06Z" fill="#93B4F6"/>
<path d="M678.07 848.3C695.74 811.95 682.27 770.64 651.49 744.45C631.55 727.49 639.88 709.1 649.52 707.46C655.15 706.5 661.91 714.5 654.9 720.73C652.97 722.44 655.41 727.03 662.61 723.65C667.82 721.2 675.37 706.21 662.79 694.45C650.99 683.41 635.63 681.46 619.41 687.32C590.95 697.61 582.14 724.99 587.01 758.86C590.6 783.86 597.05 885.88 597.05 885.88L649.84 884.98C662.42 874.57 671.52 861.78 678.07 848.3Z" fill="#93B4F6"/>
<path d="M647.12 783.73C651.78 791.77 663.48 788.92 660.25 781.32C655.09 769.14 666.07 765.96 670.02 768.64C681.23 776.23 686.24 803.41 655 815.83C639.25 822.09 604.73 822.58 566.89 815.25C551.06 835.29 564.4 929.72 657.75 928.21C755.98 926.63 768.51 819.77 745.03 775.26C730.43 747.59 691.11 730.11 661.91 739.42C646.5 744.32 635.3 763.33 647.12 783.73Z" fill="#93B4F6"/>
<path d="M473.44 844.501C474.87 844.111 475.97 843.541 476.38 842.721C477.6 840.251 473.02 837.991 471.04 833.411C468.72 828.071 470.78 822.481 474.65 820.511C479.87 817.851 488.38 819.751 493.13 825.821C498.18 832.261 513.42 861.811 463.99 887.331C503.3 899.851 532.22 854.091 532.79 842.191C534.67 803.141 506.98 786.501 483.68 787.381C461.96 788.201 453.3 804.731 454 821.451C454.56 834.941 466.34 846.461 473.44 844.501Z" fill="#93B4F6"/>
<path d="M177.8 896.84C180.39 896.84 183.66 896.82 187.39 896.75L199.73 918.83C241.24 945.29 270.7 962.12 343.94 934.33C387.01 917.99 397.53 912.38 420.38 910.38C430.99 927.08 455.79 937.69 486.43 941.02L531.29 918.96C531.29 918.96 542.21 867.95 531.5 834.09C510.71 879.26 477.01 880.88 459.82 867.37C458.63 866.43 456.93 866.49 455.85 867.56C427.88 895.18 407.01 885.77 397.27 880C396.04 879.27 394.52 879.26 393.25 879.92C352.8 901.12 320.57 884.23 310.77 877.87C309.04 876.74 306.77 877.01 305.31 878.47C301.68 882.08 293.72 888.01 280.17 888.71C269.07 889.29 250.19 881.32 239.19 864.37C213.89 825.38 196.35 766.18 210.21 732.18C215.25 719.82 225.29 715.31 233.36 715.47C243.74 715.68 248.31 723.64 240.21 725.45C235.43 726.52 236 735.09 245.57 734.95C257.29 734.78 264.63 723.19 264.63 713.62C264.63 683.54 238.89 666.17 199.66 666.17C153.9 666.17 115.91 708.52 115.91 754.97C115.9 801.41 132.05 896.84 177.8 896.84Z" fill="#93B4F6"/>
<path d="M245.43 948.2C271 956.57 300.1 957.31 345.18 941.07C376.64 929.74 393.66 914.72 420.39 910.38C425.63 918.62 434.32 925.37 445.46 930.51L503.65 921.09C503.65 921.09 534.44 872.35 515.38 889.47C498.17 904.92 475.09 895.61 464.24 892C462.55 891.44 460.7 891.74 459.25 892.78C439.37 907.04 420.39 910.39 402.16 902.53C399.91 901.56 397.42 901.35 395.57 902.97C372.78 922.89 349.19 914.45 332.47 903.93C330.44 902.65 327.83 902.96 326.05 904.56C292.82 934.52 253.67 912.38 243.51 901.19C242.27 899.83 240.41 899.24 238.6 899.58C207.28 905.33 193.17 882.53 193.17 882.53C182.03 907.71 220.73 933.61 245.43 948.2Z" fill="#93B4F6"/>
<path d="M490.03 901.14C472.99 912.82 442.07 921.39 429.68 921.33C458.02 950.38 534.59 953.66 575.36 943.06C632.4 928.22 649.42 893.98 649.39 856.58C649.3 753.76 553.59 746.58 546.08 719.22C542.62 706.6 548.2 701.35 553.26 698.84C559.07 695.96 566.06 699.21 566.17 701.98C566.31 705.76 559.48 705.77 562.56 712.02C564.13 715.22 568.51 715.69 573.18 713.72C580.79 710.51 584.95 702.27 583.64 694.12C579.89 670.72 560.96 654.88 534.76 654.88C504.98 654.88 478.17 675.23 471.38 704.26C462.41 742.6 502.45 770.58 518.91 808.08C538.35 854.61 509.22 887.98 490.03 901.14Z" fill="#93B4F6"/>
<path d="M135.4 893.961C208.24 929.251 228.09 968.401 302.83 952.331C216.25 946.281 193.73 872.711 205.49 841.141C209.79 829.581 220.2 821.011 231.72 818.931C236.55 818.061 244.13 818.141 247.88 823.341C249.56 825.681 248.53 828.471 245.54 829.941C243 831.191 240.45 832.631 240.64 836.691C240.92 842.741 251.42 845.501 258.81 837.461C265.7 829.971 261.72 810.231 250.62 800.911C236.4 788.981 214.72 786.001 194.41 788.341C144.07 794.131 106.81 830.841 100 884.151C109.67 885.441 123.75 888.321 135.4 893.961Z" fill="#93B4F6"/>
<path d="M59.0397 864.141C67.3897 858.851 66.5898 850.231 65.9398 847.951C64.2298 841.941 55.8897 842.121 54.1597 848.121C53.6597 849.861 52.4598 851.301 50.0898 851.911C41.9498 854.001 39.4097 833.761 50.2297 827.771C67.6297 818.141 91.0597 849.891 60.1097 885.021C91.9897 877.991 128.19 888.151 157.39 902.851C172.74 885.991 183.63 861.381 183.63 836.161C183.63 784.361 140.07 742.861 94.7398 740.271C47.6898 737.581 -0.700259 768.601 -0.0202594 815.171C0.679741 863.071 42.8497 874.401 59.0397 864.141Z" fill="#93B4F6"/>
<path d="M396.409 502.83H302.649L304.509 510.17H397.729L396.409 502.83Z" fill="white"/>
<path d="M300.29 266.22H170.29C168.63 266.22 167.06 265.51 165.87 264.21C164.47 262.69 163.77 260.55 163.95 258.36C164.25 254.72 167.14 251.87 170.53 251.87H175.26C177.19 251.87 179.15 251.7 180.41 250.43C181.62 249.22 182.2 247.03 182.19 243.75C182.15 233.83 184.88 226.04 190.3 220.61C197.77 213.11 208.52 211.99 214.26 211.99C220.81 211.99 223.87 216.38 226.82 220.63C230.12 225.38 233.54 230.28 242.11 230.28H255.53C264.25 230.28 269.72 234.41 274.4 244.52L274.53 244.81C277.27 250.74 278.81 253.58 283.73 253.58H300C302.01 253.58 303.7 254.27 304.89 255.56C305.93 256.7 306.51 258.23 306.51 259.88C306.5 263.03 304.37 266.22 300.29 266.22ZM170.52 253.87C168.17 253.87 166.15 255.91 165.94 258.52C165.8 260.16 166.31 261.74 167.34 262.86C168.15 263.74 169.2 264.22 170.29 264.22H300.29C303.18 264.22 304.5 261.97 304.5 259.89C304.5 257.75 303.11 255.59 300 255.59H283.71C277.29 255.59 275.27 251.21 272.7 245.66L272.57 245.37C268.22 235.96 263.44 232.29 255.52 232.29H242.1C232.49 232.29 228.6 226.71 225.17 221.78C222.26 217.61 219.75 214 214.25 214C208.82 214 198.67 215.04 191.71 222.03C186.68 227.08 184.15 234.39 184.19 243.76C184.2 247.6 183.43 250.24 181.83 251.86C180.05 253.65 177.51 253.89 175.26 253.89H170.52V253.87Z" fill="#F8F9FA"/>
<path d="M663.37 581.571H480.02C476.51 581.571 473.58 580.301 471.56 577.891C469.8 575.801 468.83 572.941 468.83 569.851C468.83 563.671 472.89 557.101 480.42 557.101H493.53C494.78 557.101 495.68 556.761 496.29 556.071C498.37 553.681 497.46 547.141 496.32 538.861C496 536.561 495.67 534.171 495.37 531.641L495.32 531.181C494.16 521.461 491.74 501.241 512.31 493.871C520.2 491.041 524.11 489.961 531.2 487.991C533.04 487.481 535.1 486.911 537.52 486.231C543.88 484.441 548.56 484.391 552.69 486.081C557.73 488.141 561.8 492.871 565.16 500.541C569.56 510.601 573.17 513.701 578.99 512.381C618.66 503.371 624.99 519.611 631.12 535.321C631.5 536.281 631.87 537.241 632.25 538.201C636.19 548.011 640.96 557.091 649.17 557.091H662.99C670.83 557.091 674.94 563.351 674.94 569.541C674.92 575.341 671.31 581.571 663.37 581.571ZM480.43 559.101C474.13 559.101 470.84 564.511 470.84 569.851C470.84 572.471 471.64 574.871 473.1 576.611C474.73 578.551 477.13 579.571 480.03 579.571H663.38C669.94 579.571 672.93 574.381 672.93 569.551C672.93 564.521 669.82 559.101 662.98 559.101H649.16C639.76 559.101 634.58 549.421 630.38 538.951C630 537.991 629.62 537.021 629.24 536.061C623.15 520.451 617.4 505.711 579.42 514.341C571.52 516.141 567.4 510.701 563.32 501.351C556.76 486.351 548.48 485.231 538.05 488.161C535.63 488.841 533.57 489.411 531.73 489.921C524.45 491.941 520.8 492.951 512.98 495.751C493.91 502.591 496.2 521.741 497.3 530.941L497.36 531.401C497.66 533.911 497.99 536.291 498.31 538.581C499.57 547.711 500.49 554.301 497.81 557.371C496.82 558.511 495.38 559.091 493.54 559.091H480.43V559.101Z" fill="#F8F9FA"/>
<path d="M258.42 600.191H93.4296C91.1496 600.191 88.9397 599.231 87.3797 597.571C85.7997 595.881 85.0096 593.671 85.1596 591.351C85.4396 587.011 89.1796 583.611 93.6796 583.611H101.8C105.1 583.611 107.78 580.931 107.78 577.631V564.401C107.78 556.071 113.46 548.961 121.59 547.121L144.5 541.951C152.94 540.041 161.6 543.391 166.57 550.471C169.66 554.881 174.72 557.511 180.11 557.511H203.37C212.6 557.511 220.92 563.341 224.08 572.001C226.61 578.941 233.27 583.611 240.66 583.611H258.18C262.68 583.611 266.42 587.011 266.7 591.351C266.85 593.671 266.06 595.881 264.48 597.571C262.91 599.231 260.7 600.191 258.42 600.191ZM93.6796 585.611C90.2296 585.611 87.3696 588.191 87.1596 591.481C87.0496 593.241 87.6397 594.921 88.8397 596.201C90.0397 597.481 91.6696 598.191 93.4296 598.191H258.42C260.18 598.191 261.81 597.481 263.01 596.201C264.21 594.921 264.81 593.241 264.69 591.481C264.48 588.191 261.61 585.611 258.17 585.611H240.65C232.42 585.611 225 580.421 222.19 572.691C219.32 564.811 211.75 559.511 203.36 559.511H180.1C174.06 559.511 168.39 556.561 164.92 551.621C160.42 545.201 152.57 542.171 144.93 543.901L122.02 549.071C114.81 550.701 109.77 557.001 109.77 564.401V577.631C109.77 582.031 106.19 585.611 101.79 585.611H93.6796Z" fill="#F8F9FA"/>
<path d="M176.77 874.04L174.92 873.271C179.96 861.241 182.62 848.41 182.62 836.16C182.62 811.96 172.97 788.631 155.46 770.461C138.79 753.171 116.64 742.531 94.6797 741.271L94.7997 739.271C117.25 740.561 139.89 751.42 156.9 769.07C174.78 787.62 184.62 811.44 184.62 836.16C184.63 848.66 181.91 861.76 176.77 874.04Z" fill="white"/>
<path d="M205.259 882.8C200.679 867.62 200.409 851.92 204.549 840.8C208.909 829.1 219.499 820.13 231.539 817.95L231.899 819.92C220.539 821.97 210.549 830.44 206.429 841.5C202.439 852.23 202.719 867.45 207.179 882.23L205.259 882.8Z" fill="white"/>
<path d="M241.26 795.931C229.04 789.611 212.44 787.271 194.5 789.331C190.9 789.741 187.31 790.331 183.83 791.061L183.42 789.1C186.96 788.35 190.61 787.761 194.28 787.341C212.6 785.231 229.61 787.651 242.18 794.151L241.26 795.931Z" fill="white"/>
<path d="M306.51 917.55L305.85 915.66C312.8 913.22 319.37 909.23 325.39 903.8C327.52 901.88 330.65 901.58 333.01 903.07C338.33 906.42 343.56 909.04 348.54 910.83L347.86 912.71C342.74 910.86 337.39 908.19 331.94 904.76C330.33 903.75 328.19 903.97 326.73 905.29C320.51 910.9 313.71 915.03 306.51 917.55Z" fill="white"/>
<path d="M379.26 913.78L378.62 911.89C384.28 909.97 389.76 906.72 394.92 902.21C396.85 900.53 399.56 900.31 402.56 901.61C406.84 903.45 411.22 904.69 415.59 905.27L415.33 907.25C410.78 906.64 406.21 905.36 401.77 903.45C400.18 902.76 397.92 902.25 396.24 903.72C390.88 908.39 385.16 911.78 379.26 913.78Z" fill="white"/>
<path d="M441.26 903.85L440.54 901.98C446.45 899.71 452.54 896.34 458.66 891.95C460.37 890.72 462.58 890.38 464.54 891.04C465.22 891.27 465.94 891.51 466.71 891.78C471.04 893.26 476.97 895.29 483.38 896.35L483.05 898.32C476.48 897.23 470.45 895.17 466.06 893.67C465.3 893.41 464.58 893.16 463.9 892.94C462.54 892.48 461.01 892.72 459.81 893.58C453.57 898.07 447.33 901.53 441.26 903.85Z" fill="white"/>
<path d="M263.19 915.271C253.36 911.131 246.2 905.621 242.77 901.851C241.78 900.761 240.29 900.271 238.78 900.551C232.65 901.671 226.71 901.791 221.14 900.901L221.46 898.931C226.8 899.781 232.51 899.671 238.42 898.591C240.61 898.181 242.8 898.911 244.26 900.521C247.55 904.141 254.45 909.431 263.97 913.441L263.19 915.271Z" fill="white"/>
<path d="M274.03 948.37C252.14 942.04 233.77 929.86 220.89 913.14L222.47 911.92C235.08 928.3 253.1 940.23 274.58 946.45L274.03 948.37Z" fill="white"/>
<path d="M458.41 916.59L457.81 914.68C470.57 910.66 481.809 905.56 489.469 900.31C495.249 896.35 509.59 885.16 518.06 866.71C526.49 848.34 526.469 828.74 517.99 808.46L519.839 807.69C528.539 828.51 528.55 848.65 519.88 867.55C511.21 886.46 496.519 897.92 490.609 901.97C482.779 907.32 471.35 912.51 458.41 916.59Z" fill="white"/>
<path d="M634.569 908.88L632.969 907.67C643.209 894.09 648.4 876.9 648.38 856.57C648.33 801.95 620.78 775.58 600.06 760.5L601.24 758.88C616.17 769.75 627.27 781.61 635.17 795.16C645.24 812.41 650.36 833.08 650.38 856.57C650.4 877.34 645.079 894.94 634.569 908.88Z" fill="white"/>
<path d="M646.25 784.231C639.35 772.331 639.45 759.721 646.52 749.641L648.16 750.791C641.56 760.211 641.49 772.031 647.98 783.231L646.25 784.231Z" fill="white"/>
<path d="M655.38 816.75L654.64 814.89C672.95 807.61 676.84 795.96 677.52 789.66C678.4 781.57 675.09 773.26 669.47 769.46C668.46 768.78 666.82 768.57 665.2 768.91C664.12 769.14 662.13 769.81 660.89 771.78L659.2 770.72C660.41 768.8 662.39 767.47 664.79 766.96C666.97 766.5 669.14 766.82 670.6 767.81C676.81 772.01 680.48 781.09 679.52 789.89C678.78 796.62 674.67 809.08 655.38 816.75Z" fill="white"/>
<path d="M119.45 734.27L117.51 733.79C120.73 720.77 126.92 708.27 135.43 697.65L136.99 698.9C128.66 709.29 122.59 721.52 119.45 734.27Z" fill="white"/>
<path d="M279.029 889.731C272.879 889.731 265.149 887.401 258.069 883.381L259.059 881.641C266.289 885.751 274.159 888.021 280.119 887.701C286.249 887.381 291.849 885.941 296.739 883.411L297.659 885.191C292.509 887.851 286.649 889.371 280.229 889.701C279.829 889.721 279.429 889.731 279.029 889.731Z" fill="white"/>
<path d="M337.12 889.611C330.15 888.161 323.39 885.801 317.04 882.601L317.94 880.811C324.14 883.931 330.73 886.231 337.52 887.651L337.12 889.611Z" fill="white"/>
<path d="M418.37 887.3C412.51 887.3 406.72 885.92 401 883.14L401.87 881.34C415.36 887.89 429.39 886.27 443.57 876.53L444.7 878.18C435.86 884.26 427.05 887.3 418.37 887.3Z" fill="white"/>
<path d="M481.88 875.8C479.67 875.8 477.46 875.61 475.26 875.23L475.6 873.26C487.95 875.42 500.73 871.11 511.58 861.13L512.93 862.6C503.54 871.24 492.72 875.8 481.88 875.8Z" fill="white"/>
<path d="M445.05 339.541L436.97 332.221L400.86 342.711L391.4 337.021L348.08 349.951L338.17 344.261L317.71 353.711L326.35 353.821L337.07 350.771L344.96 359.721L388.08 346.791L388.13 346.841L396.44 355.741L432.02 345.301L437.69 353.341L477.88 342.071C478.78 342.071 479.2 340.951 478.52 340.361L474.08 336.491C473.65 336.111 473.63 335.441 474.06 335.051L478.67 330.741C479.32 330.141 478.89 329.061 478.01 329.061L445.05 339.541Z" fill="#F8F9FA"/>
<path d="M435.231 359.72L430.031 349.21L394.661 360.87L387.571 349.48L342.541 363.15L335.561 354.77L317.311 354.74L317.141 359.24L334.451 362.49L342.721 375.36L385.691 362.53L393.841 375.75L426.971 365.31L432.981 375.75L472.831 364.28C473.731 364.28 474.151 363.16 473.471 362.57L468.901 357.82C468.471 357.44 468.451 356.77 468.881 356.38L473.631 349.29C474.281 348.69 473.851 347.61 472.971 347.61L435.231 359.72Z" fill="#F8F9FA"/>
<path d="M335.4 595.971H377.87V758.381H292.32C283.46 758.381 276.28 751.201 276.28 742.341V729.251C276.28 719.991 278.34 710.841 282.31 702.471L335.4 595.971Z" fill="#F8F9FA"/>
<path d="M468.24 751.93C468.24 751.93 453.38 742.11 447.05 737.95C438.95 732.61 436.49 725.64 435.23 718.67L376.17 390.3H238.8L240.4 374.9H162.45L152.29 437.99C149.97 452.38 161.08 465.42 175.66 465.42H270.78C283.94 465.42 295.42 474.35 298.66 487.1L367.14 758.7H466.46C470.25 758.71 470.86 753.36 468.24 751.93Z" fill="#274D76"/>
<path d="M331.941 396.01H297.561V346.86H307.891L331.941 396.01Z" fill="#EC8C92"/>
<path d="M290.681 343.75V373.67C290.681 376.05 292.611 377.99 295.001 377.99C306.801 377.99 315.861 368.45 315.971 353.44L316.241 353.26L290.681 343.75Z" fill="#F2BDBA"/>
<path d="M227.802 385.558L219.623 436.443L221.598 436.761L229.777 385.875L227.802 385.558Z" fill="#F8F9FA"/>
<path d="M322.58 341.78L294.72 320.74C293.06 319.5 290.69 320.68 290.69 322.76V343.76L316.25 353.26L322.25 349.34C323.83 348.31 324.75 346.44 324.37 344.59C324.14 343.51 323.54 342.5 322.58 341.78Z" fill="#93B4F6"/>
<path d="M315.971 353.44L290.681 346.77V339.65L317.711 352.3L315.971 353.44Z" fill="#F8F9FA"/>
<path d="M345.691 390.3H238.801L240.391 374.9H227.701L225.351 390.3L339.871 462.07L345.691 390.3Z" fill="#93B4F6"/>
<path d="M342.5 429.641L345.69 390.301H279.73L342.5 429.641Z" fill="white"/>
<path d="M247.891 389.85L229.131 399.7C221.191 403.87 211.381 400.58 207.561 392.46L198.471 373.16L241.301 358.48C246.401 356.73 251.731 360.42 251.911 365.8L252.431 382.05C252.531 385.31 250.771 388.34 247.891 389.85Z" fill="#EC8C92"/>
<path d="M237.04 340.86V366.66L296.04 356.01C297.1 355.78 297.85 354.84 297.85 353.75C297.85 352.67 297.1 351.73 296.04 351.49L237.04 340.86Z" fill="#274D76"/>
<path d="M227.8 389.9C224.99 390.08 217.99 390.55 217.42 385.49C213.17 391.16 199.15 392.2 197.75 385.56C194.7 390.98 181.84 393.36 176.99 385.49C170.75 390.18 164.79 390.17 160.54 389.9C154.64 389.52 149.84 385.11 149.84 379.2V348.13C149.84 328.38 165.85 320.63 185.6 320.63H216.29C231.85 320.63 244.47 324.99 244.47 340.55V373.23C244.46 382.44 236.99 389.32 227.8 389.9Z" fill="#F2BDBA"/>
<path d="M146.271 380.34C139.721 381.33 125.971 383 125.971 383V324.25C125.971 324.25 139.731 325.76 146.271 326.91C155.741 328.59 163.691 334.71 163.691 344.33V362.91C163.691 372.54 155.781 378.9 146.271 380.34Z" fill="#274D76"/>
<path d="M48.3005 293.07L47.8105 413.03L107.281 399.74C122.531 396.35 133.391 382.83 133.391 367.2V338.84C133.391 323.21 122.541 309.69 107.281 306.3L48.3005 293.07Z" fill="#93B4F6"/>
<path d="M47.3102 413.06C58.0964 413.06 66.8403 386.184 66.8403 353.03C66.8403 319.876 58.0964 293 47.3102 293C36.5241 293 27.7803 319.876 27.7803 353.03C27.7803 386.184 36.5241 413.06 47.3102 413.06Z" fill="#274D76"/>
<path d="M450.41 276.781H358.61V219.141H438.59C445.12 219.141 450.41 224.431 450.41 230.961V276.781Z" fill="#74BAAB"/>
<path d="M450.32 239.511V233.761C450.32 232.471 449.28 231.431 447.99 231.431C446.7 231.431 445.66 232.471 445.66 233.761V285.321C445.66 295.591 453.98 303.911 464.25 303.911H559.77C564.98 303.911 567.22 297.311 563.1 294.131L536.16 273.361C534.33 271.951 534.15 269.241 535.79 267.611L551.46 251.951C553.72 249.691 552.12 245.841 548.93 245.841H456.65C453.16 245.841 450.32 243.011 450.32 239.511Z" fill="#74BAAB"/>
<path d="M371.68 758.72L359.83 212.99H355.09V758.72H371.68Z" fill="#FFF3A1"/>
<path d="M355.09 846.811V899.481C361.42 900.171 368.05 899.141 374.74 896.121L373.66 846.821H355.09V846.811Z" fill="#FFF3A1"/>
<path d="M357.31 216.68C354.17 216.68 351.63 214.14 351.63 211C351.63 207.86 354.17 205.32 357.31 205.32C360.45 205.32 362.99 207.86 362.99 211C362.99 214.13 360.45 216.68 357.31 216.68Z" fill="#FFF3A1"/>
<path d="M325.6 433.59L321.71 432.48C316.94 431.12 314.18 426.15 315.53 421.38L319.55 407.27C321.37 400.89 328.01 397.2 334.39 399.02L335.37 399.3C340.14 400.66 342.91 405.63 341.55 410.4L336.7 427.41C335.34 432.18 330.37 434.95 325.6 433.59Z" fill="#EC8C92"/>
<path d="M342.3 464.12H458.48C466.92 464.12 473.77 457.27 473.77 448.83V423.74C473.77 400.29 454.76 381.29 431.32 381.29H358.75C339.02 381.29 325.4 393.63 328.16 408.93C323.73 413.03 324.01 422.91 328.09 427.76C324.79 433.33 326.02 443.48 331.34 445.98C328.62 451.4 332.04 464.12 342.3 464.12Z" fill="#F2BDBA"/>
<path d="M431.32 381.29H380.37C391.57 381.29 400.66 390.37 400.66 401.58V450.86C400.66 458.19 394.72 464.13 387.39 464.13H458.49C466.94 464.13 473.78 457.28 473.78 448.84V423.75C473.77 400.29 454.76 381.29 431.32 381.29Z" fill="#274D76"/>
<path d="M46.9898 404.36C55.1029 404.36 61.6798 381.379 61.6798 353.03C61.6798 324.681 55.1029 301.7 46.9898 301.7C38.8767 301.7 32.2998 324.681 32.2998 353.03C32.2998 381.379 38.8767 404.36 46.9898 404.36Z" fill="#F8F9FA"/>
<path d="M308.22 357.961C307.78 357.431 307.28 357.031 306.71 356.741C305.34 356.031 303.68 356.021 301.94 356.011H301.79L301.81 354.011H301.95C303.85 354.031 305.82 354.041 307.62 354.971C308.43 355.381 309.14 355.961 309.75 356.691L308.22 357.961Z" fill="#101010"/>
<path d="M296.55 368.19C296.25 368.19 295.95 368.19 295.66 368.19H295.15L295.16 366.19H295.67C298.17 366.21 301 366.23 302.35 364.69L303.86 366.01C302.1 368.01 299.24 368.19 296.55 368.19Z" fill="#101010"/>
<path d="M322.091 389.301H289.931V391.301H322.091V389.301Z" fill="#F8F9FA"/>
<path d="M319.201 397.811H303.971V399.811H319.201V397.811Z" fill="#F8F9FA"/>
<path d="M357.31 217.68C353.63 217.68 350.63 214.68 350.63 211H352.63C352.63 213.58 354.73 215.68 357.31 215.68C359.89 215.68 361.99 213.58 361.99 211H363.99C363.99 214.68 361 217.68 357.31 217.68Z" fill="#F8F9FA"/>
<path d="M356.09 857.051H354.09V890.241H356.09V857.051Z" fill="#F8F9FA"/>
<path d="M449.7 762.56C449.45 762.54 449.21 762.53 448.96 762.53H281.091C280.841 762.53 280.59 762.54 280.35 762.56C274.6 762.98 271.09 768.55 273.17 773.43C277.06 782.55 290.031 812.81 298.331 830.32C299.391 832.56 303.78 840.84 305.12 842.47C310.89 849.52 317.86 850.46 321.97 850.46H357.901H372.17H408.1C412.21 850.46 419.181 849.52 424.951 842.47C426.281 840.84 430.67 832.56 431.74 830.32C440.04 812.81 453.011 782.55 456.901 773.43C458.961 768.55 455.45 762.99 449.7 762.56Z" fill="#93B4F6"/>
<path d="M408.09 849.471H321.96V851.471H408.09V849.471Z" fill="#F8F9FA"/>
<path d="M425.54 835.021H411.36V833.021H425.54V835.021ZM409.01 835.021H390.69V833.021H407.5L424.14 774.701L426.06 775.251L409.01 835.021ZM379.15 835.021H361.93V833.021H377.42L385.8 773.651L387.78 773.931L379.15 835.021ZM351.48 835.021H333.17V833.021H349.13L339.63 773.921L341.6 773.601L351.48 835.021ZM321.63 835.021H304.5V833.021H318.92L301.87 777.261L303.78 776.671L321.63 835.021Z" fill="#F8F9FA"/>
<path d="M46.6902 349.04C46.6902 362.14 48.2002 372.76 44.4502 372.76C40.7002 372.76 37.6602 362.14 37.6602 349.04C37.6602 335.94 40.7002 325.32 44.4502 325.32C48.2002 325.31 46.6902 335.94 46.6902 349.04Z" fill="#74BAAB"/>
<path d="M446.66 236.011H444.66V287.991H446.66V236.011Z" fill="#F8F9FA"/>
<path d="M331.46 406.311L330.36 404.641C337.14 400.161 344.39 395.811 344.46 395.761L345.49 397.471C345.41 397.531 338.21 401.861 331.46 406.311Z" fill="#101010"/>
<path d="M332.46 425.01L331.41 423.31C338.41 419.01 346.16 414.46 346.24 414.42L347.25 416.14C347.18 416.18 339.44 420.72 332.46 425.01Z" fill="#101010"/>
<path d="M335.15 444.11L334.17 442.37C339.59 439.3 346.22 435.73 346.28 435.7L347.23 437.46C347.16 437.5 340.55 441.06 335.15 444.11Z" fill="#101010"/>
<path d="M218.78 383.69L217.05 382.7C218.24 380.62 218.87 378.25 218.87 375.85V360.28H220.87V375.85C220.86 378.59 220.14 381.31 218.78 383.69Z" fill="#101010"/>
<path d="M199.45 382.65L197.59 381.92C198.21 380.32 198.53 378.63 198.53 376.9V360.16H200.53V376.9C200.53 378.89 200.16 380.82 199.45 382.65Z" fill="#101010"/>
<path d="M178.36 382.97L176.59 382.03C177.64 380.05 178.19 377.82 178.19 375.57V360.78H180.19V375.57C180.2 378.15 179.57 380.71 178.36 382.97Z" fill="#101010"/>
<path d="M355.9 245.431H353.9V371.731H355.9V245.431Z" fill="#F8F9FA"/>
<path d="M355.9 466.9H353.9V593.2H355.9V466.9Z" fill="#F8F9FA"/>
</g>
<defs>
<clipPath id="clip0_3104_22098">
<rect width="755" height="1080" fill="white"/>
</clipPath>
</defs>
</svg>
