<svg width="65" height="64" fill="none" xmlns="http://www.w3.org/2000/svg"><g clip-path="url(#a)" fill-rule="evenodd" clip-rule="evenodd" fill="#FEB500"><path d="M34.56 4.076A28 28 0 0 0 32.5 4V0c.786 0 1.572.03 2.356.088l-.296 3.988Zm8.016 1.8a28.011 28.011 0 0 0-3.94-1.196l.876-3.904c1.532.344 3.04.8 4.504 1.368l-1.44 3.732Zm5.48 2.84a28.033 28.033 0 0 0-1.756-1.08l1.972-3.48a32.1 32.1 0 0 1 3.916 2.616l-2.46 3.156a27.98 27.98 0 0 0-1.672-1.208v-.004Zm7.336 7.16a27.955 27.955 0 0 0-2.612-3.184l2.896-2.76c1.08 1.14 2.08 2.36 2.988 3.64l-3.272 2.304Zm2.976 5.408a28.344 28.344 0 0 0-.856-1.872l3.572-1.8a31.908 31.908 0 0 1 1.8 4.352l-3.8 1.252a28.12 28.12 0 0 0-.716-1.932Zm2.12 10.028a27.965 27.965 0 0 0-.4-4.1l3.94-.68c.268 1.544.424 3.112.464 4.68l-4 .1h-.004Zm-.524 6.152c.132-.68.24-1.356.324-2.04l3.972.492c-.192 1.56-.5 3.105-.92 4.62l-3.856-1.068c.184-.66.344-1.328.48-2.004Zm-3.808 9.516a28.255 28.255 0 0 0 1.944-3.632l3.656 1.62a32.285 32.285 0 0 1-2.22 4.152l-3.38-2.14ZM52.3 51.8c.488-.488.956-.992 1.4-1.512l3.032 2.612a32.34 32.34 0 0 1-1.604 1.728L52.3 51.8Z"/><path d="M32.5 4a28 28 0 1 0 19.8 47.8l2.828 2.828A32.005 32.005 0 1 1 32.5 0v4Z"/><path d="M30.5 12a2 2 0 0 1 2 2v20.84l12.992 7.424a2 2 0 0 1-1.984 3.472l-14-8A2 2 0 0 1 28.5 36V14a2 2 0 0 1 2-2Z"/></g><defs><clipPath id="a"><path fill="#fff" transform="translate(.5)" d="M0 0h64v64H0z"/></clipPath></defs></svg>