<svg width="301" height="68" fill="none" xmlns="http://www.w3.org/2000/svg"><g clip-path="url(#a)"><path d="M21.336 56.328c-1.158.594-2.472-.447-2.238-1.776l2.49-14.19-10.57-10.068c-.986-.942-.473-2.663.85-2.85l14.694-2.087 6.552-12.981a1.54 1.54 0 0 1 2.78 0l6.553 12.98 14.694 2.088c1.323.187 1.836 1.909.849 2.85L47.42 40.362l2.49 14.19c.235 1.33-1.08 2.37-2.237 1.776L34.5 49.56l-13.167 6.768h.003Z" fill="#FEB500"/></g><g clip-path="url(#b)"><path d="M79.336 56.328c-1.158.594-2.472-.447-2.238-1.776l2.49-14.19-10.57-10.068c-.986-.942-.473-2.663.85-2.85l14.694-2.087 6.552-12.981a1.54 1.54 0 0 1 2.78 0l6.553 12.98 14.694 2.088c1.323.187 1.836 1.909.849 2.85l-10.569 10.068 2.49 14.19c.234 1.33-1.08 2.37-2.238 1.776L92.5 49.56l-13.167 6.768h.003Z" fill="#FEB500"/></g><g clip-path="url(#c)"><path fill-rule="evenodd" clip-rule="evenodd" d="m142.562 25.357 6.552-12.981a1.549 1.549 0 0 1 1.386-.876c.549 0 1.098.291 1.395.876l6.552 12.981 14.694 2.088a1.613 1.613 0 0 1 1.359 1.515 1.662 1.662 0 0 1-.51 1.335l-10.569 10.068 2.49 14.19c.234 1.329-1.08 2.37-2.238 1.776L150.5 49.561l-13.167 6.768a1.558 1.558 0 0 1-.438.15c-1.023.18-2.004-.762-1.8-1.926l2.49-14.19-10.566-10.068a1.643 1.643 0 0 1-.513-1.209c.001-.32.088-.632.252-.906a1.537 1.537 0 0 1 1.11-.735l14.694-2.088Zm7.938 20.724c.24 0 .48.054.696.168l11.058 5.682-2.082-11.871a1.696 1.696 0 0 1 .489-1.515l8.718-8.31-12.156-1.728a1.573 1.573 0 0 1-1.179-.864l-5.538-10.974-.006.009v29.403Z" fill="#FEB500"/></g><g clip-path="url(#d)"><path fill-rule="evenodd" clip-rule="evenodd" d="M193.098 54.55c-.234 1.333 1.08 2.373 2.238 1.78l13.17-6.768 13.167 6.768c1.158.593 2.472-.447 2.238-1.776l-2.49-14.19 10.569-10.068c.987-.942.474-2.665-.849-2.85l-14.694-2.088-6.552-12.982a1.542 1.542 0 0 0-2.213-.64 1.542 1.542 0 0 0-.568.64l-6.552 12.984-14.694 2.088c-1.323.186-1.836 1.909-.849 2.85l10.569 10.069-2.49 14.19v-.007Zm14.715-8.3-11.058 5.681 2.082-11.87a1.695 1.695 0 0 0-.489-1.515l-8.718-8.31 12.156-1.729a1.578 1.578 0 0 0 1.179-.864l5.541-10.974 5.538 10.974a1.577 1.577 0 0 0 1.179.864l12.156 1.726-8.718 8.31a1.69 1.69 0 0 0-.489 1.518l2.082 11.87-11.058-5.681a1.51 1.51 0 0 0-1.383 0Z" fill="#FEB500"/></g><g clip-path="url(#e)"><path fill-rule="evenodd" clip-rule="evenodd" d="M251.098 54.55c-.234 1.333 1.08 2.373 2.238 1.78l13.17-6.768 13.167 6.768c1.158.593 2.472-.447 2.238-1.776l-2.49-14.19 10.569-10.068c.987-.942.474-2.665-.849-2.85l-14.694-2.088-6.552-12.982a1.542 1.542 0 0 0-2.213-.64 1.542 1.542 0 0 0-.568.64l-6.552 12.984-14.694 2.088c-1.323.186-1.836 1.909-.849 2.85l10.569 10.069-2.49 14.19v-.007Zm14.715-8.3-11.058 5.681 2.082-11.87a1.695 1.695 0 0 0-.489-1.515l-8.718-8.31 12.156-1.729a1.578 1.578 0 0 0 1.179-.864l5.541-10.974 5.538 10.974a1.577 1.577 0 0 0 1.179.864l12.156 1.726-8.718 8.31a1.69 1.69 0 0 0-.489 1.518l2.082 11.87-11.058-5.681a1.51 1.51 0 0 0-1.383 0Z" fill="#FEB500"/></g><defs><clipPath id="a"><path fill="#fff" transform="translate(10.5 10)" d="M0 0h48v48H0z"/></clipPath><clipPath id="b"><path fill="#fff" transform="translate(68.5 10)" d="M0 0h48v48H0z"/></clipPath><clipPath id="c"><path fill="#fff" transform="translate(126.5 10)" d="M0 0h48v48H0z"/></clipPath><clipPath id="d"><path fill="#fff" transform="translate(184.5 10)" d="M0 0h48v48H0z"/></clipPath><clipPath id="e"><path fill="#fff" transform="translate(242.5 10)" d="M0 0h48v48H0z"/></clipPath></defs></svg>