<svg width="34" height="56" fill="none" xmlns="http://www.w3.org/2000/svg"><path d="M.5 39.124c.592 6.668 6.052 11.4 14.364 12.012V56h4.172v-4.864c9.08-.716 14.712-5.752 14.712-13.2 0-6.36-3.788-10.04-11.824-12.112l-2.888-.748V9.868c4.488.44 7.516 2.856 8.28 6.464h5.88c-.664-6.4-6.16-10.992-14.16-11.5V0h-4.172v4.932c-7.756.92-13.08 5.888-13.08 12.624 0 5.816 3.864 9.932 10.644 11.668l2.44.648v16.124c-4.596-.68-7.76-3.2-8.524-6.872H.5ZM14.064 23.78c-4.172-1.052-6.4-3.3-6.4-6.464 0-3.776 2.816-6.564 7.2-7.312v13.98l-.8-.2v-.004Zm6.364 7.488c5.148 1.292 7.408 3.436 7.408 7.076 0 4.388-3.304 7.312-8.8 7.756V30.92l1.392.344v.004Z" fill="#FEB500"/></svg>