<svg width="81" height="64" fill="none" xmlns="http://www.w3.org/2000/svg"><path d="M26.358 30.644c-4.485 1.306-7.494 5.15-7.192 9.262 1.425-1.59 3.602-2.962 6.238-3.865l.954-5.397Zm-13.882 6.231L8.51 14.436c-.036-.202.035-.327.03-.331a48.807 48.807 0 0 1 23.627-6.126c.2 0 .403.021.606.023 1.743-1.683 3.966-2.853 6.448-3.25 2.362-.377 4.757-.568 7.148-.664-1.249-1.744-3.06-3.03-5.221-3.376A57.084 57.084 0 0 0 32.165 0 56.644 56.644 0 0 0 4.65 7.133C1.63 8.81.01 12.31.632 15.822L4.598 38.26c1.779 10.065 17.041 17.76 25.556 17.76.449 0 .844-.057 1.251-.1-1.69-2.135-3.617-5.06-4.937-8.447-5.951-1.623-13.258-6.453-13.992-10.599ZM24.67 19.692a4.938 4.938 0 0 0-.509-1.425c-1.03 1.114-2.583 1.97-4.415 2.29-1.83.323-3.583.05-4.934-.646-.066.493-.08.998.01 1.513a5 5 0 0 0 5.793 4.046 4.988 4.988 0 0 0 4.055-5.777Zm51.68-4.58a56.663 56.663 0 0 0-36.497-6.418c-3.414.545-6.135 3.282-6.755 6.795l-3.966 22.439c-1.924 10.88 11.91 24.533 19.788 25.918 7.879 1.387 25.559-6.723 27.483-17.605l3.966-22.439c.621-3.513-.998-7.013-4.019-8.69Zm-34.155 12.1a4.998 4.998 0 0 1 5.793-4.044 4.989 4.989 0 0 1 4.056 5.777 4.935 4.935 0 0 1-.509 1.425c-1.031-1.114-2.583-1.969-4.415-2.29-1.831-.322-3.584-.05-4.935.646a4.88 4.88 0 0 1 .01-1.514Zm8.809 24.845c-6.96-1.223-11.69-7.408-11.13-14.112 2.575 3.193 7.026 5.771 12.436 6.722 5.41.952 10.478.047 13.992-2.075-1.773 6.493-8.34 10.69-15.298 9.465ZM67.292 33.14c-1.032-1.114-2.585-1.969-4.417-2.29-1.831-.323-3.584-.05-4.935.646a4.917 4.917 0 0 1 .012-1.512 5 5 0 0 1 5.792-4.047 4.99 4.99 0 0 1 4.056 5.778 4.912 4.912 0 0 1-.508 1.425Z" fill="#FEB500"/></svg>