<svg width="645" height="610" fill="none" xmlns="http://www.w3.org/2000/svg"><path d="M508.339 471.918c4.808 19.703-24.206 45.824-1.798 61.593 29.456 8.307 61.109-91.531 50.557-114.298-11.069 29.218-49.4 31.62-48.759 52.705Zm-242.945 39.796c-52.987-70.989.209-67.331-13.059-125.474-3.639-26.571-42.97-48.688-34.819-70.861 5.256-10.173 8.133-40.211-8.127-39.252-17.769 5.686-25.677-5.249-34.094-16.655-14.366-2.934-23.871 1.453-33.697 5.84-11.303 5.046-23.03 10.091-43.071 4.009-45.442 17.536-64.39-22.758-88.134-53.41-29.049-25.525 13.46-53.854-.072-83.899 8.833-24.385 31.039-50.691 56.48-63.187 7.936-3.043 14.363-8.133 15.3-18.635 1.783-19.486 26.677-19.998 35.181-35.034 4.786-4.56 11.59-3.237 18.882-1.914 7.565 1.37 15.657 2.74 22.57-2.45 14.525-8.737 30.509-8.52 46.42-8.302 10.982.152 21.929.302 32.34-2.49 20.678 15.051-19.307 23.5 12.42 36.215 3.988 4.216 8.463 1.068 12.745.838 10.644 4.687 40.397 31.698 45.826 10.264-.36-16.12 22.595-9.592 47.359-3.065 18.281 4.82 37.547 9.638 49.149 5.349 33.349-1.37 5.893 25.597 17.346 40.453 8.831 11.06 10.91 26.421 23.417 35.232 8.055 5.43.504 17.164 3.372 24.88 11.062-7.937 23.175 39.615 43.02 44.048 17.616 2.736 6 32.812 29.795 29.712 4.907.72 13.568-2.11 22.403-4.94 15.768-5.05 32.094-10.101 28.631 5.023-7.604 61.508-73.715 81.617-96.54 133.657-9.831 34.238 30.326 83.724-16.062 106.33-55.643 25.191-2.164 53.202-42.933 67.84-3.341.816-6.81 2.502-7.253 7.389-2.637 29.256-27.619 42.198-45.259 60.321-6.048 4.628-13.599 4.05-21.242 3.471-6.734-.509-13.538-1.018-19.449 2.034-23.376 8.174-24.406 6.908-29.07-15.406-8.596-27.82-32.567-47.468-29.775-77.931Z" fill="#F8F9FA"/><path d="M597.871 164.854c-.17 2.164-.743 4.52-2.632 5.812l-.412.221c-.785.34-1.567.71-2.345 1.09-1.608.577-3.317 1.005-4.83 1.636l-.265.13c-.024-1.366.187-2.638 1.213-3.847 1.709-2.021 4.058-3.37 5.88-5.279.785-.823 1.532-1.754 2.112-2.765.155-.002.31.002.467.004.302.007.603.016.906-.021 0 1.013-.013 2.025-.094 3.019Zm-13.989 5.827a6.405 6.405 0 0 0-.183 2.255l-.063.568a2.471 2.471 0 0 0-.913.07c-.97.261-1.929.931-2.579 1.681-.978 1.131-1.516 2.515-2.066 3.889-1.545.968-3.125 1.84-4.862 2.599-2.088-.045-4.178-.478-6.259-.661-5.156-.454-9.042 2.299-13.178 4.975-1.661 1.074-3.542 2.327-5.606 2.277-2.72-.07-4.962-2.042-7.765-1.942-2.471.087-4.679 1.418-6.841 2.466-2.654 1.288-5.27 2.811-8.094 3.702l-.329.092c1.789-2.086 3.262-4.964 4.594-6.232 4.093-3.907 10.315-3.656 15.332-5.679 4.884-1.973 9.519-5.301 11.45-10.376.892-2.351.776-6.608 3.638-7.502 1.525-.478 3.375-.1 4.934.035l5.734.492c2.602.224 5.518.32 7.73-1.316.943-.696 1.586-1.651 1.726-2.826.026-.217.017-.435.011-.652 2.404.009 4.801-.07 7.205-.17a12.44 12.44 0 0 0 4.836 2.873c-.85 1.467-2.598 2.537-3.873 3.518-2.022 1.557-3.877 3.33-4.579 5.864Zm-59.584 19.069c.085 1.381-.632 2.778-1.732 3.602-.628.159-1.267.285-1.901.418a25.72 25.72 0 0 0-1.813-.316c-1.635-.213-3.293.037-4.938.092-3.269.104-6.434-.148-9.672-.52-1.604-.183-3.2-.146-4.721-.707-1.626-.603-3.106-1.423-4.557-2.36-1.621-1.046-3.23-2.103-4.912-3.019 1.336-.896 2.639-1.847 4.014-2.76 3.025-2.008 6.455-2.099 9.921-1.362 3.356.713 6.668 1.59 10.029 2.293 3.267.68 6.645.9 9.964.537.307-.033.632-.07.965-.111-.56 1.359-.734 2.771-.647 4.213Zm-40.501-5.092c-4.474-.879-9.4-.515-13.625.785a23.96 23.96 0 0 0-3.806 1.553c-.956.488-1.928 1.377-2.55.553-.536-.714-.651-2.043-.991-2.882-.473-1.164-1.127-2.26-2.173-2.991-1.009-.703-2.001-.959-2.986-.961.159-.318.316-.64.475-.96 1.158-2.316 2.644-4.302 4.965-5.555 6.048-3.265 13.37-.083 19.623.522 3.888.379 6.505-1.47 8.26-4.372.444-.05.874-.096 1.336-.483.595-.5 1.007-1.276 1.358-1.964l.102-.237c3.14.585 6.244 1.377 9.238 2.517 5.717 2.177 11.111 5.474 17.326 6.023 5.782.509 11.985-1.908 16.986-4.642 1.24-.677 2.208-1.505 3.049-2.397h.022c2.484-.172 4.496-1.597 6.233-3.272 2.247.86 4.692 1.171 6.885-.119.366-.215.688-.487 1.024-.748-.652 2.101-.97 4.267-2.197 6.177-1.417 2.203-3.561 3.772-5.867 4.948-4.688 2.395-10.021 2.728-15.035 4.083a10.674 10.674 0 0 0-4.272 2.282c-1.617.393-3.26.661-4.925.757-3.317.191-6.715-.185-9.836-1.347-5.86-2.181-12.298-4.282-18.496-2.147-2.827.973-5.355 2.519-7.983 3.909-.697.37-1.427.644-2.14.968Zm-35.713-.798c-.613.526-1.519.959-2.496 1.301-1.503-.964-3.04-1.817-4.581-2.743-.819-.494-1.641-1.007-2.406-1.588a14.12 14.12 0 0 1-2.395-7.337 14.782 14.782 0 0 1 1.181-6.397c2.663-2.63 6.759-3.134 10.237-4.046 3.07-.804 6.1-2.105 8.39-4.326a7.753 7.753 0 0 0 2.47.896c2.077.383 4.718 1.177 6.692.203 1.493-.738 2.864-2.08 3.928-3.494l.529-.085c-.022.592-.061 1.186-.072 1.795-.045 2.856-2.597 4.287-4.533 6.032-1.706 1.537-3.417 3.223-4.999 5.037-.528.359-1.083.668-1.576 1.075-4.52 3.728-5.993 9.91-10.369 13.677Zm-13.863 4.428-.41.081c-1.36.476-2.57.302-3.881-.324a5.761 5.761 0 0 1-.955-.598 2.39 2.39 0 0 1 .052-.973c.105-.398-.479-.552-.61-.169l-.115.559c-.785-.775-1.378-1.697-2.027-2.702-1.454-2.253-3.234-4.598-5.9-5.444-4.903-1.555-8.053 2.477-12.01 4.387-3.827-4.331-5.017-11.245-10.699-13.76-2.247-.994-4.572-.826-6.599.133l-.087-.024c-.828-.257-1.554-.581-2.334-.946-.299-.139-.868-.313-1.397-.511.203-.059.407-.1.606-.174.505-.187.715-.786.32-1.201a2.809 2.809 0 0 1-.366-.446c8.497-1.225 17.598-3.276 25.876-.022 3.314 1.303 6.012 3.889 8.314 6.539 2.65 3.049 4.138 6.845 7.185 9.627.549.502 1.14.95 1.739 1.375.24.247.475.504.754.709.543.391 1.121.676 1.716.915.368.361.734.722 1.152 1.051.197.152.412.309.63.465-.237.533-.551 1.044-.954 1.453Zm-49.169-6.534c-3.053-2.038-6.451-3.552-10.077-4.276-2.583-.515-5.697-.352-8.057-1.542-1.733-.875-3.119-1.847-4.527-2.995-.037-.224-.111-.44-.283-.601-.458-.437-.968-.687-1.5-.878-1.713-1.416-3.7-2.713-5.989-2.567a9.143 9.143 0 0 0-3.559.996l-.087.048c-2.31-.246-4.742-.57-5.518-2.993-.795-2.488-1.168-4.803-3.282-6.606-1.002-.857-2.341-1.318-2.951-2.555-.453-.914-.438-2.045-.359-3.035.289-3.645.989-7.156-.922-9.951.847-1.268 1.307-2.795 1.168-4.307a7.186 7.186 0 0 0-.759-2.582c1.506-.187 3.012-.406 4.49-.713l.022.089c.409 1.24 1.275 2.064 2.327 2.534-.887 2.932.885 6.534 3.877 7.648 2.058.763 4.346.557 6.364-.237 1.735 1.035 3.254 2.416 4.522 4.169 2.398 3.32 2.465 7.672 4.934 10.907 3.381 4.426 9.383 5.096 15.055 4.767.118.827.343 1.63.809 2.363 1.554 2.436 4.215 2.653 6.8 2.916-2.178 2.806-2.661 6.067-2.498 9.401Zm-38.76-2.773c-2.737.901-5.832.866-8.042-1.203-.695-.648-1.307-1.44-1.953-2.155.33-.113.663-.227.953-.416 1.364-.898 2.447-2.521 3.256-3.917l.124-.263c1.277 1.409 2.733 2.334 4.69 2.325.246-.002.479-.092.706-.189.358.078.721.143 1.09.193.575.32 1.188.583 1.852.707 1.938.363 4.139-.026 5.972.727.464.191.882.467 1.286.767-3.522.499-6.591 2.323-9.934 3.424Zm-10.278 1.438c-1.582-.511-3.081-.755-4.718-1.049-5.843-1.052-11.527-3.552-16.568-6.616-2.713-1.651-5.089-3.339-6.952-5.947l-.318-.507c1.111-1.503 2.044-3.158 3.459-4.381 2.922-2.525 5.084 1.349 6.601 3.487 1.096 1.547 2.417 2.93 3.992 3.617l.014.272a5.746 5.746 0 0 0 1.808 3.287c1.232 1.096 2.744 1.575 4.285 1.588.49.902 1.238 1.67 2.234 2.088 1.371.578 3.047.352 4.284-.483l.519.104c.898 1.368 1.417 3.322 2.204 4.723-.282-.072-.561-.092-.844-.183Zm-30.921-17.995c-.268-.507-.477-1.044-.725-1.56l.407-.317c3.781.089 6.046-7.002 7.013-10.569.249-.091.495-.187.735-.298 1.107 1.562 2.665 2.828 4.4 3.643 3.482 1.636 7.288 1.714 10.936 2.767 2.147.62 3.598 1.738 4.749 3.633l.163.256c-1.166.172-2.33.383-3.472.609-1.767.353-3.524 1.051-4.517 2.647l-.251.583-.137-.015c-.94-.241-1.417-1.183-1.933-1.91-.796-1.118-1.626-2.057-2.746-2.867-4.03-2.912-9.221-3.093-12.645.766-.724.818-1.338 1.736-1.977 2.632Zm-1.95 2.323-.168.117c-.188-.056-.371-.126-.588-.082-1.57.317-2.646 1.324-4.32.8-1.964-.617-2.609-2.288-2.613-4.232l.024-.37a7.887 7.887 0 0 0 2.269-.531c1.501 1.307 3.569 1.703 5.381 1.064.324.726.664 1.444 1.024 2.151-.316.381-.643.75-1.009 1.083Zm11.496-16.437.19-.163.252.21c.672.546 1.286 1.058 2.073 1.432 1.589.757 3.454.985 5.176.598l.423-.091.002.008c.896 1.529 2.746 2.073 4.409 1.623l.043-.018c.061.222.087.451.183.668l.249.429c-2.271-.437-4.59-.661-6.876-1.038-2.465-.402-5.18-1.268-6.878-3.093.259-.18.521-.361.754-.565Zm15.785.818c.591-1.092.551-1.192 1.861-1.308.844-.074 1.626-.098 2.428-.398.796-.298 1.508-.774 2.131-1.351 1.005 3.07-1.298 6.4-2.12 9.715l-.275-.118c-.847-.589-1.754-1.127-2.794-1.549-.281-.115-.573-.176-.858-.274-.948-.678-1.729-1.544-2.055-2.723.688-.522 1.246-1.198 1.682-1.994Zm34.072.15.495-.459.155-.17.137-.115c.142.198.331.393.486.528l.153.096c.268 1.227-.042 2.682-.353 3.828-.192.692-.402 1.418-.593 2.151a19.427 19.427 0 0 0-.665-1.972c-.449-1.09-1.046-2.11-1.72-3.076.689-.118 1.347-.357 1.905-.811Zm3.213 1.22c-.033-.283-.116-.559-.183-.835 1.24-.074 2.449-1.047 3.227-2.03.87-1.105 1.927-2.053 2.931-3.049 1.96 1.603 3.862 2.945 4.956 5.37 1.164 2.582.785 5.984.892 8.772.004.451.006.896.052 1.347.061 1.39.122 2.777.181 4.165-.815.022-1.632.057-2.45.039a28.1 28.1 0 0 1-3.049-.228c-2.75-1.692-6.557-3.108-7.257-6.61-.462-2.313.976-4.599.7-6.941Zm8.14-8.509c.444-.733.719-1.518.913-2.321 4.467.048 8.966-2.132 11.073-5.956.325.257.693.44 1.031.673-.076.65-.098 1.305 0 1.961.275 1.841 1.303 3.572 2.772 4.662l-.087.193a19.614 19.614 0 0 1-2.203 1.612c-2.372 1.514-4.468 3.341-6.162 5.536-.331-.492-.664-.981-1.083-1.418-1.73-1.806-4.533-2.628-6.727-3.735l-.295-.174c.266-.335.543-.661.768-1.033Zm21.482 8.161c.656 2.136 2.286 3.943 4.583 4.589 1.704.481 3.628.192 5.178-.635l.281-.18c.621.463 1.197.983 1.652 1.635 1.238 1.773.793 4.122 2.103 5.775.268.34.591.638.926.927-6.616-.918-13.294-.252-19.915.702-1.819.261-3.646.512-5.476.736l-.345-.546c-.176-.318-.283-.664-.425-.994-.059-2.621-.107-5.412-.562-8.053.32-1.916.898-3.782 1.874-5.42.957-1.601 2.262-2.915 3.74-4.041a5.66 5.66 0 0 0 1.443 3.423c1.292 1.46 3.125 2.154 4.943 2.082Zm11.605 2.532c.314-.342.573-.825.852-1.258.309.087.689.181.808.19.491.026.975-.016 1.458-.118 1.027-.215 1.977-.711 2.775-1.385.507-.427.913-.931 1.277-1.466l.322.311c.829.609 1.774 1.074 2.788 1.287.699.148 1.427.131 2.153.111.946-.024 1.892-.048 2.768.292 3.456 1.346 4.084 5.544 3.892 8.739-.196 3.265-.423 6.543-.418 9.819a26.181 26.181 0 0 0-4.867-4.259c-1.85-1.251-3.949-2.151-6-3.01a86.242 86.242 0 0 0-3.12-1.247c-.946-.354-1.38-.422-1.903-1.542-.249-.535-.314-1.185-.527-1.744a9.703 9.703 0 0 0-2.962-4.074c.246-.205.49-.414.704-.646Zm8.412-6.521a4.115 4.115 0 0 0 2.352-1.599l.041-.013c.111 1.827 2.001 2.965 4.032 3.972-.608-.026-1.227-.016-1.866-.007-.414.009-.837.015-1.27.011a6.515 6.515 0 0 1-3.753-1.246c.168-.366.329-.738.464-1.118Zm4.62-3.174c2.347.946 4.884 1.477 7.48 1.357 4.091-.187 7.828-1.653 11.115-3.878 1.19 1.862 3.221 2.776 5.422 3.161-.556 2.144-.384 4.452.671 6.545.218.432.477.835.761 1.211-1.698 1.36-3.59 2.504-5.579 3.58-3.418 1.847-6.828 3.681-9.141 6.878-.15-1.805-.392-3.678-.865-5.464-.135-1.083-.296-2.16-.564-3.206-.56-2.171-1.722-3.963-3.766-4.988-1.968-.983-6.29-1.722-6.079-4.613.203-.176.369-.385.545-.583Zm27.345 13.255c.978-.533 1.992-1.1 2.97-1.725.377.098.754.179 1.14.233.039.529.142 1.059.366 1.571.284.646.695 1.146 1.153 1.59-2.251 1.753-5.115 2.31-7.922 2.949-2.297.524-4.605 1.062-6.808 1.875a19.81 19.81 0 0 1 2.526-2.36c2.044-1.599 4.3-2.891 6.575-4.133Zm40.296 10.732c-.497 1.238-1.102 2.437-2.066 3.352-2.358 2.245-5.697 1.07-8.406.17-3.223-1.07-6.666-1.634-10.068-1.801 4.842-1.503 10.042-2.112 15.048-2.071 1.84.015 3.67.15 5.492.35Zm-15.99-5.74c2.238-2.551 2.559-5.222 1.96-8.496-.066-.352-.175-.705-.262-1.057.517-.913.937-1.881 1.231-2.838.162-.525.292-1.064.39-1.612 1.467.554 2.98.979 4.453 1.274 8.055 1.617 16.506 1.153 24.372-1.207l.46.166c.512.974.732 2.257.438 3.125a1.72 1.72 0 0 1-.482.768l-.405.276-.327.052c-.7.218-1.31.544-2.042.71-2.91.659-5.828.698-8.086 2.927-.898.886-1.528 1.94-2.035 3.063-1.107 1.646-1.861 3.582-2.546 5.503-.362-.05-.717-.124-1.081-.165-5.664-.655-11.422-.429-17.027.604a51.979 51.979 0 0 0-3.001.668c1.412-1.17 2.787-2.39 3.99-3.761Zm34.118-8.326c.589-1.203.796-2.691.517-4a4.14 4.14 0 0 0-.353-1.018c4.143.794 8.342-.316 11.5-3.095 1.774 2.408 3.943 4.596 6.652 5.722-.861 1.549-1.735 3.046-1.953 4.842-.214 1.745.296 3.376 1.303 4.583-.39 1.436-.253 3.006.56 4.398.332.564.724.994 1.147 1.36-.73.389-1.463.772-2.095 1.264-.741.572-1.362 1.255-1.793 2.09-.451.874-.726 1.883-1.356 2.658-.597.733-1.785.835-2.672.861-1.033.031-2.661-.457-3.825-.715-.621-.135-1.218-.342-1.826-.503-2.517-.99-4.973-2.201-7.408-3.243-3.604-1.544-7.322-2.686-11.132-3.485.109-.319.227-.635.332-.954.762-2.319 1.518-5.456 3.89-6.661.298-.152.612-.259.93-.365 4.788-1.24 10.106.278 14.242-3.237 1.208-1.026-.544-2.769-1.743-1.74-1.55 1.329-3.426 1.814-5.416 2.014.179-.241.358-.483.499-.776Zm25.861 13.744c1.464-.337 2.033.994 3.205 1.684l.517.207c-1.724 1.063-3.74 1.725-5.603 2.405-2.358.86-4.804 1.71-7.308 2.075.552-1.607.329-3.508 1.652-4.804.685-.67 1.48-1.186 2.249-1.725 1.565.698 3.45.585 5.288.158Zm30.179-10.351c.105-.509.096-1.033.094-1.555 1.105-.313 2.201-.67 3.263-1.149.865 1.625 2.613 3.037 4.249 3.8 1.807.842 3.62 1.053 5.523 1.142.02.283-.028.555-.24.794-1.447 1.638-5.5.77-7.274.627-2.221-.181-4.754-.594-7.116-.533.721-.896 1.262-1.927 1.501-3.126Zm75.073-27.457c-3.097-4.163-7.715-8.106-12.887-7.726-.939-7.619-6.431-14.329-13.777-16.72-.447-5.648-3.963-10.932-9.243-13.211-4.206-1.817-8.964-1.534-12.989.389-.846-6.658-5.383-12.764-12.102-14.654-7.286-2.049-14.892 1.375-18.965 7.391a21.128 21.128 0 0 0-9.023-2.95c-2.144-.2-4.328-.028-6.429.438-1.896.42-4.727 1.127-5.867 2.8-1.216 1.778-1.946 4.015-3.088 5.872a45.723 45.723 0 0 1-4.053 5.618c-2.742 3.235-5.874 6.013-9.322 8.444-5.733-3.419-12.84-3.513-18.609-.158-1.321-1.125-2.637-2.25-3.958-3.372-1.155-.985-2.484-.929-3.655 0-2.805 2.223-6.215 3.182-9.711 3.169-1.26-5.875-3.435-12.383-9.432-14.751-3.143-1.242-6.952-1.023-9.799.648-.832-2.182-2.131-4.12-4.343-5.207-1.935-.953-4.296-1.075-6.251-.296-3.186-3.692-9.56-3.898-13.3-.731-8.447-7.224-22.753-5.856-29.988 2.462-3.171-3.339-8.692-4.348-13.168-3.173-3.823 1.002-7.074 3.602-9.986 6.157-3.21 2.822-6.246 5.632-10.005 7.733-7.82 4.374-16.842 6.601-25.318 9.344-4.668 1.512-9.323 3.213-14.061 4.481-4.699 1.257-8.652.498-13.194-.946-4.237-1.347-8.382-2.469-12.839-1.586-2.944.583-5.383 2.06-7.054 4.329-3.694-1.16-7.391-2.321-11.085-3.487-3.814-1.207-7.826-2.673-11.895-2.314-3.818.337-7.534 2.84-9.064 6.173-1.702-1.588-3.406-3.176-5.106-4.766-1.436-1.338-2.238-2.025-4.221-1.66-1.528.281-3.003.829-4.383 1.538-4.472 2.304-7.634 6.606-8.737 11.437-3.193-.02-6.27 2.275-8.38 4.722-3.286 3.809-6.337 7.944-9.116 12.129-5.294 7.974-10.114 17.997-8.454 27.817.131.781.966 1.579 1.731 1.729 3.822.746 8.174 2.4 12.012 2.576 4.446.202 8.4-3.876 11.226-6.876.449-.478.963-.883 1.469-1.298 1.866 1.355 4.605 1.609 6.789.763 4.341-1.677 5.35-7.045 9.713-8.492l.449-.128c.798.296 1.596.598 2.411.848 2.43.744 4.934 1.084 7.377 1.738 2.447.655 4.609 1.51 7.161 1.793.323.034.632.05.948.076-.726 3.432.196 7.397 2.31 10.021 3.936 4.878 11.501 5.289 16.197 1.211.249-.217.445-.476.665-.716.909 1.271 1.846 2.521 2.674 3.848 2.559 4.111 5.952 7.726 10.154 10.212 2.264 1.338 4.677 2.31 7.209 3.024 2.705.761 5.83 1.577 8.626 1.027 5.353-1.055 10.886-1.488 16.016-3.459 1.423-.548 2.783-1.27 4.154-1.964 1.214-.372 2.476-.618 3.746-.487.678.069 1.332.3 2.016.346.218.015.469-.029.715-.063 1.144.624 2.371 1.044 3.784 1.035 2.573-.013 5.219-.296 7.778.117 4.825.783 9.314 3.196 12.83 6.539 1.551 1.477 3.65-.05 3.349-1.947-.575-3.654-1.575-9.083 1.883-11.713.432-.328.87-.535 1.308-.674 1.255.326 2.508.665 3.768.978.251.235.488.49.704.786 1.539 2.125 2.181 4.72 3.332 7.043 1.216 2.453 2.825 4.939 4.989 6.66.797.633 1.889 1.192 2.948.776 2.77-1.089 4.44-3.258 6.253-5.509 1.957-2.432 4.226-4.183 7.004-1.571 3.346 3.15 5.331 11.026 10.189 12.09.166 1.233.34 2.466.368 3.728.059 2.462.116 4.924.17 7.387.107 4.663.048 9.335.057 14.001.017 9.462.022 18.923.013 28.387-.006 9.471-.237 18.922-.521 28.388-.283 9.466-.309 18.917-.32 28.387-.002 1.503.42 4.212-.567 5.512-1.081 1.427-4.25 1.827-5.834 2.358-5.065 1.692-10.169 3.239-15.345 4.564-2.785.713-2.661 3.797-1.002 5.2a4.053 4.053 0 0 0 1.259 2.369c2.186 2.045 6.094 1.605 8.842 1.749 3.463.178 6.928.315 10.393.411 13.996.378 28.01-.239 41.968-1.257 2.308-.17 3.498-3.315 1.241-4.573-3.666-2.042-7.338-4.069-10.995-6.125-1.245-.702-2.637-1.416-3.306-2.751-.763-1.523-.502-3.681-.532-5.329-.159-8.662-.316-17.323-.473-25.984-.318-17.325-.589-34.648-1.199-51.966-.316-8.92-.516-17.836-.651-26.758 3.404.382 6.773 1.107 10.175 1.531 1.177.146 2.395-.966 2.676-2.036 2.934-11.076 17.671-7.5 25.516-5.59 10.378 2.525 20.937 3.032 31.355.376 2.613-.668 5.25-1.288 7.795-2.184a28.966 28.966 0 0 0 3.365-1.455c1.288-.644 2.609-1.646 4.03-1.955 2.38-.52 4.668 1.32 7.015 1.583 2.212.25 4.313-.387 6.277-1.364 1.802-.894 3.424-2.099 5.137-3.143.917-.561 1.852-1.163 2.903-1.405 1.421-.326 3.114-.209 4.565-.139 2.587.122 5.168.609 7.766.415 2.643-.195 5.13-1.083 7.558-2.092 5.679-2.358 10.702-6.036 16.31-8.587l.174-.081.185-.043.452-.253c1.196-.552 2.382-1.118 3.528-1.775 1.151-.663 1.99-1.627 3.066-2.388 1.548-1.09 3.623-1.62 5.39-2.251 1.696-.607 3.4-1.175 5.104-1.747l.303-.25c1.621-.683 3.088-1.707 4.269-3.089 10.62 2.819 22.751-4.659 24.411-15.673 1.068-7.094-1.728-14.191-5.921-19.825ZM74.923 273.697v-.217h-2.18v-.218H71v-.217h-1.09v-.218h-.871v-.217h-1.09v-.218h-.871v-.217h-1.09v-.218h-.872v-.217h-.436v-.218h-.654v-.217h-.653v-.218h-.436v-.217h-.654v-.218h-.654v-.217h-.436v-.218h-.654V270h-.435v-.218h-.436v-.217h-.436v-.218h-.436v-.217h-.436v-.218h-.436v-.218h-.436v-.217h-.436v-.218h-.435v-.217h-.436v-.218h-.218v-.217h-.436v-.218h-.436v-.217h-.436v-.218h-.218v-.217h-.436v-.218h-.218v-.217h-.436v-.218h-.217v-.217h-.436v-.218h-.218v-.217h-.436v-.218h-.218v-.217h-.436v-.218h-.218v-.217h-.218v-.218h-.436v-.217h-.218v-.218h-.435v-.217h-.218v-.218h-.218v-.217h-.218v-.218h-.436v-.217h-.218v-.218h-.218v-.217h-.218v-.218h-.218v-.217h-.436v-.218h-.218v-.217h-.218v-.218h-.218v-.217h-.217v-.218h-.436v-.217h-.218v-.218h-.218v-.217h-.218v-.218h-.218v-.218h-.218v-.217h-.218v-.218h-.218v-.217h-.436v-.218h-.218v-.217h-.218v-.218h-.218v-.217h-.218v-.218h-.218v-.217h-.217v-.218h-.218v-.217h-.218v-.218h-.218v-.217h-.218v-.218h-.218v-.217h-.218v-.218h-.218v-.217h-.218v-.218h-.218v-.217h-.218v-.218h-.218v-.217h-.218v-.218h-.218v-.217h-.217v-.435h-.218v-.218H39.4v-.217h-.218v-.218h-.218v-.217h-.218v-.218h-.218v-.217h-.218v-.218h-.218v-.217h-.218v-.218h-.218v-.435h-.218v-.217h-.218v-.218h-.218v-.217h-.218v-.218h-.218v-.435h1.526v.217h3.487v.218h3.705v.218h3.487v.217h3.705v.218h3.705v.217h3.487v.218h3.705v.217h3.705v.218h3.486v.217h3.705v.218h3.705v.217h3.705v.218h2.833v.217h2.398v.218h2.615v.217h2.397v.218h2.398v.217h2.833v.218h2.833v.217h3.051v.218h2.833v.217h9.807v-.217h1.744v-.218h1.307v-.217h1.09v-.218h.872v-.217h.654v-.218h.654v-.217h.871v-.218h.436v-.217h.436v-.218h.436v-.217h.654v-.218h.436v-.217h.218v-.218h.435v-.217h.436v-.218h.218v-.217h.436v-.218h.218v-.217h.218v-.218h.436v-.218h.218v-.217h.218v-.218h.218v-.217h.218v-.218h.217v-.217h.218v-.218h.218v-.217h.218v-.218h.218v-.217h.218v-.435h.218v-.218h.218v-.217h.218v-.435h.218v-.218h.218v-.435h.218v-.217h.218v-.435h.218v-.435h.218v-.435h.218v-.435h.217v-.435h.218v-.435h.218v-.435h.218v-.435h.218v-.435h.218v-.435h.218v-.436h.218v-.652h.218v-.435h.218v-.435h.218v-.435h.218v-.653h.218v-.435h.218v-.435h.218v-.435h.218v-.435h.217v-.435h.218v-.435h.218v-.217h.218v-.218h.218v-.435h.218v-.217h.218v-.435h.218v-.218h.218v-.217h.218v-.218h.218v-.217h.436v-.218h.218v-.217h.218v-.218h.653v.653h.218v.652h.218v.653h.218v.435h.218v.435h.218v.435h.218v.435h.218v.217h.218v.435h.218v.218h.218v.217h.218v.435h.218v.218h.218v.217h.217v.218h.218v.217h.218v.218h.218v.217h.218v.218h.218v.217h.436v.218h.218v.217h.218v.218h.436v.217h.218v.218h.436v.217h.218v.218h.435v.218h.436v.217h.436v.218h.436v.217h.436v.218h.654v.217h.436v.218h.653v.217h.654v.218h.654v.217h.654v.218h.872v.217h.871v.218h.872v.217h1.308v.218h1.307v.217h1.308v.218h1.961v.217h2.616v.218h4.14v.217h6.538v.218h5.449v.217h5.448v.218h5.449v.217h5.23v.218h5.013v.217h5.012v.218h5.013v.217h4.794v.218h5.231v.217h.436v5.873h-.218v7.396h-.436v.217h-.654v.218h-.654v.217h-3.269v.218h-6.538v.217h-2.615v.218h-2.615v.217h-2.833v.218h-1.962v.217h-1.525v.218h-1.526v.217h-1.308v.218h-1.525v.217h-1.308v.218h-1.525v.217h-1.308v.218h-1.09v.217h-.871v.218h-1.09v.217h-.872v.218h-.872v.217h-.871v.218h-1.09v.217h-.872v.218h-.218v-.218h-.218v-.217h-.218v-.218h-.217v-.217h-.218v-.218h-.218v-.435h-.218v-.217h-.218v-.218h-.218v-.217h-.218v-.435h-.218v-.218h-.218v-.217h-.218v-.435h-.218v-.218h-.218v-.217h-.218v-.218h-.218v-.435h-.218v-.217h-.218v-.435h-.217v-.218h-.218v-.217h-.218v-.435h-.218v-.218h-.218v-.217h-.218v-.435h-.218v-.218h-.218v-.218h-.218v-.217h-.654v-.218h-1.307v-.217h-1.526v-.218h-1.961v-.217h-6.974v.217h-1.962v.218h-1.307v.217h-1.09v.218h-1.09v.217h-1.089v.218h-.654v.218h-.872v.217h-.654v.218h-.872v.217h-.653v.218h-.436v.217h-.654v.218h-.654v.217h-.654v.218h-.436v.217h-.653v.218h-.436v.217h-.654v.218h-.436v.217h-.654v.218h-.436v.217h-.435v.218h-.654v.217h-.436v.218h-.436v.217h-.654v.218h-.436v.217h-.436v.218h-.435v.217h-.654v.218h-.436v.217h-.436v.218h-.436v.217h-.654v.218h-.436v.217h-.435v.218h-.436v.217h-.654v.218h-.436v.217h-.654v.218h-.436v.217h-.436v.218h-.653v.217h-.654v.218h-.436v.217h-.654v.218h-.436v.218h-.654v.217h-.653v.218h-.654v.217h-.654V270h-.654v.217h-.872v.218h-.871v.217h-.654v.218h-.872v.217h-1.089v.218h-1.09v.217h-1.09v.218h-1.743v.217h-2.18v.218h-7.41v-.218h-1.961v-.217h-1.961v-.218h-1.308v-.217h-1.09v-.218h-1.089v-.217h-1.09v-.218h-.872v-.217h-.872v-.218h-.871V270h-.872v-.218h-.872v-.217h-1.09v.217h-.653V270h-.654v.217h-.654v.218h-.654v.217h-.654v.218h-.653v.217h-.654v.218h-.872v.217h-.654v.218h-.871v.217h-.872v.218h-.872v.217h-.872v.218h-1.09v.217h-1.307v.218h-1.526v.217h-1.307v.218h-2.833v.217" fill="#F8F9FA"/><path d="M271.065 265.215v-.218h-3.923v-.217h-4.14v-.218h-2.616v-.217h-3.704v-.218h-3.923v-.217h-3.705v-.218h-4.795v-.217h-4.577v-.218h-4.576v-.217h-5.231v-.218h-2.397v-.217h-.218v-.435h-.218v-9.788h-.218v-3.481h4.795v.218h3.923v.217h3.923v.218h4.358v.217h11.115v-.217h2.397v-.218h1.962v-.217h1.307v-.218h.872v-.217h.872v-.218h.872v-.217h.653v-.218h.654v-.217h.654v-.218h.436v-.217h.436v-.218h.654v-.217h.435v-.218h.436v-.217h.654v-.218h.436v-.217h.436v-.218h.436v-.217h.436v-.218h.218v-.217h.435v-.218h.436v-.217h.218v-.218h.436v-.217h.218v-.218h.436v-.217h.436v-.218h.218v-.217h.436v-.218h.218v-.217h.435v-.218h.218v-.217h.218v-.218h.218v-.217h.436v-.218h.218v-.217h.218v-.218h.218v-.217h.436v-.218h.218v-.218h.218v-.217h.218v-.218h.218v-.217h.218v-.218h.217v-.217h.218v-.218h.218v-.217h.436v-.218h.218v-.217h.218v-.218h.218v-.217h.218v-.218h.218v-.435h.218v-.217h.218v-.218h.218v-.217h.218v-.218h.218v-.217h.217v-.218h.218v-.217h.218v-.218h.218v-.217h.218v-.218h.218v-.217h.218v-.435h.218v-.218h.218v-.217h.218v-.218h.218v-.217h.218v-.218h.218v-.435h.218v-.217h.218v-.218h.218v-.217h.217v-.218h.218v-.217h.218v-.435h.218v-.218h.218v-.218h.218v-.217h.218v-.218h.218v-.435h.218v-.217h.218v-.218h.218v-.217h.218v-.435h.218v-.218h.218v-.217h.218v-.218h.218v-.435h.217v-.217h.218v-.218h.218v-.217h.218v-.435h.218v-.218h.218v-.217h.218v-.218h.218v-.217h.218v-.435h.218v-.218h.218v-.217h.218v-.218h.218v-.435h.218v-.217h.218v-.218h.218v-.217h.217v-.435h.218v-.218h.218v-.217h.218v-.218h.218v-.435h.218v-.218h.218v-.217h.218v-.218h.218v-.435h.218v-.217h.218v-.218h.218v-.217h.218v-.435h.218v-.218h.218v-.217h.217v-.435h.218v-.218h.218v-.217h.218v-.218h.218v-.217h.218v-.218h.218v-.435h.218v-.217h.218v-.218h.218v-.217h.218v-.218H297v-.217h.218v-.218h.436v-.217h.218v-.218h.217v-.217h.436v-.218h.218v-.217h.436v-.218h.436v-.217h.654v-.218h2.397v.218h.436v.217h.436v.218h.436v.217h.218v.218h.436v.217h.218v.218h.217v.217h.218v.218h.218v.217h.218v.218h.218v.217h.218v.218h.218v.217h.218v.218h.218v.217h.218v.218h.218v.217h.218v.218h.218v.217h.218v.218h.218v.435h.217v.217h.218v.218h.218v.217h.218v.218h.218v.217h.218v.218h.218v.217h.218v.218h.218v.217h.218v.218h.218v.217h.218v.218h.218v.218h.218v.435h.218v.217h.218v.218h.217v.217h.218v.218h.218v.217h.218v.218h.218v.217h.218v.218h.218v.217h.218v.218h.218v.217h.218v.218h.218v.217h.218v.218h.218v.217h.218v.218h.436v.217h.217v.218h.218v.217h.218v.218h.218v.217h.218v.218h.218v.217h.218v.218h.436v.217h.218v.218h.218v.217h.218v.218h.436v.217h.218v.218h.218v.217h.217v.218h.436v.217h.218v.218h.436v.217h.218v.218h.436v.217h.218v.218h.436v.218h.218v.217h.436v.218h.435v.217h.218v.218h.436v.217h.436v.218h.436v.217h.436v.218h.436v.217h.654v.218h.435v.217h.654v.218h.436v.217h.872v.218h.872v.217h.871v.218h1.09v.217h2.179v.218h1.526v-.218h1.525v-.217h1.526v-.218h.654v-.217h.654v-.218h.653v-.217h.872v-.218h.654v-.217h.436v-.218h.436v-.217h.218v-.218h.436v-.217h.435v-.218h.218v-.217h.436v-.218h.218v-.217h.436v-.218h.436v-.217h.218v-.218h.218v-.218h.218v-.217h.218v-.218h.218v-.217h.218v-.218h.218v-.217h.217v-.218h.218v-.217h.218v-.218h.218v-.435h.218v-.217h.218v.217h.218v.218h.218v.217h.218v.218h.218v.217h.218v.218h.218v.217h.218v.218h.218v.217h.218v.218h.217v.217h.436v.218h.218v.218h.218v.217h.436v.218h.218v.217h.436v.218h.436v.217h.218v.218h.436v.217h.653v.218h.436v.217h.654v.218h.654v.217h.872v.218h.871v.217h4.577v-.217h1.308v-.218h1.525v.218h1.09v.217h.872v.218h.871v.217h.654v.218h.872v.217h.872v.218h.871v.217h.872v.218h1.09v.217h.872v.218h.871v.217h.872v.218h.872v.217h.872v.218h.871v.217h.872v.218h.872v.217h.872v.218h1.089v.217h.872v.218h.872v.217h.872v.218h1.089v.217h.872v.218h1.09v.217h1.089v.218h1.308v.217h1.09v.218h1.089v.217h1.09v.218h1.09v.218h1.089v.217h1.09v.218h1.09v.217h1.089v.218h1.09v.217h1.09v.218h.872v.217h1.089v.218h.872v.217h.872v.218h.871v.217h.872v.218h1.09v.217h1.09v.218h1.089v.217h1.308v.218h1.09v.217h1.089v.218h1.09v.217h1.09v.218h1.089v.217h1.09v.218h1.308v.217h1.525v.218h1.526v.217h1.525v.218h1.526v.217h1.743v.218h1.526v.217h1.525v.218h1.526v.217h1.961v.218h.218v12.398h-3.051v-.217h-3.269v-.218h-3.269v-.217h-3.269v-.218h-3.051v-.217h-3.051v-.218h-3.051v-.217h-3.269v-.218h-3.269v-.218h-3.705v-.217h-5.013v-.218h-5.666v-.217h-7.192v.217h-4.577v.218h-3.923v.217h-2.615v.218h-2.397v.218h-2.615v.217h-2.18v.218h-1.961v.217h-2.397v.218h-2.616v.217h-2.397v.218h-3.705v.217h-13.294v-.217h-3.269v-.218h-3.269v-.217h-3.705v-.218h-10.897v.218h-2.833v.217h-1.962v.218h-1.525v.217h-1.308v.218h-1.307v.217h-1.308v.218h-1.09v.217h-1.307v.218h-1.09v.217h-1.09v.218h-1.307v.217h-1.09v.218h-1.09v.217H297v.218h-1.09v.217h-1.308v.218h-1.089v.217h-1.308v.218h-1.525v.217h-1.308v.218h-1.743v.217h-2.18v.218h-3.269v.217h-3.269v.218h-7.846Zm189.169-3.263v-.217h-3.487v-9.136h-.218v-2.175h2.398v.218h5.23v.217h9.807v-.217h2.398v-.218h1.743v-.217h1.09v-.218h1.089v-.218h.872v-.217h.872v-.218h.654v-.217h.654v-.218h.435v-.217h.654v-.218h.436v-.217h.436v-.218h.436v-.217h.436v-.218h.436v-.217h.435v-.218h.218v-.217h.218v-.218h.436v-.217h.218v-.218h.218v-.217h.436v-.218h.218v-.217h.218v-.218h.218v-.217h.218v-.218h.218v-.217h.218v-.435h.218v-.218h.435v.218h.218v.435h.218v.217h.218v.218h.218v.217h.218v.218h.218v.217h.218v.218h.218v.217h.218v.218h.218v.217h.218v.218h.218v.217h.436v.218h.217v.217h.218v.218h.436v.217h.218v.218h.436v.217h.436v.218h.436v.217h.436v.218h.436v.217h.435v.218h.654v.217h.436v.218h.654v.218h.872v.217h.653v.218h1.09v.217h1.09v.218h1.09v.217h1.743v.218h1.961v.217h3.052v.218h16.127v.217h15.909v-.217h8.936v-.218h4.358v-.217h3.487v-.218h3.487v-.217h1.962v.435h-.218v.435h-.218v.435h-.218v.435h-.218v.435h-.218v.435h-.218v.435h-.218v.435h-.218v.435h-.218v.435h-.218v.435h-.218v.217h-.217v.435h-.436v.218h-1.526v.217h-1.525v.218h-1.744v.217h-1.743v.218h-1.744v.217h-1.743v.218h-1.744v.217h-1.743v.218h-1.962v.217h-1.743v.218h-1.744v.218h-1.743v.217h-2.398v.218h-2.615v.217h-2.833v.218h-2.615v.217h-2.616v.218h-2.615v.217h-2.833v.218h-5.012v.217h-5.885v.218h-6.32v.217h-6.32v.218h-9.589v.217" fill="#F8F9FA"/><path d="M456.942 261.659a799.738 799.738 0 0 1-24.577-1.055c.074-4.106.12-8.215.124-12.328 1.676.189 3.354.367 5.037.541 6.329.651 12.754 1.303 19.183 1.712.085 3.711.161 7.419.233 11.13ZM225.512 249.119v-.217H220.5v-16.966h-.436v-.218h-.218v-.217h-.218v-.218h-.218v-.217h-.218v-.218h-.218v-.435h-.218v-.435h-.218v-.217h-.217v-.435h-.218v-.218h-.218v-.218h-.218v-.217h-.218v-.218h-.436v.218h-.436v.217h-.218v.218h-.218v.218h-.218v.217h-.218v.218h-.218v.217h-.218v.218h-.217v.217h-.218v.218h-1.09v-.218h-.218v-.217h-.218v-.218h-.218v-.217h-.218v-.218h-.218v-.435h-.218v-.435h-.218v-.435H212v-.435h-.218v-.435h-.217v-.435h-.218v-.218h-.436v-.217h-.654v.217h-.218v.218h-.218v.217h-.218v3.046h-1.09v-.218h-.218v-.217h-.217v-.218h-.436v-.217h-.218v-.218h-.436v-.218h-.436v-.217h-.654v-.218h-3.051v-.217h-.872v-.218h-.871v.218h-.654v.217h-.436v.218h-.436v.217h-.872v.218h-.871v.218h-1.308v.217h-3.051v-.217h-.654v-.218h-.436v-.218h-.654v-.217h-.436v-.218h-.218v-.217h-.435v-.218h-.218v-.217h-.218v-.218h-.218v-.217h-.218v-.218h-.218v-.217h-.218v-.218h-.218v-.435h-.218v-.217h-.218v-.218h-.218v-.435h-.218v-.217h-.436v.217h-.435v.218h-.654v.217h-1.526v-.217h-.654v-.218h-.435v-.217h-.218v-.218h-.218v-.217h-.218v-.435h-.218v-.653h-.218v-1.522h-.872v-.218h-.872v-.217h-.871v-.218h-.872v-.217h-.872v-.218h-.436v.218h-.218v.217h-.218v.218h-.218v.217h-.218v.218h-.217v.217h-.218v.435h-.218v.218h-.436v.217h-.436v.218h-1.09v-.218h-.871v.218h-.218v.217h-.218v.218h-.218v.217h-.218v.218h-.218v.217h-.218v.218h-.436v.217h-.436v.218h-1.743v-.218h-.872v-.217h-.872v-.218h-.654v-.217h-.218v-.218h-.218v-2.175h.218v-1.087h.218v-.871h.218v-.435h.218v-.435h.218v-.435h.218v-.435h.218v-.435h.218v-.435h.218v-.435h.218v-.217h.218v-.435h.218v-.218h.218v-.217h.218v-.435h.218v-.218h.217v-.435h.218v-.217h.218v-.218h.218v-.217h.218v-.435h.218v-.218h.218v-.217h.218v-.218h.436v-.217h.218v-.218h.436v-.217h.654v-.218h.217v-.652h.218v-.436h.218v-.217h.218v-.435h.218v-.218h.218v-.217h.218v-.218h.436v-.217h.218v-.218h.654v-.217h.436v-.218h.871v.218h.436v.217h.218v.218h.218v.217h.218v.218h.218v.217h.218v.218h.436v-.218h.218v-.217h.218v-.218h.218v-.217h.217v-.218h.436v-.217h2.616v.217h.653v.218h.872v.217h.654v.218h.654v.217h.654v.218h.871v-.218h.218v-.217h.218v-.218h.436v-.217h.654v-.218h1.961v.218h.872v.217h.872v.218h.872v.217h2.179v-.217h.654v-.218h.654v-.217h.871v-.218h.654v-.217h.654v-.218h.654v-.217h.654v-.218h.653v-.217h.654v-.218h.872v-.217h.436v-.218h.654v-.217h.435v-.218h.654v-.217h.436v-.218h.436v-.217h.436v-.218h.218v-.217h.436v-.218h.218v-.217h.218v-.218h.217v-.217h.436v-.218h.218v-.217h.218v-.218h.218v-.217h.218v-.218h.436v-.217h.218v-.218h.218v-.217h.436v-.218h.436v-.217H212v-.218h1.962v.218h.654v.217h.436v.218h.217v.217h.218v-.217h.218v-.218h.218v-.217h.218v-.218h.436v-.217h.436v-.218h.654v-.218h.654v-.217h2.615v.217h.872v.218h.435v.218h.436v.217h.218v.218h.436v-.218h.436v-.217h1.961v.217h.436v.218h.218v.217h1.744v.218h.436v.217h.218v.218h.217v.217h.218v.435h.654v-.217h1.526v.217h.872v.218h.217v.217h.218v.218h.218v.217h.218v.218h.218v.217h.218v.435h.218v.435h.218v.653h.218v.87h.218v.217h.218v-.217h.872v-.218h.435v-.217h.436v-.218h.436v-.217h.872v.217h.218v.218h.436v.217h.218v.218h.653v-.218h.654v-.217h2.398v.217h.653v.218h.436v.217h.218v-.217h.218v-.218h.218v-.217h.436v-.218h.218v-.217h.218v-.218h.218v-.217h.218v-.218h.218v-.217h.218v-.218h.218v-.435h.217v-.217h.218v-.218h.218v-.435h.218v-.217h.218v-.435h.218v-.435h.218v-.435h.218v-.218h.218v-.217h.218v-.218h.654v-.217h1.089v-.218h1.09v.218h1.09v.217h.654v.218h.653v-.218h.218v-.217h.218v-.218h.218v-.218h.436v-.217h.218v-.218h.436v-.217h.654v-.218h2.833v.218h.436v.217h.436v.218h.218v.217h.217v.218h.218v.218h.218v.217h.218v.435h.218v.218h.218v.435h.218v.87h.218v.217h.436v-.217h2.397v.217h.654v.218h.436v.217h.218v.218h.218v.217h.218v.218h.218v.217h.218v.435h.217v.435h.218v.435h.218v.87h.436v.218h.436v.217h.436v.218h.218v.217h.218v.218h.218v.217h.218v.218h.218v.217h.218v.218h.218v.435h.217v.435h.218v.435h.218v.87h.218v.218h1.09v.217h.436v.218h.218v.217h.436v.218h.218v.217h.218v.218h.217v.217h.218v.218h.218v.435h.218v.217h.218v.435h.218v.435h.218v.435h.218v.653h.218v.87h.218v2.61h-.218v.435h-.218v.435h-.218v.435h-.218v.218h-.218v.217h-.218v.218h-.218v.217h-.218v.218h-.218v.217h-.435v.218h-.218v.217h-.436v.218h-.436v.217h-1.09v.218h-1.307v-.218h-.436v.218h-.436v.217h-.218v.218h-.436v.217h-.436v.218h-.654v.217h-.653v.218h-.436v.217h-.654v.218h-.218v.217h-.218v.218h-.218v.217h-.436v.218h-.436v.217h-.436v.218h-.435v.217h-.436v.218h-.436v.217h-.436v.218h-.436v.217h-.436v.218h-.218v.217h-.436v.218h-.435v.218h-.436v.217h-.654v.218h-.872v.217h-2.179v-.217h-1.526v.217h-.436v.218h-.436v.217h-.218v.218h-.435v.217h-.218v.218h-.654v.217h-.654v.218h-.872v-.218h-.654v-.217h-1.307v.217h-.436v.218h-.436v.217h-.436v.218h-.654v.217h-.871v.218h-.872v.217h-1.308v.218h-4.576v-.218h-1.526v-.217h-.872v-.218h-1.089v-.217h-1.526v-.218h-1.09v.218h-.871v.217h-.436v.218h-.218v.217h-.436v.435h-.218v.218h-.218v.652h-.218v.218h-.218v.217h-1.089v-.217h-1.526v-.218h-.436v.435h.218v8.266h.218v6.525h-1.526Zm14.82-17.836v.218h3.487v-.218h.218v-.217h.218v-1.305h.218v-.218h-.654v.218h-.872v-.218h-1.525v-.217h-.872v-.218h-1.09v-.218h-1.089v-.217h-.436v.217h-.654v.218h-.654v.218h-.218v.217h-.436v.435h.218v.218h.436v.217h.218v.218h.436v.217h.436v.218h.654v.217h1.961Zm4.795-.652v.217h.436v-.217h.436v-.218h.435v-.217h.436v-.218h.436v-.217h.872v-.218h.872v.218h.653v.217h1.526v-.217h.436v-.218h.436v-.217h.218v-.218h.436v-.218h.217v-.217h.436v-.218h.654v-.217h2.615v.217h.436v-.217h.218v-.218h.436v-.217h.436v-.435h.218v-.435h.218v-.218h.218v-.217h.218v-.218h.436v-.435h.218v-.652h.217v-.435h.218v-.218h.218v-.217h.218v-.218h.218v-.217h.436v-.218h.218v-.217h.218v-.218h-.218v-.217h-.436v-.218h-.218v-.217h-1.961v.652h-.218v.218h-.218v.217h-.436v.218h-2.615v-.218h-1.744v.218h-.218v.217h-.218v.435h-.218v1.088h-.217v.435h-.218v.217h-.218v.435h-.218v.218h-.218v.217h-.218v.218h-.218v.217h-.436v.218h-.218v.217h-.436v.218h-.436v.217h-.653v.218h-.872v.217h-.872v.218h-.654v.218h-.436v.217h-.435v.218h-.218v.217h-.218v.435h-.218v.218h-.218Zm-24.845-.653v.218h.654v-.218h.218v-.217h-.218v-.218h-.436v-.217h-.218v-.218h-.218v-.218h-.436v-.217h-.218v-.435h-.218v-.218h-.218v-.217h-.218v-.435h-.218v-.218h-.217v-.435h-.218v-.217h-.218v-.218h-.218v-.217h-.218v-.218h-.218v-.217h-.218v-.218h-.218v-.217h-.218v-.218h-.436v-.217h-.218v-.218h-.654v-.217h-1.089v-.218H212v.218h-1.743v.217h-.872v.435h.436v.218h.436v-.218h1.09v.218H212v.217h.218v.218h.218v.217h.218v.218h.218v.217h.218v.218h.218v.435h.218v.435h.218v.435h.218v.217h.218v.435h.218v.218h.218v-.218h.436v-.217h.217v-.218h.436v-.217h.436v-.218h1.744v.218h.218v.217h.435v.218h.218v.435h.218v.217h.218v.218h.218v.435h.436v.435h.436Zm8.5-.217v.217h.217v-.217h.436v-.218h.654v-.217h.654v-.218h3.487v-.218h.436v-.217h.218v-.218h.436v-.217h.435v-.218h.654v-.217h.872v-.218h1.526v.218h1.089v.217h.654v.218h.654v.217h.654v.218h1.307v.217h.654v-.217h1.308v-.218h.218v-.217h.436v-.218h.653v-.217h1.09v-.218h.872v-.217h.872v-.218h.653v-.217h.218v-.218h.436v-.217h.218v-.218h.218v-.217h.218v-.218h.218v-.217h.218v-.435h.218v-.653h-.218v.218h-1.09v-.218h-.436v.218h-.218v.217h-.436v.218h-.653v.217h-.436v.218h-.218v.217h-.218v.218h-.436v.217h-.654v.218h-.436v.217h-.435v.218h-.872v.217h-2.615v-.217h-.654v-.218h-.654v-.217h-.654v-.218h-.436v-.217h-.436v-.218h-.653v-.217h-.654v-.218h-.654v-.217h-.872v-.218h-.218v.218h-.218v.217h-.218v.218h-.436v.435h-.217v.217h-.218v.218h-.436v.217h-2.398v-.217h-1.307v-.218h-1.744v.218h-.653v.217h-.436v.218h-.218v.217h-.218v.218h-.218v.435h-.218v.435h.436v.217h.436v.435h.218v.436h.218v.435Zm-5.013-.871v.218h.654v-.218h.436v-.435h.218v-.217h.218v-.218h.217v-.435h.218v-.217h.218v-.435h.218v-.435h.218v-.218h.218v-.217h.218v-.435h.218v-.218h.436v-.217h.218v-.218h.218v-.217h.218v-.218h.218v-.217h.218v-.218h.218v-.217h.217v-.218h.218v-.217h.218v-.218h.218v-.217h.218v-.218h.218v-.435h-.218v.218h-.218v.217h-.436v.218h-1.961v-.218h-.654v.218h-.436v.217h-.218v.218h-.653v.217h-.654v.218h-.872v.217h-.654v.218h-.436v.217h-.436v.218h-.218v.435h-.217v2.175h.217v.435h.218v.435h.436v.217h.218v.218h.436v.217h.436Zm-15.691-.87v.218h.217v-1.088h.218v-.652h.218v-.435h-.871v-.218h-.436v-.217h-.218v-.435h-.218v-.435h-2.18v-.218h-.653v-.217h-.436v-.218h-.218v-.217h-.218v-.218h-.218v-.217h-.218v-.435h-.218v-.653h-.218v-.652h-.218v-.435h-.218v-.435h-.218v-.218h-.218v-.217h-.217v-.218h-.218v-.218h-.218v-.217h-.654v.217h-.654v-.217h-.872v-.218h-.218v-.217h-.218v-.435h-.218v-1.088h-.217v-.217h-.218v-.218h-.218v-.217h-.654v.217h-.218v.218h.218v.652h-.218v1.523h.218v1.305h-.218v1.088h.218v.217h.218v.218h.218v.217h.218v.218h.218v.217h.218v.218h.217v.652h.218v.653h.218v.217h.218v.218h.654v.217h.218v-.217h.654v-.218h.654v.218h.653v.217h.436v.218h.218v.217h.436v.435h.436v.218h.218v.217h.436v.218h.654v.217h1.307v.218h.872v.217h.654v.218h.436v.217h.436Zm-12.859-.217v.217h.436v-.435h-.218v-.435h-.654v.218h-.435v-.218h-.436v-.217h-.218v-.218h-.436v-.217h-.654v-.218h-.218v-.217h-.218v-.218h-.218v-.652h-.436v-.218h-.218v-.217h-.218v-.218h-.217v-.217h-.218v-.435h-.218v-.218h-.218v-.217h-.218v-.218h-.436v.218h-.218v.217h-.218v.218h-.218v.217h-.218v.653h.218v.217h.218v.218h.218v.217h.218v.218h.218v.217h.436v.218h.218v.217h.436v.218h.435v.217h.436v.218h.436v.217h.654v.218h.654v.217h.654v.218h1.089Zm1.744-.218v.218h1.307v-.218h.654v-.217h.436v-.218h.654v-.217h.436v-.218h-1.526v-.217h-1.307v-.218h-.436v-.217h-.436v.435h-.218v.217h-.218v.218h-.218v.217h.218v.218h.218v.217h.436Zm63.855-1.522v.217h.218v-.217h.654v-.218h.436v-.217h.436v-.218h.218v-.217h.218v-.435h.217v-1.305h-.217v.435h-.218v.217h-.218v.218h-.218v.217h-.218v.218h-.218v.217h-.218v.218h-.436v.217h-.218v.435h-.218v.218Zm-18.089-.218v.218h.654v-.218h.218v-.217h.218v-.435h.218v-.218h.218v-.217h.218v-.218h.218v-.652h-.218v-1.305h-.218v-1.523h.218v-.435h.218v-.217h-.436v-.218h-.218v-.218h-.218v-.217h-.218v-.218h-.218v-.217h-.218v-.218h-.218v.218h-.218v.217h-.435v.218h-.872v.217h-1.09v1.088h.436v-.217h.436v-.218h.872v.653h-.218v.217h-.436v.218h-.654v.217h-1.961v.218h-.872v.217h-.218v.218h-.218v.435h-.218v.435h-.218v.652h.654v.218h.872v.217h.653v.218h.654v.217h.436v.218h.436v.217h.436v.218h.654v.217h.871Zm1.962 0v.218h.436v-.218h.654v-.217h.653v-.218h.654v-.217h.218v-.218h-.218v-.217h-1.743v.217h-.436v.435h-.218v.435Zm-10.897-.217v.217h.436v-.217h.436v-.218h.218v-.217h.218v-.435h-3.269v.217h-.872v.218h1.09v.217h.871v.218h.872Zm-14.82-1.088v.218h.436v-3.045h-.218v-.435h-.218v-.435h-.218v-.218h-.653v-.217h-1.308v-.218h-.436v.218h-.218v.217h-.436v.218h-.871v.217h-.218v.218h.218v.217h.218v.435h.217v.435h.218v.435h.218v.218h.654v.217h.436v.218h.654v.217h.436v.218h.218v.217h.435v.218h.218v.217h.218Zm-32.908-.435v.218h.218v-.218h.872v-.217h.218v-.218h-.218v-.217h-1.09v-.218h-.654v.653h.218v.217h.436Zm19.614-.435v.218h1.308V222.8h-.218v-2.392h-.218v-.436h-.218v-.217h-.218v-.218h-.218v-.217h-.218v-.218h-.218v.218h-.218v.217h-.218v.218h-.218v.217h-.217v.218h-.436v.653h-.218v1.74h.218v.217h.218v.218h.218v.217h.435v.218h.218v.217h.436Zm25.281 0v.218h.872v-.218h3.922v-.652h.218v-.435h.218v-.218h.218v-.435h.218v-.217h.218v-.218h.218v-.217h.436v-.218h.654v-.217h.872v-.218h.653v-.87h-.653v.217h-1.308v.218h-4.141v-.218h-.872v-.217h-.435v.217h-.218v.653h-.218v.653h.218v.87h-.218v.652h-.218v.435h-.218v.218h-.218v.217h-.218Zm-38.357-.217v.217h.218v-.217h.218v-.218h.218v-.217h.654v-.218h.653v-.217h-.217v-.218h-.218v-.217h-.436v-.218h-.872v-.217h-1.09v-.218h-.654v-.217h-.653v-.218h-.218v-.217h-.218v-.218h-.218v-.217h-.218v.435h-.218v.652h-.218v.435h-.218v.218h.436v-.218h1.308v.218h.435v.217h.436v.218h.218v.217h.218v.218h.218v.217h.218v.218h.218Zm16.127 0v.217h1.308v-.217h1.743v-.218h3.052v-.87h-.218v-.435h-.218v-.217h-.218v-.218h-.436v.218h-1.09v-.218h-.436v-.217H212v-.218h-.218v-.217h-.217v-.435h-.872v-.218h-.218v-.218h-.218v-.217h-.218v-.218h-.218v-.217h-.218v.217h-.218v.218h-.218v.435h-.218v.435h-.218v.653h-.218v.217h.218v1.958Zm14.602-.435v.217h.436v-.217h.872v-.218h.871v-.217h.436v-.218h.218v-.217h-.218v-.435h-.436v.217h-.435v.218h-.436v.217h-.218v.218h-.436v.217h-.218v.218h-.436Zm-2.615-.218v.218h.218v-.218h.218v-.217h.218v-.218h.218v-.217h.435v-.218h.218v-.217h.436v-.218h.436v-.217h.436v-.218h.218v-.217h.436v-.653h-.218v-1.523h-.654v-.217h-.218v-.218h-1.09v.218h-.435v.217h-.654v.218h-2.615v-.218h-.436v.218h.218v.217h.218v.218h.435v.217h.654v.218h.218v.217h.218v.218h.218v.218h.218v.435h.218v1.087h.218v.87Zm34.652-.217v.217h2.397v-.217h-.872v-.218h-.653v-.217h-.218v-.218h-.218v-.217h-.218v-.218h-.872v.653h-.218v.435h.872Zm-60.369-1.305v.217h.436v-.435h.218v-.652h.218v-.871h-.218v.218h-.872v.217h-.218v.218h-.217v.218h-.218v.435h.218v.217h.217v.218h.436Zm8.064-.435v.217h.218v-.87h-.218v.218h-.218v.217h.218v.218Zm-10.897 0h.218v-.218h-.218v.218Zm24.845-1.306v.218h.654v-.218h-.218v-.217h-.654v.217h.218Zm-9.153-.217v.217h.218v-.217h.217v-.218h.218v-.217h.218v-.218h.436v-.217h.218v-.218h.218v-.217h.218v-.218h-.218v-.217h-.218v-1.305h-.218v.217h-.218v.218h-.218v.217h-.218v.218h-.435v.217h-.436v.218h-.654v.217h-.654v.435h-.218v.218h.218v.217h.436v.218h.436v.217h.218v.218" fill="#F8F9FA"/><path d="M406.187 289.36v-.217h-6.538v-.218h-5.448v-.217h-5.231v-.218h-3.487v-.217h-1.743v-.218h-1.308v-.217h-.872v-.218h-.872v-.217h-.653v-.218h-.654v-.217h-.436v-.218h-.436v-.217h-.436v-.218h-.436v-.217h-.436v-.218h-.435v-.217h-.218v-.218h-.436v-.217h-.436v-.218h-.218v-.217h-.436v-.218h-.436v-.217h-.218v-.218h-.436v-.217h-.435v-.218h-.218v-.217h-.436v-.218h-.436v-.217h-.218v-.218h-.436v-.218h-.436v-.217h-.436v-.218h-.436v-.217h-.435v-.218h-.436v-.217h-.436v-.218h-.654v-.217h-.654v-.218h-.654v-.217h-.435v-.218h-.654v-.217h-.654v-.218h-.654v-.217h-.654v-.218h-.871v-.217h-.872v-.218h-.654v-.217h-.872v-.218h-1.089v-.217h-1.308v-.218h-1.526v-.217h-1.525v-.218h-2.18v-.217h-8.499v.217h-1.961v.218h-1.744v.217h-1.308v.218h-1.089v.217h-1.09v.218h-.872v.217h-.871v.218h-.872v.217h-.872v.218h-.654v.217h-.872v.218h-.871v.217h-.654v.218h-.872v.217h-.872v.218h-.653v.217h-.872v.218h-.872v.217h-.872v.218h-.871v.217h-.872v.218h-.654v.217h-1.09v.218h-1.089v.218h-1.09v.217h-1.308v.218h-2.179v.217h-5.448v-.217h-2.398v-.218h-1.743v-.217h-1.526v-.218h-1.525v-.218h-1.308v-.217h-1.308v-.218h-1.307v-.217h-1.526v-.218h-1.525v-.217h-2.18v-.218h-4.794v.218h-2.615v.217h-1.526v.218h-1.526v.217h-1.525v.218h-1.308v.217h-1.307v.218h-1.308v.218h-1.308v.217h-1.307v.218h-1.308v.217h-1.525v.218h-1.962v.217h-1.307v.218h-1.09v.217h-1.09v.218h-1.089v.217h-1.09v.218h-.872v.217h-.872v.218h-.871v.217h-.654v.218h-.872v.217h-.872v.218h-1.089v.217h-1.09v.218h-1.308v.217h-1.307v.218h-1.308v.217h-1.525v.218h-1.962v.217h-1.961v.218h-1.962v.217h-2.833v.218h-3.051v.217h-4.795v.218h-10.896v-.218h-4.795v-.435h-.218v-1.087h-.218v-.87h-.218v-.87h-.218v-.653h-.218v-.652h-.218v-.653h-.218v-.652h-.218v-.436h-.218v-.435h-.217v-.435h-.218v-.435h-.218v-.217h-.218v-.435h-.218v-.218h-.218v-.435h-.218v-.217h-.218v-.218h-.218v-.217h-.218v-.218h-.218v-.217h-.218v-.218h-.218v-.217h-.218v-.218h-.218v-.217h-.435v-.218h-.218v-.217h-.436v-.218h-.218v-.217h-.436v-.218h-.654v-.217h-.654v-.218h-.653v-.217h-3.27v.217h-.871v.218h-.872v.217h-1.09v.218h-.871v.217h-1.308v.218h-2.397v.217h-2.398v-.217h-2.179v-.218h-1.09v-.217h-1.089v-.218h-.654v-.217h-.654v-.218h-.654v-.217h-.436v-.218h-.654v-.217h-.435v-.218h-.436v-.217h-.436v-.218h-.436v-.217h-.218v-.218h-.436v-.217h-.436v-.218h-.218v-.217h-.436v-.218h-.217v-.218h-.218v-.217h-.436v-.218h-.218v-.217h-.218v-.218h-.436v-.217h-.218v-.218h-.218v-.217h-.218v-.218h-.218v-.217h-.436v-.218h-.218v-.217h-.217v-.218h-.218v-.217h-.218v-.218h-.218v-.217h-.218v-.218h-.218v-.217h-.218v-.218h-.218v-.217h-.218v-.218h-.218v-.217h-.218v-.435h-.218v-.218h-.218v-.217h-.218v-.218h-.218v-.217h-.218v-.218h-.217v-.217h-.218v-.653h.871v-.217h1.09v-.218h.872v-.217h.872v-.218h.871v-.217h1.09v-.218h.872v-.217h1.089v-.218h1.308v-.218h1.526v-.217h1.307v-.218h1.526v-.217h1.307v-.218h1.526v-.217h1.525v-.218h1.962v-.217h2.833v-.218h2.615v-.217h2.616v-.218h6.538v-.217h3.269v-.218h.653v-.217h.654v-.218h.436v-7.178h.218v-5.872h5.231v.217h1.307v3.263h.218v9.788h.218v.435h.218v.217h2.397v.218h5.231v.217h4.576v.218h4.577v.217h4.795v.218h3.705v.217h3.923v.218h3.704v.217h2.616v.218h4.14v.217h4.141v.218h7.41v-.218h3.051v-.217h3.269v-.218h2.18v-.217h1.743v-.218h1.308v-.217h1.525v-.218h1.308v-.217h1.09v-.218h1.307v-.217h1.09v-.218h1.308v-.217h1.089v-.218h1.09v-.217h1.307v-.218h1.09v-.217h1.09v-.218h1.307v-.217h1.09v-.218h1.308v-.217h1.307v-.218h1.308v-.217h1.526v-.218h1.961v-.217h3.051v-.218h11.115v.218h3.705v.217h3.269v.218h3.269v.217h12.858v-.217h3.705v-.218h2.397v-.217h2.616v-.218h2.397v-.217h1.961v-.218h2.18v-.217h2.615v-.218h2.397v-.217h2.615v-.218h3.923v-.217h4.577v-.218h7.628v.218h5.666v.217h5.013v.218h3.705v.217h3.269v.218h3.269v.217h3.051v.218h3.051v.217h3.051v.218h3.269v.217h3.269v.218h3.269v.217h2.833v1.523h-.218v8.7h-.218v8.483h-.217v10.006h-6.756v.217h-18.961Zm51.215-1.957v-.435h-.218v-11.963h-.218v-11.964h-.218v-1.522h3.705v.217h28.986v-.217h9.589v-.218h6.32v-.217h6.32v-.218h5.885v-.217h5.012v-.218h2.833v-.217h2.616v-.218h2.615v-.217h2.615v-.218h2.833v-.217h2.615v-.218h2.398v-.217h1.743v-.218h1.744v-.217h1.743v-.218h1.962v-.217h1.743v-.218h1.744v-.217h1.743v-.218h1.744v-.217h1.743v-.218h1.744v-.217h1.525v-.218h1.526v-.217h.654v.217h-.218v.435h-.218v.435h-.218v.218h-.218v.435h-.218v.435h-.218v.435h-.218v.217h-.218v.435h-.218v.435h-.218v.218h-.218v.435h-.218v.217h-.218v.435h-.218v.218h-.218v.435h-.217v.435h-.218v.217h-.218v.435h-.218v.218h-.218v.435h-.218v.217h-.218v.435h-.218v.218h-.218v.217h-.218v.436h-.218v.217h-.218v.435h-.218v.218h-.218v.217h-.218v.435h-.218v.218h-.217v.217h-.218v.435h-.218v.218h-.218v.435h-.218v.217h-.218v.218h-.218v.435h-.218v.217h-.218v.435h-.218v.218h-.218v.217h-.218v.218h-.218v.435h-.218v.217h-.218v.218h-.218v.217h-.217v.435h-.218v.218h-.218v.217h-.218v.218h-.218v.217h-.218v.435h-.218v.218h-.218v.217h-.218v.218h-.218v.435h-.218v.218h-.218v.217h-.218v.218h-.218v.217h-.218v.435h-.217v.218h-.218v.217h-.218v.218h-.218v.217h-.218v.435h-.218v.218h-.218v.217h-.218v.218h-.218v.217h-.218v.218h-.218v.217h-.218v.218h-.218v.435h-.218v.217h-.218v.218h-.218v.217h-.217v.218h-.218v.217h-.218v.218h-.218v.217h-.218v.218h-.218v.217h-.218v.435h-.218v.218h-.218v.217h-.218v.218h-.218v.217h-.218v.218h-.218v.217h-.218v.218h-1.525v-.218h-1.308v-.217h-1.089v-.218h-1.308v-.217h-1.744v-.218h-1.743v-.217h-4.795v.217h-1.743v.218h-1.526v.217h-1.525v.218h-1.308v.217h-1.961v.218h-3.269v-.218h-1.526v-.217h-1.743v-.218h-.872v-.217h-.872v-.218h-1.09v-.217h-.871v-.218h-.872v-.217h-.872v-.218h-.872v-.217h-.871v-.218h-1.09v-.217h-.872v-.218h-1.307v-.217h-1.526v-.218h-5.013v.218h-1.525v.217h-1.526v.218h-1.307v.217h-.872v.218h-1.09v.217h-.871v.218h-1.09v.217h-.872v.218h-.872v.217h-.871v.218h-.872v.217h-.654v.218h-.872v.217h-.871v.218h-.872v.218h-.654v.217h-.872v.218h-.871v.217h-.872v.218h-.872v.217h-.872v.218h-.871v.217h-1.09v.218h-1.09v.217h-1.089v.218h-1.308v.217h-1.09v.218h-1.307v.217h-1.09v.218h-1.308v.217h-1.525v.218h-1.526v.217h-1.525v.218h-1.526v.217h-1.525v.218" fill="#F8F9FA"/><path d="M431.721 289.011c.045-4.183.122-8.366.246-12.553.159-5.288.301-10.569.397-15.852 8.185.474 16.38.833 24.576 1.055.125 6.442.236 12.885.356 19.328.037 2.134.076 4.267.115 6.401-8.526.949-17.117 1.397-25.69 1.621Z" fill="#F8F9FA"/><path d="M316.179 321.549v-.218h-3.27v-.217h-1.743v-.218h-1.526v-.217h-1.525v-.218h-1.09v-.217h-.872v-.218h-.871v-.217h-.872v-.218h-.654v-.217h-.872v-.218h-.653v-.217h-.872v-.218h-.654v-.217h-.872v-.218h-.871v-.217h-.872v-.218h-1.526v-.217h-1.743v-.218h-2.615v-.217h-2.18v-.218h-2.615v-.217h-2.615v-.218h-3.705v-.217h-2.18v-.218h-2.179v-.217h-2.397v-.218h-5.013v.218h-2.179v.217h-2.18v.218h-1.743v.217h-1.526v.218h-1.525v.217h-1.526v.218h-1.525v.217h-1.962v.218h-1.961v.217h-3.269v.218h-3.487v-.218h-2.833v-.217h-1.308v-.218h-1.308v-.217h-.871v-.218h-1.09v-.217h-.872v-.218h-.871v-.217h-.872v-.218h-.654v-.217h-.872v-.218h-.872v-.218h-.871v-.217h-.654v-.218h-.872v-.217h-.872v-.218h-1.089v-.217h-1.09v-.218h-1.09v-.217h-1.089v-.218h-1.09v-.217h-1.308v-.218h-1.525v-.217h-1.744v-.218h-1.743v-.217h-.436v-.218h.218v-.652h.218v-.653h.218v-.652h.218v-.87h.218v-.87h.218v-.87h.218v-.87h.217v-1.088h.218V304.8h.218v-1.305h.218v-1.522h.218v-1.958h.218v-3.045h.218v-3.915h-.218v-2.61h-.218v-1.741h5.231v.218h10.243v-.218h4.794v-.217h3.051v-.218h2.834v-.217h1.961v-.218h1.961v-.217h1.962v-.218h1.525v-.217h1.308v-.218h1.308v-.217h1.307v-.218h1.09v-.217h1.09v-.218h.871v-.217h.872v-.218h.654v-.217h.872v-.218h.871v-.217h.872v-.218h1.09v-.217h1.09v-.218h1.089v-.217h1.09v-.218h1.308v-.217h1.961v-.218h1.526v-.217h1.307v-.218h1.308v-.217h1.307v-.218h1.308v-.217h1.308v-.218h1.307v-.217h1.526v-.218h1.525v-.217h1.526v-.218h2.615v-.217h5.231v.217h1.961v.218h1.744v.217h1.525v.218h1.308v.217h1.307v.218h1.308v.217h1.526v.218h1.525v.217h1.744v.218h2.397v.217h5.012v-.217h2.18v-.218h1.307v-.217h1.09v-.218h1.09v-.217h1.089v-.218h.654v-.217h.872v-.218h.872v-.217h.871v-.218h.872v-.217h.872v-.218h.654v-.217h.872v-.218h.871v-.218h.654v-.217h.872v-.218h.872v-.217h.653v-.218h.872v-.217h.872v-.218h.872v-.217h.871v-.218h1.09v-.217h1.09v-.218h1.307v-.217h1.744v-.218h1.961v-.217h8.936v.217h2.179v.218h1.526v.217h1.525v.218h1.308v.217h1.089v.218h.872v.217h.654v.218h.872v.217h.872v.218h.653v.217h.654v.218h.654v.217h.654v.218h.436v.218h.653v.217h.654v.218h.654v.217h.436v.218h.436v.217h.436v.218h.436v.217h.435v.218h.436v.217h.436v.218h.218v.217h.436v.218h.436v.217h.218v.218h.436v.217h.436v.218h.217v.217h.436v.218h.436v.217h.218v.218h.436v.217h.436v.218h.218v.217h.436v.218h.436v.217h.435v.218h.436v.217h.436v.218h.436v.217h.654v.218h.654v.217h.871v.218h.872v.217h1.308v.218h1.743v.217h3.487v.218h5.231v.217h5.448v.218h6.538v.217h18.743v-.217h6.756v6.09h-.218v10.876h.218v2.61h-.218v.218h-.218v-.218h-.872v-.217h-.872v-.218h-1.089v-.217h-1.09v-.218h-1.09v-.217h-1.525v-.218h-1.526v-.217h-1.525v-.218h-2.18v-.218h-2.833v-.217h-4.794v-.218h-3.051v.218h-5.013v.217h-2.615v.218h-2.398v.218h-2.179v.217h-1.526v.218h-1.525v.217h-1.744v.218h-1.525v.217h-1.09v.218h-1.307v.217h-1.308v.218h-1.09v.217h-1.089v.218h-1.09v.217h-1.09v.218h-1.089v.217h-1.09v.218h-1.09v.217h-1.089v.218h-1.09v.217h-1.09v.218h-1.09v.217h-1.089v.218h-1.09v.217h-1.09v.218h-1.089v.217h-1.09v.218h-1.09v.217h-.871v.218h-1.09v.217h-1.09v.218h-.871v.217h-1.09v.218h-1.09v.217h-.872v.218h-1.089v.217h-.872v.218h-.872v.217h-.872v.218h-1.089v.217h-.872v.218h-.872v.217h-.871v.218h-.872v.218h-1.09v.217h-.872v.218h-.871v.217h-.872v.218h-1.09v.217h-.872v.218h-.871v.217h-1.09v.218h-.872v.217h-1.089v.218h-1.09v.217h-1.09v.218h-1.089v.217h-.872v.218h-1.09v.217h-1.09v.218h-1.089v.217h-1.09v.218h-1.308v.217h-1.307v.218h-1.526v.217h-1.743v.218h-1.526v.217h-1.743v.218h-2.615v.217h-3.052v.218h-3.922Zm156.26-.218v-.217h-.436v-.218h-.436v-.217h-.436v-.218h-.218v-.217h-.435v-.218h-.436v-.217h-.436v-.218h-.436v-.217h-.218v-.218h-.436v-.217h-.436v-.218h-.436v-.217h-.435v-.218h-.218v-.217h-.436v-.218h-.436v-.217h-.436v-.218h-.436v-.217h-.218v-.218h-.436v-.217h-.436v-.218h-.435v-.217h-.436v-.218h-.218v-.217h-.436v-.218h-.436v-.218h-.436v-.217h-.218v-.218h-.436v-.217h-.436v-.218h-.435v-.217h-.218v-.218h-.436v-.217h-.218v-.218h-.218v-.217h-.218v-.218h-.218v-.217h-.218v-.218h-.218v-.435h-.218v-.652h-.218v-1.305h-.218v-11.528h-.218v-11.746h1.744v-.218h1.525v-.217h1.526v-.218h1.526v-.217h1.525v-.218h1.526v-.217h1.307v-.218h1.09v-.217h1.308v-.218h1.089v-.217h1.308v-.218h1.09v-.217h1.089v-.218h1.09v-.217h.872v-.218h.871v-.217h.872v-.218h.872v-.217h.872v-.218h.871v-.217h.654v-.218h.872v-.217h.872v-.218h.871v-.217h.654v-.218h.872v-.217h.872v-.218h.872v-.217h.871v-.218h1.09v-.217h.872v-.218h1.089v-.218h.872v-.217h1.308v-.218h1.525v-.217h1.526v-.218h5.448v.218h1.526v.217h1.307v.218h.872v.217h1.09v.218h.872v.218h.871v.217h.872v.218h.872v.217h.872v.218h1.089v.217h.872v.218h.872v.217h1.743v.218h1.526v.217h3.051v-.217h1.743v-.218h1.308v-.217h1.526v-.218h1.525v-.217h1.744v-.218h5.23v.218h1.744v.217h1.743v.218h1.308v.217h1.089v.218h1.308v.217h1.09v.435h-.218v.218h-.218v.217h-.218v.218h-.218v.217h-.218v.218h-.218v.217h-.218v.218h-.218v.217h-.218v.218h-.218v.217h-.218v.218h-.218v.217h-.217v.218h-.218v.435h-.218v.217h-.218v.218h-.218v.217h-.218v.218h-.218v.217h-.436v.218h-.218v.217h-.218v.218h-.218v.217h-.218v.218h-.218v.217h-.218v.218h-.217v.217h-.218v.218h-.218v.218h-.218v.217h-.218v.218h-.218v.217h-.218v.218h-.218v.217h-.218v.218h-.218v.217h-.218v.218h-.218v.217h-.218v.218h-.218v.217h-.218v.218h-.218v.217h-.217v.218h-.218v.217h-.218v.218h-.218v.217h-.218v.218h-.218v.217h-.218v.218h-.218v.217h-.218v.218h-.436v.217h-.218v.218h-.218v.217h-.218v.218h-.218v.217h-.218v.218h-.217v.217h-.218v.218h-.218v.217h-.218v.218h-.218v.217h-.218v.218h-.218v.217h-.218v.218h-.218v.217h-.218v.218h-.218v.217h-.218v.218h-.436v.218h-.218v.217h-.218v.218h-.217v.217h-.218v.218h-.218v.217h-.218v.218h-.218v.217h-.218v.218h-.218v.217h-.218v.218h-.218v.217h-.218v.218h-.436v.217H523v.218h-.218v.217h-.218v.218h-.218v.217h-.217v.218h-.218v.217h-.218v.218h-.218v.217h-.218v.218h-.218v.217h-.218v.218h-.218v.217h-.436v.218h-.218v.217h-.218v.218h-.218v.217h-.218v.218h-.218v.217h-.218v.218h-.217v.217h-.218v.218h-.218v.217h-.218v.218h-.218v.217h-.218v.218h-.436v.218h-.218v.217h-.218v.218h-.218v.217h-.218v.218h-.218v.217h-.218v.218h-.218v.217h-.217v.218h-.218v.217h-.218v.218h-.218v.217h-.218v.218h-.218v.217h-.218v.218h-.218v.217h-.436v.218h-.218v.217h-.218v.218h-.218v.217h-.218v.218h-.218v.217h-.218v.218h-.217v.217h-.218v.218h-.218v.217h-.218v.218h-.218v.217h-.218v.218h-.218v.217h-.218v.218h-.218v.217h-.218v.218h-.218v.217h-.218v.218h-.654v.217h-.871v.218h-.654v.217h-.654v.218h-.654v.217h-.654v.218h-.653v.218h-.872v.217h-.654v.218h-.654v.217h-.871v.218h-.654v.217h-.654v.218h-.872v.217h-.654v.218h-.653v.217h-.872v.218h-.872v.217h-.654v.218h-.872v.217h-.871v.218h-.872v.217h-.872v.218h-.871v.217h-.872v.218h-1.09v.217h-1.09v.218h-1.089v.217h-1.09v.218h-1.526v.217H482.9v.218h-2.397v.217" fill="#F8F9FA"/><path d="M472.665 321.21c-4.431-.287-8.818-1.105-13.223-2.388-4.48-1.305-8.728-2.743-12.96-4.675-3.877-1.768-7.933-3.673-12.03-4.878a71.67 71.67 0 0 0-2.77-.753c.135-1.262-.04-2.715-.037-3.676.006-5.281.017-10.558.074-15.835 8.573-.224 17.164-.672 25.69-1.62l.357 19.582c.031 1.649-.231 3.807.532 5.329.669 1.336 2.062 2.049 3.306 2.752 3.657 2.055 7.33 4.083 10.995 6.125l.066.037Z" fill="#F8F9FA"/><path d="M238.917 359.725c-10.243-13.332-22.498-25.776-22.511-38.109a17.854 17.854 0 0 1 1.11-6.238c.418-.811.823-1.753 1.205-2.793a87.732 87.732 0 0 1 12.851 2.191c4.35 1.089 8.596 2.529 13.09 2.956 1.161.111 2.325.158 3.491.158 3.051 0 6.104-.33 9.121-.739 4.474-.605 8.942-1.392 13.462-1.568.346-.016.693-.02 1.037-.02 3.624 0 7.12.69 10.731.831 4.233.163 8.415.744 12.634 1.04 4.03.282 7.669 1.816 11.627 2.721 3.725.85 7.449 1.194 11.178 1.194 5.082 0 10.171-.64 15.271-1.494 8.401-1.412 16.676-3.474 24.958-5.453 8.495-2.032 17.038-3.596 25.59-5.336 8.744-1.781 17.897-2.965 27.004-2.965 7.073 0 14.116.714 20.918 2.417.928.233 1.852.483 2.77.752 4.097 1.205 8.153 3.111 12.03 4.879 4.232 1.932 8.48 3.37 12.961 4.675 4.404 1.283 8.791 2.101 13.222 2.388a54.722 54.722 0 0 0 11.788-.505c8.43-1.277 16.594-3.948 24.699-6.492.041-.011.081-.024.12-.037-7.985 7.73-15.583 15.771-21.994 24.691-34.086 3.611-68.221 6.743-102.374 9.621-35.447 2.987-70.919 5.699-106.39 8.392-13.194 1-26.388 2.055-39.599 2.843Z" fill="#F8F9FA"/><path d="M346.729 318.16c-.453-.157-.957.107-1.199.485-.172.274-.379.52-.56.788l-.344.224-.024-.077c-.065-.195-.098-.393-.135-.596l-.039-.211-.016-.293h-.021c-.009-.511-.332-1.023-.848-1.138-.645-.148-1.212.189-1.436.792-.36-.283-.857-.426-1.256-.298-.658.213-.943.72-.965 1.327h-.046l.022.504-.037-.067c-.005-.431.017-.864.019-1.294.003-.518-.381-1.064-.902-1.181-.495-.113-1.155.061-1.386.563-.355.774-.486 1.664-.44 2.56-.525-.944-1.042-1.892-1.469-2.882-.303-.702-1.558-.531-1.678.22-.124.75-.233 1.501-.351 2.249-.512-.626-1.406-.764-2.197-.522-.111-.618-.213-1.238-.396-1.856-.212-.709-.97-.922-1.559-.693a28.999 28.999 0 0 0-2.262-8.266c-.462-1.044-2.299-.785-2.493.326-.318 1.808-.693 3.611-1.02 5.421-1.262-3.211-2.877-6.258-4.958-8.97-.806-1.053-2.574-.498-2.234.939.419 1.775.591 3.604 1.031 5.382.41 1.653.924 3.277 1.51 4.874a.949.949 0 0 0-.346.883c.111.77.268 1.534.416 2.299a.86.86 0 0 0-.493-.261c-.322-.041-.625.139-.823.405-.234-.725-1.062-1.188-1.798-.99-1.369.365-2.89.655-4.106 1.403-.656.405-1.28.864-1.835 1.396-.545.525-1.201 1.166-1.369 1.932-.307.607-.676 1.172-.878 1.838-.118.385-.096.766-.116 1.094-.024.37-.126.737-.189 1.109-.109.618.66.986 1.026.435.305-.463.584-.746 1.014-1.087.279-.185.531-.4.788-.653l.484-.483.295-.25c.566-.246 1.006-.715 1.505-1.133.203-.17.452-.368.704-.561.112.407.314.794.6 1.1.189.207.407.39.621.572.564.481 1.148.96 1.765 1.373.499.335 1.035.65 1.576.909.739.353 1.615.803 2.447.709l.382.052c.514.037 1.013-.247 1.34-.639.187.322.37.648.569.964.124.195.248.395.379.591l.002.015c.185 2.674 4.368 2.704 4.2 0-.046-.791-.083-1.581-.129-2.373.661.412 1.65.292 1.905-.689.257-.999.495-2.001.737-3.006.137.178.324.309.538.387.375 1.512 1.098 2.967 2.343 3.667-.026.263-.068.524-.094.79-.055.578.859.681 1.005.135l.133-.564.523.076a3.64 3.64 0 0 0 1.702-.33c.525-.252.573-.322.939-.513.878-.462 1.36-1.214 1.412-2.197.016-.305-.163-.488-.385-.583l.015-.02.22-.522.011-.069.013-.092.02-.169c.22.374.451.741.734 1.044.654.693 1.709.43 2.197-.283.298-.44.521-.914.719-1.399l.473-.289c.24-.274.442-.561.627-.861.173.171.356.324.558.424.7.35 1.363.026 1.641-.666.129-.322.421-.568.704-.789l.131.282c.009.488.482.877.966.605l.566-.346c.356-.293.495-.709.486-1.164-.019-.813-.379-1.542-1.181-1.818ZM477.64 326.205c-.32-.296-.453-.587-.501-.866.874-.037 1.75-.076 2.621-.117 0 1.055-1.07 1.953-2.12.983Zm24.884-5.897c-2.384-.718-4.819-1.485-7.266-1.949-1.693-.319-4.086-.861-5.664.118-.51.317-.857.774-1.049 1.274a.666.666 0 0 0-.575-.189c-.246.042-.434.187-.665.279-.218.084-.412.102-.645.143-.407.074-.715.142-1.076.172a5.138 5.138 0 0 0-1.192-.228c.427.037-.46-.133.004.021-.371-.124-.669-.25-1.048-.332a5.707 5.707 0 0 1-.643-.181l-.292-.109-.009-.004-.575-.329-.273-.184c-.059-.042-.322-.266-.098-.066-.678-.602-1.848-.754-2.508 0-.31.355-.635.699-.866 1.11a5.923 5.923 0 0 0-1.852-1.125l.002-.085c.02-.546-.25-.889-.61-1.07a19.252 19.252 0 0 0-.272-3.991c-.207-1.179-1.849-1.19-2.406-.313-.375.587-.685 1.185-1.005 1.781.333-3.954 1.416-7.852 3.356-11.261.466-.817-.739-1.5-1.255-.73-4.25 6.318-6.05 13.768-4.579 21.298.34 1.745 2.901 1.231 2.979-.402.026-.485.1-.981.157-1.473.242.344.63.572 1.04.601.268.156.558.285.889.359l.172.002-.105.15c-1.325 2.414.606 5.425 3.095 6.027 2.672.648 5.03-1.396 5.315-4.011.057-.487.011-1.066-.113-1.625a24.31 24.31 0 0 0 7.526-1.061c1.078.189 2.144-.337 2.449-1.442 1.079.106 2.121.167 3.206.167 2.096.002 4.219-.178 6.316-.339.562-.044.71-.829.135-1.003ZM466.745 315.267c.003-2.856-.307-5.751-.784-8.566-.157-.931-1.689-.713-1.648.222.131 2.834.22 5.675.353 8.507.068 1.373-.026 2.817.19 4.172.218 1.366.013 2.78.266 4.139.083.44.712.374.83 0 .423-1.324.338-2.784.613-4.139.283-1.375.18-2.936.18-4.335ZM256.225 327.431c-.096-.548-.201-1.096-.303-1.642l.037-.002c.475-.037.878-.457.728-.957-.068-.237-.12-.476-.194-.716l-.004-.076c.427.078.849.122 1.27.142-.512 1.081-1.026 2.166-1.534 3.251Zm9.301-19.735-2.876 6.108c.682-2.199.889-4.507.39-6.704-.233-1.02-1.565-1.028-2.086-.271-1.09 1.592-2.042 3.238-2.927 4.918.057-3.8-.51-7.607-1.717-11.248-.242-.74-1.473-1.098-1.853-.244-1.196 2.717-2.133 5.399-2.58 8.266a722.77 722.77 0 0 0-1.536-5.551c-.29-1.022-1.87-.592-1.6.439 1.059 4.026 2.007 8.079 2.942 12.137-4.049-4.702-9.38-8.269-14.809-11.275-.98-.544-2.395.617-1.649 1.646 2.939 4.061 5.869 8.183 9.589 11.581l.222.489c.726.646 1.451 1.294 2.177 1.942l.087.072c.927 1.099 1.866 2.195 2.905 3.182 1.014.964 2.389 2.28 3.862 2.606.329 1.383.667 2.765 1.011 4.142-1.111 2.444-2.174 4.909-3.107 7.417-.185.498.586.798.841.356 1.02-1.766 1.961-3.578 2.877-5.407.372 1.447.721 2.9 1.12 4.337.096.344.678.292.643-.087-.19-2.084-.464-4.159-.774-6.229 1.147-2.362 2.247-4.746 3.359-7.113 2.301-4.894 4.602-9.788 6.902-14.684.444-.946-.964-1.775-1.413-.825ZM152.211 59.37c-1.329 0-2.663-.089-4.008-.298-3.138-.487-6.185-1.438-9.301-2.044-3.332-.653-6.702-1.055-10.082-1.35-1.656-.14-3.317-.264-4.975-.39-1.594-.12-2.666-.438-4.109-1.125-.904-.43-.551-1.718.262-1.99 1.351-.453 2.779-.61 4.228-.61 1.299 0 2.615.127 3.914.275 1.63-.177 3.247-.444 4.816-.92 3.304-1.005 6.044-2.948 9.566-3.313.499-.052.998-.074 1.495-.074 2.41 0 4.803.535 7.17.957 1.652.294 3.258.461 4.866.461 1.404 0 2.812-.128 4.255-.404 2.987-.573 5.888-1.534 8.922-1.85a35.11 35.11 0 0 1 3.607-.167c1.874 0 3.748.107 5.622.19 6.676.293 13.353 1.024 20.016 1.518l20.137 1.49c1.473.11 1.89 2.238.36 2.647-3.618.966-7.094 2.292-10.764 3.117-3.681.828-7.366 1.414-11.128 1.685-1.393.1-2.783.138-4.174.138-2.092 0-4.184-.085-6.276-.17-2.09-.085-4.182-.17-6.277-.17-1.017 0-2.037.02-3.055.07-6.673.326-13.233 1.061-19.85 1.94-1.759.235-3.496.387-5.237.387ZM82.473 182.887c-1.552 0-3.106-.103-4.673-.346-3.655-.568-7.205-1.673-10.833-2.382-3.882-.757-7.807-1.227-11.743-1.568-1.93-.168-3.864-.311-5.795-.457-1.854-.141-3.103-.511-4.784-1.309-1.054-.503-.642-2.004.303-2.319 1.574-.526 3.235-.707 4.924-.707 1.512 0 3.049.146 4.561.318 1.898-.205 3.78-.518 5.608-1.073 3.848-1.172 7.039-3.434 11.14-3.858a17.365 17.365 0 0 1 1.748-.087c2.805 0 5.593.624 8.345 1.115 1.924.344 3.794.536 5.666.536 1.637 0 3.276-.146 4.959-.47 3.48-.666 6.858-1.786 10.393-2.152 1.399-.145 2.8-.195 4.204-.195 2.179 0 4.361.124 6.545.219 7.776.34 15.549 1.192 23.312 1.769 7.818.578 15.635 1.157 23.452 1.738 1.716.126 2.202 2.603.419 3.08-4.213 1.126-8.262 2.671-12.536 3.632-4.289.964-8.58 1.645-12.963 1.962a66.607 66.607 0 0 1-4.851.161c-2.439 0-4.875-.1-7.314-.2-2.439-.098-4.877-.198-7.318-.198-1.186 0-2.369.024-3.555.081-7.771.382-15.412 1.237-23.118 2.262-2.047.272-4.07.448-6.096.448ZM229.555 81.061a84.07 84.07 0 0 1-6.697-.27c-2.114-.169-3.178-1.024-5.006-1.752-1.746-.696-3.995-.662-5.821-.823-4.599-.408-9.173-.465-13.787-.548-1.216-.021-1.205-1.825 0-1.877 4.614-.206 9.195-.374 13.787-.92 1.846-.22 4.106-.24 5.821-1.046 2.016-.946 3.258-1.673 5.603-1.866 2.652-.22 5.431-.368 8.181-.368 1.829 0 3.644.065 5.405.215 4.59.392 8.999 1.434 13.636 1.551 9.302.237 18.619.092 27.924.27 4.331.085 8.659.07 12.987.076h.042c.767 0 1.578-.024 2.408-.046.83-.021 1.685-.043 2.541-.043 2.626 0 5.285.206 7.423 1.264.928.46.944 2.016 0 2.468-2.057.99-4.583 1.203-7.1 1.203-1.84 0-3.673-.113-5.314-.122-1.889-.008-3.777-.015-5.666-.015-2.657 0-5.313.015-7.97.068-9.084.178-18.196.093-27.275.439-4.648.176-9.044 1.27-13.636 1.764-2.41.259-4.952.378-7.486.378ZM188.348 161.233c-3.942 0-7.878-.165-11.636-.467-3.674-.296-5.52-1.782-8.697-3.05-3.034-1.209-6.944-1.144-10.121-1.427-7.992-.709-15.943-.809-23.96-.95-2.114-.037-2.095-3.171 0-3.265 8.022-.359 15.983-.648 23.96-1.599 3.208-.38 7.137-.415 10.121-1.816 3.502-1.647 5.657-2.908 9.737-3.247 4.607-.381 9.432-.636 14.214-.636 3.177 0 6.335.111 9.397.375 7.979.68 15.641 2.49 23.701 2.695 1.063.026 2.125.05 3.186.071-1.233 3.1-2.123 6.315-2.452 9.564-.244.009-.488.018-.734.029-8.079.306-15.718 2.212-23.701 3.067-4.191.45-8.606.656-13.015.656Zm75.65-4.356c1.364-1.762 2.716-3.513 4.934-4.248l.449-.129c.798.296 1.595.598 2.411.849 2.43.743 4.934 1.083 7.377 1.738 1.931.515 3.685 1.157 5.592 1.544a681.19 681.19 0 0 0-12.294.117c-2.82.055-5.644.096-8.469.129Zm45.276-.133c1.193-2.227 2.021-4.953 2.513-6.767.249-.091.495-.187.735-.298 1.107 1.562 2.665 2.828 4.4 3.644a15.97 15.97 0 0 0 1.678.669 2.022 2.022 0 0 1-.859.786c-2.513 1.211-5.433 1.753-8.467 1.966Zm9.45-5.216c-1.665-.459-3.291-1.181-4.502-2.314a17.91 17.91 0 0 1 3.519 1.274c.454.224.783.598.983 1.04Z" fill="#F8F9FA"/><path d="M225.801 157.481c.329-3.249 1.218-6.464 2.452-9.564 15.107.309 30.236.107 45.348.398 7.523.146 15.046.118 22.571.129h.068c1.334 0 2.742-.039 4.187-.078 1.445-.037 2.926-.077 4.417-.077 3.21 0 6.449.179 9.38.925 1.212 1.133 2.838 1.855 4.503 2.314.351.772.314 1.745-.124 2.465a16.305 16.305 0 0 1-1.679-.67c-1.734-.816-3.293-2.082-4.4-3.644a9.549 9.549 0 0 1-.734.298c-.493 1.814-1.321 4.54-2.513 6.767a54.775 54.775 0 0 1-3.877.124c-3.195 0-6.379-.198-9.228-.209-3.293-.015-6.586-.028-9.876-.028h-1.532c-1.907-.387-3.662-1.029-5.593-1.544-2.443-.655-4.947-.994-7.377-1.738-.815-.25-1.613-.553-2.41-.849l-.449.129c-2.219.735-3.57 2.486-4.934 4.248-12.732.15-25.486.139-38.2.604ZM372.629 199.137c-2.341 0-4.686-.1-7.035-.331-5.621-.55-11.348-1.272-16.894-2.334-5.686-1.087-11.224-2.956-16.773-4.583-2.325-.681-1.593-3.961.545-3.961.168 0 .344.02.53.063 1.601.377 3.223.714 4.853 1.029 3.897-.041 7.794-.067 11.69-.189 5.527-.172 10.956-.914 16.454-1.429 5.508-.518 10.96-1.368 16.311-2.782a25.985 25.985 0 0 1 3.844 3.023c.436.414.913.592 1.369.592 1.17 0 2.197-1.172 1.981-2.538-.137-.868-.299-1.836-.416-2.843 2.809-.646 5.629-1.103 8.669-1.103h.249a45.42 45.42 0 0 1 2.358.085c.043.093.089.187.135.28 1.216 2.454 2.824 4.94 4.988 6.661.608.48 1.384.92 2.186.92.253 0 .508-.044.763-.144 2.77-1.09 4.439-3.258 6.253-5.509.13-.164.263-.325.398-.481.044.004.085.009.129.011 2.665.224 5.329.463 7.992.72 2.537 3.667 4.592 9.374 8.674 10.268.039.292.078.581.115.873-4.688-.575-9.419-1.151-14.151-1.151-.791 0-1.58.015-2.371.05-5.498.244-10.805 1.505-16.242 2.212-8.849 1.149-17.695 2.591-26.604 2.591Zm59.647-10.5c-.78 0-1.543-.213-2.345-.596a5.622 5.622 0 0 1-.954-.598 2.368 2.368 0 0 1 .052-.972c.063-.239-.122-.389-.31-.389a.308.308 0 0 0-.3.219l-.116.559c-.66-.652-1.185-1.409-1.722-2.231 1.735.176 3.468.361 5.203.552.553.061 1.107.122 1.66.185.351.344.702.687 1.103 1.001.196.152.412.308.63.465-.238.533-.552 1.044-.955 1.453l-.409.081a4.647 4.647 0 0 1-1.537.271Zm-23.91-5.535a16.694 16.694 0 0 1-.344-.405l.896.124c-.183.098-.366.192-.552.281Z" fill="#F8F9FA"/><path d="M452.244 197.097c-6.729 0-13.431-.829-20.218-1.658l-.03-.002a86.74 86.74 0 0 0-.116-.872c-4.082-.894-6.137-6.602-8.673-10.269 1.124.109 2.249.22 3.373.335.536.822 1.062 1.579 1.722 2.232l.115-.559a.31.31 0 0 1 .301-.22c.188 0 .373.15.31.389a2.391 2.391 0 0 0-.053.973c.292.215.593.426.955.598.802.383 1.565.596 2.345.596.499 0 1.007-.087 1.536-.272l.41-.081c.403-.408.717-.92.955-1.453a20.75 20.75 0 0 1-.63-.465c-.401-.313-.752-.657-1.103-1.001 10.352 1.155 20.68 2.437 30.98 4.003 3.358.513 3.234 6.031 0 6.647-4.087.779-8.138 1.079-12.179 1.079Zm-44.572-7.398c-.802 0-1.578-.439-2.186-.92-2.164-1.72-3.772-4.207-4.988-6.66-.046-.094-.092-.187-.136-.281 2.55.157 5.105.505 7.659.862.113.137.226.271.344.404.185-.089.368-.183.551-.28 2.06.287 4.12.565 6.17.741-.135.157-.268.318-.399.481-1.813 2.251-3.482 4.42-6.252 5.51-.255.1-.51.143-.763.143Zm-20.15-1.462c-.456 0-.933-.178-1.369-.591a25.992 25.992 0 0 0-3.844-3.024l.244-.065c2.231-.598 4.378-1.205 6.533-1.701.118 1.007.279 1.975.417 2.843.215 1.366-.811 2.538-1.981 2.538ZM138.804 92.712c.305-.211.223-.788-.183-.82-3.003-.238-6.058 1.433-8.349 3.24-1.249.986-2.428 1.943-3.406 3.204-.58.749-1.234 1.475-1.811 2.252-.571-.192-1.134-.466-1.7-.664a41.18 41.18 0 0 0-4.113-1.218c-2.528-.605-4.988-1.24-7.588-1.479-4.291-.394-8.639.144-12.207 2.734-.551.403.026 1.216.604.864 3.604-2.201 8.168-2.86 12.276-1.851a20.822 20.822 0 0 1 6.652 2.96c.958.644 1.915 1.296 2.872 1.947 1.194.813 2.075 1.875 3.369 2.562 1.779.942 3.459-.452 3.949-2.077.362-1.207.408-2.521.955-3.67.545-1.135 1.358-2.37 2.21-3.297 1.874-2.036 4.239-3.15 6.47-4.688ZM162.816 101.797c-1.207.372-2.247.733-3.201 1.607-.953.875-1.707 1.86-2.376 2.967-.647 1.07-1.124 2.195-1.593 3.352a17.918 17.918 0 0 0-.839 2.569c-.543.256-1.072.557-1.652.77-.983.363-1.924.748-2.794 1.344-1.717 1.179-3.208 2.858-3.727 4.909-.215.855 1.018 1.429 1.458.614.816-1.512 1.785-2.902 3.235-3.874.677-.453 1.436-.87 2.227-1.086.299-.08.732-.182 1.04-.111.442.107.815.427 1.283.503 1.238.202 2.175-.485 2.295-1.742.092-.988.048-2.032.279-3 .242-1.033.721-2.051 1.257-2.962a20.576 20.576 0 0 1 1.788-2.563c.684-.841 1.168-1.798 1.817-2.653.238-.311-.155-.751-.497-.644ZM140.696 130.593c-.632-.855-2.073-1.353-3.067-1.612-1.37-.354-2.837-.2-4.177.222-1.846.583-4.366 2.097-5.325 4.059-1.747-.515-3.613-.581-5.387-.115-1.53.402-4.89 1.631-4.513 3.66l.337.329c.892.106 1.43-.437 2.136-.907a7.67 7.67 0 0 1 2.487-1.068 8.026 8.026 0 0 1 4.609.289c.386 1.038 1.792 1.871 2.74.912.758-.766 1.161-1.651 1.811-2.484.558-.72 1.357-1.177 2.172-1.553.861-.396 1.735-.599 2.672-.753.456-.074.916-.161 1.38-.141.519.019 1.02.221 1.532.215.551-.009.959-.559.593-1.053ZM83.507 209.908c-.078-.875-.601-1.662-1.179-2.315-.466-1.379-2.41-2.419-3.7-2.638a8.778 8.778 0 0 0-3.093.026l-.054-.333a6.32 6.32 0 0 0-.645-1.536c-.523-.863-1.408-1.659-2.315-2.105-1.935-.953-4.225-.681-5.812.792-.532.493.161 1.442.784 1.031 1.208-.799 2.875-1.044 4.194-.361.666.345 1.048.846 1.338 1.529.18.422.425 1.209.252 1.714-.193.18-.36.393-.531.659-.4.626-.236 1.533.272 2.044.571.573 1.347.577 2.047.283a5.375 5.375 0 0 1 2.998-.335c.61.1 1.149.116 1.737.313.432.146.86.259 1.295.305.608.405 1.107.916 1.693 1.342.284.204.75-.074.72-.415Z" fill="#F8F9FA"/><path d="M242 76.333a11.998 11.998 0 0 1 12 12c0 4.968-3.787 10.173-11.2 15.733a1.336 1.336 0 0 1-1.6 0c-7.413-5.56-11.2-10.765-11.2-15.733a11.998 11.998 0 0 1 12-12Zm0 8a3.998 3.998 0 0 0-2.828 6.828A3.998 3.998 0 0 0 246 88.333a3.997 3.997 0 0 0-4-4ZM409 328.333c3.183 0 6.235 1.264 8.485 3.515a11.996 11.996 0 0 1 3.515 8.485c0 4.968-3.787 10.173-11.2 15.733a1.336 1.336 0 0 1-1.6 0c-7.413-5.56-11.2-10.765-11.2-15.733 0-3.183 1.264-6.235 3.515-8.485a11.996 11.996 0 0 1 8.485-3.515Zm0 8a3.995 3.995 0 0 0-2.828 1.172 3.995 3.995 0 0 0 0 5.656 3.995 3.995 0 0 0 5.656 0 3.995 3.995 0 0 0 0-5.656 3.995 3.995 0 0 0-2.828-1.172Z" fill="#DC3545"/><path d="M428.5 325.03a.5.5 0 0 0-.47-.529l-4.492-.265a.5.5 0 1 0-.059.999l3.993.235-.235 3.993a.5.5 0 1 0 .998.059l.265-4.492ZM269.9 99.987c.854.177 1.705.355 2.552.533l.206-.978c-.848-.18-1.7-.357-2.556-.534l-.202.98Zm7.59 1.618c1.665.365 3.316.735 4.952 1.108l.223-.974a569.529 569.529 0 0 0-4.96-1.111l-.215.977Zm9.819 2.241c1.677.398 3.338.8 4.984 1.206l.239-.971c-1.649-.407-3.313-.81-4.992-1.208l-.231.973Zm9.961 2.458c1.643.422 3.271.847 4.883 1.277l.258-.966a546.836 546.836 0 0 0-4.892-1.28l-.249.969Zm9.708 2.589c1.679.465 3.34.934 4.985 1.408l.276-.961a521.457 521.457 0 0 0-4.994-1.411l-.267.964Zm9.865 2.843c1.61.483 3.203.969 4.779 1.46l.298-.954c-1.58-.492-3.176-.98-4.789-1.464l-.288.958Zm9.673 3.016c1.638.53 3.256 1.066 4.856 1.605l.319-.947a427.545 427.545 0 0 0-4.866-1.61l-.309.952Zm9.599 3.237c1.62.568 3.219 1.141 4.8 1.718l.343-.939a396.581 396.581 0 0 0-4.812-1.723l-.331.944Zm9.601 3.508c1.58.601 3.139 1.207 4.679 1.816l.368-.929a369.264 369.264 0 0 0-4.692-1.822l-.355.935Zm9.406 3.728c1.593.658 3.163 1.321 4.712 1.988l.396-.919a345.532 345.532 0 0 0-4.727-1.993l-.381.924Zm9.292 4.002a321.89 321.89 0 0 1 4.666 2.142l.425-.905a313.668 313.668 0 0 0-4.682-2.149l-.409.912Zm9.249 4.34a287.6 287.6 0 0 1 4.48 2.244l.455-.89a285.015 285.015 0 0 0-4.494-2.252l-.441.898Zm9.044 4.636c1.495.802 2.964 1.608 4.407 2.419l.489-.872a254.237 254.237 0 0 0-4.424-2.428l-.472.881Zm8.833 4.964c1.477.87 2.926 1.744 4.347 2.623l.526-.851a238.783 238.783 0 0 0-4.366-2.634l-.507.862Zm8.609 5.323c1.449.942 2.867 1.887 4.254 2.837l.565-.826a218.796 218.796 0 0 0-4.275-2.849l-.544.838Zm8.357 5.717a193.122 193.122 0 0 1 4.126 3.056l.605-.796a192.483 192.483 0 0 0-4.146-3.071l-.585.811Zm8.067 6.141a176.562 176.562 0 0 1 3.954 3.278l.649-.76a175.828 175.828 0 0 0-3.976-3.297l-.627.779Zm7.719 6.592a159.452 159.452 0 0 1 3.738 3.5l.696-.719a161.36 161.36 0 0 0-3.762-3.522l-.672.741Zm7.303 7.062a145.758 145.758 0 0 1 3.474 3.715l.743-.67a149.634 149.634 0 0 0-3.498-3.741l-.719.696Zm6.803 7.54a133.076 133.076 0 0 1 3.162 3.917l.79-.613a133.448 133.448 0 0 0-3.186-3.946l-.766.642Zm6.21 8.011a122.773 122.773 0 0 1 2.849 4.169l.837-.547a122.318 122.318 0 0 0-2.872-4.203l-.814.581Zm5.521 8.455a112.703 112.703 0 0 1 2.5 4.434l.882-.471a115.266 115.266 0 0 0-2.522-4.473l-.86.51Zm4.782 8.949a105.58 105.58 0 0 1 2.059 4.598l.922-.387a105.192 105.192 0 0 0-2.079-4.641l-.902.43Zm3.906 9.319c.589 1.625 1.125 3.23 1.611 4.815l.956-.293a101.63 101.63 0 0 0-1.627-4.863l-.94.341Zm2.97 9.695c.42 1.675.785 3.322 1.1 4.939l.982-.192a97.18 97.18 0 0 0-1.112-4.99l-.97.243Zm1.934 9.928c.239 1.72.422 3.398.556 5.029l.996-.082a90.336 90.336 0 0 0-.562-5.085l-.99.138Zm.824 10.083a82.797 82.797 0 0 1-.035 5.058l.999.038c.062-1.634.077-3.343.035-5.12l-.999.024Zm-.391 10.085a66.191 66.191 0 0 1-.714 5.006l.984.18c.286-1.559.533-3.257.725-5.082l-.995-.104Zm-1.846 9.889c-.254.879-.515 1.67-.776 2.37l.937.349c.27-.726.539-1.541.799-2.442l-.96-.277Zm-.776 2.37a60.07 60.07 0 0 1-.873 2.205l.923.385c.32-.764.616-1.512.887-2.241l-.937-.349Zm-2.84 6.544a125.371 125.371 0 0 1-2.165 4.25l.883.47c.775-1.458 1.507-2.89 2.182-4.284l-.9-.436Zm-4.468 8.433a230.125 230.125 0 0 1-2.407 4.134l.859.512a234.743 234.743 0 0 0 2.418-4.152l-.87-.494Zm-4.893 8.222a349.565 349.565 0 0 1-2.549 4.051l.843.538a356.594 356.594 0 0 0 2.556-4.062l-.85-.527Zm-5.148 8.071a515.56 515.56 0 0 1-2.64 3.99l.831.555a489.71 489.71 0 0 0 2.645-3.997l-.836-.548Zm-5.32 7.966a823.27 823.27 0 0 1-2.706 3.955l.824.567a780.19 780.19 0 0 0 2.709-3.961l-.827-.561Zm-5.43 7.897c-1.002 1.446-1.919 2.766-2.724 3.933l.823.568c.804-1.166 1.72-2.484 2.723-3.931l-.822-.57Zm-5.428 7.929c-.239.371-.436.688-.585.945-.144.247-.26.468-.319.636a.913.913 0 0 0-.041.157.609.609 0 0 0 .009.262.533.533 0 0 0 .335.366.56.56 0 0 0 .352.006c.123-.036.231-.109.301-.16a4.06 4.06 0 0 0 .276-.226l-.665-.748a2.706 2.706 0 0 1-.199.165c-.059.043-.05.026.003.011a.466.466 0 0 1 .563.328c.024.088.012.154.011.162-.003.017-.006.02-.001.006.024-.068.096-.216.24-.463.137-.238.325-.54.56-.905l-.84-.542Z" fill="#101010"/></svg>