<svg xmlns="http://www.w3.org/2000/svg" fill="none" viewBox="0 0 240 155"><path fill="#010101" d="m117.72 0 4.725.003c13.913 1.11 26.4 6.047 37.811 13.886a54.188 54.188 0 0 0 5.831 3.471c1.779.92 3.37 2.184 5.085 3.241 13.463 8.314 26.787 16.84 39.734 25.934 6.418 4.508 12.706 9.184 18.511 14.467 3.03 2.758 5.754 5.764 8.085 9.15 2.795 4.064 3.307 8.23 1.219 12.722-.671 1.443-1.272 2.92-2.083 4.287-.37.622-.436 1.14-.189 1.853.658 1.907.874 3.918 1.042 5.917.85 10.09 1.372 20.191.44 30.306-.445 4.838-1.223 9.622-2.876 14.225-.053.148-.221.336-.073.461 1.28 1.073 1.293 2.631 1.608 4.075.135.554.113 1.132.464 1.651.305.448-.037.851-.355 1.178-.693.714-1.566 1.165-2.451 1.59-2.775 1.329-5.72 2.146-8.711 2.799-5.325 1.161-10.728 1.78-16.153 2.257-3.518.309-7.046.463-10.564.777-1.729.154-3.474.114-5.208.157-2.746.069-5.492.181-8.238.251-3.898.099-7.799.005-11.69.161-6.815.272-13.63.083-20.445.13-7.74.053-15.482.09-23.221-.021-5.271-.075-10.545-.232-15.814-.117-14.783.326-29.566.096-44.348.112-3.893.004-7.795-.029-11.69-.158-3.921-.131-7.845-.161-11.764-.336-4.534-.204-9.066-.442-13.594-.781-5.796-.436-11.562-1.059-17.259-2.217-3.468-.704-6.888-1.586-10.074-3.187-.477-.24-.94-.499-1.38-.802-1.24-.854-1.526-1.237-.672-3.1.16-.732.291-1.472.49-2.194.153-.561.236-1.27.62-1.614.799-.712.37-1.348.146-2.043-1.684-5.24-2.454-10.643-2.768-16.107-.552-9.562-.153-19.107.81-28.63.18-1.8.406-3.606 1.095-5.304.172-.425-.072-.685-.244-.995-1.37-2.471-2.542-5.023-3.253-7.77-.56-2.16-.38-4.252.521-6.289 1.232-2.782 2.996-5.224 4.986-7.506 3.283-3.766 7.076-6.997 10.964-10.115 8.545-6.853 17.625-12.968 26.754-19.011 9.29-6.15 18.68-12.15 28.233-17.892 4.412-2.65 8.608-5.641 13.046-8.234 8.776-5.13 18.174-8.688 28.292-10.196 1.523-.226 3.07-.299 4.605-.442z"/><path fill="#F9FAFE" d="M85.67 79.472c-3.022-.023-6.045.053-9.063-.167-.385-.027-.778.067-1.168.062-15.586-.175-31.173-.345-46.759-.541-8.015-.102-16.03-.257-24.046-.381-.98-.016-1.962.011-2.943.018-.143.068-.256.222-.447.153-.349-1.386-.093-2.71.428-4.001 1.013-2.51 2.556-4.697 4.243-6.79 2.182-2.708 4.714-5.075 7.333-7.354 7.272-6.329 15.156-11.85 23.112-17.277 9.826-6.703 20.008-12.88 29.797-19.623 4.472-3.08 9.09-5.916 13.62-8.887 10.705-7.02 22.432-11.525 35.201-13.085 6.968-.85 13.819.101 20.546 2.002a99.433 99.433 0 0 1 13.807 5.004c.304.137.594.305.89.459 1.111.819 1.729 2.038 2.511 3.113 2.416 3.321 4.732 6.712 6.868 10.218 2.571 4.22 5.118 8.458 6.589 13.224 1.006 3.258 1.35 6.551.413 9.879-.739 2.621-2.16 4.883-3.942 6.93-2.575 2.962-5.671 5.289-9.01 7.326-4.348 2.654-8.991 4.669-13.779 6.38-5.693 2.035-11.594 3.297-17.452 4.72-.245.06-.492.113-.747.06-.492-.166-.699-.618-.982-.99-1.026-1.34-1.863-2.814-2.975-4.097.384 1.341 1.254 2.387 2.091 3.46.399.512 1.02.895 1.056 1.643-.195.432-.624.437-.994.52-5.467 1.232-10.974 2.283-16.446 3.49-4.57 1.007-9.12 2.105-13.58 3.535-.613.198-1.225.408-1.803.69-.763.371-1.548.448-2.37.307z"/><path fill="#E6E7EC" d="M121.604 70.752c1.991-.283 3.914-.863 5.862-1.336 3.523-.856 7.056-1.687 10.495-2.842 4.027-1.352 7.993-2.878 11.756-4.861 3.808-2.006 7.436-4.258 10.614-7.218 2.491-2.321 4.508-4.91 5.746-8.07.889-2.273.991-4.643.694-7.042-.663-5.352-3.28-9.919-5.909-14.474-1.848-3.203-3.878-6.297-5.996-9.332-1.525-2.185-3.094-4.342-4.644-6.513.784.365 1.588.694 2.351 1.097 2.869 1.52 5.736 3.03 8.446 4.837 1.377.917 2.725 1.85 3.995 2.9.499.413 1.1.663 1.631 1.016 17.51 11.617 35.526 22.492 52.315 35.167 3.776 2.851 7.426 5.856 10.86 9.111 2.834 2.685 5.397 5.591 7.37 8.972.748 1.281 1.409 2.6 1.687 4.076a5.643 5.643 0 0 1-.098 2.566c-.105.073-.209.064-.311-.003-.391-.032-.781-.104-1.17-.09-8.694.3-17.393.248-26.09.245-18.043-.008-36.078.457-54.111.928-7.349.193-14.694.493-22.042.658-5.584.124-11.163-.229-16.745-.334-10.547-.2-21.094-.437-31.64-.662-.334-.007-.667-.049-1-.076.951.056 1.775-.325 2.638-.665 3.848-1.512 7.887-2.385 11.89-3.36 5.782-1.407 11.637-2.482 17.458-3.71.844-.176 1.677-.4 2.516-.6.263-.063.584-.046.608-.436.251-.114.433.023.596.18.243.233.148-.094.228-.13z"/><path fill="#F9FAFE" d="M108.994 95.736c-.026 2.45-.06 4.902-.076 7.352-.016 2.452-.016 4.904-.021 7.357-.001.339.059.647-.486.643-8.109-.061-16.217-.105-24.326-.157-.045 0-.09-.044-.204-.107.53-.669 1.142-1.278 1.297-2.224-.58.613-1.175 1.213-1.733 1.846-.323.365-.676.517-1.17.504-1.192-.032-2.385-.011-3.768-.011 1.798-2.017 2.344-4.307 2.71-6.77-.42.201-.442.521-.544.791-.71 1.847-1.511 3.65-2.58 5.329-.282.441-.596.642-1.153.64-14.957-.058-29.91-.259-44.84-1.252-4.227-.28-8.447-.655-12.658-1.12-.542-.058-.775-.265-.903-.766-.603-2.348-1.235-4.689-1.425-7.118-.589 2.673-.008 5.183 1.196 7.745-1.278-.171-2.481-.325-3.683-.495-.39-.055-.527-.401-.678-.689-.695-1.331-1.371-2.669-2.062-4.019-.424.849.03 2.126 1.593 4.481-1.075.013-2.065-.233-3.059-.387-2.272-.352-4.534-.767-6.808-1.104-.518-.077-.392-.374-.38-.647.129-3.453.29-6.906.6-10.348.147-1.635.272-3.275.578-4.892.093-.118.078-.26.086-.397.052-.904.487-1.255 1.364-1.022 1.764.47 3.552.816 5.352 1.114 4.154.686 8.344 1.04 12.535 1.405 3.825.335 7.657.558 11.489.77 2.823.157 5.653.271 8.48.407 3.525.17 7.054.306 10.58.422 2.995.099 5.993.294 8.995.223.336-.008.673-.003 1.01 0 1.177.011 1.177.012 1.416 1.092.122.612.244 1.224.368 1.836.005.017.032.045.044.044.025-.006.047-.026.07-.041.188-.598.064-1.212.085-1.818.029-.83.094-.937.987-.95 1.766-.028 3.54-.122 5.297.022 2.495.205 4.99.025 7.48.144 4.033.192 8.073.016 12.101.19 5.075.22 10.147.055 15.218.13 1.81.027 1.83.03 1.626 1.847zM3.386 123.929c-.176-.975-.187-1.961-.178-2.947-.132-2.345-.022-4.693-.058-7.039.013-1.226-.028-2.452.021-3.679.239-.206.483-.08.708.012 2.965 1.219 6.114 1.602 9.255 2.022 4.056.54 8.138.858 12.217 1.134 3.38.229 6.764.422 10.15.572 4.843.215 9.684.395 14.53.495.832.017 1.681-.186 2.498.141.494.532.12 1.229.351 1.81.383 1.687.655 3.406 1.449 4.974.038.068.073.14.096.216.088-.045.011-.096-.002-.136-.06-.204-.19-.377-.276-.572-.359-1.749-.676-3.502-.644-5.297.09-1.05.214-1.104 1.224-1.075 3.474.102 6.948.176 10.421-.048 1.792-.113 3.589-.006 5.382-.046 4.397-.097 8.79-.254 13.183-.459 3.107-.144 6.212-.328 9.309-.577 3.966-.316 7.929-.687 11.875-1.218 1-.134 2.001-.269 3.006-.364.831-.079.979.077.98.908.003 1.838-.003 3.676.005 5.514.001.27-.087.559.093.811l.348 8.809c.102.973.095 1.945.003 2.919-1.19.335-2.377.36-3.563-.018H94.63c1.978-2.373 3.118-4.891 3.725-7.744-.38.263-.468.608-.612.909-1.013 2.112-2.144 4.162-3.305 6.198-.234.41-.5.585-.992.58a978.27 978.27 0 0 0-11.102-.047c-.502 0-.743-.179-.952-.61a96.6 96.6 0 0 0-2.31-4.447c.141 1.814.913 3.386 1.893 4.896-.072.218-.272.135-.417.135-10.851-.025-21.701-.088-32.547-.456-.278-.009-.556-.051-.834-.078-.166-.152-.372-.092-.561-.094-5.238-.05-10.433-.623-15.623-1.249a574.23 574.23 0 0 1-8.667-1.117c-.569-.079-1.195-.035-1.625-.544-.493-.804-.588-1.77-1.07-2.745-.387 1.472-.094 2.701.524 3.948-1.34-.008-2.467-.153-3.409-1.305-1.468-1.798-2.772-3.665-3.72-5.79-.25 1.797.665 3.229 1.494 4.688.065.784-.526.56-.903.528-1.28-.109-2.553-.312-3.827-.485-1.829-.249-3.657-.491-5.499-.612-.577-.038-.893-.239-.812-.868.024-.18.067-.39-.093-.553zm202.73-14.536c.193.35.483.61.796.85.249.508-.181.378-.393.383-.828.017-1.658.003-2.487.009-.272.003-.552-.051-.819.059-2.017.024-4.034.055-6.052.072-7.512.061-15.025.12-22.538.173-.241.002-.496.076-.775-.104.326-.492.913-.785 1.184-1.537-.283.196-.442.26-.533.377-1.47 1.879-3.52 1.152-5.5 1.296.983-1.953 1.184-3.92.977-5.966-.177.703-.335 1.409-.532 2.105-.301 1.071-.642 2.132-.937 3.206-.14.513-.419.677-.96.675-4.093-.011-8.186.012-12.279.025-.166.001-.335.022-.502.034-1.365.17-2.734.295-4.113.233-.278-.013-.56-.021-.738-.288-.084-5.061-.168-10.124-.25-15.185-.001-.137.018-.276.027-.414-.123-.494.004-1.002-.065-1.495-.105-.73.274-.981.921-1.089 3.307-.548 6.628-.697 9.964-.357 1.812.184 3.639.212 5.452.236 2.691.035 5.376.237 8.067.212.427-.005.849.024 1.131.417.821 1.62 1.183 3.396 1.756 5.11.189-1.577-.298-3.066-.609-4.575-.231-.614.035-.89.642-.94.336-.03.672-.026 1.008-.026 3.728 0 7.456-.045 11.183.01 5.773.087 11.543-.106 17.312-.22 4.055-.08 8.118-.116 12.169-.417.959-.072 1.109.113.981 1.093.015.132.032.264.052.423.393-.305.424-.81.733-1.135.546-.598 1.317-.424 1.982-.497 1.221-.135 2.458-.128 3.69-.213 1.01-.069 1.221.243 1.13 1.255-.415 4.593-1.249 9.103-2.665 13.503-.256.797-.604 1.56-.833 2.366-.162.571-.485.812-1.102.755-.374-.035-.778-.115-1.147.081-2.312.245-4.637.261-6.954.393-.544.031-.422-.231-.325-.559.386-1.307.716-2.629.871-4.241-.655 1.246-.884 2.385-1.264 3.469-.161.457-.021 1.235-.496 1.322-.815.149-1.696.32-2.533-.156-1.18-.67-2.403-1.266-3.641-1.837.553.953 1.525 1.418 2.422 2.134-1.015.16-1.889.287-2.477-.702-.152-.255-.42-.441-.634-.659-.414-.275-.784-.603-1.159-.934.378.364.693.769.862 1.27zm-.836 20.902c-3.946.228-7.897.183-11.846.27-1.836.04-3.674.007-5.592.007.8-1.267 1.653-2.435 1.847-3.924-.733 1.138-1.474 2.273-2.195 3.419-.201.319-.367.575-.825.566-1.624-.026-3.249-.01-5.06-.01.535-.726.817-1.467 1.099-2.208.173-.178.12-.399.064-.587-.023-.072-.163.07-.255.094-.57.748-1.029 1.574-1.682 2.263-.284.302-.564.479-1.005.48-5.694.01-11.388.033-17.082.072-.473.004-.708-.165-.874-.583-.597-1.503-1.217-2.995-1.83-4.49-.101-.246-.109-.538-.44-.811-.001 1.591.491 2.968.963 4.353.168.493.761 1.074.503 1.404-.286.368-1.042.114-1.592.118-2.888.03-5.778.036-8.666.062-.401.005-.681.014-.683-.538-.018-4.93-.062-9.857-.099-14.786-.12-.436-.051-.881-.055-1.321-.008-.898.134-1.052 1.001-.932 2.013.282 4.032.525 6.051.78.339.043.791.053.627.627-.097.782-.463 1.528-.3 2.528l1.273-2.587c.301-.431.756-.444 1.209-.4 2.225.215 4.463.2 6.691.336 3.574.218 7.154.264 10.731.44 4.584.227 9.178.258 13.77.2.447-.006.896.001 1.344.006.482.004.879.151 1.121.593l.357.612c.439-.012.22-.359.22-.523-.002-.437.224-.594.606-.639.139-.015.279-.027.418-.025 3.109.041 6.214-.041 9.319-.166 3.577-.147 7.152-.321 10.721-.621 1.701-.143 3.398-.326 5.098-.481.763-.068 1.065.292.719.942-1.488 2.787-3.283 5.364-5.477 7.653-.136.098-.367.074-.432.231-.66 1.605-2.169 2.422-3.357 3.522-1.349 1.245-2.801 2.383-4.2 3.576-.32.274-.648.389-1.063.39-.379.002-.776-.11-1.142.088zm-174.755 5.004c-.093.441.17.754.4 1.085.151-.229.004-.548.233-.748.281-.434.704-.382 1.13-.324 3.642.492 7.286.957 10.943 1.323 3.013.301 6.03.529 9.049.767 3.773.299 7.558.361 11.33.633.085.006.17.014.253.011 3.591-.108 7.18.288 10.765.15 4.256-.164 8.516-.193 12.772-.423 5.633-.307 11.235-.877 16.829-1.54 1.495-.177 2.988-.454 4.473-.731.387-.072.78-.149 1.134.118l-.004-.008c.187.554-.088 1.149.159 1.696.314 2.653.619 5.309.95 7.96.087.692-.376.533-.738.532-4.207-.026-8.413-.059-12.62-.085-1.003-.007-2.004-.001-3.157-.001.907-1.183 1.947-2.092 2.325-3.466-.914.975-1.848 1.932-2.73 2.934-.329.372-.658.517-1.15.516-8.528-.031-17.053-.19-25.578-.384-.497-.01-.838-.167-1.143-.551-.328-.413-.717-.782-1.098-1.15-.142-.137-.292-.448-.53-.243-.196.171-.001.426.114.599.26.388.555.753.834 1.126-2.131.617-3.748.042-5.125-1.829-.535-.727-.892-1.542-1.21-2.379-.064-.17-.088-.438-.342-.397-.254.04-.207.305-.2.485.048 1.408.656 2.565 1.63 3.559.15.154.386.237.453.565-2.584-.101-5.146-.172-7.703-.309a959.06 959.06 0 0 1-13.019-.767c-4.831-.322-9.656-.751-14.478-1.21-.866-.082-1.424-.354-1.834-1.148-.571-1.107-1.279-2.146-2.048-3.412.115 1.737.95 2.933 1.717 4.161-1.457.255-2.063-.009-2.843-1.144-.694-1.013-1.427-2-2.143-2.998-.128-.18-.264-.439-.517-.261-.266.187.064.316.128.468.555 1.314 1.363 2.476 2.387 3.749-4.304-.491-8.43-.961-12.557-1.433-.652-.184-1.336.072-1.985-.142l-.018-.024c-.256-.16.016-.452-.162-.63-.303-1.51-.653-3.01-.898-4.529-.331-2.041-.755-4.073-.822-6.15.107-.61.506-.254.738-.175.922.313 1.798.746 2.718 1.07 1.05.373 2.148.591 3.186 1.002 2.214.463 4.396 1.064 6.616 1.51 4.056.815 8.134 1.496 12.216 2.171.412.068.835.107 1.17.401z"/><path fill="#E6E7EC" d="M179.838 135.25c-.012-1.073.305-2.089.551-3.117.08-.334.271-.464.6-.437.112.008.224.001.336.001 8.139.024 16.277-.039 24.412-.267.582-.017.91.128 1.157.676.292.647.711 1.239 1.135 1.822.073-.908-.428-1.64-.714-2.524l5.852-.223c4.937-.185 9.867-.447 14.79-.842.492-.04.697.079.788.575.255 1.396.626 2.773.622 4.239.842-.772.855-2.673.057-4.838.815-.246 1.668-.145 2.487-.289.261-.045.32.123.401.317.173.414.449.759.858 1.103.241-.547-.005-.985-.202-1.491.865-.093 1.702-.15 2.527-.284.607-.1.708.102.635.657-.399 3.097-.852 6.184-1.547 9.232-.085.37-.454.81.16 1.136.107.057.09.396-.255.466-2.604.521-5.169 1.23-8.014 1.621.833-1.091 1.113-2.278 1.553-3.401.079-.202.421-.55.036-.701-.295-.116-.291.317-.401.51-.509.893-1.099 1.757-1.473 2.705-.473 1.2-1.389 1.261-2.458 1.243.356-1.125.734-2.202.725-3.417-.577 1.022-1.232 2.012-1.699 3.082-.214.488-.459.602-.896.653-5.406.635-10.833 1.053-16.269 1.35-6.445.353-12.898.503-19.351.648-.691.016-1.2-.156-1.508-.787 1.233-.923 2.607-1.62 3.906-2.434 3.791-2.375 7.592-4.733 11.329-7.407-1.419-.022-2.725.166-4.034.26-2.259.16-4.518.33-6.78.448-2.711.141-5.423.226-8.135.323-.409.015-.848.088-1.209-.212a.373.373 0 0 1 .028-.396z"/><path fill="#ECE0BC" d="M129.774 124.08c.231 7.667.542 18.112.872 28.556.02.587-.064.829-.743.826-5.667-.025-11.334-.008-17.001-.013-.322 0-.783.167-.735-.47.173-2.3-.431-4.541-.545-6.822-.286-5.731-.66-11.459-.963-17.19-.553-10.495-.627-20.999-.673-31.503-.011-2.591-.11-5.182-.207-7.771-.019-.524.114-.656.635-.656 6.004-.005 12.008-.023 18.012-.07.637-.005.643.272.652.743.206 10.531.424 21.061.696 34.37zm18.982-2.975c.051 9.974.36 19.943.832 29.905.008.167.027.335.023.501-.016.6.4 1.399-.022 1.739-.378.307-1.174.121-1.787.125-5.188.023-10.378.029-15.568.074-.654.006-.911-.095-.914-.836a2059.548 2059.548 0 0 0-.788-48.132c-.137-4.985-.233-9.973-.809-14.933-.05-.432.04-.582.505-.59 5.945-.095 11.891-.2 17.837-.329.617-.013.585.295.581.718-.119 10.587.041 21.172.11 31.758z"/><path fill="#E6E7EC" d="M109.836 135.619c-2.065.304-4.126.627-6.195.907-1.709.232-3.423.426-5.138.611-2.131.229-4.265.438-6.397.643-.89.085-1.781.084-2.674.165-1.724.156-3.47.057-5.193.22-2.353.22-4.711-.017-7.05.181a40.873 40.873 0 0 1-5.955.092c-2.55-.16-5.1-.008-7.64-.145-2.428-.132-4.86-.176-7.281-.345-3.335-.233-6.67-.464-10-.771-2.885-.268-5.762-.597-8.642-.891-1.88-.191-3.748-.512-5.619-.788a1.442 1.442 0 0 0-.893.137 27.32 27.32 0 0 1 .351-4.488c.066-.406.197-.681.755-.642 8.202.596 16.419.867 24.64 1.047.19.005.38.03.643.05-.68 1.716-1.167 3.412-1.103 5.238.405-.051.355-.374.425-.578.46-1.316.927-2.629 1.323-3.966.166-.558.41-.777.998-.71.496.057 1.002.012 1.52.012-.043.457-.213.831-.04 1.247.065-.047.163-.081.17-.128.163-1.126.921-1.111 1.843-1.097 13.021.181 26.04.05 39.055-.373.717-.023 1.01.166 1.207.862.375 1.322.885 2.607 1.411 3.885.119-1.655-.374-3.168-1.064-4.717.822-.203 1.656-.083 2.471-.17 1.045-.345 2.14-.025 3.196-.232.106-.022.219-.011.326-.046l.042-2.94.508 7.73z"/><path fill="#F9FAFE" d="M179.856 135.636c2.404.088 4.801-.168 7.205-.199 2.724-.037 5.448-.283 8.169-.481 1.579-.115 3.15-.316 4.726-.47.179-.018.433-.112.513.132.08.247-.188.297-.339.402-4.817 3.368-9.802 6.479-14.838 9.511-.182.11-.364.128-.558.137-.831-.906-1.346-2.027-2.141-2.979-.074 1.51.762 2.611 1.766 3.644-.259.246-.554.14-.812.142-6.928.077-13.856.136-20.784.225-.559.007-.844-.156-1.086-.661-.515-1.071-1.116-2.102-1.746-3.121-.007 1.361.651 2.513 1.274 3.863-2.796 0-5.454-.001-8.112.001-.701.001-1.405-.028-2.103.026-.586.045-.759-.139-.759-.734.006-3.537-.031-7.076-.049-10.613-.003-.556.017-1.112.028-1.667.336-.509.794-.297 1.207-.171 2.686.818 5.439 1.313 8.217 1.659 2.914.361 5.834.655 8.769.789 1.172.054 2.341.173 3.517.163.342-.003.678.048.86.402l.123.149c.283-.313.648-.409 1.057-.412 1.649-.009 3.298-.007 4.945 0 .341 0 .67.051.951.263z"/><path fill="#E6E7EC" d="M215.215 122.421c1.151-1.024 1.999-2.303 2.909-3.518a31.752 31.752 0 0 0 2.598-4.08c.099-.187.295-.397.141-.613-.174-.249-.451-.118-.695-.092-1.438.154-2.874.332-4.315.441-3.167.24-6.336.444-9.504.662a4.694 4.694 0 0 1-.336.012c-3.611-.005-7.217.289-10.829.167-.599-.021-1.151-.048-1.027.825.03.202-.065.42-.306.124.318-.686-.026-1.307-.254-1.908-.312-.824-.727-1.608-1.095-2.405.144-.186.328-.105.48-.107 9.231-.087 18.458-.315 27.673-.876.821-.049 1.143.208 1.333.941.428 1.651.762 3.311.851 5.016.014.26-.095.561.256.864.641-2.401.599-4.65-.711-6.879 1.071-.078 2.096-.159 3.12-.225a232.79 232.79 0 0 0 10.814-.946c.51-.055.682.012.696.564.143 5.829-.027 11.645-.6 17.449-.055.55-.247.735-.808.79-3.881.373-7.778.572-11.655.964-1.892.191-3.251-.51-4.521-1.702-.235-.221-.407-.532-.757-.63-.152.818.169 1.338 1.448 2.368-1.196.433-1.629.32-2.245-.688-.961-1.571-1.858-3.175-2.337-4.971-.153-.333.016-.764-.322-1.041l-.046-.041.023-.058c-.09-.141-.086-.276.021-.407zm6.23-12.527c.156-.219.402-.215.61-.172 1.007.206 1.288-.38 1.584-1.197 1.3-3.574 2.176-7.251 2.807-10.989.261-1.547.38-3.12.548-4.682.035-.326.065-.734-.458-.689-2.048.178-4.116.073-6.145.479.51-1.136 1.042-2.263 1.523-3.41.199-.477.564-.368.907-.37.501-.003 1.113-.153 1.474.076.424.27-.001.906.089 1.382.075.39.084.79.192 1.187.377-.675.463-1.406.484-2.136.012-.413.167-.515.549-.51.834.011 1.671-.014 2.506-.025.279.14.357.428.438.678.681 2.122 1.564 4.171 2.286 6.278.097.284.235.567.202.724-.373-2.31-.848-4.733-2.279-6.862-.153-.227-.547-.458-.176-.816 2.018.15 4.035-.04 6.053-.005.68.012.918.269 1.003.896.822 6.086 1.067 12.211 1.311 18.337.021.512-.14.667-.638.71-2.152.186-4.3.409-6.449.618-.511.08-1.239.293-1.469-.088-.29-.483.422-.867.697-1.294.202-.317.565-.525.628-.77-.572.7-1.241 1.488-2.089 2.111-.148.07-.293.189-.445.2-1.913.136-3.823.347-5.743.339zM65.717 94.332c-.149-.783-.674-.878-1.376-.847-3.333.145-6.66-.142-9.991-.193-2.93-.044-5.862-.217-8.793-.323-2.343-.085-4.684-.222-7.026-.334-2.98-.142-5.964-.288-8.94-.506a443.82 443.82 0 0 1-9.49-.78c-4.578-.437-9.135-.951-13.612-2.028-.271-.065-.537-.15-.808-.216-.313-.078-.77-.418-.652.335-.7-.05-.263.69-.62.878-.142-.59.227-1.094.282-1.652.03-.317.289-.195.455-.197 5.86-.072 11.718-.13 17.577-.215.553-.009.66.155.578.664-.085.54-.08 1.096.268 1.669.142-.588.337-1.168.411-1.764.102-.823.705-.575 1.142-.55.586.034.183.459.182.699-.002.457-.152.915.039 1.637.25-.736.475-1.236.582-1.76.098-.482.315-.622.796-.614 1.625.028 3.252.007 4.878.01 10.878.015 21.754.097 32.632.236.692.008.888.212.94.879.131 1.662.358 3.315.546 4.972zm43.277 1.405c-.129-1.572-.129-1.571-1.72-1.572-4.035 0-8.074.097-12.105-.029-4.002-.125-8.008.006-12-.181-3.025-.142-6.05.047-9.06-.155-2.156-.144-4.304-.107-6.456-.13-1.447-.019-1.243-.15-1.279 1.223-.012.426.17.892-.174 1.278.064-2.402-.082-4.786-.653-7.129-.104-.424.016-.509.43-.536.773-.049 1.347.04 1.421.995.028.358.15.757.476 1.053.123-.395.003-.745-.078-1.092-.21-.92-.217-.912.773-.898 9.198.137 18.395.28 27.593.388.695.008 1.044.217 1.31.846.482 1.147 1.057 2.254 1.655 3.355.047-1.472-.527-2.771-1.174-4.053.295-.202.578-.106.84-.106 3 .009 6.001.029 9.001.045 1.337.007 1.364.004 1.407 1.368.055 1.78-.042 3.557-.207 5.33zm110.611-2.38c.135-.892-.424-1-1.065-.838-.696.177-1.391.138-2.087.138-2.8.002-5.601.115-8.394.225-2.549.1-5.095.003-7.64.119-7.763.358-15.529.069-23.292.151-.53.006-.893.07-.817.704-.724-1.862-1.411-3.74-2.64-5.373.313-.215.597-.119.86-.116 3.955.033 7.911.097 11.866.102.837 0 1.539.107 2.049.825.102.145.279.238.525.28-.197-.312-.392-.624-.671-1.07 10.923.13 21.747.258 32.674.386-.573 1.474-.955 2.975-1.368 4.467zM108.98 119.082c-.288-.241-.171-.571-.174-.862-.016-1.783-.048-3.567-.005-5.35.016-.687-.222-.891-.869-.808-3.062.393-6.122.812-9.193 1.144-2.215.239-4.446.341-6.668.528a244.26 244.26 0 0 1-12.456.71c-1.367.044-2.74.03-4.105.13-3.357.245-6.728.005-10.078.198-3.337.191-6.667.038-9.999.126-.195.005-.394.011-.587-.016-1.037-.144-1.036-.147-1.132.906-.693-.527-.289-1.272-.39-1.917.034-.553-.02-1.111.04-1.662.046-.421.22-.697.716-.489 2.073.054 4.147.125 6.22.155 15.592.222 31.18.058 46.763-.507 1.848-.067 1.85-.064 1.868 1.788.018 1.975.033 3.95.049 5.926zm66.183-25.762c-.242-.053-.487-.156-.729-.151-2.853.054-5.697-.21-8.552-.202-2.619.01-5.255-.059-7.854-.352-2.603-.295-5.093.278-7.633.5-.646.056-.699.362-.673.866.025.47-.015.944-.028 1.416-.17-2.132-.333-4.263-.516-6.393-.048-.555.353-.395.611-.403 4.171-.135 8.339-.333 12.514-.311 1.905.01 3.81.05 5.713.01.68-.015 1.094.19 1.39.786.218.436.528.827.911 1.41.109-.905-.312-1.462-.501-2.15.926 0 1.781.009 2.638-.004.37-.004.55.202.7.493.753 1.459 1.441 2.946 2.009 4.485zm18.33 22.416c-.337-.289-.729-.343-1.166-.339-2.267.014-4.537.026-6.805 0-2.877-.035-5.757-.043-8.63-.181-3.01-.147-6.024-.196-9.03-.354-2.639-.137-5.293-.099-7.921-.45-.436-.057-.897-.081-1.314.149.348-.848.69-1.698 1.046-2.542.134-.317 1.219-.536 1.65-.308.418.221.041.525.015.785-.051.495-.214.979-.127 1.631.37-.638.532-1.23.575-1.823.038-.544.281-.61.741-.594 1.737.057 3.475.089 5.212.118 7.652.128 15.304.187 22.956.1.691-.009 1.04.183 1.31.83.426 1.021.986 1.988 1.488 2.978zM30.526 135.299c-2.194-.343-4.396-.638-6.58-1.039-4.234-.779-8.475-1.533-12.642-2.637-.294-.078-.602-.12-.847-.323.013-.106.113-.141.174-.208.285-.783.61-1.556.841-2.355.117-.409.296-.445.657-.386 4.015.656 8.053 1.141 12.102 1.522 2.204.208 4.412.385 6.716.584-.758 1.589-.456 3.224-.42 4.842zm142.253.338c-.277-.164-.582-.173-.893-.169-2.959.031-5.906-.248-8.842-.534-4.095-.4-8.185-.918-12.119-2.221-.276-.093-.487-.028-.716.081-.17-1.723-.17-1.73 1.514-1.672 7.255.245 14.51.443 21.77.516.183.002.367 0 .653 0-.688 1.337-1.368 2.559-1.367 3.999z"/><path fill="#BA7575" d="M134.928 82.095c.582-.656 1.222-.751 1.957-.819 1.8-.167 3.265.293 4.656 1.514 1.739 1.528 3.758 2.717 5.725 3.955.391.247.646.252 1.028-.026 2.241-1.63 4.392-3.373 6.506-5.157.692-.584 1.383-.876 2.274-.816.635.043 1.274.008 1.929.008-.038.325-.292.372-.463.486a59.076 59.076 0 0 0-7.094 5.618c-.282.261-.553.41-.954.418-2.27.044-4.539.116-6.809.174-.332.01-.668.053-.97-.166-2.514-1.816-5.073-3.568-7.785-5.189z"/><path fill="#AB6C6D" d="M234.172 142.362c-.362-.029-.567.229-.801.4-2.079 1.52-4.078 3.134-5.796 5.063-.167.188-.298.412-.618.247a161.099 161.099 0 0 0-6.412-3.124c2.483-.445 4.968-.722 7.592-1.272-.905.779-1.697 1.433-2.453 2.126-.271.249-.829.644-.593.883.36.365.705-.226 1.004-.452.575-.439 1.16-.898 1.624-1.448.858-1.01 1.92-1.537 3.213-1.774a12.315 12.315 0 0 0 3.48-1.207c.35-.183.451-.12.564.249.212.696.151 1.245-.387 1.82-1.222 1.303-2.363 2.681-3.545 4.02-.685.775-2.155 1.158-2.884.811-.513-.242-.547-.402-.066-.766 2.01-1.519 3.847-3.238 5.647-4.995.165-.161.41-.279.431-.581z"/><path fill="#BA7575" d="M41.616 86.9c-2.366-.09-4.704.21-6.964-1.098-3.068-1.777-6.316-3.247-9.554-4.882.508-.512 1.015-.763 1.7-.818 2.425-.19 4.539.315 6.567 1.827 2.48 1.85 5.251 3.306 8.037 4.692.095.047.214.07.214.28z"/><path fill="#E6E7EC" d="m215.215 122.42-.022.407c-.243.395-.117.81-.042 1.208.391 2.073 1.149 4.003 2.449 5.851-1.037.048-1.972.102-2.908.133-3.137.109-6.271.306-9.413.276.019-.02.04-.06.057-.059 1.755.151 2.725-1.178 3.84-2.12 1.737-1.469 3.505-2.906 5.136-4.502.378-.371.371-.976.903-1.194z"/><path fill="#BA7575" d="M84.13 147.61c.236-.45.571-.647 1.046-.593a.853.853 0 0 0 .168.001c2.61-.352 4.85.291 6.79 2.162.93.896 2.145 1.509 3.254 2.214 1.105.704 2.264 1.322 3.461 1.99-1.202 0-2.412-.081-3.606.02-1.678.142-3.071-.327-4.433-1.319-2.164-1.577-4.447-2.992-6.68-4.475z"/><path fill="#AC6C6D" d="M226.931 87.746c-1.326 0-2.583-.001-3.84.002-.45 0-.784-.223-1.124-.49-2.619-2.052-5.223-4.125-7.989-5.98-.582-.391-.385-.599.038-.865.698-.438 2.943-.273 3.59.258 2.81 2.305 5.7 4.51 8.724 6.535.204.135.453.224.601.54z"/><path fill="#E6E7EC" d="M3.248 110.247c-.008 1.216-.014 2.434-.02 3.65-.056.077-.112.074-.167 0-.086-2.281.033-4.56.104-6.839.01-.341.038-.501.47-.361 4.122 1.346 8.405 1.91 12.676 2.49 10.923 1.484 21.917 2.055 32.925 2.414.14.003.28-.012.419-.019.716-.016.995.3.83 1.016-.143.623.097 1.26-.017 1.888-.62.165-.881-.239-1.096-.699a.81.81 0 0 1-.055-.411c.155-1.553-.92-1.725-2.3-1.23-.967.348-1.808.469-2.688-.155-.476-.338-1.022-.266-1.52-.008-.737.383-1.43.429-2.114-.118-.422-.335-.884-.3-1.337-.038-.672.391-1.325.41-1.949-.1-.294-.238-.599-.281-.93-.079-.667.407-1.324.413-1.953-.077-.29-.227-.552-.175-.85-.009-.536.298-1.08.287-1.578-.09-.28-.21-.541-.269-.84-.058-.092.065-.204.091-.308.133-.645.256-1.111-.457-1.645-.355-.58.112-1.109.398-1.667-.016-.046-.035-.106-.101-.137-.089-.817.316-1.604-.137-2.399-.081-.4.029-.77.105-1.131-.115a.706.706 0 0 0-.398-.109c-1.503.034-2.974-.284-4.46-.403a81.416 81.416 0 0 1-3.988-.422c-3.421-.447-6.818-1.038-10.172-1.854-.691-.167-1.333.386-1.482 1.274-.05.297.016.622-.223.87z"/><path fill="#BA7575" d="M45.52 152.731c-1.506-.067-3.011-.138-4.518-.198-.346-.015-.552-.236-.775-.448-1.78-1.695-3.553-3.399-5.353-5.073-.376-.351-.325-.515.102-.688.052-.021.1-.053.149-.079.674-.338 1.347-.939 2.022-.942.714-.003 1.085.935 1.626 1.44 2.022 1.889 4.096 3.717 6.303 5.393.172.131.335.276.501.414l-.056.181zm26.156.468c-1.859 0-3.453-.001-5.047.001-.328 0-.583-.17-.838-.343a136.235 136.235 0 0 0-7.721-4.877c-.379-.221-.472-.343-.128-.712.897-.962 1.776-1.085 2.897-.376 3.283 2.075 6.607 4.08 10.055 5.877.19.099.374.207.782.43z"/><path fill="#B87474" d="M1.245 78.617c.142-.07.26-.214.448-.154-.137.569.387.43.581.434.957.017 1.571.53 2.205 1.176 2.478 2.538 5.086 4.936 8.245 7.021-1.779.08-3.355.148-4.93.217-.323.014-.495-.228-.703-.409-1.267-1.1-2.537-2.2-3.93-3.144-.209-.14-.447-.265-.531-.518a55.996 55.996 0 0 1-1.064-3.508c2.326 2.622 4.636 5.221 7.644 7.142-.107-.163-.192-.349-.326-.487-2.251-2.335-4.532-4.64-6.737-7.017-.284-.308-1.01-.053-.902-.753z"/><path fill="#BA7575" d="M58.05 146.564c-.52.366-1.031.75-1.566 1.097-2.39 1.557-4.787 3.104-7.183 4.653-1.453.939-2.561.743-3.672-.648 2.26-1.427 4.587-2.762 6.753-4.316 1.168-.837 2.27-1.284 3.691-1.048.62.103 1.272.018 1.908.018l.07.244zm13.255 5.508c2.09-1.255 4.262-2.381 6.185-3.857 1.279-.981 2.58-1.424 4.166-1.24.736.085 1.49.015 2.286.172-.39.236-.785.463-1.167.71-2.394 1.544-4.824 3.038-7.164 4.659-1.825 1.266-2.745.906-4.306-.444z"/><path fill="#AC6C6D" d="M213.193 80.24c-3.3 2.073-6.24 4.509-9.207 6.91-.763.617-2.517.329-3.131-.458-.235-.301-.011-.387.172-.502a56.522 56.522 0 0 0 7.541-5.697.98.98 0 0 1 .686-.253c1.313.003 2.627 0 3.939 0z"/><path fill="#BA7575" d="M67.544 86.963c-.53.381-1.127.1-1.689.168-1.712.209-3.16-.293-4.588-1.293-2.333-1.634-4.81-3.063-7.222-4.584-.174-.11-.495-.167-.415-.438.074-.254.352-.33.624-.326.924.01 1.85.015 2.773.023.394.004.675.242.968.456 2.621 1.913 5.321 3.707 8.132 5.333.456.264.891.583 1.431.677l-.014-.016zm32.511 66.442c2.819-1.54 5.522-3.156 8.052-5.045a36.66 36.66 0 0 0 1.574-1.255c.339-.284.735-.313 1.111-.215.41.106.195.516.262.788.371 1.506-.003 2.53-1.613 3.149-1.346.519-2.544 1.407-3.73 2.251-.205.145-.394.325-.667.325-1.663.003-3.326.002-4.989.002zM80.1 80.902h4.158c.238 0 .42.117.601.259 2.795 2.19 5.727 4.186 8.756 6.041.084.052.218.083.191.272-1.241 0-2.487.007-3.734-.009-.151-.002-.319-.103-.45-.2-3.025-2.208-6.192-4.205-9.37-6.188-.043-.028-.071-.082-.152-.175zm26.346.31c-3.081 1.845-6.02 3.823-8.745 6.114-.777.653-2.799.294-3.732-.645 2.639-1.59 5.098-3.412 7.782-4.917 1.562-.878 3.112-.53 4.695-.552z"/><path fill="#AF6F6F" d="M195.84 87.127c-.197.279-.496.216-.768.214-1.794-.015-3.588-.04-5.382-.058-.311-.003-.639.013-.869-.228-1.429-1.497-3.175-2.639-4.639-4.097-.325-.324-.321-.472.032-.758 1.201-.973 1.177-.968 2.421-.132 2.649 1.78 5.382 3.423 8.275 4.787.297.141.579.357.944.287l-.014-.014z"/><path fill="#B97575" d="M96.883 151.445a45.925 45.925 0 0 0 6.898-4.222c.184-.134.375-.247.611-.248h4.751c-.381.228-.672.404-.968.576-2.923 1.704-5.849 3.405-8.55 5.451-.155.117-.255.28-.492.099-.728-.556-1.475-1.088-2.25-1.656z"/><path fill="#BA7575" d="M12.34 86.015c2.818-1.792 5.445-3.726 7.982-5.783.18-.145.368-.245.607-.245 1.245.002 2.489.001 3.733.001.004.37-.152.406-.264.466a51.902 51.902 0 0 0-8.48 5.826c-1.577 1.327-2.474.86-3.578-.265zm160.203.955c1.86-1.324 3.718-2.65 5.58-3.97.684-.486 1.454-.88 2.052-1.453 1.455-1.394 3.21-1.12 5.023-1.087-.088.131-.115.214-.171.25-2.7 1.756-5.255 3.712-7.851 5.608-.837.612-1.674.946-2.713.843-.61-.06-1.231-.01-1.847-.01l-.073-.181z"/><path fill="#AC6C6D" d="M205.177 152.165c-.605.052-1.166.074-1.717.154-1.048.155-1.937-.117-2.838-.69-2.284-1.458-4.658-2.772-7.081-3.988-.591-.296-.552-.467-.056-.804.615-.418 1.303-.212 1.953-.315 1.137-.179 1.995.232 2.869.955a38.56 38.56 0 0 0 6.399 4.277c.161.085.384.104.471.411z"/><path fill="#B97575" d="M89.135 87.431h-3.93c-.354 0-.643-.167-.93-.346-2.2-1.38-4.393-2.773-6.61-4.125-.53-.324-.475-.503-.056-.873 1.436-1.268 1.42-1.278 2.934-.142 2.659 1.994 5.423 3.83 8.592 5.486z"/><path fill="#AC6C6D" d="m238.469 78.803.311.003c-.186 1.277-.695 2.459-1.087 3.676-.081.249-.28.406-.494.55-2.024 1.36-3.955 2.844-5.858 4.361-1.05.837-2.197.454-3.294.326-.56-.066-.205-.403.064-.578 2.348-1.531 4.548-3.263 6.807-4.915 1.216-.89 2.465-1.738 3.481-2.875.201-.226.202-.344.07-.548z"/><path fill="#BA7575" d="m49.125 80.416-2.868 2.526a44.867 44.867 0 0 0-3.599 3.511c-.34.374-.565.395-.96.069-.56-.46-1.183-.847-1.79-1.245-.334-.219-.337-.364 0-.595 1.754-1.207 3.378-2.578 4.994-3.959.17-.146.339-.304.58-.305 1.135-.004 2.27-.002 3.643-.002z"/><path fill="#B97575" d="M121.512 87.77c.014-.343.243-.384.388-.482 2.876-1.932 5.757-3.856 8.634-5.786.193-.13.389-.202.624-.201 1.141.004 2.283.001 3.415.001.063.246-.102.276-.214.335-3.27 1.72-6.455 3.577-9.332 5.913-.124.1-.291.206-.44.209-1.022.019-2.046.01-3.075.01z"/><path fill="#BA7575" d="M18.779 150.455c-1.5-.119-2.883-.486-4.284-.75-.721-.136-1.191-.402-1.608-1.095-.935-1.555-2.193-2.883-3.589-4.065-.23-.196-.458-.396-.753-.653.687-.36 1.304-.677 1.914-1.006.24-.129.409-.085.576.128 2.187 2.788 4.83 5.104 7.64 7.248.039.03.051.094.104.193z"/><path fill="#E5E6EB" d="M179.855 135.637c-1.961 0-3.922.002-5.883-.005-.367-.001-.726.013-1.07.153.449-1.32 1.22-2.486 1.803-3.743.134-.289.334-.398.657-.392 1.201.023 2.403.042 3.604.024.511-.009.518.178.41.596-.198.763-.172 1.547.003 2.311.06.257-.004.658.458.669l.018.387z"/><path fill="#AC6C6D" d="M237.308 79.678c-3.16 1.846-5.852 4.011-8.59 6.115-.111.085-.224.167-.332.255-1.379 1.104-1.399 1.094-2.648-.16-.258-.259-.224-.359.053-.551 2.477-1.717 4.947-3.443 7.411-5.176.272-.19.56-.219.871-.24 1.003-.067 2.005-.15 3.235-.243z"/><path fill="#B97575" d="M159.52 81.696c1.354-1.427 2.967-1.474 4.309-.149a58.004 58.004 0 0 0 6.447 5.493c-1.23-.005-2.417.307-3.585-.614-2.232-1.761-4.63-3.308-7.171-4.73z"/><path fill="#BA7575" d="M67.558 86.978c-.094-.248-.534-.388-.006-.762a155.389 155.389 0 0 0 6.188-4.595c.798-.628 1.589-.968 2.603-.846.49.06.995.01 1.501.01.027.356-.243.403-.402.52-2.228 1.64-4.421 3.331-6.474 5.181-1.084.978-2.223.748-3.423.475l.013.017z"/><path fill="#AC6C6D" d="M211.395 82.555c.025-.057.028-.091.047-.107.523-.419.994-1.056 1.584-1.194.619-.147.917.71 1.375 1.102 1.98 1.694 4.05 3.264 6.251 4.666.244.156.558.244.736.615-1.379 0-2.708 0-4.036-.002-.21-.001-.364-.13-.508-.267a97.53 97.53 0 0 0-5.449-4.813z"/><path fill="#E6E7EC" d="M157.655 114.62c-.413-.76-1.209-.431-1.787-.508-1.652-.218-3.311-.404-4.955-.687-.587-.103-.912.023-.849.708.041.44-.018.888-.033 1.333-.174-1.339-.036-2.687-.119-4.029 1.108-.365 2.22-.315 3.334-.033h5.764c.042.101.084.202.125.306-.723.866-1.068 1.904-1.48 2.91z"/><path fill="#AB6C6D" d="M214.738 145.474c-2.262 1.602-4.43 3.219-6.502 4.965-.491.413-.98.834-1.419 1.302-.292.31-.528.333-.863.104-.574-.395-1.164-.767-1.823-1.2 2.375-1.428 4.541-3.025 6.641-4.712.201-.163.451-.211.709-.228 1.085-.075 2.171-.154 3.257-.231z"/><path fill="#E5E6EB" d="m10.63 131.093-.175.207c-1.762-.315-3.422-.941-5.076-1.602-.469-.187-.891-.687-1.499-.377-.203-.866-.222-1.749-.308-2.685 1.599.357 3.137.7 4.676 1.041.191.043.384.077.577.113.66.121 1.511.035 1.927.417.419.385-.305 1.103-.284 1.718.014.395-.22.824.161 1.168z"/><path fill="#B97575" d="M11.298 142.35c1.148.164 2.297.32 3.441.507.134.022.264.195.359.325a47.74 47.74 0 0 0 6.59 7.355c.074.066.12.161.24.324-.913-.002-1.63-.108-2.341-.641-3.035-2.276-5.444-5.216-8.376-7.597l.087-.273zm43.526 7.469c.75-.588 1.396-1.076 2.02-1.589.248-.204.42-.156.656.023 2.34 1.784 4.833 3.333 7.397 4.917-.921 0-1.847-.064-2.762.016-1.095.097-2.011-.202-2.905-.818-1.357-.934-2.82-1.705-4.406-2.549z"/><path fill="#AC6C6D" d="M192.226 146.82c-1.753 1.141-3.508 2.281-5.26 3.424-1.007.658-2.082 1.237-2.996 2.004-.928.779-1.94.886-3.052.842-.411-.017-.756-.182-.848-.549-.086-.338.343-.375.558-.508 2.926-1.811 6.012-3.347 8.933-5.17.791-.494 1.743-.105 2.615-.245.018.067.033.135.05.202z"/><path fill="#B97575" d="M121.076 81.45c.115-.15.282-.168.452-.17h8.244c-.121.142-.157.22-.218.248-3.233 1.492-6.089 3.55-8.771 5.852-.533.458-.816.203-1.204-.12-.986-.817-.994-.81.059-1.477a57.596 57.596 0 0 0 4.995-3.547c.254-.201.536-.38.733-.758l-.905.316c-.758-.195-1.531-.052-2.296-.099-.375-.024-.779.07-1.089-.244z"/><path fill="#AB6C6C" d="M217.726 146.986c.071.429.454.544.761.712 1.555.849 3.204 1.466 4.911 1.94.26.073.552.073.806.333-.992.18-1.929.346-2.862.522-.414.077-.761-.036-1.108-.263-.961-.627-1.941-1.224-3.008-1.662-.247-.101-.484-.298-.933-.11 1.002 1.05 2.261 1.548 3.692 2.199-2.578.447-4.961.709-7.426.761l5.176-4.418-.009-.014z"/><path fill="#B97575" d="M52.905 80.45c-1.444 1.382-2.94 2.622-4.334 3.975-.44.427-.98.795-1.295 1.3-.994 1.592-2.475 1.216-4.102 1.132.574-.524 1.025-.925 1.464-1.34 1.56-1.477 3.09-2.986 4.495-4.61.278-.321.565-.481 1.005-.467.92.031 1.844.01 2.767.01zm62.685 7.22c-1.589 0-3.028.007-4.467-.01-.143-.001-.305-.13-.424-.237a32.8 32.8 0 0 0-5.974-4.313c.521-.401 1.001-.755 1.465-1.132.231-.187.382-.1.58.055 2.468 1.938 5.176 3.497 7.959 4.934.198.102.38.233.56.363.079.058.134.15.301.34zm44.143 65.638-.157.023c-1.699.251-3.137-.214-4.483-1.312-1.38-1.125-2.915-2.061-4.38-3.086-.369-.258-.686-1.509-.476-1.879.048-.083.17-.191.242-.181.789.112 1.581-.132 2.3.639 1.864 2.004 4.012 3.706 6.298 5.228.22.147.515.211.656.568z"/><path fill="#BA7575" d="M91.456 153.362c-1.088 0-2.175.007-3.262-.004-.19-.002-.406-.032-.564-.125-2.01-1.197-3.965-2.481-6.148-3.571.758-.615 1.425-1.151 2.086-1.696.178-.146.329-.171.513-.008 2.273 2.028 4.808 3.695 7.375 5.404z"/><path fill="#B97575" d="M91.103 84.765c1.955-.844 3.546-2.023 5.08-3.278.422-.343.835-.474 1.376-.458 1.388.038 2.779.012 4.185.1-2.72 1.038-5.015 2.697-7.222 4.489-1.021.83-1.01.843-2.09.08-.408-.287-.817-.572-1.329-.933zm-71.316-4.628c-2.672 1.583-5.227 3.328-7.585 5.344-.236.202-.432.22-.66.023-.042-.037-.09-.067-.136-.1-1.626-1.15-1.614-1.132.003-2.238 1.314-.898 2.61-1.821 3.882-2.775a2.368 2.368 0 0 1 1.627-.498c.94.04 1.884.01 2.826.01l.043.234z"/><path fill="#AF6F6F" d="M193.183 82.236c2.448 1.741 4.854 3.542 7.451 5.117-1.618-.011-3.223.286-4.793-.224l.013.015c-.098-.396-.462-.533-.75-.721-1.432-.94-2.875-1.86-4.315-2.788.486-.994 1.525-1.052 2.394-1.399z"/><path fill="#B67373" d="M168.209 146.995c1.277-.217 2.562-.072 3.844-.092.168-.003.365.139.502.265a80.157 80.157 0 0 0 7.017 5.704c.038.026.046.093.101.215-.905.066-1.748.203-2.585-.313a342.31 342.31 0 0 0-6.619-3.964c-.528-.308-.66-.517-.065-.882.296-.182.616-.374.8-.754-.163.011-.294.019-.426.029-.859-.037-1.749.306-2.569-.208z"/><path fill="#AC6C6D" d="M232.734 80.116c-.857.45-1.635.824-2.377 1.255-1.792 1.042-3.536 2.159-4.969 3.678-.228.241-.371.265-.617.067-.651-.52-1.313-1.027-2.031-1.586 1.685-1.032 3.281-2.053 4.716-3.3a.514.514 0 0 1 .308-.11c1.612-.005 3.222-.004 4.97-.004z"/><path fill="#AB6C6D" d="M218.815 145.078c-1.677 1.428-3.206 2.72-4.72 4.029-.612.528-1.256 1.042-1.768 1.659-.669.805-1.49 1.079-2.489 1.087-.691.005-1.381.098-2.086.154-.007-.328.241-.404.401-.529 2.489-1.936 4.994-3.856 7.473-5.803.485-.382 1.033-.389 1.579-.464.467-.065.941-.08 1.61-.133z"/><path fill="#B97575" d="M35.662 145.116c-.7.322-1.197.54-1.684.778-3.312 1.63-6.623 3.262-9.932 4.897-.665.33-1.715-.126-1.908-.843-.097-.363.24-.319.407-.391 3.267-1.391 6.556-2.738 9.802-4.177 1.03-.456 2.016-.473 3.315-.264zM22.473 82.592c.751-.514 1.392-.956 2.04-1.387.148-.1.265-.215.498-.03 2.92 2.308 6.271 3.856 9.652 5.349.098.043.19.102.3.163-.843.333-2.961.277-3.71-.092-2.51-1.236-5.004-2.502-7.602-3.55-.331-.135-.668-.258-1.178-.453zm119.301 5.037h-3.843c-.199 0-.399-.005-.552-.152-1.417-1.37-3.159-2.308-4.718-3.49-.085-.064-.146-.158-.222-.24.668-.462 1.258-1.131 1.963-1.285.744-.162 1.194.752 1.779 1.179 1.813 1.318 3.651 2.592 5.606 3.695l-.013.293zm38.644-7.151c-2.02 1.272-3.78 2.492-5.455 3.822a58.492 58.492 0 0 0-2.818 2.37c-.398.36-.657.459-1.118.068-1.259-1.062-1.269-1.023.057-1.926 1.639-1.117 3.291-2.217 4.871-3.412.87-.658 1.742-1.058 2.845-.93.442.05.894.008 1.618.008zm-14.004 6.645c-1.198 0-2.396-.002-3.592.002a1.11 1.11 0 0 1-.693-.247c-1.605-1.208-3.259-2.342-5.188-3.302.673-.521 1.239-1.037 1.882-1.431.467-.287.827.185 1.146.44a45.1 45.1 0 0 0 4.022 2.858c.819.516 1.655 1.008 2.483 1.511-.021.056-.04.113-.06.17zm-104.082-.101H58.88c-.226 0-.45-.017-.64-.158-2.087-1.554-4.315-2.882-6.703-4.097.51-.502.976-.934 1.411-1.397.34-.361.528-.066.757.124a43.294 43.294 0 0 0 6.568 4.494c.627.35 1.282.645 2.06 1.034zm15.609 60.08c-1.127.665-2.267 1.31-3.378 2.003-1.235.768-2.492 1.513-3.57 2.501-.173.159-.296.212-.502.085-.738-.447-1.483-.884-2.38-1.418 2.19-.898 4.059-2.049 5.886-3.269.302-.202.65-.138.983-.139l2.922-.001.04.238z"/><path fill="#E4E5EA" d="M20.701 127.123c1.436.345 2.91.441 4.367.646 2.475.35 4.955.67 7.436.973 1.683.205 3.373.366 5.06.539 2.076.212 4.15.434 6.227.613.835.072 1.68.03 2.52.059.294.01.624-.111.866.174-3.448.016-6.886-.227-10.326-.408-4.813-.254-9.62-.594-14.415-1.087-1.347-.139-1.348-.125-1.735-1.509z"/><path fill="#B97575" d="M119.096 87.694c-1.588.197-2.768-.114-3.922-1.018-2.338-1.83-4.926-3.3-7.566-4.67l-.711-.37c-.056-.225.097-.344.194-.353 1.199-.122 2.418-.49 3.514.398a77.631 77.631 0 0 0 8.491 6.013z"/><path fill="#AB6C6D" d="M217.734 147.001c.028-.048.048-.103.087-.141.609-.61 1.127-1.518 1.859-1.744.782-.244 1.472.709 2.217 1.11 1.914 1.029 3.843 2.026 5.989 2.868-1.307.443-2.423.708-3.693.198-2.12-.856-4.309-1.546-6.468-2.306l.009.015z"/><path fill="#B06F70" d="M177.66 150.36c.429.101.766-.134 1.1-.323 1.488-.839 2.995-1.65 4.436-2.562.846-.534 1.712-.779 2.692-.753.782.022 1.564.005 2.38.005-.111.275-.382.309-.589.41a59.51 59.51 0 0 0-7.797 4.621c-.319.224-.505.268-.765-.025-.442-.5-1.085-.798-1.442-1.387l-.015.014z"/><path fill="#B97575" d="M43.492 149.818c1.757-1.142 3.425-2.217 4.974-3.462.27-.218.53-.384.902-.362 1.223.074 2.447.129 3.933.204-.62.324-1.03.532-1.433.75-2.239 1.215-4.45 2.477-6.423 4.099-.215.177-.321.234-.538.031-.444-.42-.911-.814-1.415-1.26z"/><path fill="#BA7575" d="M74.574 84.586c.71-.572 1.34-1.074 1.963-1.588.198-.163.348-.222.566-.008 1.772 1.738 3.878 3 6.057 4.154.035.02.045.086.081.16h-5.259c-.215 0-.364-.115-.507-.255-.886-.882-1.733-1.807-2.9-2.463z"/><path fill="#B97575" d="M31.361 148.215c.913-.474 1.691-1.181 2.501-1.217.877-.04 1.236 1.122 1.88 1.699.646.575 1.211 1.236 1.828 1.846.595.587 1.211 1.154 1.792 1.812-1.38-.164-2.844.417-4.06-.905-1.126-1.226-2.519-2.196-3.94-3.235z"/><path fill="#AB6C6D" d="M207.964 80.33c-2.577 1.692-5.008 3.514-7.388 5.403-.377.299-.649.328-1.022.03-.475-.378-.986-.712-1.566-1.124 1.266-.7 2.461-1.333 3.625-2.017 1.13-.664 2.227-1.385 3.344-2.071.956-.588 1.998-.167 3.007-.22z"/><path fill="#B97575" d="M30.637 86.946c-1.446 0-2.891.008-4.336-.008a1.826 1.826 0 0 1-.73-.17c-1.823-.85-3.654-1.68-5.68-2.366.685-.482 1.279-.89 1.862-1.315.263-.191.464-.026.698.056 1.858.648 3.49 1.77 5.315 2.488.961.377 1.914.778 2.87 1.17v.145zm34.195-2.181c1.706-1.285 3.348-2.529 5-3.76.171-.126.398-.25.601-.256 1.02-.026 2.039-.013 3.108.17-.489.344-.983.68-1.465 1.034-1.732 1.268-3.52 2.467-4.983 4.057-.16.173-.245.273-.46.108-.592-.452-1.192-.897-1.801-1.353z"/><path fill="#AB6C6D" d="M190.385 149.035c.687-.467 1.261-.854 1.83-1.248.207-.143.393-.172.613-.019 2.429 1.698 5.003 3.162 7.605 4.641-1.534-.026-3.055.535-4.554-.491-1.657-1.134-3.488-2.01-5.494-2.883z"/><path fill="#B97575" d="M31.304 144.703c-2.818 1.235-5.619 2.368-8.276 3.817l-.22.123c-1.321.734-1.304.719-2.303-.392-.362-.406-.215-.497.195-.66 2.265-.893 4.495-1.87 6.663-2.982.276-.142.555-.265.878-.23l3.063.324zm135.905-61.296c1.664-.8 3.129-1.67 4.558-2.603.297-.194.617-.24.96-.237.995.006 1.989.002 3.174.002-.641.424-1.148.746-1.639 1.088-1.513 1.054-3.033 2.104-4.382 3.372-.208.196-.379.408-.693.118-.612-.566-1.25-1.103-1.978-1.74z"/><path fill="#B87474" d="M168.208 146.995c.851.139 1.743-.227 2.57.207-3.336 1.669-6.569 3.507-9.555 5.748-.601.452-.808-.234-1.179-.419-.706-.355-.547-.602.08-.93 2.432-1.276 4.781-2.697 7.118-4.135.303-.187.573-.46.966-.471z"/><path fill="#B97575" d="M44.122 80.565c-1.681 1.201-3.384 2.377-4.804 3.892-.24.256-.43.15-.655 0-.651-.433-1.717-.756-1.857-1.312-.164-.655 1.042-.918 1.5-1.507.911-1.167 2.11-1.51 3.551-1.328.735.09 1.49.015 2.236.015l.029.24z"/><path fill="#E5E6EB" d="M3.385 123.93c.097 1.058.748 1.134 1.694 1.22 2.889.266 5.76.725 8.64 1.095.302.039.7.182.8-.326l1.828 2.019c-4.203-.527-8.285-1.202-12.36-1.931-.369-.066-.542-.208-.545-.582-.005-.499-.037-.997-.057-1.495z"/><path fill="#AB6C6D" d="M204.433 80.28c-1.55.851-3.099 1.61-4.57 2.511-.31.19-.62.379-.924.578-1.545 1.018-1.713 1.002-3.124-.211-.259-.222-.299-.332.014-.537 1.073-.704 2.131-1.432 3.193-2.153.191-.13.397-.19.63-.19 1.594.004 3.187.002 4.781.002z"/><path fill="#B27071" d="M188.115 87.171c-1.444 0-2.885-.002-4.325.002-.28 0-.464-.156-.645-.337-.652-.65-1.315-1.29-2.103-1.777-.325-.2-.29-.336-.008-.533.663-.464 1.311-.948 1.972-1.415.171-.122.339-.306.552-.007 1.097 1.555 2.671 2.582 4.175 3.685.145.106.372.148.382.382z"/><path fill="#B97575" d="M110.121 87.656c-1.318 0-2.634-.006-3.951.004-.343.003-.575-.17-.807-.382-.85-.771-1.727-1.512-2.727-2.087-.382-.219-.445-.386-.036-.617.025-.013.046-.032.07-.047.576-.396 1.123-1.044 1.737-1.113.589-.068.987.776 1.503 1.183 1.355 1.071 2.801 2.014 4.211 3.06z"/><path fill="#AB6C6D" d="M209.961 145.924c-1.859 1.136-3.734 2.241-5.287 3.721-.816.778-1.277.604-2.012.07-.975-.709-1.004-.669.001-1.381.251-.178.548-.317.742-.544 1.768-2.067 4.199-1.846 6.556-1.866z"/><path fill="#B97575" d="M94.228 149.735c1.595-.813 2.975-1.753 4.398-2.621.39-.237.88-.093 1.324-.1a28.673 28.673 0 0 1 2.832.074 91.392 91.392 0 0 0-4.054 2.493c-.421.275-.917.48-1.252.835-.778.83-1.472.711-2.23.004-.259-.241-.592-.404-1.017-.685zm26.847-68.285c.991.003 1.983-.002 2.975.012.202.001.575-.14.41.332-2.092 1.275-4.23 2.483-6.072 4.12-.354.315-.557-.005-.787-.165-1.154-.805-1.14-.795-.036-1.615 1.182-.879 2.34-1.787 3.51-2.683z"/><path fill="#AB6C6D" d="M216.177 87.609c-1.121 0-1.961-.007-2.8.002a1.33 1.33 0 0 1-.922-.33 27.56 27.56 0 0 0-3.216-2.41c-.454-.286-.43-.484-.01-.773.528-.364 1-1.032 1.544-1.086.539-.052.894.76 1.339 1.182 1.228 1.164 2.537 2.234 4.065 3.415z"/><path fill="#AC6C6D" d="M227.004 80.203c-.862.46-1.622.844-2.358 1.271-.507.294-1.084.563-1.444.994-.693.831-1.218.635-1.941.038-.963-.797-2.031-1.469-3.21-2.303h8.953z"/><path fill="#B06F70" d="M193.184 82.235c-.108.118-.202.322-.326.341-.808.135-1.438.593-2.068 1.059-1.505-.805-3.005-1.615-4.515-2.406-.401-.21-.318-.363-.02-.58.238-.173.493-.25.784-.248.42.003.856.066 1.259-.022 2.052-.454 3.564.444 4.886 1.856z"/><path fill="#AA6B6C" d="M187.435 151.024c.707-.646 1.577-1.053 2.352-1.597.143-.101.3-.158.46-.03 1.572 1.26 3.369 2.166 5.115 3.151l-.025.294h-4.307c-.34.001-.553-.239-.81-.403-.886-.564-1.686-1.298-2.798-1.428l.013.013z"/><path fill="#B87474" d="M151.577 81.286c.877-.349 1.805-.263 2.745-.374-.059.4-.375.462-.582.61-2.003 1.429-3.926 2.953-5.656 4.703-.328.333-.525.384-.861.032-.344-.358-.757-.65-1.221-1.04 1.796-.87 3.328-2.014 4.838-3.185.281-.218.622-.388.749-.76l-.012.014z"/><path fill="#B97575" d="M69.023 80.852a30.87 30.87 0 0 0-4.471 3.3c-.2.176-.385.183-.601.032a49.659 49.659 0 0 0-1.523-1.033c-.394-.254-.215-.399.06-.589.778-.54 1.545-1.095 2.314-1.648.183-.132.368-.265.602-.266 1.187-.004 2.374-.001 3.56-.001l.059.205zm-53.973-.908c-.553.364-1.105.721-1.649 1.088-1.162.78-2.32 1.568-3.357 2.509-.342.31-.564.303-.917.006-1.246-1.048-1.257-1.033.04-1.944.07-.048.146-.089.204-.147 1.56-1.563 3.417-2.118 5.679-1.512zm-8.663 64.964c-.007.009.003-.02.023-.031 1.62-.908 1.604-.892 2.803.462 1.12 1.264 2.281 2.492 3.43 3.743-3.154.161-4.733-1.968-6.256-4.174z"/><path fill="#B87474" d="M18.408 145.939c1.432-.681 2.854-1.38 4.3-2.031.477-.214.996.022 1.493.069.691.063 1.38.144 2.272.24-1.12.479-2.067.864-2.997 1.289-1.095.502-2.186 1.019-3.183 1.699-.392.267-.602.181-.917-.113-.364-.341-.819-.586-1.233-.872l.265-.281zm138.996 4.636c2.349-1.066 4.459-2.212 6.544-3.412.853-.491 1.849-.142 2.831-.054-.511.254-1.026.502-1.531.764-1.916.992-3.802 2.039-5.531 3.328-.565.422-.977.533-1.488.001-.208-.215-.481-.369-.825-.627z"/><path fill="#B97474" d="M86.448 153.23c-2.794.562-5.206-.04-7.253-1.992.55-.384 1.142-.795 1.73-1.209.188-.133.347-.116.527.032 1.517 1.251 3.24 2.187 4.996 3.169z"/><path fill="#B97575" d="m65.518 148.68 2.731-1.739c.216-.139.447-.22.71-.219 1.329.002 2.659.001 3.99.001l.034.247c-.877.453-1.757.901-2.63 1.361-.395.21-.78.439-1.16.671-1.819 1.117-1.818 1.118-3.675-.322zm48.242-65.584a13.311 13.311 0 0 0 2.321-1.62c.219-.194.453-.315.75-.314 1.135.004 2.27.002 3.429.112-1.333 1.073-2.707 2.01-3.827 3.247-.163.18-.331.168-.516.042-.686-.468-1.372-.933-2.157-1.467zm-68.388 62.725h2.437c-.218.461-.56.551-.809.728-1.247.887-2.562 1.681-3.712 2.697-.19.169-.305.203-.47.026-.461-.498-1.156-.759-1.44-1.419-.015-.034.245-.188.38-.279.784-.527 1.57-1.053 2.355-1.578.372-.396.821-.242 1.26-.175zm-10.482 6.364c-1.077-.074-2.156-.144-3.233-.221a.92.92 0 0 1-.593-.279c-.747-.738-1.496-1.474-2.238-2.204.078-.092.091-.122.115-.134.624-.307 1.229-.798 1.88-.869.747-.08.943.857 1.445 1.286a56.672 56.672 0 0 1 2.624 2.421zm22.215-65.279c-1.489.068-2.962.331-4.288-.72-.777-.615-1.72-1.026-2.601-1.507-.32-.176-.437-.329-.104-.59.022-.017.04-.038.06-.058.957-1.007.955-1.004 2.087-.218 1.57 1.092 3.194 2.103 4.846 3.093z"/><path fill="#B87474" d="M95.555 80.98c-1.52 1.276-3.223 2.141-4.658 3.391-.175.153-.304.056-.441-.037L88.72 83.15c1.227-.549 2.248-1.218 3.216-1.97.264-.206.568-.203.878-.203.913.004 1.827.002 2.74.002z"/><path fill="#B67373" d="M167.822 149.693c.555-.368 1.015-.668 1.471-.974.155-.104.285-.14.438.018 1.763 1.824 3.941 3.069 6.315 4.389-1.312.065-2.38.235-3.416-.528-1.473-1.086-3.1-1.95-4.808-2.905z"/><path fill="#B97575" d="M151.589 81.274c-1.918.81-3.658 1.925-5.283 3.194-.585.457-.923.422-1.39-.019-.2-.189-.436-.341-.73-.568 1.157-.752 2.224-1.538 3.187-2.451a.473.473 0 0 1 .297-.133c1.302.028 2.604-.141 3.907-.01l.012-.013zm-15.149 6.362-3.014.143a.708.708 0 0 1-.539-.19c-.884-.852-1.825-1.636-2.957-2.346.552-.345 1.023-.627 1.482-.93.223-.148.411-.135.608.029 1.365 1.135 2.801 2.182 4.42 3.294z"/><path fill="#B87474" d="M161.355 86.99c-2.546.718-4.513-.29-6.32-1.995.404-.31.858-.652 1.307-1.002.221-.172.394-.107.592.057 1.362 1.126 2.883 2.02 4.421 2.94z"/><path fill="#B97575" d="M38.75 80.267c-.78.865-1.696 1.502-2.404 2.36-.2.241-.394.113-.591-.004-1.27-.755-2.543-1.51-3.972-2.356h6.967z"/><path fill="#B87474" d="M23.934 86.947H16.28c1.095-.776 2.057-1.46 3.02-2.14.193-.139.37-.058.543.048 1.29.796 2.682 1.38 4.09 2.092z"/><path fill="#B67373" d="M90.215 147.051h7.683c-1.505.712-2.835 1.273-3.918 2.243-.187.166-.364.042-.53-.069l-3.235-2.174z"/><path fill="#B87474" d="m4.318 79.25 6.783.443c-.846.507-1.6.933-2.328 1.4-1.418.908-1.412.916-2.656-.213l-1.799-1.63zm166.837 1.414c-1.487.752-2.795 1.39-3.987 2.227-.214.15-.413.153-.606-.026-.747-.698-1.582-1.307-2.332-2.2h6.925z"/><path fill="#AA6C6C" d="M231.844 87.922c1.992-1.333 3.676-2.711 5.334-4.158-.476 1.394-.773 2.844-1.645 4.082-.251.358-.557.45-.928.411-.855-.088-1.708-.205-2.761-.335z"/><path fill="#AB6B6C" d="M211.599 87.512h-6.651l-.071-.163c1.035-.763 2.071-1.528 3.109-2.289.086-.064.201-.125.295-.008.869 1.086 2.171 1.608 3.318 2.46z"/><path fill="#B87474" d="M155.582 149.129a16.119 16.119 0 0 0 3.57-1.867c.618-.425 1.291-.278 1.949-.303.53-.021 1.061-.005 1.607-.005-.034.349-.31.327-.487.404-1.688.756-3.342 1.571-4.786 2.742-.198.161-.339.26-.569.064-.398-.336-.811-.654-1.284-1.035z"/><path fill="#B97474" d="M170.932 153.196c-.377.005-.753.011-1.13.014-.521.036-1.097.312-1.459-.335-.791-.649-1.537-1.352-2.456-1.923.415-.477.985-.65 1.446-.977.202-.144.347-.069.501.095.993 1.066 2.274 1.761 3.44 2.604.563.611-.279.315-.342.522z"/><path fill="#AA6B6C" d="m197.602 146.485 7.069-.329c-1.262.865-2.465 1.429-3.304 2.458-.101.123-.249.09-.379.009-1.055-.668-2.11-1.333-3.386-2.138z"/><path fill="#B77373" d="M105.081 87.605h-6.56a5.712 5.712 0 0 1-.076-.149c1.016-.7 2.031-1.4 3.045-2.103.202-.14.361-.071.518.08.864.838 1.916 1.423 3.073 2.171z"/><path fill="#B77474" d="M155.604 153.359c-.833 0-1.667-.003-2.501.002-.306.002-.53-.145-.739-.34-.326-.307-.615-.688-.998-.893-1.136-.609-1.295-1.558-1.03-2.811 1.705 1.424 3.388 2.819 5.268 4.042z"/><path fill="#AF7171" d="M168.342 152.874c.409.445.963.269 1.459.336-1.218.23-2.45.114-3.677.132-1.421.021-2.843.005-4.321-.142 1.14-.659 2.282-1.315 3.421-1.975.304-.176.465.052.637.226.517.521 1.129.911 1.764 1.265.207.114.41.421.717.158z"/><path fill="#B87474" d="M53.338 150.803c.238-.163.58-.395.92-.63.17-.116.326-.199.523-.029 1.334 1.142 2.881 1.974 4.458 2.882-1.251 0-2.401-.003-3.551.001-.246.001-.425-.109-.58-.28l-1.77-1.944z"/><path fill="#B97575" d="M111.167 150.179c.128 1.054.24 1.984.355 2.914.039.311-.145.377-.403.377-1.452-.002-2.903-.001-4.381-.101 1.49-1.011 2.963-1.988 4.429-3.19z"/><path fill="#B77474" d="M125.773 87.733c1.296-.78 2.415-1.453 3.532-2.128.202-.122.364-.223.559.047.587.817 1.427 1.377 2.254 2.081h-6.345z"/><path fill="#B06F70" d="M177.674 150.347c-.57-.203-.947-.662-1.483-1.063 1.321-.713 2.571-1.416 3.661-2.364.254-.221.651-.085.983-.092a17.943 17.943 0 0 1 2.09.064c-1.143.636-2.345 1.144-3.415 1.875-.672.458-1.516.741-1.85 1.593l.014-.013z"/><path fill="#B57272" d="M71.207 87.04c.942-.687 1.884-1.373 2.822-2.064.199-.147.365-.248.55.027.601.896 1.543 1.437 2.417 2.216h-5.738l-.051-.178z"/><path fill="#B47272" d="M191.931 80.334h6.561c-1.261.683-2.536 1.07-3.488 1.997-.166.162-.307.047-.444-.042-.902-.596-1.802-1.193-2.703-1.79l.074-.165z"/><path fill="#B87474" d="m15.606 142.953 6.178.748c.004.347-.282.334-.47.391-1.092.335-2.216.591-3.16 1.279-.178.13-.28.101-.422-.029-.766-.711-1.537-1.416-2.306-2.124l.18-.265z"/><path fill="#B67474" d="M140.312 81.33h6.2c-.946.72-1.811 1.318-2.521 2.093-.131.144-.274.152-.442.04-1.034-.685-2.071-1.365-3.237-2.133z"/><path fill="#B57272" d="M179.496 146.909c-1.248.639-2.422 1.112-3.413 1.901-.18.143-.34.149-.528.01-.828-.605-1.661-1.203-2.641-1.911h6.582zM46.951 86.908c.85-.763 1.555-1.39 2.252-2.026.17-.153.325-.198.511-.038.932.803 2.034 1.347 3.282 2.064h-6.045z"/><path fill="#B67373" d="M45.372 145.821c-.424.034-.863-.036-1.26.176-.572-.227-1.048.129-1.404.408-1.49 1.169-2.728.927-3.86-.486-.135-.169-.332-.29-.473-.641 2.332.181 4.664.363 6.997.543z"/><path fill="#0A0A0B" d="M228.586 88.84c-.108.282.164.38.278.553 1.523 2.317 2.171 4.897 2.294 7.638-1.044-2.722-2.193-5.402-3.043-8.193.158 0 .315 0 .471.002z"/><path fill="#B37171" d="M182.85 87.112h-5.526c1.042-.718 1.932-1.326 2.813-1.946.239-.168.39-.104.567.094.578.644 1.236 1.207 2.146 1.852z"/><path fill="#B57272" d="m24.684 151.144 3.438-1.442c.18-.075.322-.036.422.143.394.708 1.003 1.25 1.656 2.005-1.951-.195-3.726-.37-5.5-.546l-.016-.16z"/><path fill="#B77373" d="M91.143 80.965c-.964.656-1.748 1.18-2.52 1.72-.208.146-.39.185-.61.047-.885-.555-1.771-1.104-2.835-1.767h5.965z"/><path fill="#B57373" d="M58.477 80.608h5.789c-.957.703-1.801 1.132-2.487 1.772-.174.162-.357.098-.535-.015-.889-.567-1.78-1.13-2.767-1.757z"/><path fill="#AA6B6C" d="M187.422 151.011c.436.856 1.371 1.156 2.112 1.83-1.872.155-3.653.184-5.487.039l3.389-1.857-.014-.012z"/><path fill="#B87474" d="M158.498 147.035c-1.111.625-2.145 1.061-2.959 1.83-.212.201-.358-.016-.499-.123-.689-.524-1.371-1.055-2.214-1.707h5.672z"/><path fill="#B47171" d="M67.4 146.647c-.748.678-1.654.988-2.356 1.62-.115.104-.257.085-.39.014l-2.976-1.634H67.4z"/><path fill="#B67373" d="M2.977 84.275c1.331 1.059 2.724 1.93 4.108 3.067-.93.135-1.713.1-2.46.308-.26.072-.404-.122-.492-.351-.383-1.009-.77-2.016-1.156-3.024z"/><path fill="#B57272" d="M10.526 142.305c-2.22.902-4.184 1.876-6.247 2.928.19-1.006.375-1.727 1.497-1.909.922-.15 1.812-.56 2.684-.929.617-.262 1.207-.367 2.066-.09z"/><path fill="#A86A6B" d="M235.409 143.997c.26.648.481 1.208.709 1.765.12.293-.082.405-.286.509-1.166.595-2.354 1.137-3.648 1.482 1.133-1.166 2.204-2.373 3.225-3.756z"/><path fill="#AF6E6E" d="M81.361 153.297H75.71c.981-.576 1.759-1.031 2.533-1.49.162-.095.306-.111.452.028.703.667 1.62.958 2.667 1.462z"/><path fill="#AD6E6E" d="M110.77 81.175h4.977c-.779.647-1.628.965-2.178 1.64-.11.135-.256.006-.37-.067l-2.429-1.573z"/><path fill="#B57272" d="M3.756 145.99c.767-.328 1.324-.568 1.883-.804.203-.087.385-.072.506.138.5.86 1.123 1.632 1.749 2.421-1.405-.368-2.678-.973-4.138-1.755z"/><path fill="#B77373" d="M152.229 87.106c.703-.532 1.362-1.023 2.012-1.525.209-.16.392-.19.58.018.527.585 1.244.921 2.041 1.507h-4.633z"/><path fill="#AB6C6C" d="M54.508 152.925h-4.462l-.052-.164c.802-.46 1.602-.923 2.407-1.378.225-.126.368.033.498.184.441.508.995.888 1.609 1.358z"/><path fill="#A26C6C" d="M8.367 141.959c-1.162.374-2.15.694-3.139 1.009-.05.017-.146.027-.158.005-.27-.463.093-.877.12-1.321.01-.15-.073-.485.346-.374.872.235 1.755.425 2.831.681z"/><path fill="#272728" d="M50.412 114.55c-.214-.695-.285-1.428-.125-2.116.148-.644-.075-.821-.633-.852 1.478-.015 2.96-.194 4.427.137-.346.012-.545.097-.501.532.054.543-.002 1.097-.01 1.646-.448-.065-.337-.439-.388-.713-.065-.35.073-.724-.12-1.06-.37-.268-.795-.16-1.201-.173-.366-.011-.544.184-.598.538-.09.567-.176 1.137-.386 1.679-.107.184-.184.407-.465.382z"/><path fill="#313132" d="M227.633 109.355c.6-.972 1.471-1.689 2.336-2.419-.354.911-1.061 1.579-1.672 2.4.553.208 1.075-.072 1.568.06-.749.259-1.494.311-2.232-.041z"/><path fill="#AB6C6C" d="m150.324 151.849 1.71 1.396c-1.804.39-1.976.257-1.71-1.396z"/><path fill="#262627" d="m153.246 111.404-3.334.033.005-.442c1.617.017 3.234.037 4.851.055-.436.424-1.091-.091-1.522.354z"/><path fill="#E6E7EC" d="M3.06 113.897h.167l-.02 7.085c-.235-2.357-.204-4.721-.147-7.085z"/><path fill="#4E4F50" d="M109.285 130.83c-1.15.381-2.338.308-3.521.278l.004-.318c1.174-.115 2.345-.014 3.517.04z"/><path fill="#282829" d="M206.118 109.394c-.498-.488-.934-1.021-1.227-1.68.596.345 1.126.766 1.524 1.343-.22.007-.268.162-.297.337zm-2.903 1.301c1.064-.169 2.139-.086 3.207-.158.188-.014.556.174.492-.294.189.018.337.114.311.307-.022.16-.197.171-.338.169-1.223-.016-2.449.103-3.672-.024z"/><path fill="#A26C6C" d="M5.6 139.999c.195.175.181.402.163.63-.152.088-.276.401-.439.24-.135-.134-.235-.466.127-.618.073-.031.101-.165.15-.252z"/><path fill="#323334" d="M182.518 127.923c.109-.246.198-.507.526-.643.01.44-.015.826-.335 1.136-.026-.18.026-.388-.191-.493z"/><path fill="#AF7171" d="M170.932 153.197c.069-.203.579-.123.342-.523.281.058.52.193.818.463-.427.128-.792.107-1.16.06z"/><path fill="#A26C6C" d="M5.781 140.653c.665 0 1.339-.116 1.985.143-.664-.013-1.34.139-1.985-.143z"/><path fill="#E6E7EC" d="M109.992 137.308c-.356-.538-.152-1.127-.159-1.697.186.554.172 1.125.159 1.697zm105.225-14.381c.806.134.145.715.322 1.041-.18-.325-.331-.659-.322-1.041z"/><path fill="#0A0A0A" d="M31.365 56.228c-4.603 2.916-8.962 6.165-13.217 9.558-2.182 1.741-4.35 3.494-6.291 5.503-.286.005-.345-.113-.194-.347.412-.49.784-1.021 1.244-1.461C18.372 64.248 24.425 59.79 31 56.03c.216-.103.374-.105.365.198z"/><path fill="#080808" d="M112.628 64.93c-2.205-6.159-4.074-12.412-5.213-18.862-.038-.21-.144-.431.059-.695.261.199.288.501.362.767 1.542 5.556 3.085 11.113 4.621 16.67.143.515.084 1.084.409 1.552.038.238.226.537-.238.568z"/><path fill="#0F0F0F" d="M131.574 6.468c-4.508-.672-9.05-.759-13.603-.6 4.587-1.257 9.107-.778 13.603.6z"/><path fill="#111112" d="M107.292 57.202c-.978-4.542-1.822-9.105-1.98-13.767 1.084 4.25 1.548 8.6 2.153 12.927.041.3.264.637-.173.84z"/><path fill="#0C0C0D" d="M29.508 61.071c-3.182 2.173-6.358 4.355-9.86 6.014 2.867-2.524 6.18-4.37 9.497-6.208.21-.097.369-.105.363.194z"/><path fill="#0D0D0D" d="M57.783 38.38c1.663-3.365 3.646-6.49 6.545-8.948-.038.63-5.13 7.585-6.545 8.948z"/><path fill="#101010" d="M52.75 76.677c-2.438.289-6.825-2.13-7.943-4.466 1.254.844 2.49 1.713 3.765 2.523 1.296.822 2.656 1.53 4.178 1.943z"/><path fill="#0E0E0E" d="m121.604 70.752.323.606c-.533-.043-.756-.495-1.146-.657-1.093-1.231-2.205-2.451-2.941-3.942-.225-.457-.544-.907-.399-1.63 1.631 1.797 2.665 3.884 4.163 5.623z"/><path fill="#121212" d="M113.953 61.122c1.37 2.388 2.32 4.959 3.477 7.575-1.31-.91-3.493-5.665-3.477-7.575z"/><path fill="#131313" d="M144.426 30.075c.482-1.791 4.176-4.866 6.032-5.114-2.118 1.592-3.957 3.322-6.032 5.114z"/><path fill="#151515" d="M46.474 75.29a27.322 27.322 0 0 1-6.95-4.769c.44-.21.612.09.82.223a117.06 117.06 0 0 1 5.99 4.102c.15.11.326.19.489.283-.007.287-.179.222-.349.161z"/><path fill="#121212" d="M146.497 25.069c-1.478 1.66-2.954 3.322-4.431 4.984-.149.165-.297.333-.459.487-.136.13-.298.152-.442.007-.125-.125-.051-.255.022-.374.043-.072.092-.14.145-.205a35.62 35.62 0 0 1 4.851-5.031c.172-.114.299-.122.314.132z"/><path fill="#111" d="M67.44 30.378a28.596 28.596 0 0 1-4.856 5.22c1.216-2.104 2.722-3.946 4.856-5.22z"/><path fill="#292929" d="M103.272 46.73c.741 2.547 1.006 5.162 1.113 7.797-.643-2.559-1.128-5.142-1.113-7.797z"/><path fill="#1C1C1D" d="M130.008 7.982c-2.526.126-5.051.199-7.553-.293 2.533-.338 5.047-.117 7.553.293z"/><path fill="#343435" d="M120.076 56.712c-1.054-2.01-2.082-4.034-2.799-6.2 1.147 1.87 2.102 3.838 2.991 5.84.082.196.109.365-.192.36z"/><path fill="#252526" d="M55.523 76.84c-1.837-.45-3.473-1.207-4.652-2.68l.134-.21 4.518 2.89z"/><path fill="#4F4F50" d="M59.235 32.772c-1.338 1.748-2.819 3.365-4.364 4.96.249-.915 2.771-3.825 4.364-4.96z"/><path fill="#222223" d="M148.896 28.868c.455-1.135 2.468-2.834 3.784-3.227-1.219 1.184-2.314 2.298-3.784 3.227z"/><path fill="#414142" d="M30.678 63.565c-1.08.962-2.213 1.859-3.483 2.585.903-1.15 2.108-1.953 3.299-2.77.18-.054.22.028.184.185z"/><path fill="#202021" d="M131.091 10.17c-1.308-.074-2.541-.015-3.792-.407.723-.438 2.798-.21 3.792.407z"/><path fill="#4A4A4B" d="M31.365 56.228c-.059-.18-.228-.16-.365-.198 1.059-.77 2.257-1.27 3.456-1.776-.985.732-1.981 1.44-3.091 1.974z"/><path fill="#6D6D6F" d="M120.076 56.711c.197-.05.158-.224.192-.36.599 1.052 1.033 2.175 1.445 3.31a16.757 16.757 0 0 1-1.637-2.95z"/><path fill="#4D4D4F" d="M67.973 33.112c.255-.724.572-1.41 1.332-2.042-.18.91-.43 1.284-1.332 2.042z"/><path fill="#323333" d="M112.627 64.928c.253-.117.168-.374.238-.567.36.726.487 1.511.679 2.28l-.222.08-.695-1.793z"/><path fill="#7A7B7D" d="M107.293 57.203c.312-.228.031-.577.173-.84.291.753.18 1.549.282 2.324-.235-.476-.467-.946-.455-1.484z"/><path fill="#4F5051" d="M29.51 61.071c-.058-.181-.23-.154-.364-.194.462-.422 1.054-.574 1.625-.785-.356.42-.745.782-1.261.98z"/><path fill="#555657" d="M11.662 70.942c.018.14.008.298.193.347-.164.35-.409.624-.837.831.028-.545.309-.876.644-1.178z"/><path fill="#525254" d="m46.473 75.29.348-.16c.308.075.497.304.79.56-.479-.062-.845-.128-1.138-.4z"/><path fill="#8F9092" d="m30.677 63.565-.185-.187c.288-.306.64-.495 1.269-.717-.438.462-.726.72-1.084.904z"/><path fill="#616163" d="M146.495 25.07c-.104-.044-.208-.09-.313-.133.234-.212.465-.43.898-.514-.159.32-.285.552-.585.646z"/><path fill="#080808" d="M191.775 43.428c2.13 3.417 3.703 7.092 4.876 10.953-1.931-3.508-3.899-7-5.256-10.778l.38-.175z"/><path fill="#111" d="M204.991 75.502c-3.265-.705-6.273-1.91-8.772-4.158 3.002 1.235 5.821 2.849 8.772 4.158z"/><path fill="#101111" d="M212.252 76.168c-2.742-.11-5.097-1.156-7.109-3.006 2.459.776 4.675 2.137 7.109 3.006z"/><path fill="#131314" d="M197.006 45.745c1.401 2.213 2.166 4.674 2.81 7.182-1.279-2.261-2.367-4.597-2.81-7.182z"/><path fill="#1C1D1D" d="M192.001 51.008c-.968-1.486-1.77-3.065-2.572-4.641-.363-.714-.668-1.457-.999-2.185-.073-.182-.146-.364.176-.348 1.33 2.08 2.382 4.302 3.408 6.54.045.098.101.193.153.288.068.174.123.342-.166.346z"/><path fill="#111" d="M203.297 52.734c-1.208-1.474-2.131-3.094-2.633-5.035.909.36 2.468 3.357 2.633 5.035z"/><path fill="#151516" d="M209.807 72.662c1.781.473 3.31 1.408 4.823 2.376-1.862-.286-3.485-1.061-4.823-2.376z"/><path fill="#59595B" d="M188.606 43.834c-.181.055-.134.223-.176.348-.276-.347-.351-.764-.526-1.325.428.332.645.597.702.977z"/><path fill="#58595B" d="m192.002 51.007.166-.345c.269.34.42.726.491 1.228a1.704 1.704 0 0 1-.657-.883z"/><path fill="#E6E7EC" d="M50.412 114.55c.097-.107.195-.213.291-.321.473-.426.713-.965.79-1.59.03-.246.09-.51.288-.672.266-.219.725-.267.68.124a6.227 6.227 0 0 0 .219 2.477c.02.069-.078.139-.143.191-.7-.008-1.401-.012-2.102-.024-3.188-.056-6.38-.047-9.564-.191-2.453-.111-4.907-.195-7.359-.332-2.81-.157-5.62-.327-8.43-.509-3.108-.2-6.214-.479-9.31-.825-3.538-.394-7.081-.791-10.517-1.795-.706-.206-1.344-.547-2.009-.837-.321-.971.378-1.644.745-2.403.116-.238.452-.138.698-.07 3.63 1.005 7.353 1.538 11.071 2.052 1.079.149 2.196.584 3.326.186.476.874 1.485-.292 1.98.511.688-.252 1.334.111 1.97.12.473.007.971.187 1.27.142.841-.124 1.566.031 2.33.256.197.058.358-.105.485-.269.219-.285.359-.238.546.073.354.586.891.532 1.326.15.383-.335.579-.308.864.08.372.504.91.457 1.307.107.434-.386.653-.316 1.02.076.433.461.994.475 1.48.031.374-.341.634-.3.977.064.508.54 1.08.56 1.686.075.418-.336.87-.347 1.243.112.468.578 1.073.48 1.567.161.675-.439 1.207-.508 1.824.088.477.46 1.078.384 1.617.058.735-.443 1.454-.411 2.09.136.366.314 1.675.379 2.063.057.722-.6 1.585-.414 2.294-.206.572.168.583.966.498 1.554-.105.725.567.798.889 1.163z"/><path fill="#070708" d="M53.241 111.89c.428.616-.087 1.387.328 2.006.112.625-.06 1.272.145 1.891.054 1.785.317 3.543.715 5.283.057.231.207.499-.215.545-.897-1.564-1.172-3.31-1.494-5.044-.047-1.24-.234-2.479-.04-3.718.058-.377.132-.782.561-.963z"/><path fill="#E6E7EC" d="M53.242 111.891c-.555 1.203-.532 2.485-.525 3.765 0 .306.002.61.004.916-.354-.575-.07-1.214-.184-1.813.007-.109.064-.267.012-.322-.64-.672-.451-1.429-.248-2.19.04-.143.065-.278-.127-.316-.164-.032-.27.078-.31.211-.101.339-.256.686-.25 1.027.01.658-.355.921-.91 1.06.093-.737.378-1.448.324-2.206-.014-.203.053-.328.263-.308.65.062 1.325-.135 1.95.176z"/><path fill="#515152" d="M54.215 121.617c.266-.106.134-.367.215-.545.212.333.314.695.325 1.112-.342-.068-.45-.309-.54-.567z"/><path fill="#040403" d="M113.69 90.66c3.725-.211 7.447-.127 11.17.094.74.044.96.392.966 1.048.012 1.7-.065 3.394-.326 5.075-.035.22-.173.483-.096.65.287.624-.194.66-.541.694a83.882 83.882 0 0 1-10.643.312c-.541-.017-.766-.205-.864-.74-.352-1.923-.584-3.856-.472-5.81.025-.442-.142-1.013.429-1.306.378.243.425.624.444 1.024.08 1.72.249 3.436.175 5.163-.004.083-.011.167.003.25.036.224-.066.567.339.53.34-.032.465-.29.427-.605-.069-.58-.067-1.167-.158-1.744-.152-.968-.089-1.942-.08-2.913a1.1 1.1 0 0 1 .026-.25c.077-.314.072-.745.477-.781.352-.031.45.352.561.638.135 1.384.31 2.765.26 4.161-.011.305-.026.615.06.914.075.264.281.33.522.315.237-.016.384-.168.331-.39-.41-1.723-.045-3.5-.38-5.224-.515-.282-1.079-.367-1.646-.449-.43-.063-.934-.027-.984-.656z"/><path fill="#030302" d="M125.839 100.841c.227.59.158 1.21.151 1.815-.078 6.015-.091 12.029.026 18.043.009.525-.127.737-.656.92-.976.339-1.97.41-2.975.454-2.799.12-5.597.209-8.401.06-.394-.021-.426-.204-.423-.44.065-5.131-.503-10.229-.764-15.342-.007-.137.016-.275.025-.414-.136-1.13-.032-2.265-.057-3.397-.004-.2-.104-.486.203-.554.284-.061.355.203.457.396.038.073.069.151.105.225.412 1.315.408 2.69.541 4.039.408 4.152.657 8.313.546 12.488-.012.446-.008.892-.053 1.334-.029.29-.026.567.332.667.642.092 1.279.107 1.91-.073 2.256-.388 4.532-.197 6.8-.235 1.249-.021 1.203-.006 1.143-1.194-.208-4.197-.387-8.395-.079-12.598.083-1.137.06-2.282.058-3.424.053-.665.181-1.323.174-1.996-.003-.309.07-.611.345-.817.207-.113.402-.079.592.043z"/><path fill="#030303" d="M115.877 126.422c3.621-.431 7.252-.65 10.9-.447.65.035.921.371 1.002.984.217 1.664.203 3.334.133 5.003-.196 4.702-.404 9.403-.607 14.104-.008.195-.005.39-.005.584-.155.292.039.637-.149.923-.324.226-.574.188-.678-.218-.069-.263-.109-.535-.211-.791-.399-1.594-.277-3.225-.161-4.817.127-1.722.141-3.446.233-5.166.157-2.94.385-5.881.396-8.83.004-1.014.001-1.013-1.024-.933-.417.033-.843-.004-1.248.138-1.899.169-3.793.426-5.707.391-.672.001-1.344-.014-2.017-.005-.438-.006-.878.017-1.315-.021-.268-.024-.607-.032-.605-.402.004-.359.31-.389.6-.396.159-.004.332.039.463-.101z"/><path fill="#030303" d="M115.876 126.422c-.194.379-.996-.01-.878.498.097.418.732.117 1.122.181.19.032.39.005.586.005.067.078.128.159.182.247.152.335.226.694.227 1.056.002 2.225.3 4.442.192 6.671-.017.355.003.72-.295 1.062-.393-.222-.39-.603-.428-.931a69.939 69.939 0 0 1-.459-6.404c-.029-1.249-.026-1.267-1.26-1.277-.223-.002-.448.003-.672-.008-.368-.018-.514.137-.445.504.466 2.468.583 4.971.773 7.467.162 2.134.304 4.271.414 6.409.078 1.525.294 3.049.183 4.583-.043.433.029.873-.062 1.299-.093.429-.295.662-.694.226-.521-2.065-.634-4.183-.774-6.29-.294-4.42-.544-8.843-.785-13.266-.089-1.631-.029-1.675 1.571-1.902.497-.071 1.001-.088 1.502-.13z"/><path fill="#0D0C09" d="m125.841 100.84-.548.013c-1.146.092-2.271.348-3.417.423-.585.037-.543.425-.541.831.016 2.979.29 5.953.183 8.935-.011.333.017.669-.074.996-.037.131-.079.298-.227.317-.217.029-.271-.171-.305-.326a11.22 11.22 0 0 1-.234-1.654c-.178-2.529-.204-5.061-.178-7.596.003-.278.002-.557-.016-.835-.028-.456-.267-.631-.719-.596-1.82.139-3.641.181-5.457-.053-.478-.062-.762.075-.723.622.02.276-.005.561-.231.775-.264-.096-.06-.492-.531-.614v3.858c-.225-1.659-.139-3.315.009-4.976.058-.646.488-.413.797-.459 3.05-.46 6.126-.491 9.202-.536.835-.014 1.668.051 2.5.212.461.089.545.285.51.663z"/><path fill="#070705" d="M114.361 148.011c.353.191.511.096.504-.312-.008-.416.015-.832.026-1.249.417.154.352.529.368.846.028.554.001 1.112.122 1.661.076.338.038.757.605.705.526-.05.838-.266.822-.832-.016-.615.145-1.213.188-1.822.013-.196.05-.387.173-.55.537-.337.556.117.6.421.083.58.042 1.166.034 1.75-.006.554.21.814.795.809.555-.006.737-.275.731-.779-.003-.387-.031-.781.078-1.161.037-.132.08-.279.24-.309.202-.036.315.108.383.258.181.394.135.82.132 1.234-.004.524.23.742.759.759.707.023 1.394-.125 2.092-.169.956-.058 1.9.079 2.848.165.528.047.75-.039.605-.673-.156-.675-.473-1.4.01-2.09.193.124.191.324.17.508-.055.466.235.375.504.327a8.484 8.484 0 0 1-.001 2.666c-.248.307-.616.239-.937.262-3.602.265-7.205.3-10.811.06-.258-.017-.449-.069-.507-.314-.17-.726-.538-1.405-.533-2.171z"/><path fill="#CABA8B" d="M113.69 90.66c.504.52 1.2.491 1.834.635.351.08.729-.003 1.061.184-.359.311-.894.241-1.244.57-.177-.175-.04-.516-.405-.658-.205.333-.21.712-.228 1.085-.065 1.368.044 2.728.208 4.085.151 1.241.162 1.24-1.184 1.489-.009-2.059-.059-4.103-.216-6.144-.031-.416-.031-.836-.204-1.229l.378-.017z"/><path fill="#C1AD79" d="m127.148 150.174.001-2.667.149-.857c.004 1.177.2 2.362-.15 3.524z"/><path fill="#030302" d="M133.019 108.67c-.089-2.728-.157-5.457-.278-8.184-.03-.648.176-.937.814-.94 3.787-.016 7.573-.075 11.356.146.39.021.61.131.643.576.396 5.242 1.098 10.463 1.054 15.736-.012 1.45-.185 2.917-.038 4.336.127 1.216-.548 1.161-1.256 1.274-3.456.552-6.934.401-10.41.308-.651-.018-.697-.36-.807-.939-.385-2.035-.545-4.086-.687-6.14-.142-2.056-.242-4.116-.36-6.174l-.031.001z"/><path fill="#040403" d="M138.416 90.69c1.763.042 3.529-.007 5.284.254.828.122 1.303.472 1.372 1.368.127 1.612.26 3.22-.06 4.82-.071.357-.068.947-.75.502-.111-.073-.326.008-.491.021-3.165.24-6.328.168-9.491.004-.605-.03-.922-.11-1.062-.877-.268-1.45-.586-2.89-.663-4.366-.075-1.43.113-1.658 1.576-1.714 1.427-.053 2.856-.012 4.285-.012z"/><path fill="#040303" d="M137.755 150.049c-.557-.039-1.118-.041-1.669-.124-1.293-.195-1.486-.345-1.28-1.596.149-.914.02-1.789-.089-2.653-.709-5.634-.927-11.31-1.504-16.955-.057-.553-.113-1.107-.197-1.656-.062-.406.02-.617.499-.641 3.864-.202 7.724-.191 11.578.203.535.054 1.087.036.942.917-.11.669.094 1.38-.007 2.074-.372-.007-.502.167-.521.539-.008.186.027.791-.488.288-.189-1.068-.051-2.081.415-2.996a4.958 4.958 0 0 1-1.793.219c-.687-.047-.957.222-.94.914.033 1.305.013 2.613.007 3.92-.002.331.037.669-.108.986-.548.271-.595.227-.71-.651 0-.696.098-1.397-.101-2.084-.124-.747-.072-1.5-.068-2.25.003-.557-.211-.825-.791-.809-.588.014-1.176.008-1.765.002-.566-.005-.797.215-.743.812.286 3.135.304 6.278.26 9.421-.007.416.147 1.103-.337 1.134-.436.028-.323-.67-.36-1.055-.234-2.434-.456-4.872-.477-7.321-.006-.696.016-1.392-.007-2.087-.017-.451.091-1.066-.649-1.009-.749.058-.419.645-.395 1.037.044.723.075 1.446-.001 2.167-.019.183-.037.437-.275.455-.243.017-.28-.236-.323-.412-.188-.758-.271-1.534-.358-2.309-.025-.221-.017-.451-.107-.656-.151-.344-.476-.368-.785-.337-.378.038-.303.34-.265.581.538 3.385.668 6.807.937 10.217.095 1.217.052 2.445.205 3.662.018 1.317-.114 2.637.087 3.948.063.293.083.591.079.89-.034.495.025.996-.08 1.486-.131.611.168.824.726.762.8-.087 1.599-.187 2.408-.143.327.019.677-.025.923.268-.32.614-.904.348-1.362.337-.441-.01-.479.201-.511.505z"/><path fill="#030302" d="M145.167 130.618c.387-.405.005-.968.26-1.407.322-.005.342.375.602.407.009.667.026 1.334.026 2.001.002 4.596.005 9.193-.002 13.791-.001 1.397.386 2.757.372 4.159-.003.35-.042.561-.364.577-2.77.137-5.542.276-8.305-.097-.127-.197-.253-.397-.465-.726h2.376c.277-.379.348-.793.316-1.262-.118-1.698.014-3.39.228-5.073.079-.629.174-1.41 1.005-1.424.777-.014.903.75 1.045 1.33.402 1.633.525 3.297.48 4.977-.011.395-.172.931.3 1.13.617.262 1.304.361 1.976.181.309-.083.272-.404.239-.643-.293-2.157-.126-4.339-.427-6.5-.227-1.627-.063-3.283-.076-4.926-.016-1.7-.015-3.4.003-5.1.004-.496-.023-1.016.411-1.395z"/><path fill="#CBBA8B" d="M119.11 93.19c0 1.256.098 2.504.349 3.733.095.458-.014.565-.467.589-1.419.077-1.394.096-1.439-1.35-.044-1.361-.103-2.724-.235-4.079-.05-.523.086-.602.556-.59 1.242.028 1.242.01 1.236 1.698z"/><path fill="#CCBB8C" d="M115.342 92.048c.069-.932.812-.413 1.243-.57.241.126.13.34.119.517-.1 1.671-.069 3.334.306 4.972.12.525-.031.739-.558.69-.392-.038-1.003.363-.955-.536.092-1.693-.056-3.383-.155-5.073z"/><path fill="#CDBC8C" d="M120.063 94.478c-.038-.778-.047-1.558-.119-2.335-.076-.823.525-.502.898-.559.454-.069.532.11.484.567-.162 1.53-.06 3.06.226 4.573.09.474.042.774-.537.712-.43-.046-1.076.307-1.008-.619.058-.775.012-1.558.012-2.337.015 0 .03 0 .044-.002z"/><path fill="#C8B789" d="M122.227 94.917c.031-.971.051-1.95-.155-2.902-.088-.41.056-.514.401-.476.303.033.797-.267.788.388-.023 1.723.028 3.442.239 5.151.053.429-.241.39-.475.35-.302-.054-.8.195-.798-.43.002-.694 0-1.388 0-2.081z"/><path fill="#C4B487" d="M125.028 91.23c-.286 1.957-.45 3.862-.382 5.783.012.307.034.538-.412.505-.42-.031-.501-.185-.441-.579.256-1.684.361-3.374.147-5.076-.119-.94.794-.279 1.088-.632z"/><path fill="#CEBD8D" d="M113.353 102.692c.125-.561-.363-1.316.084-1.637.347-.247 1.073.062 1.632.065 1.513.01 3.025.009 4.537-.026 1.11-.025 1.092-.051 1.089 1.007-.008 3.363.07 6.724.485 10.067.084-3.523.045-7.044-.171-10.561-.023-.368-.017-.569.435-.584 1.176-.04 2.348-.157 3.491-.464.283-.077.34.074.358.295-.369.86-.071 1.801-.32 2.675-.135 1.947-.834 3.749-1.448 5.575-.11.326-.147.722-.564.858-.077.063-.167-.169-.211-.016-.092.32-.103.66-.176.986-.1.961-.092 1.936-.723 2.775-.811 1.079-1.797 1.985-2.802 2.866-.461.404-.712.276-.857-.326-.046-.189-.087-.378-.164-.558-.211-.461-.173-.985-.371-1.446-.117-.273-.194-.641-.581-.616-.366.025-.454.374-.54.665-.372 1.248-.326 2.529-.194 3.793.076.74.112 1.486.229 2.227.136.857-.06 1.013-.921 1.027-.275.005-.558-.062-.823.068-.286-.045-.686.145-.61-.464.437-3.408.15-6.817-.073-10.22-.176-2.684-.37-5.369-.791-8.031z"/><path fill="#C1AD79" d="M122.804 109.88c.388-.041.346-.399.438-.629.586-1.486.878-3.067 1.512-4.539.16-.372-.13-.836.218-1.183-.049 2.003-.114 4.006-.141 6.01-.045 3.619-.065 7.24.272 10.849.057.622-.146.758-.727.733-2.552-.11-5.102-.019-7.65.108-.317-1.179-.323-2.396-.409-3.598-.074-1.019-.098-2.055.171-3.063.085-.318.156-.71.58-.706.36.004.478.354.568.643.353 1.117.432 2.275.492 3.459.063-.756-.341-1.515.112-2.227.29.228.07.586.217.848.151.07.292.012.381-.078 1.162-1.175 2.536-2.159 3.283-3.704.172-.355.111-.696.149-1.046.032-.294-.095-.613.149-.871.196.149.247.368.254.59.049 1.57-.019 3.14-.02 4.711 0 .019-.037.039-.056.059a2.3 2.3 0 0 0 .1.001c-.049-1.885.024-3.77-.003-5.655-.003-.24-.099-.501.11-.712z"/><path fill="#15130E" d="M118.241 115.737c-.053.83.152 1.666-.075 2.677-.387-1.604-.374-3.141-1.129-4.492-.923 2.411-.26 4.875-.311 7.307-.602.386-1.265.141-1.9.179.051-.024.1-.051.152-.07.459-.167 1.144.156 1.377-.3.178-.349-.069-.908-.109-1.377-.143-1.684-.391-3.371-.031-5.056.116-.548.145-1.324.881-1.328.736-.004.746.785.912 1.32.114.368.158.759.233 1.14z"/><path fill="#CEBD8D" d="M117.241 146.552c-.073.934-.118 1.872-.231 2.801-.111.911-.929.42-1.401.609-.5.198-.403-.294-.432-.555-.106-.984-.191-1.971-.285-2.957-.08-3.589-.379-7.166-.618-10.745-.189-2.826-.299-5.663-.962-8.45.899 0 1.76.019 2.62-.009.564-.017.448.352.45.672.013 2.67.199 5.33.603 7.974.053-2.864.015-5.724-.251-8.578.384-.257.811-.106 1.215-.107.519-.001.535.451.517.791-.079 1.498.294 2.981.112 4.481-.058.465-.025.944.083 1.409-.159-.691-.051-1.379-.026-2.075.048-1.273.013-2.551-.002-3.827-.003-.29-.135-.613.158-.855l5.637-.373c1.221-.154 1.402.013 1.223 1.223-.433 2.93-1.213 5.774-2.174 8.573-.044.132-.09.264-.16.386-.111.195-.237.425-.496.353-.205-.056-.231-.295-.253-.49-.049-.416.019-.838-.088-1.247a1.952 1.952 0 0 1-.037-.378 4.159 4.159 0 0 1 0-.158c.017.11-.012-.05-.003.061.053.728.059 1.458.065 2.19.029.641-.008 1.277-.208 1.889-.099.303-.145.721-.584.695-.396-.025-.511-.394-.597-.717-.128-.482-.236-.977-.245-1.475-.034-2.02-.068-4.042.019-5.838-.128.706.037 1.672-.278 2.587-.258.486.048 1.104-.365 1.554-.227 1.037-.108 2.079-.021 3.118.068.799.199 1.591.259 2.39.04.702-.214 1.296-.664 1.83-.804.955-1.399 2.079-2.397 2.877-.108.086-.131.242-.183.371z"/><path fill="#C1AD79" d="M117.24 146.552c.013-.326.093-.527.348-.839 1.028-1.264 2.451-2.312 2.685-4.096.288.042.317.285.371.494.084.325.168.649.326.946.167.314.282.724.734.706.423-.018.578-.373.727-.715.343-.786.517-1.621.747-2.44-.213.783-.389 1.579-.729 2.322-.151.332-.328.683-.772.666-.405-.015-.543-.362-.671-.667-.314-.749-.488-1.539-.612-2.338-.211-1.376-.298-2.763-.391-4.149-.01-.159-.047-.336.09-.473.393-.441-.085-1.066.321-1.505.336.346.246.787.236 1.191-.026 1.123.12 2.224.348 3.317.051.247.129.489.241.711.099.195.213.426.48.412.269-.013.342-.241.417-.46.226-.666.3-1.345.321-2.049.019-.706-.22-1.44.165-2.12.363.524.016 1.142.228 1.697.351-.059.29-.386.361-.586a52.82 52.82 0 0 0 2.238-8.679c.163-.966.053-1.087-1.021-1.14.745-.113 1.492-.22 2.236-.342.331-.054.435.026.416.389-.238 4.73-.47 9.461-.679 14.193-.083 1.89-.186 3.786.075 5.674-.047.843.102 1.666.309 2.475.098.38.084.559-.392.521-1.961-.157-3.926-.097-5.888-.013-.496.021-.63-.153-.601-.619.036-.568.008-1.14.008-1.711-.1-.003-.2-.005-.301-.006-.032.58-.1 1.161-.085 1.74.011.457-.11.681-.605.637a3.425 3.425 0 0 0-.756.033c-.444.06-.59-.116-.584-.555.01-.779-.029-1.559-.065-2.339-.006-.137.109-.474-.276-.283z"/><path fill="#191711" d="M118.79 127.131c.294 2.321.021 4.631-.14 6.946-.388-1.294-.239-2.634-.357-3.948a15.353 15.353 0 0 1-.044-2c.033-.756-.261-1.066-1.021-.897-.163.035-.329.055-.495.081l-.028-.207 2.085.025z"/><path fill="#CEBD8D" d="M134.564 116.908c-.278-4.169-.543-8.339-.84-12.506-.079-1.111-.266-2.213-.371-3.321-.022-.228-.404-.693.183-.665.381.018 1.029-.234 1.107.53.089.857.212 1.709.525 2.641.092-.916-.045-1.709-.16-2.497-.052-.363-.08-.615.405-.554.354.046.799-.135.733.559-.205 2.143-.063 4.287.102 6.428.073.94.146 1.881.421 2.955 0-2.486.011-4.813-.006-7.142a24.927 24.927 0 0 0-.14-2.251c-.035-.361.037-.502.432-.494 1.99.037 3.98.051 5.971.074.299-.108.61-.055.915-.057.97-.005 1.078.083.866 1.053-.712 3.234-1.634 6.405-3.079 9.405-.085.174-.169.352-.287.507-.345.453-.617.436-.79-.121-.154.725.091 1.47-.173 2.177a18.03 18.03 0 0 1-.724 1.128c-.112.163-.257.351-.461.309-.262-.055-.279-.324-.294-.545-.025-.416-.005-.836-.144-1.239-.185-1.202-.128-2.42-.184-3.629.042 1.931.158 3.86.106 5.792.031.611-.191 1.119-.559 1.608a63.32 63.32 0 0 1-2.732 3.363c-.158.181-.334.446-.612.318-.237-.112-.109-.399-.12-.607-.061-1.071.104-2.149-.09-3.219z"/><path fill="#C1AD79" d="M138.946 113.395c.362.464.021 1.027.244 1.58.477-.407.572-1.08 1.083-1.416.609.596.272 1.284.241 1.98.213-1.01.011-1.99-.018-2.969-.014-.455-.205-.938.158-1.353l.291.665c1.023-1.856 1.719-3.747 2.333-5.663.488-1.523.895-3.071 1.324-4.612.156-.563.117-1.003-.673-.922-.33.034-.669-.011-1.003-.021 1.845-.348 1.765-.34 1.937 1.423.556 5.687.448 11.41.952 17.098.05.557.482 1.282.028 1.637-.344.269-1.076.044-1.633.049-2.974.023-5.949-.014-8.918.189-.543.036-.75-.065-.732-.646.038-1.169.006-2.337.003-3.507.356.736.099 1.517.164 2.274.04.465.007.935.007 1.623.779-.895 1.449-1.634 2.082-2.404.419-.51.746-1.1 1.188-1.589.35-.387.45-.804.454-1.282.335.084.306.36.306.602-.001.964.006 1.928.098 2.89-.004.112.183-.004.072.007-.001 0-.003-.007-.005-.02-.26-1.635-.14-3.289-.228-4.933-.013-.247.035-.499.245-.68z"/><path fill="#CDBC8D" d="M138.619 94.765c.016-.836-.017-1.671-.183-2.495-.071-.349.005-.542.403-.501.056.005.112.003.169.002 1.531-.023 1.53-.023 1.468 1.458-.039.95.021 1.895.153 2.832.07.488.001.688-.569.694-1.461.012-1.46.043-1.441-1.406v-.584z"/><path fill="#CCBB8C" d="M144.22 97.113c-.27-.049-.51-.119-.753-.13-.514-.027-.627-.246-.563-.754a11.083 11.083 0 0 0-.192-3.808c-.119-.532-.047-.78.548-.776.245.002.492-.096.735-.157.263-.066.363.02.32.291-.28 1.76-.146 3.53-.095 5.334z"/><path fill="#CCBC8C" d="M136.03 93.523c.101.94.199 1.883.307 2.822.107.938-.649.406-.989.553-.402.176-.514-.068-.491-.47.085-1.478.024-2.951-.324-4.4-.073-.305-.082-.439.323-.44 1.258-.003 1.256-.023 1.228 1.178-.005.251 0 .502 0 .753l-.054.004z"/><path fill="#C7B688" d="M137.459 96.78c-.588.126-.723-.07-.697-.556.073-1.33.073-2.664-.183-3.982-.056-.287-.115-.593.343-.545.32.034.794-.17.8.437.012 1.42.187 2.82.425 4.22.129.757-.529.292-.688.426z"/><path fill="#C6B688" d="M141.156 94.378c-.029-.547-.052-1.297-.117-2.044-.029-.318-.053-.538.374-.552.393-.013.458.173.463.505.022 1.339.184 2.663.435 3.978.054.286.113.627-.341.53-.331-.07-.945.306-.922-.46.019-.584.064-1.168.108-1.957z"/><path fill="#C2B286" d="M133.244 91.47c.656-.084.868.133.829.726-.094 1.422.14 2.825.391 4.218.074.406.055.65-.405.686-.587.042-.316-.4-.318-.632-.012-1.667-.21-3.315-.497-4.999z"/><path fill="#CEBD8D" d="M142.141 132.792c.206.177-.249.677.332.669.205-1.603.031-3.214.095-4.82.014-.351-.182-.842.126-1.021.427-.248.998-.143 1.481-.06.461.079.403.566.37.907-.143 1.469-.236 2.95-.687 4.367-1.239 3.892-2.78 7.651-5.044 11.082-.696.929-1.389 1.864-2.119 2.769-.299.372-.537.865-1.139.854-.147-.213.032-.492-.148-.698l-.024-.789c-.137-1.052-.017-2.109-.064-3.163-.013-.3.087-.612-.086-.898-.261-3.806-.414-7.619-.83-11.413a39.213 39.213 0 0 0-.416-2.894c-.078-.424-.021-.529.432-.496 1.211.089 1.197.069 1.333 1.308.097.878.243 1.751.44 2.619.127-.987.036-1.965-.048-2.946-.029-.33-.371-.932.437-.845.498.054 1.197-.291 1.163.768-.114 3.541.224 7.068.547 10.592.009.105.045.21.084.388.174-.477.127-.896.121-1.305-.048-3.231-.049-6.465-.381-9.683-.059-.583.114-.719.667-.683.894.059 1.793.063 2.691.068.365.003.568.071.549.51-.037.917-.022 1.836-.028 2.753.182.678-.085 1.387.146 2.06z"/><path fill="#C1AD78" d="M135.408 146.84c.244.172.144.431.171.658.529.707 1.479.987 2.344.728.39-.117.414-.41.423-.715.025-.801.009-1.603.01-2.404.001-.392.022-.775.244-1.118.116-.66.617-1.108.936-1.656 1.758-3.021 3.033-6.243 4.096-9.554.458-1.43.515-2.933.702-4.41.084-.671-.242-.792-.831-.771-.536.019-.896.03-.868.744.055 1.416.022 2.837.01 4.256-.003.292.109.621-.172.862-.005-1.825.122-3.652-.013-5.476-.031-.413.137-.519.522-.532.833-.029 1.661-.102 2.562-.162-.187 1.108-.445 2.204-.377 3.328-.334 4.369-.349 8.735.066 13.1.174 1.827.028 3.678.397 5.493.068.341-.156.358-.404.338-.783-.062-1.564-.14-2.348-.18-.5-.027-.387-.339-.374-.647a22.785 22.785 0 0 0-.363-5.24 9.454 9.454 0 0 0-.367-1.282c-.094-.269-.266-.521-.594-.512-.329.009-.465.275-.553.551-.204.643-.284 1.308-.322 1.975-.087 1.473-.177 2.95-.062 4.425.037.468-.125.671-.577.683-1.222-.189-2.45-.083-3.669-.001-.568.038-.758-.116-.705-.663.057-.604.079-1.211.116-1.818zm-.175-4.849c.374.698.114 1.447.167 2.17.045.627-.008 1.26-.017 1.891-.194-1.348-.159-2.705-.15-4.061z"/><path fill="#C1AD78" d="M142.142 132.792c-.355-.665-.127-1.37-.147-2.059.18.676.145 1.37.147 2.059z"/><path fill="#BDA976" d="M141.247 142.414c.482 1.761.629 3.423.876 5.069.042.274.06.552.105.827.164 1.023-.093 1.242-1.144.999-.237-.055-.34-.156-.329-.387.089-2.054-.102-4.122.276-6.164.013-.073.083-.138.216-.344z"/><path fill="#1B1812" d="M118.426 112.687c-.228-.739-.439-1.485-.69-2.217-.103-.303-.198-.712-.612-.701-.365.009-.547.354-.707.649-.46.852-.615 1.791-.702 2.733-.148 1.599-.251 3.201-.373 4.824-.281-.119-.269-.335-.28-.519-.117-2.063-.098-4.116.44-6.133.145-.543.358-1.059.701-1.507.721-.942 1.594-.834 2.031.263.334.844.4 1.728.192 2.608z"/><path fill="#3A3425" d="M122.806 109.879c.285 2.164.091 4.322-.099 6.482-.362-1.813-.237-3.649-.287-5.477.081-.819.081-.819.386-1.005z"/><path fill="#2F2B20" d="M119.059 101.581c.53 1.123.236 2.262.031 3.399-.3-1.122-.378-2.251-.031-3.399z"/><path fill="#191711" d="M122.622 135.468c-.018 1.194.138 2.394-.125 3.579a8.062 8.062 0 0 1-.215.807c-.089.27-.229.538-.548.57-.367.038-.55-.244-.68-.525-.456-.98-.541-2.041-.605-3.096-.046-.778-.025-1.558-.035-2.338.217-1.292.106-2.637.602-3.891.263 3.076-.42 6.205.661 9.242.543-.803.617-1.706.615-2.629.143-.537.019-1.088.073-1.629.013-.144-.138-.429.227-.384l.03.294z"/><path fill="#1E1B13" d="M120.095 135.97c.245 2.201.311 4.43.983 6.567.117.373.164.944.654.942.421-.002.505-.544.636-.895.296-.802.548-1.621.872-2.42-.026 1.178-.222 2.327-.794 3.37-.43.788-1.046.745-1.526-.038-.356-.579-.408-1.259-.646-1.879-.216-1.869-.494-3.734-.364-5.627.004-.051.031-.101.046-.151l.139.131z"/><path fill="#C1AD79" d="M122.593 135.173c-.375.631 0 1.372-.3 2.014v-2.966c.356.3.333.625.3.952z"/><path fill="#221F17" d="M138.948 113.395c-.068 1.937.127 3.877-.04 5.963-.396-1.346-.22-2.611-.448-3.828-.016-2.058-.162-4.115.062-6.18.38 1.32.26 2.7.426 4.045z"/><path fill="#564D38" d="M140.655 111.218c.001 1.5.32 3.006-.114 4.654l-.268-2.312v-2.952c.453.1.291.423.382.61z"/><path fill="#252219" d="M141.645 107.875c-.011.054-.021.108-.036.161-.015.063-.106.167-.109.092-.068-1.757-.357-3.516.012-5.272.003-.014.043-.03.063-.028.026.002.049.023.074.036.11 1.671.115 3.34-.004 5.011z"/><path fill="#C1AD79" d="M141.645 107.875c0-1.671.002-3.341.003-5.011.32.477.167 1.016.149 1.516-.039 1.166.196 2.344-.152 3.495z"/><path fill="#C1AE79" d="M138.598 143.99c0 1.297-.01 2.595.011 3.894.007.456-.144.661-.622.633a13.972 13.972 0 0 0-1.418-.002c-.735.036-1.114-.241-.992-1.016 1.033-.718 1.572-1.852 2.364-2.772.215-.249.33-.585.657-.737z"/><path fill="#322E22" d="M139.467 139.94c-.045-1.954-.347-3.905-.064-5.868.443 1.935.302 3.907.357 5.866-.097.148-.194.147-.293.002z"/><path fill="#C1AD78" d="m139.467 139.941.294-.002v1.331c-.49-.442-.276-.909-.294-1.329z"/></svg>