<svg xmlns="http://www.w3.org/2000/svg" fill="none" viewBox="0 0 1082 533"><path fill="#F8F9FA" stroke="#155724" stroke-linecap="round" stroke-linejoin="round" stroke-width=".5" d="m882.777 277.025-2.628 5.123-1.313 2.049-1.46 1.61-9.926 8.635-1.751.732-2.044-.293-3.795-1.756-12.845-1.903-3.503.147-3.211 1.024-12.991 7.026-1.46.585-1.752.146-4.962-.292-7.591 2.195-2.773-.146-2.919-1.464-5.547-2.342-5.401-1.171-3.065.147-5.693 1.756-12.115-.732-2.919-1.024-5.255-2.635-2.919-.585-10.51 2.342-3.795 1.61-2.481 2.634-1.314 2.049-3.649 2.635-1.752 1.61-.876 2.488.292 2.488.73 2.488.292 2.635-.876 2.634-1.459 1.61-3.941 2.196-3.212 2.927-2.627 3.952-1.606 4.683-.583 13.173-.292 2.049-1.168 1.903-5.255 4.098-2.481 3.951-3.211 9.075-2.19 3.659-2.627 2.634-8.466 5.562-3.066 3.074-1.605.585-1.46-1.61-1.606-7.903-1.021-2.196-2.92-.878-2.773 3.22-2.919 4.245-3.358 2.049-1.897-.439-3.649-2.05-1.898-.585-2.335.293-8.758 4.244-1.314 1.61-1.168 2.196-1.605 2.195-1.898 1.317-2.043.439-2.19-.146-6.276-1.61-2.19-.146-2.043.292-4.525 1.903-2.19.147-1.605-1.757-.876-2.195-1.606-5.708-.146-2.489.73-2.488 1.314-1.756 1.022-1.756-.292-2.342-1.022-1.464-2.773-2.634-1.022-1.61-.73-2.488-.438-7.319-1.752-5.561-2.773-2.781h-3.503l-4.087 2.488-21.457 17.563-1.022.586-1.168.293-1.167.439-.584 1.024-.438 1.171-.73 1.025-1.751.439-1.752-.878-1.898-1.318-1.751-.732-2.482.44-4.816 2.195-2.482.293-3.649-.732-3.503-1.61-8.466-5.855-2.19-1.024-2.043.146-.292.439-2.628-1.024-7.59.146-1.751-.146-1.168-.293-.438-.439-.876-1.317-.73-.878-7.152-1.318-1.46-.731-.729-.732.438-1.464.291-.732.292-.732.146-.731v-1.464l-.292-.878-.583-.878-1.314-1.318-1.022-.731-13.575-4.977-2.043-1.171-3.941-3.512-1.606-1.903-.73-1.024-.876-1.757-.729-1.024-3.212-3.22-3.649-3.513-1.605-1.025-1.022-1.024-.438-.585-.146-.586-.146-1.61-.146-1.024-.584-1.464-.584-.878-.729-.732-2.482-1.61-10.655-9.514-.438-.439-1.314-2.049 8.612-10.538 1.314-2.049.146-1.171-7.591-6.147-.291-.878.145-.878.876-1.903.584-.732.73-.439h.73l.73.146h1.021l.876-.439 1.022-1.317.584-.585.73-.293 1.605-.439.876-.439 2.627-1.757.438-.146 4.963-.146 7.882-1.757h.584l.73.147 1.752.732 1.021.292 1.46-.292.438-.293.146-.293-.146-.293-.438-.439-.584-.585-2.627-3.806-.584-1.024-1.314-3.22v-1.025l.438-.585 1.022-.585 7.736-2.781 2.627-1.61 1.606-.586 1.46-.439 6.13-.878 1.606-.439 3.503-1.756 2.919-1.025.876-.585.73-.732 3.357-4.83.584-1.171 1.314-3.659 1.167-4.976.876-2.781.292-1.318.146-4.244.292-1.317 1.314-2.928.292-.878v-.732l-.146-.439-.876-.878-2.773-1.902-.73-.147h-1.314l-.73.293-.584.439-.292.439-.291.878-.146.293-.146.293-.146.146-.876.585-12.261 5.27-1.606.292-.73-.292-1.021-.293-1.168-.147-1.898.147-1.022.439-2.043 1.756-2.044 1.025-1.167.146-1.022-.293-.73-.585-.73-.293-5.254-.732-4.963.147-2.19.439-1.459.585-.876.586-.584.146-.73-.146-.584-.439-1.459-1.464-1.022-.732-1.314-.585-2.335-.293-1.606.146-3.065.879-1.168.146-1.168-.146-1.021-.439-1.022-.586-2.044-2.049-.584-.439-.583-.146-.73-.147-.584-.293-.584-.439-1.022-1.317-.73-.732-1.021-.585-1.168-.439-1.606.439-.584-1.025-1.459-3.512-1.022-1.61h-.438l-.146-.732.584-.439 2.335-2.196.584-.439.584-.146.73-.146 4.087.585 1.898.439.875.439.876.586.876.878.584 1.024.438 1.171.146 1.025v1.756l-.292 1.903.584 1.024 1.313.878 3.212 1.025h1.313l.73-.439v-.878l-1.168-10.392-.583-2.781-.438-1.171-.438-.585-.73-.439-3.211-.732-4.233-.146-3.504-.732-.291-.293-.146-.293v-.585l.437-7.172v-2.049l-.291-1.903-.438-1.024-.438-.732-.438-.439-.438-.293-2.335-.732-1.168-.585-.438-.146h-.292l-2.627 1.463-.584.147-.438-.293-1.168-1.025-.73-.439-3.211-1.463h-.292v.292l.146 1.318-.146.878-.292.732-.584.731-.73.586-.875.293-.876-.147-1.022-.585-1.168-1.025-2.189-2.781-.73-.731-.584-.44-.73-.585-.292-.585v-.44l.292-.292.438-.147h1.314l.73-.146.584-.293.584-.585.291-.586.584-1.317 2.19-3.366.584-1.61 11.677-1.171 1.606.146 1.897-.731 3.941-3.22.73 1.17.292.586.584 1.61.292.732.438.585 1.021.878.438.586 1.168 2.049.584.585.584.586.876.439.729.293h.876l.73-.147 2.335-.732h.584l.438.293.292.439.146.732v.878l-.438 2.927v.879l.146.731.292.586.292.439.438.293.584.146.584-.439.438-.878.437-3.22.292-1.171.438-.878.876-.878 2.773-1.903.584-.147h.584l.438.147.438.293.876.731.438.293.583.293.876-.147 1.022-.439 1.168-.878.584-.878.292-1.025-.146-2.195.146-1.024.291-.879.876-1.171 2.482-2.78.438-1.025.146-1.024-.438-2.196v-.732l.146-.732.438-1.317.437-.878.438-.732 1.314-1.61.876-.878 1.168-.878.146-.439-.146-.439-.73-.878-.876-.44-2.482-.585-.291-1.464-.146-1.463 1.751-10.977.292-1.318.292-.146.584-.293.584-.146h2.335l3.941.732 1.022.439.584.439 1.022.293 17.37-2.635 2.335.146.584.586.292.585.146.586.292.585h1.167l2.336-3.366 3.795-5.269 1.898-1.025 7.59-.731h.73l2.189.731.73.147.73-.147.584-.439-.146-1.463-.73-1.757-4.525-7.318-1.898-4.683 1.168-.586 14.159-2.195 1.313-.586.876-.585.438-.439.876.146 1.022.439 2.627 3.22 3.211-1.024 1.314-1.025.438-.585.584-.293.876-.146 3.941 1.317 14.888.585 1.168-.146 2.773-1.025.73-.439.438-.439.584-.292h.73l4.087 1.902.729.147h1.46l7.152-1.757 1.606-.732h.584l.584.44.438.585.292.585.146.586v.732l-.292 2.341v.732l.729.147 1.46-.439 5.109-3.367 1.314-1.463.292-.586 1.751-.878.146 1.171 1.314 4.244.292.586.438.439 2.481.293.73.292.73.293.584.439 2.773 1.317.73.44.584.585 1.459 3.22.438.439.438.439.876.146 7.152-.439 1.168-.439.584-.292.876-.732.437-.586.292-.585.292-.732.292-.732.438-.585h1.46l2.481.585.73.439.584.732.438 1.464.292 1.902v1.464l.146.732.438.585 1.751 1.171 1.168 1.318.292.585.292.732.438 1.317v1.61l-1.606 4.684-.292.878-.584 3.22v.732l.146.731.438.586.73.293 1.022.146.584.293.437.585.146 1.025-.146 1.756.292.878.73.878 3.649 2.342.73.585.73.879.876 1.61.292 1.024v1.025l-.146.878-.438 1.61-.292.732-.438.585-.876 1.025-2.043 1.756-2.044 1.464-.438.439-.438.585-.292.732-.146.732.292.732.584.585 1.46.439h.876l.876-.146 7.444-2.196 2.335-1.171.584-.146 1.022.439 1.314.732 2.335 1.756 1.314.732 1.021.439h.73l.584-.146 2.482-.878h.729l.73.146 3.795 1.025 2.19 1.463 2.919 1.171.73.146 7.298.293 1.46.293 8.028 4.244 3.065 1.171 1.606.293h.73l.73-.146 2.189-1.171.584-.147.438.147.292.439-1.898 4.391-.876 3.22-.146.731-.146 2.196-.437.732-.73.585-3.066.293-6.276-.439-2.19.146-.729.147-1.168.585-1.022.878-1.46 2.781 1.606 1.903.146.585.438.732.438.439 13.137.585 1.897-.439 1.606-.878.584-.146 1.168.293 1.459.585 2.628 1.317 2.189 1.464.438.439.292.585.146.732v.732l-.438 2.342-.292.732-1.46 2.488-.292.732-.291.731-.146.879-.292 2.341-.146.732-.438 1.61-1.022 1.903-1.606 2.342-.292.585-.292.732.292.585.73.293 1.606-.439 1.751-.732h.876l1.168.439.584.586.438.585.292.586.292.585.583.439.876.293 4.817.585 2.19-.146 2.043-.585 3.065-1.464 1.168-.439h1.168l7.006.732 5.547 1.317 17.662-.439 1.022-.293 1.313-.732.876-.585 1.168-.878.876-.439 3.211-.879 1.897-.731 1.46-1.171h1.022l.73 2.488-.584 5.562-.73 3.22-1.752 4.537-.73.585-.729.293h-1.022l-.876-.439h-.292v.439l.438 1.317.438 1.171.584 1.61.438 2.635v.731l.146.732 1.313 1.464 5.109 2.342 3.211 2.049.584.439.73.732.146.585-.146.585-.292.586-1.605 2.342-.292.732-.146.731-.146 1.464-1.168 4.098-.292.732-.438.585-.438.586-1.022.878-.437.439-.438.585v.586l.438.439 3.211-.439 16.056-4.537 3.357-1.61 1.168-.147 3.211.147 1.46.292.876.732.292.732v.732l-.292.732-1.314 2.927-.292.732-.146.732v1.463l.292 1.317.292.586.876.439 1.313.293 9.196-.147 12.553 3.367h7.299l4.67-.586 2.482-.585 4.379-2.488 1.46-1.171 2.043-1.318 1.168-.585h.73l.875.146 1.022.293.876.293.73.732.584 1.024.875 1.903.73 2.049.584 1.171 1.168 1.317 1.168.878z"/><path fill="#F8F9FA" stroke="#155724" stroke-linecap="round" stroke-linejoin="round" stroke-width=".5" d="m1076.38 144.916.59 2.049.29 4.245.44 2.195 1.02 1.903 1.17 1.61.87 1.902.15 2.489-2.63 4.244-4.81 1.61-24.53-.293-4.96 1.318-3.65 1.463-1.6 1.318-1.32 1.902-.87 2.342-1.17 4.976-.88 2.342-3.5 3.366-4.38.586-4.67-.146-4.38 1.024-5.55 3.952-6.27 2.488-7.739 5.415-2.043.732h-2.336l-6.13-2.049-2.19.586-1.751 1.17-4.671 4.391-2.044 1.61-2.043.878-4.525 1.025-3.795 1.61-10.948 8.05-5.839 1.171-1.751.878-8.758 6.293-13.283 5.27-1.314.731-1.313 1.171-.73 1.464-.876 3.22-1.022 1.317-3.503 1.61-7.152 1.464-9.05 7.025-3.941 1.756-1.752 1.171-1.605 2.049-.438 2.342 1.751 4.976.292 2.342-1.021 2.196-1.752 1.463-3.941 2.342-1.606 1.61-2.481 3.659-1.898 3.659-2.043-1.317-1.168-1.317-.584-1.171-.73-2.049-.875-1.903-.584-1.025-.73-.731-.876-.293-1.022-.293-.875-.146h-.73l-1.168.585-2.044 1.318-1.459 1.17-4.379 2.489-2.482.585-4.67.585h-7.299l-12.553-3.366-9.196.146-1.313-.292-.876-.439-.292-.586-.292-1.317v-1.464l.146-.731.292-.732 1.314-2.928.292-.731v-.732l-.292-.732-.876-.732-1.46-.292-3.211-.147-1.168.147-3.357 1.61-16.056 4.537-3.211.439-.438-.439v-.586l.438-.585.437-.439 1.022-.878.438-.586.438-.585.292-.732 1.168-4.098.146-1.464.146-.732.292-.731 1.605-2.342.292-.586.146-.585-.146-.586-.73-.731-.584-.44-3.211-2.049-5.109-2.341-1.313-1.464-.146-.732v-.732l-.438-2.634-.584-1.61-.438-1.171-.438-1.317v-.439h.292l.876.439h1.022l.729-.293.73-.585 1.752-4.538.73-3.22.584-5.561-.73-2.489h-1.022l-1.46 1.171-1.897.732-3.212.878-.875.439-1.168.879-.876.585-1.314.732-1.021.293-17.662.439-5.547-1.318-7.006-.731h-1.168l-1.168.439-3.065 1.463-2.043.586-2.19.146-4.817-.585-.876-.293-.583-.439-.438-.439-.292-.586-.438-.585-.584-.586-1.168-.439h-.876l-1.751.732-1.606.439-.73-.292-.291-.586.291-.732.292-.585 1.606-2.342 1.022-1.903.438-1.61.146-.731.292-2.342.145-.878.292-.732.292-.732 1.46-2.488.292-.732.438-2.342v-.732l-.146-.731-.292-.586-.438-.439-2.189-1.464-2.628-1.317-1.459-.585-1.168-.293-.584.146-1.606.879-1.897.439-13.137-.586-.438-.439-.438-.732-.146-.585-1.605-1.903 1.459-2.781 1.022-.878 1.168-.585.729-.147 2.19-.146 6.276.439 3.066-.293.73-.585.438-.732.145-2.195.146-.732.876-3.22 1.898-4.391-.292-.439-.438-.146-.584.146-2.189 1.171-.73.146h-.73l-1.606-.293-3.065-1.17-8.028-4.245-1.46-.293-7.298-.292-.73-.147-2.919-1.171-2.19-1.463-3.795-1.025-.73-.146h-.729l-1.898.439-.584.146h-.73l-1.021-.439-1.314-.732-2.336-1.756-1.313-.732-1.022-.439-.584.146-2.335 1.171-7.445 2.196-.875.146h-.876l-1.46-.439-.584-.585-.292-.732.146-.732.292-.732.438-.585.438-.439 2.044-1.464 2.043-1.756.876-1.025.438-.585.292-.732.438-1.61.146-.878v-1.025l-.292-1.024-.876-1.61-.73-.878-.73-.586-3.649-2.342-.73-.878-.292-.878.146-1.756-.146-1.025-.438-.585-.583-.293-1.022-.146-.73-.293-.438-.586-.146-.731v-.732l.584-3.22.292-.878 1.606-4.684v-1.61l-.438-1.317-.292-.732-.292-.585-1.168-1.318-1.752-1.171-.437-.585-.146-.732v-1.463l-.292-1.903-.438-1.464-.584-.732-.73-.439-2.481-.585h-1.46l-.438.585-.292.732-.292.732-.292.585-.438.586-.875.732-.584.292-1.168.439-7.152.44-.876-.147-.438-.439-.438-.439-1.46-3.22-.583-.585-.73-.439-2.774-1.318-.583-.439-.73-.293-.73-.292-2.482-.293-.437-.439-.292-.586-1.314-4.244-.146-1.171 3.795-2.488.73-.586.438-.585.438-1.317.146-.439v-2.049l.292-.586.584-.439 1.313-.146 1.168-.293 1.314-.585 2.335-2.05 1.314-.878 2.481-1.17 1.022-.732.584-.586 1.022-2.195.875-.586 1.314-.292 7.444.731 1.752-.146 13.575-3.366h2.335l1.606 1.024 1.167.293.584.146h.73l.876-.146 1.022-.44 2.335-1.755.584-.586 5.255-6.44 2.043-1.61 2.19-1.317 6.86-3.074 7.298-1.756.584-.293.584-.439 1.898-4.098.438-.585.583-.293 1.022.146 6.131 1.464 2.627-.147 3.066 1.171h1.167l1.314-.292 5.255-2.781.729-.147 1.022.147 4.525 1.903 3.065.439.73-.147.73-.293.584-.878.438-.878.292-.878.292-.878.438-.732.584-.586 1.313-.146 23.063.44 2.043-.44 2.628-.878.729-.586.584-.878.584-2.488.438-1.024 2.481-2.781.438-.44.584-.292h.584l1.314.44h.73l.584-.294.291-.878.146-1.17-1.021-3.367h1.751l9.634 1.61 3.211-.878 4.087-2.05 1.46-.292 1.46.146 2.773.879h3.941l1.898 1.024 1.751 1.464 1.898 1.024h1.605l5.109-2.488 2.044-.439 6.422.293 6.569 1.61.583.732.438.878.584.732 1.168.878 2.481-1.171 1.606-1.025.876-.439 2.189-.293 2.336.293 2.189.878 5.547 3.367 4.379.731 10.509-1.024 4.525.293 4.525-.586 1.898.293 4.087 1.464 2.043.146 1.752-.586 3.503-2.341 2.044-.732 4.379-.293 6.568.732 9.634 3.366 4.087 2.342 3.357 2.78 1.752.88 11.823 1.17 7.882 3.22 6.422.439 3.796 1.464 3.649.146 7.59-3.952 3.795-.732 2.481.732.73 1.317-.584 5.123.146 3.074.584 2.78 1.022 2.489 1.46 2.488 3.503 3.513 7.736 3.659 3.065 3.366 4.379 10.684 2.627 3.659 4.96 2.05 9.35.585 7.88-1.464 4.23.147 21.75 4.683 4.09 2.781 1.31 1.61 3.8 5.562 6.42 5.854 3.21 4.245 2.63 4.537 2.92 3.952 3.64 2.927zM549.963 364.402l-1.168 1.756-.438 1.317-.146.439-.729 2.342-1.168 2.781-.73 2.635.73 1.902 4.671 4.245 1.168 1.756.875 4.245-3.211.731-8.174-2.195-2.19-.146-1.897.731-4.963 5.123-1.605 1.171-3.796 2.049-3.211 2.488-8.758 9.514-10.509 8.489-3.503 1.61-3.066.439-3.065-.439-3.357-1.318-3.357-.731-3.504.439-3.357 1.463-3.065 2.049-3.065 1.464-6.423.878-2.627 2.196-1.022 1.317-.876 1.464-.584 1.756-.292 1.903-.583 3.073-1.606 2.196-1.898 2.049-1.459 2.488-.73 5.269-.438 1.463-.73 1.025-2.773 2.342-1.168 1.903-.876 2.341-.438 2.488.146 2.489 1.022 2.488 1.314.878 1.605.439 1.898 1.171 1.46 2.195.583 2.635.438 5.415 2.19 6.879-.438 1.318-2.19 1.317-1.605 1.317-1.168 1.903-1.168 2.927-1.021 4.391-1.022 1.756-1.752 1.025-18.391 2.488-2.774-1.464-9.05-1.024-3.503.292-10.655 2.635-2.336 1.61-.73 1.903-.146 1.756-.729 1.317-5.547 1.025-9.926 3.512-3.065.293-3.503-1.024-1.752-.879-1.167-.439-1.314.293-4.817 2.635-1.46.146-1.751-.585-6.131-1.318-2.043-.146-4.233.878h-1.46l-18.1-4.83-1.605-.146-1.752.585-1.022.878-1.897 2.342-1.168.732h-1.606l-2.481-1.61-1.46-.439-1.021.439-3.066 3.22-1.605.293-1.606-.147-3.211-.878h-1.752l-3.649 1.903-2.189.293-1.752.585-1.168 1.903-2.189 6.879-4.087 8.781-1.168.147-1.022-1.464-.876-2.049-.291-1.171v-1.024l-.292-.732-2.044-1.025-1.46-1.171-.875-.439-4.233-.731-2.044-.879-.876-1.902-.146-2.635-.584-3.22-1.021-2.781-1.752-1.317-1.751.293-3.504 1.903-3.649.731-1.605.879-9.634 6.879-3.503 1.61-3.649.439-1.898-.586-1.752-1.317-1.459-2.049-.73-2.488.146-2.635 1.022-1.61 1.313-1.317 1.168-1.903.438-2.488-.292-3.22-.876-2.927-1.605-1.464h-1.898l-9.926 2.049-4.816-.292-4.087-1.903-2.044-4.391.876-2.049 2.481-3.659.584-1.903-.584-2.049-1.459-1.903-.146-.146.875-2.049.876-3.659.292-.878 2.044-4.098 2.335-2.196 7.59-1.902 1.752-1.025 1.168-1.171 1.021-1.61.73-.585 1.168-.439h1.752l1.313.292.73.586.584 1.756.73.732 1.313.732 1.46.585 14.451 2.927 1.459.732.584.586.73.439 2.044 1.61 1.313.585 2.044.439 1.459.147 1.46-.147.73.293 1.897 1.317h1.022l1.022-.292 2.043-.879 1.606-.439 3.065-.292 6.131 1.024 3.503-.585 2.19-1.025 3.065-.878 1.46-.586 1.167-.731 2.628-2.342 4.671-2.049 4.816-1.61 3.504-1.757.875-.585.584-.585.438-.586.584-1.463 1.314-1.61-2.19-4.099-2.043-2.634-1.314-1.317-.584-1.171-.584-2.781-.584-.732-1.021-.293-.876.439-1.752 1.318h-1.022l-1.605-.879-2.044-3.219-1.459-3.074-1.022-1.464-1.168-.878-1.605-1.024-1.314-.586-2.482-.585-1.021-.439-.438-.732-.146-.878.146-1.025.438-1.317.584-1.025.292-1.171-.146-1.317-.876-2.049-.292-.878v-1.025l.584-.878.292-.878-.146-1.317-.584-.878-.876-.879-3.211-1.463-.146-.586.438-.585 2.043-1.903.584-1.463-.146-1.903-.73-1.317-1.459-1.025-4.087-1.756-.876-.878-.292-.879.438-.585 1.022-.585.729-.732.292-1.171-.584-1.464-.146-1.024v-1.318l.584-2.341.146-1.171-.73-2.049-1.021-.878-1.46-.293-8.612 2.342-4.817 1.902-3.503.147-.73-.439-2.773-1.318-1.898-1.317-.73-1.903.584-1.756 8.466-4.391 2.628-2.634 1.459-3.659.584-2.342.876-1.317 6.568-3.66 1.606-.439 4.525-.292h.73l1.751.146.876.732-.438 1.317-1.459.439-1.606.147-1.168.292-.438 1.171 1.314.439 4.379-.146 1.46.585 5.838 3.367 2.628 1.024 2.335-.439 2.044-2.781 1.021-3.22.146-3.073-.583-1.464-.584-1.317-4.233-3.074-.876-1.171v-1.463l.73-2.049v-2.342l-2.044-3.513.292-2.195 2.919-1.318 3.212 2.928 3.211 3.805 2.773 1.464 3.795.439 6.861 4.83 3.941-.293 1.46-1.171.875-1.61.438-1.903.146-1.902.73-2.196h1.752l3.649 1.61 2.919-1.317 1.168-8.635 2.335-3.659 3.503-1.464 7.007-1.756 8.466-5.269 9.196-3.367 4.671-2.634 3.065-3.952-.584-2.634-.876-.147 1.752-1.463 2.627-2.781 5.693-2.635 1.313-1.024.876-1.025.292-.878.146-.732v-.732l-.292-.878-.292-.732-.146-.732v-.585l.292-1.464.146-.878-.292-1.902v-1.171l.438-1.464.73-1.025.876-.878 5.109-3.805.583-.293h.584l.584.293.438.585.438.732.584 1.171.292.293.292.146h.73l.729-.146.876-.439.876-1.903.73-1.171.73-.732 1.167-.878.73-.878 1.898-3.074.584-.731.437-.293.584.293.438.146 3.357-.146 8.32.731 1.022-.146 1.46-.439.584-.293.292-.585v-.439l-.146-.586-.292-.585-.146-.732-.146-.732.438-1.171.438-.439.584-.293 2.919-.585h.584l.292.293.729 1.171 1.314 1.61.292.439.146.439.146.585-.146.732-.438.878-8.32 7.904-1.168 1.317-.438.732-.145.585.145.439.438.293 2.482.146.438.293.292.586.146.731v.732l.146.732.437.439.73.293 1.752.293.584.146.438.293 1.167 1.024.876.586 1.314.439.584-.147.438-.292.146-.586v-.732l-.146-1.756v-1.025l.146-1.024.437-1.025.876-1.17 1.168-1.171 3.795-2.635.584-.585 5.255-8.636 1.605-1.902 1.606-.293 1.022.439.438.439.146.732-.292 1.756.146 1.171.583.732 2.044 1.61.438.878.146 1.317-.146 1.61.146 1.903.438 1.025.438.585 11.239 5.854 1.314 2.05.438.439 10.655 9.513 2.482 1.61.729.732.584.878.584 1.464.146 1.024.146 1.61.146.586.438.585 1.022 1.025 1.605 1.024 3.649 3.513 3.212 3.22.729 1.024.876 1.757.73 1.024 1.606 1.903 3.941 3.513 2.043 1.171 13.575 4.976 1.022.732 1.314 1.317.583.878.292.878v1.464l-.146.732-.292.731-.291.732-.438 1.464.729.732 1.46.732 7.152 1.317.73.878.876 1.317.438.439 1.168.293 1.751.146 7.59-.146 1.752 1.903z"/><path fill="#F8F9FA" stroke="#155724" stroke-linecap="round" stroke-linejoin="round" stroke-width=".5" d="m199.869 142.878 2.481-.732 12.991 2.928 1.168.146 1.459-.146 3.504-1.025 2.043-1.024 1.022-.293 12.261-.439 2.627.732 16.348 7.464 1.46.439 1.168-.146.73-.293 3.211.585 10.947 4.684 1.898.732 1.752 1.171 2.481 2.195 6.422.293 1.752-.439 1.898-1.025 2.189-2.634 1.022-2.488 1.022-4.099.583-1.756.876-1.61 1.314-1.317 2.335-1.025 1.752-.585 7.298-1.171h3.066l1.313.439 1.46 1.317.73 1.464.584 1.317 1.167.878 1.752.439 3.065-.146 3.357.146 3.358 2.196 1.605.585 3.941-1.317 1.606-.146 3.211 1.902 5.401 2.049 2.043 1.171 1.898 1.464 4.671 4.976 1.459.586 1.606.146 3.065-.439 2.044-.732 1.168-1.317.292-1.171v-1.464l.146-1.463 1.605-1.464 2.628-1.171 9.487-2.341.73.146.876.878 1.168.586 1.021.292 3.066-1.024.584 1.756.437.585.438.293.584-.293h1.022l1.46.293 4.962 1.903 4.379.878 1.168.439 1.46 1.464.584.439h1.751l1.022.293 1.168.439 1.751 1.024.876.732.584.732.292.585.438 1.171.73 2.488.292.439.437.147 2.774-.732.876.146 1.167.293 3.212 1.317h1.459l2.92-.731 1.313-.147 1.314.293 9.05 3.513 1.022.146 1.605-.293.876-.439.584-.439.584-.878.73-.878.583-.439 2.19-1.171.584-.147.73-.146h.875l2.044.439.876.293 1.313.732 1.022 1.756 1.46 5.562-.584 1.61-2.19 3.366-.583 1.317-.292.586-.584.585-.584.293-.73.146h-1.314l-.437.147-.292.292v.439l.292.586.729.585.584.439.73.732 2.19 2.781 1.167 1.025 1.022.585.876.146.876-.292.729-.586.584-.732.292-.731.146-.879-.146-1.317v-.293h.292l3.211 1.464.73.439 1.168 1.025.438.292.584-.146 2.627-1.464h.292l.438.147 1.168.585 2.335.732.438.293.438.439.438.732.438 1.024.292 1.903v2.049l-.438 7.172v.585l.146.293.292.293 3.503.731 4.233.147 3.211.732.73.439.438.585.438 1.171.584 2.781 1.167 10.392v.878l-.73.439h-1.313l-3.211-1.025-1.314-.878-.584-1.024.292-1.903v-1.756l-.146-1.025-.438-1.171-.584-1.024-.876-.879-.875-.585-.876-.439-1.898-.439-4.087-.586-.73.147-.584.146-.583.439-2.336 2.196-.584.439.146.731h.438l1.022 1.61 1.46 3.513.583 1.025 1.606-.439 1.168.439 1.022.585.729.732 1.022 1.317.584.439.584.293.73.146.584.147.583.439 2.044 2.049 1.022.585 1.021.439 1.168.147 1.168-.147 3.065-.878 1.606-.146 2.335.293 1.314.585 1.022.732 1.459 1.463.584.44.73.146.584-.146.876-.586 1.459-.585 2.19-.439 4.963-.147 5.255.732.729.293.73.585 1.022.293 1.168-.146 2.043-1.025 2.044-1.756 1.021-.439 1.898-.147 1.168.147 1.021.292.73.293 1.606-.293 12.261-5.269.876-.585.146-.146.146-.293.146-.293.292-.878.292-.439.583-.439.73-.293h1.314l.73.146 2.773 1.903.876.878.146.439v.732l-.292.878-1.314 2.928-.292 1.317-.146 4.244-.292 1.318-.875 2.78-1.168 4.977-1.314 3.659-.584 1.171-3.357 4.83-.73.731-.875.586-2.92 1.024-3.503 1.757-1.606.439-6.13.878-1.46.439-1.605.586-2.628 1.61-7.736 2.78-1.022.586-.438.585v1.025l1.314 3.22.584 1.024 2.627 3.806.584.585.438.439.146.293-.146.293-.438.292-1.46.293-1.021-.293-1.752-.731-.73-.147h-.584l-7.882 1.757-4.962.146-.438.146-2.628 1.757-.876.439-1.605.439-.73.293-.584.585-1.022 1.317-.875.439h-1.022l-.73-.146h-.73l-.73.439-.584.732-.875 1.903-.146.878.292.878 7.59 6.147-.146 1.171-1.314 2.049-8.612 10.538-11.239-5.854-.438-.586-.438-1.024-.146-1.903.146-1.61-.146-1.317-.438-.878-2.043-1.61-.584-.732-.146-1.171.292-1.756-.146-.732-.438-.439-1.022-.439-1.606.292-1.605 1.903-5.255 8.635-.584.586-3.795 2.634-1.168 1.171-.875 1.171-.438 1.025-.146 1.024v1.025l.146 1.756v.732l-.146.585-.438.293-.584.146-1.314-.439-.875-.585-1.168-1.025-.438-.292-.584-.147-1.752-.293-.729-.292-.438-.439-.146-.732v-.732l-.146-.732-.292-.585-.438-.293-2.481-.146-.438-.293-.146-.439.146-.586.438-.731 1.167-1.318 8.32-7.903.438-.878.146-.732-.146-.586-.146-.439-.292-.439-1.313-1.61-.73-1.171-.292-.292h-.584l-2.919.585-.584.293-.438.439-.438 1.171.146.732.146.731.292.586.146.585v.439l-.292.586-.584.293-1.46.439-1.021.146-8.32-.732-3.358.147-.437-.147-.584-.293-.438.293-.584.732-1.898 3.074-.73.878-1.167.878-.73.732-.73 1.171-.876 1.902-.875.439-.73.147h-.73l-.292-.147-.292-.292-.584-1.171-.438-.732-.438-.585-.584-.293h-.583l-.584.293-5.109 3.805-.876.878-.73 1.025-.438 1.463v1.171l.292 1.903-.146.878-.291 1.464v.585l.145.732.292.732.292.878v.732l-.146.732-.292.878-.875 1.024-1.314 1.025-5.693 2.634-2.627 2.781-1.752 1.464-2.189-.439-5.839.439-2.043-1.464-1.314-1.903-1.606-1.024-7.298 3.366-4.525 3.22-1.314.147.292-2.196-.438-3.805-3.795-1.025-12.553 1.171-4.233-.439-3.795-1.61-3.065-3.366-4.233-6.587-1.898-.731-2.481-.147-1.752-.878v-2.927l.146-.732v-.732l-.292-.585-.438-.439-5.254-.439-2.774-.879-2.043-1.317-2.774-4.391-1.313-.878-1.752 1.464-.584.878-1.167 3.366-.73.586-3.649.439-5.693 1.756-2.919.878 1.313-3.073.73-2.342v-2.488l-.876-6.733-.146-3.659-.437-3.513-1.168-2.488-2.482-1.463-2.335.439-2.335 1.463-2.044 1.903-2.919 1.756-1.752-.878-1.46-2.195-2.335-2.049-7.736 1.317-2.482-1.317-.583-5.562.291-5.562-.583-4.244-1.606-3.806-9.196-13.758-.73-.731-.875-.293-.584.585v2.781l-.73.732-.876-.439-.584-2.049-1.022-.439-.437.731-.438 1.464-.584 1.025-.876-.293-.146-1.61 1.752-7.318v-2.781l-.584-2.488-.876-3.074-2.19-.293-2.189.879-1.168 1.463-1.897 4.977 1.021 2.195 2.774 3.513.438 2.341-.438 2.635-1.46 4.391-3.211 7.025-2.773 2.781-3.358.732-4.233-1.903-4.671-4.391-1.313-.292-.584 1.61.876 22.539-.584 4.538-2.19 1.902-6.714-5.854-2.482 3.22-1.021 2.488-1.314.146-1.314-1.317-.875-1.756-1.168-4.977-1.168-1.61-2.335-.146-2.044 1.171-.292 1.756.438 2.342.146 2.781-1.022 2.488-1.605-1.024-2.482-4.245-1.605-1.317-3.65-.439-1.751-1.025-2.044-1.61-2.189-1.024-4.671-.879-4.233.586-1.898-.146-1.751-1.757-1.314-1.902-1.605-1.61-1.752-1.318-1.898-.732-2.189.147-1.898.878-1.605.293-1.168-1.757-.146-2.341 1.46-8.05-.146-2.781-.876-2.635-5.547-9.513-1.605-2.196-1.898-1.171-3.357.44-11.969 6.879-3.358 1.317h-.583l-1.752-.147-1.46-1.317-2.335-4.537-1.46-1.903-1.605-1.463-3.65-2.196-13.866-1.61-3.65-1.902L92 227.768l2.043-3.366 15.911-9.367 5.838-4.684 3.212-1.61 2.919-2.049 2.335-3.513 2.92-6.147 4.233-5.123 9.633-8.342 3.066-1.757 9.779-1.17 3.358-1.318 1.021-2.195.292-7.611 1.752-4.83 4.087-1.024 4.817.146 4.087-1.025 13.867-10.391 8.028-2.342 3.649-2.635 1.46-4.976-.438.439zm74.087 253.026 3.503-.147 4.817-1.903 8.612-2.341 1.46.292 1.021.879.73 2.049-.146 1.171-.584 2.341v1.318l.146 1.024.584 1.464-.292 1.171-.73.731-1.021.586-.438.585.292.878.875.879 4.087 1.756 1.46 1.025.73 1.317.146 1.903-.584 1.463-2.044 1.903-.437.585.146.586 3.211 1.463.876.879.583.878.146 1.317-.292.878-.583.878v1.025l.292 1.317.875 2.049.146 1.317-.292 1.171-.583 1.025-.438 1.317-.146 1.025.146.878.438.732 1.021.439 2.482.585 1.313.586 1.606 1.024 1.168.878 1.021 1.464 1.46 3.074 2.044 3.219 1.605.879h1.022l1.752-1.318.875-.439 1.022.293.584.732.584 2.781.584 1.171 1.313 1.317 2.044 2.634 2.189 4.099-1.313 1.609-.584 1.464-.438.586-.584.585-.876.585-3.503 1.757-4.817 1.61-4.671 2.049-2.627 2.342-1.168.731-1.459.586-3.066.878-2.189 1.025-3.503.585-6.131-1.024-3.065.292-1.606.439-2.043.878-1.022.293h-1.022l-1.897-1.317-.73-.293-1.46.147-1.459-.147-2.044-.439-1.314-.585-2.043-1.61-.73-.439-.584-.586-1.46-.732-14.45-2.927-1.46-.585-1.314-.732-.729-.732-.584-1.756-.73-.586-1.46.147h-1.751l-1.168.439-.73.585-1.022 1.61-1.167 1.171-1.752 1.025-7.59 1.902-2.336 2.196-2.043 4.098-.292.878-.876 3.659-.876 2.049-1.605-1.463-3.211-2.05-1.752.147-3.357 1.61-2.774.439-1.021.293-.73.439-1.314 1.463-.73.586-3.357 1.902-1.314 1.025-3.065 3.659-1.022.732H198.2l-5.547-1.025-4.233.293-4.087 1.171-3.211 2.195-2.044 3.513-1.46 4.098-1.751 3.513-3.211 1.61-2.628-.732-2.481-1.61-2.19-1.024-1.897.878-1.168 1.317-.73.293-.876-.147h-1.459l-1.168.293-2.919 1.61-2.628.439-2.919-.585-2.627-1.61-1.46-2.635v-1.61l.438-1.756.292-1.757-.584-1.756-.876-.878-2.335-1.025-1.022-.878v-.146l-1.898-6.147-1.313-2.635-2.92-1.171-1.751-.292-3.649.731-1.752-.146-1.168-.732-2.189-1.902-1.314-.586-1.751.146-3.212 1.171-1.605.293-.876.293-.584.732-.438.731-.584.439h-1.021l-2.044-.585-1.022-.146-1.313.439-8.758 6.44-1.752.439-1.751-.586-.147-1.756 1.022-4.537v-2.196l-.438-2.341-.875-1.318-1.46 1.171-2.773 5.855-.876 1.171-1.606.585-1.605-.585-3.358-1.903-2.043-.439h-2.19l-2.043.585-1.606 1.464-1.46 2.195-.875.732-2.92-1.317-3.94-.439-7.59 1.61-3.796-1.171-4.087-2.342-3.795-1.317-3.941-.439-8.466.585-1.752.732-3.211 2.927-1.606 1.025-1.751.585-1.898.293h-2.19l-4.232.732-2.044-.732-2.335-2.488-.584-.439-.876.439-.292.878-.292 1.024-.584.879-3.795 1.61-1.46-3.074.438-15.222-.291-2.341-.73-2.05-1.46-1.756-1.752-1.463-1.46-1.757L1 461.766l.292-5.122 1.022-4.977 4.525-13.611 1.897-4.245.438-1.317v-.732l.292-.293 1.314.293 2.919 3.22 4.67 8.05 9.489-3.366-.146-1.757-2.336-4.098.146-.878-.146-.878-.146-.732-.438-.732-.73-4.098.584-3.22 1.606-2.927 2.044-2.927.291-.878.438-2.196.438-.585.73.292 1.022 1.903.584.586 1.605.146 1.606-.293 38.535-13.904 3.357.439 14.013 9.221 2.19.732 4.816-.293 2.19.146 2.189 1.025 1.46 1.61 1.168 1.756 1.605 1.756 1.752.879 3.503.439 3.795 1.61 7.736 1.17 2.482.732 2.335 1.61 1.022 2.342-1.46 2.781-1.605 1.171-1.606.878-1.46 1.025-1.313 1.756-.876 2.342-.292 2.195.73 1.756 2.043.732.876-1.171.876-2.781.73-1.17 1.167-.586 4.087-.146 2.044-.732 1.897-1.317 1.752-1.757 1.314-2.341.876-4.391-.146-3.952.437-3.22 2.628-2.488 6.276-2.196 1.314-.878 3.795-3.22.584-.878.292-.293h.584l.438.293.292.293v.146l1.751-.878.73-.585 1.314-.44 5.255 1.171 3.065-1.024 3.357-2.488 1.606-3.074-2.044-3.074 3.503-3.659 5.693-1.024 11.385 1.61 3.066-.293 1.313-2.195.876-2.781 1.46-2.342 1.459-.439 1.022.732.876 1.317 1.022 1.171 1.313.585 1.606.147 3.065-.293 2.044.146 3.065 2.928 4.379 1.317.876 1.61.73 1.903 1.751 1.756 2.044 1.317 2.189.878 4.671.879 2.482-.293.875-1.464.292-2.195.584-2.488 1.752-1.61 1.751 1.463 1.314 2.927.73 2.635v5.269l.584 1.903 2.043.878 1.314-.439 5.109-3.074 1.605-1.463 1.022-1.757 1.898-4.098 3.065-3.073 3.503-.147 3.795.878 3.795.293 1.168-.439.584-.146.73.146 1.167.439 1.606.293 1.314-.293.584-1.464-.584-1.024v-.146zm-22.333 34.98-2.481.732-3.504 2.634-1.751.879-2.482.146-1.605 1.903 1.022 1.902 2.043 1.464 1.898.878 2.481.732 1.46-.293 1.021-1.61 2.19-8.196-.292-1.171zm-59.554-6.733-.73-.146-.438-.293-.292-.292-5.546-2.342-2.628-1.757-1.605-2.195-1.314-3.513-1.606-3.073-2.189-1.464-3.065 1.756-1.752 3.952-.584 2.196-.146 2.195.584 2.049 2.481 5.416 1.168 1.61 1.314.731 2.627.586 1.168.878.438 3.805-4.233 6.587.146 3.22 1.168.585 1.313-.878 1.314-1.317 1.022-.732 1.897.146.438 1.171.292 1.464 1.168 1.024 1.46.147 4.67-1.318h3.358l1.313-.439 1.022-1.61.146-3.952-4.379-4.683-.292-3.366 1.606-1.61 4.525-3.22.73-2.049-.73-1.171-1.168-.293-2.481.732-.584.292-1.022.879-.584.292zm-66.414 20.637h-1.46l-.146 2.049.73 2.196 1.314 1.903 3.357 2.341 1.022 1.171 2.773 4.83.584.439 4.963-4.098 2.773-1.463 3.211-.586 1.022-.878.146-2.342-.73-2.342-1.168-.292-3.065 1.463-3.503-.146-11.823-4.245z"/><path fill="#F8F9FA" stroke="#155724" stroke-linecap="round" stroke-linejoin="round" stroke-width=".5" d="M782.639 48.275h-1.606l-1.606-.44-1.459-1.17-2.92-3.952-1.021-1.024-3.358-1.171-11.093-1.903-1.898-.878-1.897.293-3.941 1.61h-4.379l-1.898.292-1.897 1.464-2.044 2.488-.73.44h-.583l-1.752-.294-.73.147-.292.439-.146.585-.292.586-3.795 2.049-1.897.439-4.379-.146-3.795 1.61-2.044.585-2.481-.44-5.109-2.195-2.628-.292-1.751.732-2.919 2.927-1.752.439-1.022-.44-1.022-2.195-1.021-.585h-1.168l-1.898.878-1.167.293-8.32-2.635h-8.904l-7.153-1.756h-2.627l-6.422 2.195-2.19-.146-7.59-2.342-3.941-.439-4.963.293-1.022.146-1.459.44-1.168 1.024-3.211 8.489-1.022 1.756-2.336 2.488-2.773 2.05-2.773 1.17-2.628.147-6.276-2.635-1.898-.293-3.941.44-22.041-2.928h-6.568l-2.482-.585-5.984-3.513-2.336-1.903-2.627-1.61-5.985-1.902-2.773-1.317-2.773-2.489-8.466-4.098-11.094-1.903L538 36.273l-10.071-7.903-1.314-1.61-2.482-4.245-1.313-1.756-1.898-1.025-3.941-1.17-3.503-2.342-4.233-.44-1.898-1.024-5.108-4.244-2.774-1.464-3.211-.732-2.773-1.17-4.963-4.538-2.92-1.61 2.774 3.659 1.022 2.342-.292 1.903-1.606 1.024-15.472 1.756-1.752-.585-3.503-3.366L464.725 7l-2.919 2.342-3.357 9.22-3.649 2.05-4.087-.147-1.606.293-16.786 7.025-4.671 2.781-1.46 1.317-1.167 2.05-3.795 10.83-1.898 3.66-.876 1.902-.292 2.195.292 2.342 1.168 4.391.292 2.488-.438 2.05-2.627 5.707-5.109 11.856-1.168 4.683-.146 5.123.73 4.39 1.46 4.245 7.006 13.758 2.919.293 2.336-2.195.73-1.61-.146-.586-.146-.585-.146-.732.146-1.61.583-1.171.73-1.025h.438l.292.44.584 2.341.292.586.292.585.438.439.584.293.729.439.876.147h1.022l2.773-.293h.438l1.022.439 1.314 1.756.146.878.146 1.61-.292 1.025-.292.878-2.628 2.488-1.605 2.196-.584 1.171-.292 2.195-2.773 3.805-1.46.732-5.839 2.635-2.189.439h-1.606l-2.627-1.464-.73-.293-3.795-.439h-2.335l-1.606.439-3.795 1.61-1.46.293-1.46-.293-1.313-.585-1.752-.293-1.314.147-1.897.585-1.898.293-2.335.585-2.773 1.464-.292.146-.438.439-1.022 1.464-1.168.878-1.313.293h-3.212l-1.021.293-.73.731-.292 1.025-.876 3.952v1.611l.438.731.584.586 3.503 1.024.438.293.438.293.146.293v.585l-.292.732-1.022 1.903.584 1.756.438.585.438.293.584-.146h1.021l1.46.292 4.963 1.903 4.379.878 1.167.293 1.46 1.464.584.439h1.752l1.021.292 1.168.44 1.752 1.024.875.732.584.732.292.585.438 1.171.73 2.635.292.439.438.146 2.773-.732h.876l1.168.293 3.065 1.317h1.46l2.919-.732h1.314l1.313.147 9.05 3.659h1.022l1.606-.147.729-.439.584-.439.584-.878.73-.878.584-.439 2.189-1.171.584-.146.73-.147.876.147 2.043.292.876.293 1.314.732 1.022 1.903 1.605 5.561 11.677-1.317 1.606.146 1.898-.731 4.087-3.22.583 1.17.292.44.584 1.61.292.731.438.732 1.022.732.438.585 1.022 2.196.583.585.584.586.876.439.73.146h.876l.729-.146 2.336-.732h.438l.438.293.292.439.146.732v.878l-.584 2.927v.878l.146.732.292.585.292.586.438.146.437.147.73-.439.438-.879.438-3.22.292-1.17.438-.732.876-.878 2.773-1.903.584-.293h.438l.438.146.438.293.875.878.584.293.584.293.876-.147 1.022-.439 1.167-.878.584-.878.292-1.024-.146-2.196v-1.024l.292-.879.876-1.171 2.481-2.78.438-1.025.146-1.024-.438-2.196-.146-.878.146-.732.438-1.317.292-.878.438-.732 1.314-1.61.875-.878 1.314-.878.146-.44-.146-.439-.73-.878-.875-.585-2.482-.586-.292-1.463v-1.464l1.752-11.123.292-1.318.292-.146.438-.146.583-.147h2.482l3.795.732 1.022.293.73.439 1.021.293 17.37-2.781 2.19.146.584.586.292.585.291.732.146.585h1.314l2.19-3.512 3.941-5.123 1.897-1.025 7.59-.731h.73l2.19.878.73.146.729-.146.438-.293-.146-1.464-.73-1.756-4.524-7.464-1.898-4.684 1.168-.585 14.158-2.342 1.314-.586.73-.585.584-.586.876.147.875.439 2.628 3.22 3.211-1.025 1.314-1.024.438-.586.583-.292.876-.147 3.941 1.464 14.889.585 1.022-.146 2.773-1.025.876-.439.438-.439.583-.292h.73l4.087 1.902.73.147h1.46l7.152-1.757 1.46-.878h.584l.584.439.437.439.146.732.292.585v.732l-.292 2.342v.732l.584.146 1.46-.439 5.109-3.366 1.313-1.464.292-.585 1.752-.878 3.941-2.489.73-.585.438-.585.438-1.318v-2.488l.292-.585.583-.44 1.314-.146 1.168-.293 1.313-.585 2.336-1.903 1.314-.878 2.335-1.17 1.022-.586.584-.586.875-2.195.876-.585 1.314-.147 7.444.586 1.752-.147 13.721-3.366h2.189l1.606 1.025 1.313.292.584.147h.73l.876-.147 1.022-.585 2.335-1.61.73-.732 5.255-6.44 2.043-1.61 2.19-1.317 6.86-3.22 7.298-1.61.584-.293.584-.439 1.898-4.244.438-.586.583-.293 1.022.147 6.277 1.463 2.481-.146 3.065 1.025h1.168l1.314-.293 5.255-2.927.729-.147.876.293 4.671 1.903 3.065.439h.73l.73-.44.584-.877.438-.732.292-.879.292-.878.438-.731.437-.586 1.314-.146 23.063.439 2.043-.44 2.628-.878.729-.585.584-.878.438-2.342.438-1.17 2.481-2.635.584-.44.438-.292h.584l1.46.439h.584l.729-.293.292-.878.146-1.17-1.021-3.367z"/><path fill="#F8F9FA" stroke="#155724" stroke-linecap="round" stroke-linejoin="round" stroke-width=".5" d="m163.817 124.716 1.168-1.024 3.211-3.952.73-1.61-.292-.878-.584-.878-.146-1.464.584-2.634 1.167-2.635 1.46-2.195 1.46-1.464 4.671 3.074 1.605.146 1.314-.732.876-1.317.146-1.61-.876-1.464-3.357-3.073-1.022-1.317-.876-4.977 3.649-2.195 8.466-1.317 1.606-1.61.584-2.05-.146-5.269.292-2.78.876-1.318 3.649-1.17 1.605-1.025 1.168-1.756 2.044-3.952 1.605-.878 2.19.732 2.335 1.17 2.044.44 1.751-.732 1.46-1.464 1.314-1.903 1.021-1.902 1.752-1.61 2.335-.147 4.671 1.61 1.606-.731 1.022-.147 1.021.586 3.796 3.366 1.167.439 1.752-.293 10.801-7.025 3.212-1.025 6.86-.292 3.357-1.171 1.606-.293 1.459.732 1.46 1.024 1.606.732 5.984 1.464 11.386 6.293 3.211.879 1.46-.147 2.773-1.317 1.46-.44 12.553.586 6.422 2.635 11.531 7.903 3.504.732 7.006-.146 13.867 3.366 3.065 1.756 2.335 2.635 3.358 6.294 2.481 2.341 3.357 1.61 3.357.878 3.358.147 12.553-2.05 4.379.147 3.649 1.61 1.897 1.464 1.606.878 1.752.439 7.006.439 2.189.878 1.46 1.757-.292 4.098.146 2.927 1.168 1.756 8.904 1.61 5.838 2.342 2.774-.585v-2.489l2.773.293 2.481-2.195.73-1.61-.146-.586-.146-.585-.146-.732.146-1.61.438-1.171.73-1.024h.438l.292.439.584 2.342.292.585.292.585.438.439.583.44.73.292.876.147h1.022l2.773-.293h.438l1.022.293 1.313 1.756.292 1.025.146 1.61-.292 1.024-.437.732-2.628 2.488-1.605 2.342-.584 1.171-.292 2.195-2.774 3.806-1.459.878-5.985 2.488-2.043.585h-1.606l-2.627-1.61-.73-.292-3.795-.586-2.336.147-1.751.439-3.795 1.61-1.46.146-1.46-.293-1.167-.439-1.752-.293-1.46.147-1.897.585-1.898.147-2.335.731-2.774 1.318-.438.292-.437.439-1.022 1.464-1.168.878-1.314.293h-3.211l-1.168.439-.729.732-.292 1.024-.876 3.952v.732l.146.878.292.732.584.439 3.649 1.171.438.293.292.292.146.439v.44l-.292.731-1.022 2.049-3.065 1.025-1.022-.293-1.168-.585-.876-.878-.73-.147-9.487 2.342-2.628 1.171-1.605 1.464-.146 1.463v1.464l-.292 1.171-1.168 1.317-2.043.732-3.066.439-1.605-.147-1.46-.585-4.671-4.976-1.897-1.464-2.044-1.171-5.401-2.049-3.211-1.903-1.606.147-3.941 1.317-1.605-.585-3.357-2.196-3.358-.146-3.065.146-1.752-.439-1.167-.878-.584-1.317-.73-1.464-1.46-1.317-1.313-.439h-3.066l-7.298 1.171-1.751.585-2.336 1.025-1.314 1.317-.875 1.61-.584 1.756-1.022 4.098-1.022 2.488-2.189 2.635-1.898 1.024-1.751.44-6.423-.293-2.481-2.196-1.752-1.17-1.897-.732-10.948-4.684-3.211-.585-.73.292-1.168.147-1.459-.439-16.348-7.465-2.628-.732-12.261.44-1.022.292-2.043 1.025-3.503 1.024-1.46.147-1.168-.147-12.991-2.927-2.481.732-3.065-1.025-13.721-9.952-3.065-1.318-3.066.44-4.379 3.22-2.189 2.049-2.92-.732-2.043-1.025-3.941-3.952-.584-2.049 1.168-2.049 3.649-2.781z"/></svg>