<svg xmlns="http://www.w3.org/2000/svg" fill="none" viewBox="0 0 158 201"><path fill="#F8F9FA" d="m121.088 95.856-.868 1.802.007.003.006.003.855-1.808zm22.016 19.2-1.69 1.069.005.008.005.008 1.68-1.085zm-.512 58.112-1.669-1.102-.008.012-.008.012 1.685 1.078zm-22.784 19.968.869 1.802.006-.004.007-.003-.882-1.795zm-88.064-16.384-1.535 1.282.008.01 1.527-1.292zM22.784 59.76l-1.785-.903-.004.009 1.789.894zm29.696-32 .987 1.74.008-.005-.995-1.735zm69.12-8.192-.475 1.943.021.005.02.004.434-1.952zm19.968 7.68 1.798.876.799-1.64-1.56-.946-1.037 1.71zm-9.728 19.968-1.102 1.67 1.902 1.254.998-2.048-1.798-.876zm-78.08 8.96 1.468 1.358.005-.005.005-.006-1.478-1.347zm-15.616 56.576-1.988.221.607 5.457 3.045-4.569-1.664-1.109zm20.992-17.408.809 1.83.008-.005.008-.003-.825-1.822zM115.2 169.84l-1.304-1.516 1.304 1.516zm-.256-50.432-1.304 1.516.018.016.02.016 1.266-1.548zm-51.2-4.864-.875-1.798-.01.004-.01.005.895 1.789zm-14.592 12.544-1.656-1.122-.012.019-.013.019 1.681 1.084zm-.256 35.072-1.705 1.045.02.033.02.031 1.665-1.109zm14.592 12.544-.914 1.779.029.015.029.013.856-1.807zM89.6 91.2c11.521 0 21.713 2.17 30.62 6.458l1.736-3.604C112.431 89.468 101.631 87.2 89.6 87.2v4zm30.633 6.464c9.062 4.284 16.103 10.435 21.181 18.461l3.38-2.138c-5.504-8.7-13.139-15.348-22.851-19.94l-1.71 3.617zm21.191 18.477c5.061 7.836 7.616 16.923 7.616 27.331h4c0-11.096-2.735-20.953-8.256-29.501l-3.36 2.17zm7.616 27.331c0 10.914-2.723 20.421-8.117 28.594l3.338 2.204c5.87-8.894 8.779-19.184 8.779-30.798h-4zm-8.133 28.618c-5.25 8.204-12.557 14.622-21.981 19.251l1.764 3.59c10.032-4.928 17.914-11.822 23.587-20.685l-3.37-2.156zm-21.968 19.244c-9.254 4.462-19.703 6.714-31.387 6.714v4c12.21 0 23.264-2.356 33.125-7.11l-1.738-3.604zm-31.387 6.714c-23.595 0-41.59-7.59-54.281-22.588l-3.054 2.584c13.592 16.063 32.802 24.004 57.335 24.004v-4zM33.279 175.47c-12.568-15.049-18.991-36.544-18.991-64.766h-4c0 28.781 6.548 51.317 19.92 67.33l3.071-2.564zm-18.991-64.766c0-19.74 3.46-36.398 10.285-50.05l-3.578-1.788c-7.169 14.338-10.707 31.643-10.707 51.838h4zm10.28-50.041c7.008-13.848 16.644-24.208 28.9-31.164l-1.975-3.478C38.489 33.4 28.328 44.375 20.999 58.857l3.57 1.806zm28.907-31.168c12.455-7.141 26.95-10.743 43.549-10.743v-4c-17.194 0-32.394 3.737-45.539 11.273l1.99 3.47zm43.549-10.743c8.56 0 16.591.923 24.101 2.759l.95-3.886c-7.85-1.919-16.203-2.873-25.051-2.873v4zm24.142 2.768c7.508 1.669 13.952 4.157 19.365 7.438l2.074-3.42c-5.851-3.546-12.719-6.177-20.571-7.922l-.868 3.904zm18.604 4.852-9.728 19.968 3.596 1.752 9.728-19.968-3.596-1.752zm-6.828 19.175c-8.967-5.918-20.83-8.779-35.406-8.779v4c14.096 0 25.103 2.771 33.202 8.117l2.204-3.338zm-35.406-8.779c-19.052 0-34.224 5.963-45.254 18.06l2.956 2.695C65.37 46.411 79.383 40.769 97.536 40.769v-4zm-45.244 18.05C41.25 66.75 35.888 84.04 35.888 106.352h4c0-21.72 5.22-37.881 15.34-48.818l-2.936-2.716zm-16.404 51.534c0 2.758.086 4.976.268 6.621l3.976-.442c-.159-1.427-.244-3.475-.244-6.179h-4zm3.92 7.509c4.898-7.347 11.591-12.908 20.137-16.688l-1.618-3.658c-9.204 4.07-16.505 10.115-21.847 18.128l3.328 2.218zm20.153-16.695C68.714 93.202 78.582 91.2 89.6 91.2v-4c-11.51 0-21.952 2.094-31.289 6.322l1.65 3.644zm26.567 84.146c12.147 0 22.201-3.265 29.976-9.956l-2.608-3.032c-6.902 5.939-15.963 8.988-27.368 8.988v4zm29.976-9.956c7.825-6.733 11.704-15.757 11.704-26.86h-4c0 10.06-3.46 17.931-10.312 23.828l2.608 3.032zm11.704-26.86c0-11.119-3.978-20.075-11.998-26.636l-2.532 3.096c6.999 5.727 10.53 13.497 10.53 23.54h4zm-11.96-26.604c-7.795-6.708-18.203-9.956-31-9.956v4c12.12 0 21.51 3.066 28.392 8.988l2.608-3.032zm-31-9.956c-8.281 0-15.755 1.587-22.379 4.81l1.75 3.596c6.006-2.921 12.868-4.406 20.629-4.406v-4zm-22.398 4.819c-6.428 3.214-11.563 7.615-15.354 13.211l3.312 2.244c3.377-4.986 7.97-8.947 13.83-11.877l-1.788-3.578zm-15.38 13.249c-3.628 5.624-5.439 11.89-5.439 18.748h4c0-6.113 1.602-11.622 4.8-16.58l-3.36-2.168zm-5.439 18.748c0 6.677 1.72 12.842 5.159 18.453l3.41-2.09c-3.046-4.97-4.569-10.41-4.569-16.363h-4zm5.2 18.517c3.63 5.445 8.772 9.84 15.342 13.214l1.828-3.558c-6.059-3.111-10.645-7.079-13.842-11.874l-3.328 2.218zm15.4 13.242c6.808 3.226 14.794 4.801 23.896 4.801v-4c-8.647 0-16.022-1.497-22.184-4.415l-1.712 3.614z"/></svg>