<svg xmlns="http://www.w3.org/2000/svg" fill="none" viewBox="0 0 147 201"><path fill="#F8F9FA" d="m119.808 104.816-1.263 1.551.012.01.012.009 1.239-1.57zm10.496 68.096-1.715-1.029-.006.01 1.721 1.019zM107.52 192.88l.857 1.807.007-.003.006-.003-.87-1.801zm-73.984 1.536-.633 1.897.013.005.013.003.607-1.905zM4.352 178.288l-1.728-1.006-.824 1.414 1.223 1.087 1.329-1.495zm11.776-20.224 1.373-1.454-1.833-1.731-1.268 2.179 1.728 1.006zm23.552 14.08-.702 1.873.014.005.015.005.673-1.883zm61.44-3.328 1.218 1.587.005-.004-1.223-1.583zm-1.024-47.872-1.133 1.648.012.008.012.008 1.109-1.664zm-82.688-8.448-1.99-.201-.222 2.201h2.212v-2zM26.88 18.8v-2h-1.808l-.182 1.799 1.99.201zm101.12 0h2v-2h-2v2zm0 22.272v2h2v-2h-2zm-79.616 0v-2h-1.812l-.178 1.803 1.99.197zM43.52 90.224l-1.99-.197-.218 2.197h2.208v-2zm19.968 2c25.42 0 43.637 4.843 55.057 14.143l2.526-3.102c-12.473-10.156-31.803-15.041-57.583-15.041v4zm55.081 14.162c11.592 9.143 17.415 21.682 17.415 37.854h4c0-17.279-6.295-31.023-18.937-40.994l-2.478 3.14zm17.415 37.854c0 10.243-2.473 19.44-7.395 27.643l3.43 2.058c5.318-8.864 7.965-18.781 7.965-29.701h-4zm-7.401 27.653c-4.717 7.97-11.986 14.378-21.933 19.186l1.74 3.602c10.533-5.091 18.453-11.994 23.635-20.75l-3.442-2.038zm-21.92 19.18c-9.728 4.617-21.874 6.975-36.519 6.975v4c15.05 0 27.823-2.42 38.233-7.361l-1.714-3.614zm-36.519 6.975c-12.428 0-24.425-1.847-36-5.537l-1.215 3.81c11.976 3.819 24.384 5.727 37.215 5.727v-4zm-35.976-5.529c-11.57-3.857-21.047-9.112-28.487-15.726l-2.658 2.99c7.92 7.04 17.9 12.537 29.88 16.53l1.266-3.794zM6.08 179.294l11.776-20.224-3.456-2.012-11.776 20.224 3.456 2.012zm8.675-19.776c6.373 6.019 14.467 10.84 24.223 14.499l1.404-3.746c-9.358-3.509-16.966-8.075-22.88-13.661l-2.747 2.908zm24.252 14.509c9.783 3.494 20.08 5.237 30.881 5.237v-4c-10.362 0-20.203-1.671-29.535-5.003l-1.346 3.766zm30.881 5.237c13.729 0 24.634-2.863 32.45-8.861l-2.436-3.174c-6.861 5.266-16.778 8.035-30.014 8.035v4zm32.455-8.865c8.023-6.2 12.041-14.648 12.041-25.135h-4c0 9.31-3.492 16.564-10.487 21.969l2.446 3.166zm12.041-25.135c0-11.348-4.372-20.113-13.179-25.984l-2.218 3.328c7.577 5.052 11.397 12.5 11.397 22.656h4zm-13.155-25.968c-8.722-5.997-23.248-8.8-43.117-8.8v4c19.726 0 33.189 2.829 40.851 8.096l2.266-3.296zm-43.117-8.8H17.408v4h40.704v-4zm-38.714 2.201 9.472-93.696-3.98-.402-9.472 93.696 3.98.402zM26.88 20.8H128v-4H26.88v4zm99.12-2v22.272h4V18.8h-4zm2 20.272H48.384v4H128v-4zm-81.606 1.803L41.53 90.027l3.98.394 4.864-49.152-3.98-.394zM43.52 92.224h19.968v-4H43.52v4z"/></svg>