<svg xmlns="http://www.w3.org/2000/svg" fill="none" viewBox="0 0 172 201"><path fill="#F8F9FA" d="M168.192 153.968v2h2v-2h-2zm-34.048 0v-2h-2v2h2zm0 44.032v2h2v-2h-2zm-24.832 0h-2v2h2v-2zm0-44.032h2v-2h-2v2zm-99.584 0h-2v2h2v-2zm0-17.92-1.576-1.232-.424.543v.689h2zM101.376 18.8v-2h-.975l-.6.768 1.575 1.232zm27.648 0 1.58 1.226 2.504-3.226h-4.084v2zM41.216 131.952l-1.58-1.226-2.504 3.226h4.084v-2zm68.864 0v2h2v-2h-2zm0-38.912v-2h-2v2h2zm24.064 0h2v-2h-2v2zm0 38.912h-2v2h2v-2zm34.048 0h2v-2h-2v2zm0 20.016h-34.048v4h34.048v-4zm-36.048 2V198h4v-44.032h-4zm2 42.032h-24.832v4h24.832v-4zm-22.832 2v-44.032h-4V198h4zm-2-46.032H9.728v4h99.584v-4zm-97.584 2v-17.92h-4v17.92h4zm-.424-16.688 91.648-117.248-3.152-2.464L8.152 134.816l3.152 2.464zM101.376 20.8h27.648v-4h-27.648v4zm26.068-3.226L39.636 130.726l3.16 2.452 87.808-113.152-3.16-2.452zM41.216 133.952h68.864v-4H41.216v4zm70.864-2V93.04h-4v38.912h4zm-2-36.912h24.064v-4H110.08v4zm22.064-2v38.912h4V93.04h-4zm2 40.912h34.048v-4h-34.048v4zm32.048-2v22.016h4v-22.016h-4z"/></svg>