<svg xmlns="http://www.w3.org/2000/svg" fill="none" viewBox="0 0 153 201"><path fill="#F8F9FA" d="M142.848 18.8h2v-2h-2v2zm0 17.408 1.825.817.175-.39v-.427h-2zM70.4 198v2h1.296l.53-1.183L70.4 198zm-27.136 0-1.823-.824L40.165 200h3.099v-2zm70.912-156.928 1.823.824 1.275-2.824h-3.098v2zm-81.92 0v-2h-2v2h2zm0 32v2h2v-2h-2zm-24.576 0h-2v2h2v-2zm0-54.272v-2h-2v2h2zm133.168 0v17.408h4V18.8h-4zm.175 16.59L68.575 197.184l3.65 1.634 72.448-161.792-3.65-1.634zM70.4 196H43.264v4H70.4v-4zm-25.313 2.824 70.912-156.928-3.646-1.648-70.912 156.928 3.646 1.648zm69.089-159.752h-81.92v4h81.92v-4zm-83.92 2v32h4v-32h-4zm2 30H7.68v4h24.576v-4zm-22.576 2V18.8h-4v54.272h4zm-2-52.272h135.168v-4H7.68v4z"/></svg>