<svg xmlns="http://www.w3.org/2000/svg" fill="none" viewBox="0 0 147 201"><path fill="#F8F9FA" d="M138.24 175.728h2v-2h-2v2zm0 22.272v2h2v-2h-2zM9.472 198h-2v2h2v-2zm0-17.408-1.389-1.439-.611.59v.849h2zm72.96-70.4-1.386-1.442-.003.003 1.389 1.439zm17.92-22.016 1.789.894.005-.01.004-.01-1.798-.874zm-5.376-40.704-1.264 1.55.022.018.023.017 1.219-1.585zm-73.984 11.52-1.31 1.51 1.544 1.341 1.306-1.575-1.54-1.276zM3.584 43.888 2.037 42.62.804 44.124l1.47 1.275 1.31-1.511zM30.976 23.92l-.771-1.845-.01.004.781 1.841zm82.944 6.4-1.264 1.55.007.006.008.006 1.249-1.562zm10.496 63.488 1.803.865-1.803-.865zm-23.296 29.184-1.382-1.446-.005.005 1.387 1.441zm-54.784 52.736-1.387-1.441-3.575 3.441h4.962v-2zm89.904 0V198h4v-22.272h-4zm2 20.272H9.472v4H138.24v-4zm-126.768 2v-17.408h-4V198h4zm-.611-15.969 72.96-70.4-2.778-2.878-72.96 70.4 2.778 2.878zm72.957-70.397c8.93-8.587 15.098-16.114 18.323-22.564l-3.578-1.788c-2.92 5.838-8.698 12.989-17.517 21.468l2.772 2.884zm18.332-22.583c3.19-6.556 4.81-13.169 4.81-19.819h-4c0 5.979-1.452 11.996-4.406 18.07l3.596 1.749zm4.81-19.819c0-9.924-3.554-17.798-10.765-23.345l-2.438 3.17c6.1 4.693 9.203 11.326 9.203 20.175h4zm-10.72-23.31c-6.976-5.69-16.884-8.386-29.424-8.386v4c12.036 0 20.901 2.596 26.896 7.486l2.528-3.1zm-29.424-8.386c-20.277 0-36.164 6.668-47.364 20.18l3.08 2.552c10.304-12.43 24.966-18.732 44.284-18.732v-4zM22.303 57.481 4.895 42.377 2.273 45.4l17.408 15.104 2.622-3.022zM5.13 45.156C11.9 36.9 20.758 30.427 31.757 25.761l-1.562-3.682C18.666 26.969 9.26 33.81 2.037 42.619l3.094 2.537zm26.616-19.39c11.16-4.665 23.609-7.014 37.373-7.014v-4c-14.225 0-27.207 2.43-38.915 7.323l1.542 3.69zm37.373-7.014c18.458 0 32.898 4.444 43.536 13.118l2.528-3.1c-11.548-9.416-26.975-14.018-46.064-14.018v4zm43.551 13.13c10.576 8.46 15.889 19.981 15.889 34.79h4c0-15.911-5.78-28.626-17.391-37.914l-2.498 3.124zm15.889 34.79c0 9.26-1.982 18.01-5.947 26.27l3.606 1.732c4.227-8.807 6.341-18.148 6.341-28.002h-4zm-5.947 26.27c-3.945 8.219-11.513 17.751-22.874 28.604l2.762 2.892c11.509-10.993 19.471-20.916 23.718-29.764l-3.606-1.732zm-22.88 28.609-54.784 52.736 2.774 2.882 54.784-52.736-2.774-2.882zm-53.397 56.177h91.904v-4H46.336v4z"/></svg>