<svg xmlns="http://www.w3.org/2000/svg" fill="none" viewBox="0 0 147 201"><path fill="#F8F9FA" d="m80.896 94.064-1.554-1.259-2.34 2.89 3.7.36.194-1.991zm40.192 16.384-1.414 1.414.006.007.007.006 1.401-1.427zm6.144 62.72 1.696 1.06.005-.008.005-.008-1.706-1.044zm-23.04 19.712.857 1.807.007-.003.006-.003-.87-1.801zm-73.984 1.536-.632 1.897.012.005.012.003.608-1.905zM1.28 178.288l-1.728-1.006-.814 1.398 1.197 1.088 1.345-1.48zm11.776-20.224 1.373-1.454-1.833-1.731-1.268 2.179 1.728 1.006zm23.552 14.08-.702 1.873.014.005.015.005.673-1.883zm61.44-3.328-1.2-1.6-.009.007-.009.006 1.218 1.587zm.256-46.336-1.194 1.604 1.194-1.604zm-47.616-8.192h-2v2h2v-2zm0-17.92-1.55-1.263-.45.551v.712h2zm45.056-55.296 1.55 1.263 2.66-3.263h-4.21v2zm-86.272 0h-2v2h2v-2zm0-22.272v-2h-2v2h2zm118.272 0h2v-2h-2v2zm0 17.408 1.554 1.259.446-.55v-.709h-2zM80.703 96.055c17.28 1.677 30.183 7.019 38.971 15.807l2.828-2.828c-9.644-9.644-23.536-15.225-41.413-16.96l-.386 3.98zm38.984 15.82c8.794 8.631 13.225 19.703 13.225 33.389h4c0-14.645-4.785-26.784-14.423-36.243l-2.802 2.854zm13.225 33.389c0 9.889-2.467 18.826-7.386 26.86l3.412 2.088c5.321-8.691 7.974-18.357 7.974-28.948h-4zm-7.376 26.844c-4.887 7.819-12.253 14.157-22.214 18.971l1.74 3.602c10.519-5.084 18.513-11.888 23.866-20.453l-3.392-2.12zm-22.201 18.965c-9.731 4.618-21.792 6.975-36.263 6.975v4c14.884 0 27.57-2.422 37.977-7.361l-1.714-3.614zm-36.263 6.975c-12.601 0-24.684-1.848-36.257-5.537l-1.215 3.81c11.98 3.82 24.473 5.727 37.472 5.727v-4zm-36.232-5.529c-11.569-3.857-20.952-9.108-28.215-15.711l-2.69 2.96c7.756 7.051 17.658 12.551 29.64 16.545l1.265-3.794zM3.008 179.294l11.776-20.224-3.456-2.012-11.776 20.224 3.456 2.012zm8.675-19.776c6.373 6.019 14.467 10.84 24.223 14.499l1.404-3.746c-9.358-3.509-16.966-8.075-22.88-13.661l-2.747 2.908zm24.252 14.509c9.786 3.495 20.17 5.237 31.137 5.237v-4c-10.537 0-20.462-1.672-29.791-5.003l-1.346 3.766zm31.137 5.237c13.565 0 24.382-2.866 32.194-8.861l-2.436-3.174c-6.865 5.269-16.7 8.035-29.758 8.035v4zm32.176-8.848c8.044-6.033 12.064-14.408 12.064-24.896h-4c0 9.309-3.49 16.465-10.464 21.696l2.4 3.2zm12.064-24.896c0-10.471-3.922-18.771-11.814-24.644l-2.388 3.208c6.785 5.05 10.202 12.109 10.202 21.436h4zm-11.814-24.644c-7.84-5.835-19.442-8.588-34.474-8.588v4c14.664 0 25.248 2.708 32.086 7.796l2.388-3.208zm-34.474-8.588H50.688v4h14.336v-4zm-12.336 2v-17.92h-4v17.92h4zm-.45-16.657 45.056-55.296-3.1-2.526-45.056 55.296 3.1 2.526zm43.506-58.559H9.472v4h86.272v-4zm-84.272 2V18.8h-4v22.272h4zm-2-20.272h118.272v-4H9.472v4zm116.272-2v17.408h4V18.8h-4zm.446 16.15L79.342 92.804l3.108 2.518 46.848-57.856-3.108-2.518z"/></svg>