<svg xmlns="http://www.w3.org/2000/svg" fill="none" viewBox="0 0 1342 9179"><path stroke="#F8F9FA" stroke-dasharray="20 20" d="M716 8284c0 152-660 59.5-681.5 248m-34 305c10.5 103.5 432 74.5 547.5 114 28.132 9.62 167.499 50 167.499 144M711.5 1067c26-178 417-31.5 472-238.5m3-425.5c-68-156.5-473.5 11.5-473.5-276.5m-.999 2529c-11.501-108-290.135-98.91-194.501-289C558 2286 712.001 2339 712.001 2152m.503 989.5V3080m5.614 3064.47c51.5 128 554.002 32 608.002 128m15 408.5c-33.5 124-170.02 167.81-291 123.5C926 6759 820.5 6749.1 739.5 6739.5c-118.5-14.04-330-34.5-398.5 64.97-68.501 99.46-63.499 190.53 24.5 268.03 87.999 77.5 315.618 97.97 352.618 225.47"/></svg>