<svg width="571" height="212" fill="none" xmlns="http://www.w3.org/2000/svg"><path d="m478.358 14.812 6.126-.255 8.424-3.326 15.061-4.092 2.553.511 1.787 1.535 1.276 3.581-.255 2.046-1.021 4.093v2.302l.255 1.79 1.021 2.558-.51 2.047-1.277 1.279-1.787 1.023-.766 1.023.511 1.535 1.532 1.534 7.147 3.07 2.553 1.79 1.276 2.302.256 3.326-1.022 2.557-3.573 3.326-.766 1.023.255 1.023 5.616 2.558 1.532 1.535 1.021 1.534.255 2.302-.51 1.535-1.022 1.535v1.79l.511 2.302 1.532 3.581.255 2.302-.511 2.047-1.021 1.79-.766 2.302-.255 1.79.255 1.535.766 1.28 1.787.767 4.34 1.023 2.297 1.023 2.808 1.79 2.042 1.535 1.787 2.558 2.553 5.372 3.574 5.627 2.808 1.535h1.787l3.063-2.303 1.532-.767 1.786.512 1.022 1.279 1.021 4.86 1.021 2.046 2.297 2.302 3.574 4.604 3.829 7.162-2.297 2.814-1.021 2.558-.766 1.023-1.021 1.023-1.532 1.023-6.127 3.069-8.423 2.814-8.169 3.581-4.595 4.093-2.042 1.279-2.553 1.023-5.361 1.534-3.829 1.791-6.126 1.023-10.722-1.79-5.36.511-2.808.767-3.574 1.535-1.787.512H490.1l-3.318-2.302-1.277-.512-2.553.256-2.552-.256-3.574-.767-2.297-1.023-3.574-2.814-1.277-.767-1.021-1.024-2.552-1.278-25.272-5.116-2.553-1.023-2.297-1.279-1.277-1.279-1.021-3.07-1.276-1.023-2.553.256h-3.063l-2.042.767-1.277 1.024-1.787 2.813-2.042 2.046-3.063 1.791-13.274 3.325-4.085 3.837-3.573 7.162-.511 1.535-1.532 6.394-1.531 3.581-2.808-2.558-5.616-3.581-3.063.256-5.872 2.814-4.85.767-1.787.512-1.276.767-2.297 2.558-1.277 1.023-5.871 3.325-2.298 1.791-5.36 6.395-1.787 1.278h-2.042l-9.701-1.79-7.402.512-7.148 2.046-5.616 3.837-3.574 6.138-2.553 7.162-3.063 6.139-5.616 2.814-4.595-1.279-4.339-2.814-3.829-1.79-3.319 1.535-2.042 2.302-1.276.511-1.532-.256h-2.553l-2.042.512-5.105 2.814-4.595.767-5.106-1.023-4.595-2.814-2.552-4.604v-2.814l.766-3.069.51-3.069-1.021-3.07-1.532-1.535-4.084-1.79-1.787-1.535v-.256l-3.318-10.743-2.298-4.604-5.105-2.046-3.064-.512-6.381 1.279-3.064-.255-2.042-1.279-3.829-3.326-2.297-1.023-3.064.256-5.615 2.046-2.808.512-1.532.512-1.021 1.278-.766 1.279-1.021.768h-1.787l-3.574-1.023-1.787-.256-2.297.767-15.316 11.255-3.064.767-3.063-1.023-.255-3.069 1.787-7.93v-3.837l-.766-4.092-1.532-2.302-2.552 2.046-4.851 10.231-1.531 2.047-2.808 1.023-2.808-1.023-5.871-3.325-3.574-.768h-3.829l-3.574 1.023-2.808 2.558-2.553 3.837-1.531 1.279-5.106-2.302-6.892-.768-13.274 2.814-6.637-2.046-7.148-4.093-6.637-2.302-6.892-.767-14.806 1.023-3.063 1.279-5.616 5.116-2.808 1.79-3.064 1.023-3.318.512h-3.83l-7.402 1.279-3.574-1.279-4.084-4.349-1.021-.767-1.532.767-.51 1.535-.511 1.791-1.021 1.534-6.637 2.814-2.553-5.371.766-26.602-.51-4.093-1.277-3.581-2.553-3.069-3.063-2.558-2.553-3.069L1 129.916l.51-8.953 1.787-8.696 7.914-23.788 3.318-7.418.766-2.302v-1.28l.51-.51 2.298.51 5.106 5.628 8.168 14.068 16.593-5.883-.255-3.07-4.085-7.161.256-1.535-.256-1.535-.255-1.278-.766-1.28-1.276-7.161 1.021-5.628 2.808-5.115 3.574-5.116.51-1.535.766-3.837.766-1.023 1.276.512 1.787 3.325 1.021 1.023 2.808.256 2.808-.512 67.392-24.3 5.871.768 24.506 16.115 3.829 1.279 8.424-.512 3.829.256 3.829 1.79 2.553 2.814 2.042 3.07 2.808 3.069 3.064 1.535 6.126.767 6.637 2.813 13.529 2.047 4.34 1.279 4.084 2.813 1.787 4.093-2.552 4.86-2.808 2.046-2.808 1.535-2.553 1.79-2.298 3.07-1.531 4.092-.511 3.837 1.277 3.07 3.573 1.278 1.532-2.046 1.532-4.86 1.276-2.046 2.042-1.023 7.148-.256 3.574-1.279 3.318-2.302 3.063-3.07 2.298-4.092 1.532-7.673-.256-6.907.766-5.627 4.595-4.348 10.977-3.837 2.297-1.535 6.637-5.627 1.021-1.535.511-.511h1.021l.766.511.51.512v.255l3.063-1.534 1.277-1.023 2.297-.768 9.19 2.047 5.361-1.79 5.871-4.35 2.808-5.37-3.574-5.372 6.127-6.395 9.955-1.79 19.911 2.813 5.361-.511 2.298-3.837 1.531-4.86 2.553-4.093L347.659 1l1.787 1.279 1.531 2.302 1.787 2.046 2.297 1.023 2.808.256 5.361-.511 3.574.255 5.361 5.116 7.658 2.302 1.531 2.814 1.277 3.325 3.063 3.07 3.574 2.302 3.829 1.534 8.169 1.535 4.339-.512 1.532-2.557.51-3.837 1.021-4.349 3.064-2.813 3.063 2.558 2.297 5.115 1.277 4.605v9.208l1.021 3.325 3.574 1.535 2.297-.768 8.935-5.371 2.808-2.558 1.787-3.07 3.318-7.162 5.361-5.37 6.126-.257 6.637 1.535 6.637.511 2.043-.767 1.021-.256 1.276.256 2.042.767 2.808.512 2.298-.512 1.021-2.557-1.021-1.79v-.257Zm-39.057 61.133-4.34 1.28-6.126 4.603-3.063 1.535-4.34.256-2.808 3.325 1.787 3.325 3.574 2.558 3.318 1.535 4.34 1.279 2.553-.512 1.787-2.814 3.829-14.324-.511-2.046ZM335.15 64.18l-1.276-.256-.766-.511-.51-.512-9.701-4.093-4.595-3.069-2.808-3.837-2.297-6.139-2.808-5.371-3.829-2.558-5.361 3.07-3.063 6.906-1.021 3.837-.255 3.836 1.021 3.581 4.339 9.464 2.042 2.814 2.298 1.279 4.595 1.023 2.042 1.535.766 6.65-7.403 11.51.255 5.628 2.042 1.023 2.298-1.535 2.297-2.302 1.787-1.279 3.319.256.765 2.046.511 2.558 2.042 1.791 2.553.256 8.169-2.302h5.871l2.297-.768 1.787-2.814.255-6.906-7.658-8.185-.51-5.883 2.808-2.814 7.913-5.627 1.277-3.58-1.277-2.047-2.042-.512-4.34 1.28-1.021.51-1.787 1.535-1.021.512Zm-116.148 36.066h-2.553l-.255 3.581 1.276 3.837 2.298 3.325 5.871 4.092 1.787 2.047 4.85 8.441 1.021.767 8.679-7.162 4.85-2.558 5.616-1.023 1.787-1.535.256-4.092-1.277-4.093-2.042-.511-5.361 2.557-6.126-.255-20.677-7.418Z" fill="#F8F9FA" stroke="#155724" stroke-width=".5" stroke-linecap="round" stroke-linejoin="round"/></svg>