<svg width="714" height="328" fill="none" xmlns="http://www.w3.org/2000/svg"><path d="M711.211 83.716H708.4l-2.811-.768-2.556-2.049-5.111-6.914-1.789-1.793-5.878-2.048-19.423-3.33-3.322-1.536-3.323.512-6.9 2.817h-7.667l-3.322.512-3.322 2.561-3.578 4.354-1.278.768h-1.022l-3.067-.512-1.278.256-.511.768-.256 1.025-.511 1.024-6.644 3.585-3.323.768-7.667-.256-6.644 2.817-3.578 1.025-4.345-.769-8.944-3.841-4.601-.512-3.066 1.28-5.112 5.122-3.066.768-1.789-.768-1.789-3.841-1.789-1.025h-2.045l-3.322 1.537-2.045.512-14.567-4.61H531.55l-12.523-3.073h-4.6l-11.245 3.842-3.833-.256-13.289-4.098-6.901-.768-8.689.512-1.789.256-2.555.769-2.045 1.792-5.622 14.853-1.789 3.073-4.089 4.354-4.856 3.585-4.856 2.049-4.6.256-10.989-4.61-3.322-.512-6.901.768-38.59-5.121h-11.5l-4.345-1.025-10.478-6.146-4.089-3.329-4.6-2.817-10.478-3.33-4.856-2.304-4.855-4.353-14.823-7.17-19.423-3.33-6.133-2.305-17.634-13.829-2.3-2.816-4.345-7.427-2.3-3.073-3.322-1.793-6.901-2.048-6.133-4.098-7.411-.768-3.323-1.793-8.944-7.426-4.856-2.561-5.623-1.28-4.855-2.05-8.689-7.938L191.139 1l4.856 6.402 1.789 4.098-.511 3.329-2.811 1.792-27.09 3.073-3.067-1.024-6.133-5.89-3.578-1.28-5.112 4.097-5.878 16.134-6.389 3.585-7.155-.256-2.812.512-29.39 12.292-8.177 4.866-2.556 2.305-2.044 3.585-6.645 18.95-3.323 6.403-1.533 3.329-.511 3.841.511 4.097 2.045 7.683.51 4.354-.766 3.585-4.6 9.987-8.945 20.743-2.044 8.195-.256 8.963 1.278 7.683 2.556 7.426 12.267 24.073 5.11.512 4.09-3.842 1.278-2.816-.256-1.025-.255-1.024-.256-1.281.255-2.817 1.023-2.048 1.278-1.793h.766l.511.768 1.023 4.098.51 1.024.512 1.024.767.769 1.022.512 1.278.768 1.533.256h1.789l4.856-.512h.766l1.789.768 2.3 3.073.256 1.537.256 2.817-.512 1.793-.511 1.536-4.6 4.354-2.811 3.841-1.022 2.049-.511 3.841-4.856 6.658-2.556 1.281-10.222 4.609-3.834.768h-2.81l-4.601-2.56-1.278-.513-6.645-.768h-4.089l-2.81.768-6.645 2.817-2.556.513-2.556-.513-2.3-1.024-3.066-.512-2.3.256-3.323 1.024-3.322.512-4.09 1.025-4.855 2.561-.511.256-.767.768-1.789 2.561-2.044 1.536-2.3.513H6.11l-1.789.512-1.277 1.28-.512 1.793L1 249.149v2.817l.767 1.281 1.022 1.024 6.133 1.793.767.512.767.512.255.512v1.024l-.51 1.281-1.79 3.329 1.023 3.073.766 1.024.767.513 1.022-.256h1.79l2.555.512 8.689 3.329 7.667 1.536 2.044.513 2.556 2.56 1.022.769h3.067l1.789.512 2.044.768 3.067 1.793 1.534 1.28 1.022 1.281.511 1.024.767 2.049 1.278 4.609.51.769.767.256 4.856-1.281h1.533l2.045.512 5.367 2.305h2.556l5.11-1.28h2.3l2.3.256 15.846 6.402h1.789l2.811-.256 1.278-.768 1.022-.769 1.022-1.536 1.278-1.537 1.022-.768 3.834-2.049 1.022-.256 1.278-.256 1.533.256 3.578.512 1.534.513 2.3 1.28 1.788 3.329 2.812 9.732 20.445-2.305 2.811.256 3.322-1.281 7.156-5.633 1.022 2.048.512.768 1.022 2.817.511 1.281.767 1.28 1.788 1.281.767 1.024 1.789 3.841 1.022 1.025 1.023 1.024 1.533.768 1.278.256h1.533l1.278-.256 4.089-1.28h.767l.766.512.512.768.255 1.281v1.536l-1.022 5.122v1.537l.255 1.28.512 1.024.511 1.025.766.256.767.256 1.278-.768.767-1.537.766-5.634.511-2.048.767-1.281 1.533-1.536 4.856-3.33 1.022-.512h.767l.767.256.766.513 1.534 1.536 1.022.512 1.022.512 1.534-.256 1.789-.768 2.044-1.536 1.022-1.537.512-1.793-.256-3.841v-1.793l.511-1.536 1.534-2.049 4.344-4.865.767-1.793.255-1.793-.766-3.841-.256-1.537.256-1.28.766-2.305.511-1.536.767-1.281 2.3-2.817 1.534-1.536 2.3-1.537.255-.768-.255-.768-1.278-1.537-1.533-1.024-4.345-1.025-.511-2.56v-2.561l3.067-19.463.511-2.305.511-.256.767-.256 1.022-.256h4.344l6.645 1.28 1.789.513 1.278.768 1.789.512 30.412-4.866 3.833.256 1.022 1.025.512 1.024.511 1.281.255 1.024h2.3l3.834-6.146 6.9-8.963 3.322-1.793 13.29-1.28h1.277l3.834 1.536 1.278.256 1.278-.256.766-.512-.255-2.561-1.278-3.073-7.923-13.06-3.322-8.195 2.045-1.025 24.789-4.097 2.3-1.024 1.278-1.025 1.022-1.024 1.534.256 1.533.768 4.6 5.634 5.623-1.792 2.3-1.793.766-1.024 1.023-.512 1.533-.257 6.9 2.561 26.068 1.025 1.789-.256 4.855-1.793 1.534-.768.766-.769 1.023-.512h1.278l7.155 3.329 1.278.256h2.556l12.522-3.073 2.556-1.536h1.022l1.023.768.766.768.256 1.281.511 1.024v1.281l-.511 4.097v1.281l1.022.256 2.556-.769 8.944-5.89 2.301-2.561.511-1.024 3.066-1.536 6.901-4.354 1.277-1.024.767-1.025.767-2.304v-4.354l.511-1.024 1.022-.769 2.3-.256 2.045-.512 2.3-1.024 4.089-3.329 2.3-1.537 4.089-2.049 1.789-1.024 1.022-1.024 1.533-3.842 1.534-1.024 2.3-.256 13.034 1.024 3.066-.256 24.023-5.89h3.834l2.811 1.793 2.3.512 1.022.256h1.278l1.534-.256 1.789-1.024 4.089-2.817 1.277-1.281 9.201-11.268 3.578-2.817 3.833-2.304 12.011-5.634 12.779-2.817 1.022-.512 1.022-.769 3.322-7.426.767-1.025 1.022-.512 1.789.256 10.99 2.561 4.344-.256 5.367 1.793h2.045l2.3-.512 9.2-5.122 1.278-.256 1.533.512 8.178 3.329 5.367.768h1.278l1.278-.768 1.022-1.537.767-1.28.511-1.536.511-1.537.767-1.28.766-1.025 2.3-.256 40.379.768 3.578-.768 4.6-1.536 1.278-1.025 1.022-1.536.767-4.098.767-2.048 4.344-4.61 1.023-.768.766-.512h1.023l2.555.768h1.022l1.278-.512.511-1.537.256-2.049-1.789-5.89Z" fill="#F8F9FA" stroke="#155724" stroke-width=".5" stroke-linecap="round" stroke-linejoin="round"/></svg>