<svg width="792" height="322" fill="none" xmlns="http://www.w3.org/2000/svg"><path d="m189.813 2.538 4.344-1.282 22.739 5.129 2.044.256 2.555-.256 6.132-1.795 3.577-1.795 1.788-.513 21.462-.77 4.599 1.283 28.616 13.077 2.555.769 2.044-.256 1.277-.513 5.621 1.025 19.163 8.206 3.321 1.282 3.066 2.05 4.343 3.847 11.242.513 3.066-.77 3.322-1.794 3.832-4.616 1.789-4.359 1.788-7.18L355.12 11l1.533-2.82 2.3-2.308 4.088-1.795 3.066-1.026L378.882 1h5.365l2.3.77 2.555 2.307 1.277 2.564 1.022 2.308 2.044 1.538 3.066.77 5.365-.257 5.877.256 5.876 3.847 2.811 1.025 6.898-2.308 2.811-.256 5.621 3.333 9.453 3.59 3.577 2.051 3.322 2.564 8.176 8.719 2.555 1.025 2.81.257 5.365-.77 3.577-1.282 2.044-2.307.511-2.052v-2.564l.256-2.564 2.81-2.564 4.599-2.051 16.608-4.103 1.277.257 1.533 1.538 2.044 1.026 1.789.512 5.365-1.794 1.022 3.076.767 1.026.766.513 1.022-.513h1.789l2.555.513 8.686 3.333 7.665 1.539 2.044.769 2.555 2.564 1.022.77h3.066l1.789.512 2.044.77 3.066 1.794 1.533 1.282 1.022 1.282.511 1.026.766 2.051 1.278 4.36.511.769.766.256 4.855-1.282 1.533.256 2.044.513 5.621 2.308h2.555l5.11-1.282 2.299-.257 2.3.513L597.843 51l1.789.256 2.81-.512 1.533-.77 1.022-.769 1.022-1.538 1.278-1.539 1.022-.769 3.832-2.051 1.022-.257 1.278-.256h1.533l3.577.77 1.533.512 2.299 1.282 1.789 3.077 2.555 9.743L626.715 61l-3.833 5.897-1.022 2.308-.511 1.026-1.022 1.025-1.022.513-1.277.257h-2.3l-.766.256-.511.513v.77l.511 1.025 1.277 1.025 1.022.77 1.278 1.282 3.832 4.871 2.044 1.795 1.789 1.026 1.533.256 1.533-.512 1.277-1.026 1.022-1.282.511-1.282.256-1.539-.256-2.307v-.513h.511l5.621 2.564 1.278.77 2.044 1.794.766.513 1.022-.257 4.599-2.564h.511l.767.257 2.044 1.025 4.087 1.282.767.513.767.77.766 1.282.766 1.794.511 3.334v3.59l-.766 12.564v1.025l.255.513.511.513 6.132 1.282 7.41.256 5.621 1.282 1.277.77.767 1.025.766 2.052 1.022 4.871 2.044 18.205v1.539l-1.277.769h-2.3l-5.621-1.795-2.299-1.538-1.022-1.795.511-3.333v-3.077l-.256-1.795-.766-2.051-1.022-1.795-1.533-1.539-1.533-1.025-1.533-.77-3.322-.769-7.153-1.026-1.278.257-1.022.256-1.022.77-4.088 3.846-1.022.769.256 1.282h.766l1.789 2.82 2.555 6.154 1.022 1.795 2.81-.769 2.044.769 1.789 1.026 1.277 1.282 1.789 2.308 1.021.769 1.022.513 1.278.256 1.022.256 1.022.77 3.577 3.589 1.788 1.026 1.789.769 2.044.257 2.044-.257 5.365-1.538 2.811-.257 4.088.513 2.299 1.026 1.789 1.282 2.555 2.564 1.022.769 1.277.257 1.022-.257 1.533-1.025 2.555-1.026 3.833-.769 8.686-.257 9.198 1.282 1.278.513 1.277 1.026 1.789.513 2.044-.257 3.577-1.795 3.577-3.076 1.788-.77 3.322-.256 2.044.256 1.788.513 1.278.513 2.81-.513 21.462-9.231 1.533-1.025.256-.257.255-.513.256-.512.511-1.539.511-.769 1.022-.769 1.277-.513h2.299l1.278.256 4.854 3.334 1.533 1.538.256.769v1.282l-.511 1.539-2.3 5.128-.51 2.308-.256 7.436-.511 2.307-1.533 4.872-2.044 8.718-2.299 6.41-1.022 2.052-5.877 8.461-1.277 1.282-1.533 1.026-5.11 1.795-6.132 3.077-2.811.769-10.731 1.538-2.555.77-2.81 1.025-4.599 2.821-13.542 4.871-1.788 1.026-.767 1.026v1.795l2.3 5.641 1.022 1.795 4.599 6.666 1.022 1.026.767.769.255.513-.255.513-.767.513-2.555.512-1.788-.512-3.066-1.283-1.278-.256h-1.022L705.919 231l-8.687.256-.766.257-4.599 3.077-1.533.769-2.811.769-1.277.513-1.022 1.026-1.789 2.307-1.533.77h-1.788l-1.278-.257h-1.277l-1.278.769-1.022 1.282-1.533 3.334-.255 1.538.511 1.539 13.286 10.769-.256 2.051-2.299 3.59-15.075 18.462-19.673-10.257-.766-1.026-.767-1.794-.255-3.334.255-2.82-.255-2.308-.767-1.538-3.577-2.821-1.022-1.282-.255-2.051.511-3.077-.256-1.282-.766-.769-1.789-.77-2.81.513-2.811 3.333-9.198 15.129-1.022 1.025-6.643 4.616-2.044 2.051-1.533 2.051-.766 1.795-.256 1.795v1.795l.256 3.077v1.282l-.256 1.025-.766.513-1.022.257-2.3-.77-1.533-1.025-2.044-1.795-.766-.513-1.022-.256-3.066-.513-1.278-.513-.766-.769-.256-1.282v-1.282l-.255-1.282-.511-1.026-.767-.513-4.343-.256-.767-.513-.255-.769.255-1.026.767-1.282 2.044-2.308 14.563-13.846.767-1.538.255-1.282-.255-1.026-.256-.769-.511-.769-2.299-2.821-1.278-2.051-.511-.513h-1.022l-5.11 1.026-1.022.512-.766.77-.767 2.051.256 1.282.255 1.282.511 1.026.256 1.025v.77l-.511 1.025-1.022.513-2.555.769-1.789.257-14.563-1.282-5.876.256-.767-.256-1.022-.513-.766.513-1.022 1.282-3.322 5.384-1.277 1.539-2.044 1.538-1.278 1.282-1.277 2.052-1.533 3.333-1.533.769-1.278.257h-1.277l-.511-.257-.511-.513-1.022-2.051-.767-1.282-.766-1.026-1.022-.512h-1.022l-1.022.512-8.943 6.667-1.533 1.538-1.277 1.795-.767 2.564v2.052l.511 3.333-.255 1.538-.511 2.565v1.025l.255 1.282.511 1.282.511 1.539v1.282l-.255 1.282-.511 1.538-1.533 1.795-2.3 1.795-9.964 4.616-4.599 4.871-3.066 2.564-3.832-.769-10.22.769-3.577-2.564-2.3-3.333-2.81-1.795-12.775 5.898-7.921 5.641-2.299.256.511-3.846-.767-6.667-6.643-1.795-21.972 2.052-7.41-.77-6.643-2.82-5.365-5.898-7.41-11.538-3.321-1.282-4.344-.257-3.066-1.538v-5.128l.256-1.282v-1.282l-.511-1.026-.767-.769-9.197-.769-4.855-1.539-3.577-2.308-4.854-7.692-2.3-1.538-3.066 2.564-1.022 1.538-2.044 5.898-1.277 1.025-6.388.77-9.964 3.076-5.11 1.539 2.299-5.385 1.278-4.102v-4.359l-1.533-11.795-.256-6.41-.766-6.154-2.044-4.359-4.344-2.564-4.088.769-4.088 2.564-3.577 3.333-5.109 3.077-3.066-1.538-2.555-3.846-4.088-3.59-13.542 2.308-4.343-2.308-1.022-9.744.511-9.743-1.022-7.436-2.811-6.667-16.096-24.102-1.278-1.282-1.533-.513-1.022 1.025v4.872l-1.277 1.282-1.533-.769-1.022-3.59-1.789-.769-.766 1.282-.767 2.564-1.022 1.795-1.533-.513-.255-2.82 3.066-12.821v-4.872l-1.022-4.359-1.533-5.384-3.832-.513-3.833 1.538-2.044 2.565-3.321 8.718 1.788 3.846 4.855 6.154.766 4.102-.766 4.616-2.555 7.692-5.621 12.307-4.855 4.872-5.876 1.282-7.41-3.333-8.176-7.692-2.299-.513-1.022 2.82 1.533 39.488-1.022 7.948-3.833 3.334-11.753-10.257-4.343 5.641-1.789 4.359-2.299.257-2.299-2.308-1.533-3.077-2.044-8.718-2.044-2.82-4.088-.257-3.577 2.051-.511 3.077.766 4.103.256 4.872-1.789 4.359-2.81-1.795-4.344-7.436-2.81-2.308-6.388-.769-3.066-1.795-3.577-2.82-3.832-1.795-8.176-1.539-7.41 1.026-3.321-.256-3.066-3.077-2.299-3.334-2.811-2.82-3.066-2.308-3.321-1.282-3.833.256-3.321 1.539-2.811.513-2.044-3.077-.255-4.103 2.555-14.102-.256-4.872-1.533-4.616-9.709-16.666-2.81-3.846-3.322-2.052-5.876.77-20.951 12.051-5.876 2.308h-1.022l-3.066-.257-2.555-2.308-4.088-7.948-2.555-3.334-2.81-2.564-6.388-3.846-24.273-2.82-6.387-3.334L1 151.256l3.577-5.897 27.85-16.41 10.22-8.205 5.62-2.821 5.11-3.59 4.088-6.154 5.11-10.769 7.41-8.974L86.846 73.82l5.366-3.076 17.118-2.052 5.877-2.307 1.788-3.847.511-13.333 3.066-8.461 7.154-1.795 8.431.256 7.154-1.795 24.273-18.205 14.052-4.102 6.388-4.616 2.555-8.718-.767.77Z" fill="#F8F9FA" stroke="#155724" stroke-width=".5" stroke-linecap="round" stroke-linejoin="round"/></svg>