<svg width="1072" height="729" fill="none" xmlns="http://www.w3.org/2000/svg"><path d="M0 261.217V89.759a8.548 8.548 0 0 1 8.548-8.548H48.64a8.548 8.548 0 0 1 8.548 8.548v167.62c0 18.678 4.734 32.879 14.201 42.602 9.468 9.723 22.645 14.585 39.532 14.585 16.376 0 29.298-4.989 38.765-14.968 9.467-9.979 14.201-24.052 14.201-42.219V89.759a8.548 8.548 0 0 1 8.548-8.548h40.475a8.548 8.548 0 0 1 8.548 8.548v171.458c0 35.566-10.491 62.56-31.472 80.983-20.726 18.423-47.081 27.634-79.065 27.634-31.984 0-58.466-9.211-79.448-27.634C10.491 323.777 0 296.783 0 261.217ZM307.202 81.7a8.548 8.548 0 0 1 8.549 8.548v271.747a8.548 8.548 0 0 1-8.549 8.549h-37.02a8.549 8.549 0 0 1-8.548-8.549V90.248a8.548 8.548 0 0 1 8.548-8.549h37.02ZM516.32 345.271c-16.887 16.375-40.3 24.563-70.237 24.563-29.937 0-53.477-8.188-70.62-24.563-16.888-16.632-25.331-39.533-25.331-68.702V164.218a8.548 8.548 0 0 1 8.548-8.548h37.02a8.548 8.548 0 0 1 8.548 8.548v112.351c0 13.305 3.711 23.924 11.131 31.856 7.42 7.932 17.655 11.898 30.704 11.898 13.05 0 23.285-3.966 30.705-11.898 7.42-7.932 11.131-18.551 11.131-31.856V164.218a8.548 8.548 0 0 1 8.548-8.548h37.02a8.548 8.548 0 0 1 8.548 8.548v112.351c0 29.425-8.571 52.326-25.715 68.702ZM646.164 370.218c-33.837 0-61.128-11.651-81.872-34.952-2.7-3.033-2.605-7.578.012-10.683l17.697-21.001c3.434-4.075 9.705-4.02 13.556-.336 5.809 5.556 12.315 10.225 19.519 14.007 10.491 5.117 20.981 7.676 31.472 7.676 8.188 0 14.969-1.919 20.342-5.757 5.629-3.838 8.444-8.7 8.444-14.585 0-7.42-4.99-13.433-14.969-18.039-3.07-1.279-11.386-4.478-24.947-9.595-12.026-4.35-20.982-8.06-26.867-11.131-24.052-11.514-36.078-29.553-36.078-54.116 0-18.167 7.165-33.264 21.493-45.29 14.073-11.77 33.008-17.655 56.804-17.655 27.023 0 49.698 8.272 68.025 24.815 3.14 2.834 3.375 7.602.796 10.955l-16.604 21.584c-3.09 4.017-8.952 4.436-12.967 1.345-12.607-9.707-26.202-14.561-40.785-14.561-6.909 0-12.666 1.791-17.272 5.373-4.35 3.327-6.524 7.421-6.524 12.282 0 8.7 6.14 15.097 18.422 19.191 27.379 10.234 44.138 17.015 50.279 20.341 23.54 12.282 35.31 29.937 35.31 52.966 0 19.702-7.676 35.822-23.028 48.36-14.841 12.537-34.926 18.806-60.258 18.806ZM809.319 361.995a8.55 8.55 0 0 1-8.549 8.549h-37.02a8.549 8.549 0 0 1-8.548-8.549V90.248a8.548 8.548 0 0 1 8.548-8.549h35.485a8.548 8.548 0 0 1 8.548 8.549v98.371c5.629-9.723 14.457-17.655 26.483-23.796 12.026-6.141 25.203-9.212 39.532-9.212 22.517 0 41.707 7.549 57.571 22.645 15.864 15.097 23.796 36.59 23.796 64.48v119.259a8.549 8.549 0 0 1-8.548 8.549h-37.02a8.549 8.549 0 0 1-8.548-8.549V257.32c0-16.375-3.967-29.041-11.899-37.996-7.676-9.212-18.294-13.818-31.856-13.818-14.328 0-25.971 4.99-34.926 14.969-8.7 9.723-13.049 22.389-13.049 37.997v103.523ZM556.689 629.139c3.886-1.545 8.534-.324 10.425 3.405 1.541 3.037.76 6.815-2.224 8.455-5.688 3.126-12.279 4.688-19.773 4.688-9.742 0-17.136-2.992-22.182-8.978-5.047-6.103-7.57-14.788-7.57-26.055V562.77h-9.947a6.777 6.777 0 0 1-6.777-6.777 6.777 6.777 0 0 1 6.777-6.778h10.123v-25.527a7.746 7.746 0 1 1 15.492 0v25.527h26.847a6.777 6.777 0 0 1 6.777 6.778 6.777 6.777 0 0 1-6.777 6.777h-26.847v49.469c0 12.675 5.164 19.013 15.492 19.013 3.234 0 6.622-.704 10.164-2.113ZM594.035 635.565a7.834 7.834 0 0 1-15.668 0v-78.956a7.394 7.394 0 0 1 14.788 0v6.689c5.398-11.032 14.494-16.548 27.287-16.548 1.482 0 3.036.096 4.662.287 3.619.425 6.004 3.821 5.671 7.451-.426 4.628-5.04 7.557-9.686 7.415a25.23 25.23 0 0 0-.823-.013c-7.864 0-14.201 2.699-19.013 8.098-4.812 5.281-7.218 12.851-7.218 22.71v42.867ZM710.827 563.122v-6.337a7.57 7.57 0 1 1 15.14 0v79.044a7.57 7.57 0 1 1-15.14 0v-5.986c-8.567 10.563-19.776 15.844-33.625 15.844-13.614 0-24.881-4.753-33.8-14.259-8.92-9.624-13.38-21.536-13.38-35.737s4.46-25.82 13.38-34.857c8.919-9.272 20.186-13.908 33.8-13.908 13.732 0 24.94 5.399 33.625 16.196Zm1.232 33.097c0-9.624-3.11-17.839-9.33-24.646-6.103-6.808-14.084-10.211-23.942-10.211-9.859 0-17.839 3.403-23.942 10.211-5.986 6.689-8.979 14.963-8.979 24.822 0 9.741 2.993 18.015 8.979 24.822 6.22 6.69 14.201 10.035 23.942 10.035s17.722-3.345 23.942-10.035c6.22-6.924 9.33-15.257 9.33-24.998ZM783.373 621.041l27.411-66.969a7.82 7.82 0 0 1 7.236-4.857c5.652 0 9.437 5.811 7.152 10.979l-34.559 78.198a8.108 8.108 0 0 1-14.833 0l-34.506-78.078c-2.309-5.225 1.517-11.099 7.23-11.099a7.905 7.905 0 0 1 7.309 4.895l27.56 66.931ZM923.352 594.634c0 1.291-.176 4.049-.528 8.275H847.3c1.409 8.567 4.93 15.374 10.563 20.421 5.634 5.046 13.38 7.57 23.238 7.57 5.516 0 11.267-.998 17.252-2.993 3.316-1.084 6.407-2.341 9.273-3.772 3.751-1.873 8.506-.781 10.529 2.892 1.676 3.043.913 6.892-2.061 8.689-3.815 2.305-8.203 4.338-13.163 6.098-7.277 2.465-14.671 3.697-22.182 3.697-11.267 0-20.773-2.464-28.519-7.393-7.746-4.93-13.262-10.974-16.549-18.133-3.286-7.277-4.929-15.257-4.929-23.942 0-14.201 4.401-25.938 13.204-35.209 8.802-9.272 20.186-13.908 34.152-13.908 13.262 0 24.118 4.284 32.569 12.852 8.45 8.567 12.675 20.186 12.675 34.856Zm-25.351-25.878c-5.281-5.047-11.912-7.57-19.893-7.57-7.98 0-14.787 2.582-20.421 7.746-5.633 5.046-9.096 11.677-10.387 19.893h59.504c-.47-8.333-3.404-15.023-8.803-20.069ZM946.392 510.133a7.834 7.834 0 0 1 7.834 7.834v117.598a7.834 7.834 0 0 1-15.668 0V517.967a7.833 7.833 0 0 1 7.834-7.834Z" fill="#fff"/><path fill-rule="evenodd" clip-rule="evenodd" d="M598.386 11.398C598.386 5.103 603.489 0 609.784 0h230.094C967.742 0 1071.4 103.654 1071.4 231.518c0 127.865-103.659 231.519-231.523 231.519H563.999c-66.883 0-121.102 54.219-121.102 121.102 0 66.883 54.219 121.102 121.102 121.102h153c6.295 0 11.398 5.103 11.398 11.398s-5.103 11.397-11.398 11.397h-153c-79.472 0-143.897-64.425-143.897-143.897 0-79.473 64.425-143.898 143.897-143.898h275.878c115.275 0 208.723-93.448 208.723-208.723 0-115.274-93.448-208.722-208.722-208.722H609.784c-6.295 0-11.398-5.103-11.398-11.398Z" fill="#fff"/><path fill-rule="evenodd" clip-rule="evenodd" d="M598.386 11.398C598.386 5.103 603.489 0 609.784 0h230.094C967.742 0 1071.4 103.654 1071.4 231.518c0 127.865-103.659 231.519-231.523 231.519H563.999c-66.883 0-121.102 54.219-121.102 121.102 0 66.883 54.219 121.102 121.102 121.102h153c6.295 0 11.398 5.103 11.398 11.398s-5.103 11.397-11.398 11.397h-153c-79.472 0-143.897-64.425-143.897-143.897 0-79.473 64.425-143.898 143.897-143.898h275.878c115.275 0 208.723-93.448 208.723-208.723 0-115.274-93.448-208.722-208.722-208.722H609.784c-6.295 0-11.398-5.103-11.398-11.398Z" fill="url(#a)"/><defs><linearGradient id="a" x1="745.403" y1=".398" x2="745.403" y2="853.398" gradientUnits="userSpaceOnUse"><stop stop-color="#FF971C"/><stop offset="1" stop-color="#ED3B02"/></linearGradient></defs></svg>