<svg width="180" height="48" viewBox="0 0 180 48" fill="none" xmlns="http://www.w3.org/2000/svg">
<path d="M65.7568 30.6486C64.946 30.6486 64.2973 30.4054 63.8108 29.9189C63.3244 29.4324 63.0811 28.7838 63.0811 27.973V13.3784C63.3244 13.3784 63.6487 13.2973 64.0541 13.2162C64.5406 13.1351 64.946 13.1351 65.3514 13.1351C65.7568 13.1351 66.1622 13.1351 66.4865 13.2162C66.8108 13.2973 67.0541 13.3784 67.2973 13.5405C67.5406 13.7027 67.7027 13.9459 67.7838 14.2703C67.8649 14.5946 67.946 15 67.946 15.4865V26.6757H74.4325C74.5946 26.9189 74.6757 27.1622 74.8379 27.4865C74.9189 27.8108 75 28.2162 75 28.5405C75 29.2703 74.8379 29.8378 74.5135 30.1622C74.1892 30.4865 73.7838 30.6486 73.2162 30.6486H65.7568Z" fill="#FFBA31"/>
<path d="M91.1352 23.6757C91.1352 24.8108 90.973 25.8648 90.5676 26.7567C90.2433 27.6486 89.6757 28.4594 89.0271 29.027C88.3784 29.6757 87.5676 30.0811 86.6757 30.4054C85.7838 30.7297 84.7298 30.8919 83.6757 30.8919C82.5406 30.8919 81.5676 30.7297 80.6757 30.4054C79.7838 30.0811 78.973 29.5946 78.3244 28.9459C77.6757 28.2973 77.1892 27.5675 76.7838 26.6757C76.4595 25.7838 76.2162 24.7297 76.2162 23.5946C76.2162 22.4594 76.3784 21.4865 76.7838 20.5946C77.1081 19.7027 77.6757 18.8919 78.3244 18.3243C78.973 17.6757 79.7838 17.1892 80.6757 16.8648C81.5676 16.5405 82.6217 16.3784 83.6757 16.3784C84.8108 16.3784 85.7838 16.5405 86.6757 16.8648C87.5676 17.1892 88.3784 17.6757 89.0271 18.3243C89.6757 18.973 90.1622 19.7027 90.5676 20.5946C90.973 21.6486 91.1352 22.6216 91.1352 23.6757ZM81.3244 23.6757C81.3244 24.8108 81.5676 25.7027 81.973 26.3513C82.3784 27 83.0271 27.2432 83.8379 27.2432C84.6487 27.2432 85.2163 26.9189 85.6217 26.3513C86.0271 25.7027 86.2703 24.8919 86.2703 23.7567C86.2703 22.6216 86.0271 21.7297 85.6217 21.1621C85.2163 20.5135 84.5676 20.2702 83.7568 20.2702C82.946 20.2702 82.3784 20.5946 81.8919 21.1621C81.4865 21.7297 81.3244 22.6216 81.3244 23.6757Z" fill="#FFBA31"/>
<path d="M102.324 30.2432C102.081 30.4865 101.676 30.6486 101.189 30.7297C100.703 30.8919 100.135 30.8919 99.4865 30.8919C98.7568 30.8919 98.1082 30.8108 97.5406 30.6486C96.973 30.4865 96.6487 30.1621 96.4055 29.7567C96.2433 29.4324 96.0001 29.027 95.8379 28.3784C95.5946 27.8108 95.3514 27.1621 95.1082 26.4324C94.8649 25.7027 94.5406 24.9729 94.2974 24.1621C94.0541 23.3513 93.7298 22.5405 93.4865 21.7297C93.2433 20.9189 93.0001 20.1892 92.7568 19.4594C92.5136 18.7297 92.3514 18.0811 92.2703 17.5135C92.5136 17.2702 92.919 17.027 93.3244 16.7838C93.7298 16.6216 94.2163 16.4594 94.7838 16.4594C95.4325 16.4594 96.0001 16.6216 96.4055 16.8648C96.8109 17.1081 97.1352 17.6757 97.3784 18.4054L98.5136 22.7027C98.7568 23.5135 98.919 24.3243 99.0811 24.9729C99.2433 25.6216 99.4055 26.1892 99.4865 26.5946H99.6487C99.973 25.2162 100.378 23.6757 100.784 21.973C101.189 20.2702 101.514 18.6486 101.838 16.9459C102.162 16.7838 102.487 16.6216 102.892 16.5405C103.297 16.4594 103.703 16.3784 104.027 16.3784C104.676 16.3784 105.243 16.5405 105.73 16.7838C106.216 17.027 106.378 17.5946 106.378 18.2432C106.378 18.5675 106.297 18.973 106.135 19.5405C105.973 20.1081 105.811 20.7567 105.568 21.4865C105.324 22.2162 105.081 22.9459 104.838 23.7567C104.514 24.5675 104.27 25.3784 103.946 26.1081C103.622 26.9189 103.378 27.5675 103.054 28.2973C102.811 29.1892 102.568 29.7567 102.324 30.2432Z" fill="#FFBA31"/>
<path d="M115.622 31.054C114.487 31.054 113.514 30.8919 112.541 30.5675C111.568 30.2432 110.757 29.7567 110.027 29.1892C109.297 28.5405 108.73 27.8108 108.324 26.8378C107.919 25.8648 107.757 24.8108 107.757 23.5135C107.757 22.2973 107.919 21.1621 108.324 20.2702C108.73 19.3784 109.297 18.6486 109.946 18.0811C110.595 17.5135 111.324 17.1081 112.216 16.7838C113.027 16.5405 113.919 16.3784 114.811 16.3784C115.784 16.3784 116.757 16.5405 117.568 16.8648C118.378 17.1892 119.108 17.5946 119.676 18.0811C120.243 18.6486 120.73 19.2162 121.054 19.9459C121.378 20.6757 121.541 21.4865 121.541 22.3784C121.541 23.027 121.378 23.5135 120.973 23.8378C120.649 24.1621 120.081 24.4054 119.514 24.4865L112.541 25.5405C112.784 26.1892 113.189 26.5946 113.838 26.9189C114.487 27.2432 115.216 27.4054 116.027 27.4054C116.838 27.4054 117.568 27.3243 118.216 27.0811C118.865 26.9189 119.432 26.6757 119.919 26.3513C120.243 26.5135 120.487 26.8378 120.649 27.1621C120.892 27.4865 120.973 27.8919 120.973 28.2162C120.973 29.027 120.568 29.6756 119.757 30.0811C119.189 30.4054 118.459 30.6486 117.73 30.7297C117 30.9729 116.351 31.054 115.622 31.054ZM114.892 19.9459C114.405 19.9459 114.081 20.027 113.757 20.1892C113.432 20.3513 113.189 20.5135 112.946 20.7567C112.703 21 112.622 21.2432 112.459 21.5675C112.378 21.8919 112.297 22.1351 112.297 22.4594L117.162 21.6486C117.081 21.2432 116.919 20.9189 116.514 20.5135C116.108 20.1081 115.541 19.9459 114.892 19.9459Z" fill="#FFBA31"/>
<path d="M123.811 13.054C123.811 12.3243 124.054 11.7567 124.541 11.2703C125.027 10.7838 125.676 10.5405 126.487 10.5405C127.297 10.5405 127.946 10.7838 128.432 11.2703C128.919 11.7567 129.162 12.3243 129.162 13.054C129.162 13.7838 128.919 14.3513 128.432 14.8378C127.946 15.3243 127.297 15.5676 126.487 15.5676C125.676 15.5676 125.027 15.3243 124.541 14.8378C124.054 14.3513 123.811 13.7838 123.811 13.054ZM128.838 30.5676C128.595 30.5676 128.351 30.6486 127.946 30.7297C127.541 30.8108 127.135 30.8108 126.73 30.8108C126.324 30.8108 125.919 30.8108 125.595 30.7297C125.27 30.6486 125.027 30.5676 124.784 30.4054C124.541 30.2432 124.378 30 124.297 29.6757C124.135 29.3513 124.135 29.027 124.135 28.5405V17.027C124.378 17.027 124.622 16.9459 125.027 16.8649C125.432 16.7838 125.838 16.7838 126.243 16.7838C126.649 16.7838 127.054 16.7838 127.378 16.8649C127.703 16.9459 127.946 17.027 128.189 17.1892C128.432 17.3513 128.595 17.5946 128.676 17.9189C128.838 18.2432 128.838 18.5676 128.838 19.054V30.5676Z" fill="#FFBA31"/>
<path d="M136.703 25.8648C136.703 26.3513 136.865 26.6756 137.189 26.9189C137.514 27.1621 137.919 27.2432 138.487 27.2432C138.73 27.2432 139.054 27.2432 139.378 27.1621C139.703 27.0811 139.946 27.0811 140.189 27C140.351 27.2432 140.514 27.4054 140.595 27.7297C140.757 27.9729 140.757 28.2973 140.757 28.6216C140.757 29.3513 140.514 29.9189 139.946 30.4054C139.378 30.8919 138.487 31.054 137.108 31.054C135.487 31.054 134.189 30.6486 133.297 29.9189C132.405 29.1892 131.919 27.9729 131.919 26.2702V14.1081C132.162 14.027 132.405 14.027 132.811 13.9459C133.216 13.8648 133.622 13.8648 134.027 13.8648C134.838 13.8648 135.487 14.027 135.973 14.2702C136.459 14.5946 136.703 15.1621 136.703 16.1351V17.9189H140.432C140.514 18.1621 140.676 18.4054 140.757 18.7297C140.838 19.054 140.919 19.3784 140.919 19.7838C140.919 20.4324 140.757 20.9189 140.514 21.2432C140.189 21.5675 139.865 21.6486 139.378 21.6486H136.784V25.8648H136.703Z" fill="#FFBA31"/>
<path d="M142.297 28.2973C142.297 27.4865 142.541 26.8378 143.027 26.3513C143.514 25.8649 144.162 25.5405 145.054 25.5405C145.865 25.5405 146.595 25.7838 147.081 26.3513C147.568 26.9189 147.811 27.5676 147.811 28.2973C147.811 29.1081 147.568 29.7567 147.081 30.2432C146.595 30.7297 145.946 31.054 145.054 31.054C144.243 31.054 143.514 30.8108 143.027 30.2432C142.541 29.7567 142.297 29.1081 142.297 28.2973Z" fill="#FFBA31"/>
<path d="M163.297 28.0541C163.216 28.9459 162.973 29.5946 162.486 30.0811C162.081 30.5676 161.432 30.8108 160.622 30.8108C160.054 30.8108 159.486 30.6486 159 30.4054C158.514 30.0811 158.027 29.5946 157.459 28.9459L154.703 25.4595V30.5676C154.459 30.5676 154.216 30.6486 153.811 30.7297C153.405 30.8108 153 30.8108 152.595 30.8108C152.189 30.8108 151.784 30.8108 151.459 30.7297C151.135 30.6486 150.892 30.5676 150.649 30.4054C150.405 30.2432 150.243 30 150.162 29.6757C150 29.3513 150 29.027 150 28.5405V12.1622C150.243 12.0811 150.486 12.0811 150.892 12C151.297 11.9189 151.703 11.9189 152.108 11.9189C152.514 11.9189 152.919 11.9189 153.243 12C153.568 12.0811 153.811 12.1622 154.054 12.3243C154.297 12.4865 154.459 12.7297 154.541 13.0541C154.703 13.3784 154.703 13.7027 154.703 14.1892V21.6486L159.568 16.7027C160.541 16.7027 161.351 16.9459 161.919 17.3513C162.486 17.7568 162.811 18.3243 162.811 18.973C162.811 19.2162 162.73 19.5405 162.649 19.7838C162.568 20.027 162.405 20.2703 162.243 20.5135C162.081 20.7568 161.757 21 161.514 21.3243C161.189 21.5676 160.865 21.8919 160.459 22.2973L158.838 23.6757L163.297 28.0541Z" fill="#FFBA31"/>
<path d="M172.135 16.4594C173.189 16.4594 174.162 16.6216 175.054 16.8648C175.946 17.1081 176.676 17.5135 177.243 17.9189C177.649 18.1621 177.892 18.4865 178.135 18.8108C178.378 19.1351 178.46 19.5405 178.46 20.027V29.9189C178.46 30.8919 178.297 31.7838 177.892 32.5135C177.487 33.2432 177 33.8108 176.351 34.2973C175.703 34.7838 174.973 35.1081 174.081 35.3513C173.189 35.5946 172.297 35.6757 171.243 35.6757C169.541 35.6757 168.162 35.4324 167.189 34.9459C166.216 34.4594 165.73 33.7297 165.73 32.6757C165.73 32.2703 165.811 31.8648 165.973 31.5405C166.135 31.2162 166.378 30.973 166.541 30.8108C167.108 31.1351 167.676 31.3784 168.405 31.5405C169.054 31.7838 169.784 31.8648 170.514 31.8648C171.568 31.8648 172.378 31.7027 172.946 31.3784C173.514 31.054 173.838 30.4865 173.838 29.7567V29.2703C173.027 29.5946 172.135 29.7567 171 29.7567C170.189 29.7567 169.378 29.5946 168.568 29.3513C167.838 29.1081 167.108 28.7027 166.541 28.1351C165.973 27.5676 165.487 26.9189 165.162 26.027C164.838 25.2162 164.676 24.1621 164.676 23.027C164.676 21.8919 164.838 20.9189 165.243 20.027C165.649 19.2162 166.135 18.4865 166.784 17.9189C167.432 17.3513 168.243 16.9459 169.135 16.7027C170.108 16.5405 171.081 16.4594 172.135 16.4594ZM173.919 20.5135C173.757 20.4324 173.595 20.3513 173.351 20.2703C173.108 20.1892 172.784 20.1892 172.378 20.1892C171.487 20.1892 170.757 20.4324 170.27 21C169.784 21.4865 169.541 22.2162 169.541 23.1892C169.541 24.2432 169.784 25.054 170.27 25.5405C170.757 26.027 171.324 26.2703 172.054 26.2703C172.865 26.2703 173.432 26.1081 173.919 25.7027V20.5135Z" fill="#FFBA31"/>
<path d="M67.2162 35.027C67.0541 35.1892 66.8919 35.3513 66.7297 35.5135C66.5676 35.6757 66.4054 35.8378 66.1622 36.0811C66 36.2432 65.7568 36.4865 65.5946 36.6486C65.4324 36.8108 65.2703 36.973 65.1081 37.1351C65.2703 37.2973 65.5135 37.4594 65.6757 37.6216C65.9189 37.7838 66.0811 38.027 66.3243 38.2703C66.5676 38.5135 66.7297 38.6757 66.8919 38.9189C67.0541 39.1621 67.2162 39.3243 67.2973 39.5675H66.5676C66.4054 39.3243 66.3243 39.1621 66.0811 38.9189C65.8378 38.6757 65.7568 38.5135 65.5135 38.3513C65.3514 38.1892 65.1081 38.027 64.946 37.8648C64.7838 37.7027 64.5405 37.5405 64.3784 37.4594V39.5675H63.7297V35.1081H64.3784V37.054C64.5405 36.8919 64.7027 36.7297 64.8649 36.5675C65.027 36.4054 65.1892 36.2432 65.4324 36C65.5946 35.8378 65.7568 35.6757 65.9189 35.5135C66.0811 35.3513 66.2433 35.1892 66.3243 35.1081H67.2162V35.027Z" fill="#333333"/>
<path d="M67.2162 40.1351C67.2973 40.1351 67.2973 40.2162 67.3784 40.2162C67.4595 40.2162 67.5406 40.2162 67.6216 40.2162C67.8649 40.2162 68.0271 40.1351 68.1892 40.054C68.3514 39.973 68.4325 39.8108 68.5135 39.5675C68.2703 39.0811 68.0271 38.5135 67.7838 37.9459C67.5406 37.3784 67.3784 36.8108 67.2162 36.1621H67.8649C67.946 36.3243 67.946 36.5675 68.0271 36.8108C68.1081 37.054 68.1892 37.2973 68.2703 37.5405C68.3514 37.7838 68.4325 38.027 68.5135 38.2703C68.5946 38.5135 68.6757 38.7567 68.8379 38.9189C69 38.4324 69.1622 38.027 69.2433 37.5405C69.3244 37.054 69.4865 36.6486 69.5676 36.1621H70.2162C70.0541 36.8108 69.8919 37.3784 69.7298 38.027C69.5676 38.5946 69.3244 39.1621 69.0811 39.6486C69 39.8108 68.9189 39.973 68.8379 40.1351C68.7568 40.2973 68.6757 40.3784 68.5135 40.4594C68.4325 40.5405 68.2703 40.6216 68.1081 40.6216C67.946 40.6216 67.7838 40.7027 67.6216 40.7027C67.5406 40.7027 67.5406 40.7027 67.4595 40.7027C67.3784 40.7027 67.3784 40.7027 67.2973 40.7027C67.2162 40.7027 67.2162 40.7027 67.1352 40.7027C67.0541 40.7027 67.0541 40.7027 67.0541 40.7027L67.2162 40.1351Z" fill="#333333"/>
<path d="M73.5405 39.4865H72.973V36.6486H71.4324V39.4865H70.8649V36.0811H73.5405V39.4865Z" fill="#333333"/>
<path d="M77.5946 37.7838C77.5946 38.027 77.5946 38.2703 77.5135 38.5135C77.4325 38.7568 77.3514 38.9189 77.1892 39.0811C77.0271 39.2432 76.8649 39.3243 76.7027 39.4054C76.5406 39.4865 76.2973 39.5676 76.0541 39.5676C75.8108 39.5676 75.6487 39.4865 75.4054 39.4054C75.2433 39.3243 75.0811 39.1622 74.919 39.0811C74.7568 38.9189 74.6757 38.7568 74.5946 38.5135C74.5135 38.2703 74.5135 38.027 74.5135 37.7838C74.5135 37.5405 74.5135 37.2973 74.5946 37.0541C74.6757 36.8108 74.7568 36.6486 74.919 36.4865C75.0811 36.3243 75.2433 36.2432 75.4054 36.1622C75.5676 36.0811 75.8108 36 76.0541 36C76.2973 36 76.4595 36.0811 76.7027 36.1622C76.8649 36.2432 77.0271 36.4054 77.1892 36.4865C77.3514 36.6486 77.4325 36.8108 77.5135 37.0541C77.5135 37.2973 77.5946 37.5405 77.5946 37.7838ZM76.946 37.7838C76.946 37.3784 76.8649 37.1351 76.7027 36.8919C76.5406 36.6486 76.2973 36.5676 75.973 36.5676C75.6487 36.5676 75.4865 36.6486 75.2433 36.8919C75.0811 37.1351 75 37.3784 75 37.7838C75 38.1892 75.0811 38.4324 75.2433 38.6757C75.4054 38.9189 75.6487 39 75.973 39C76.2973 39 76.4595 38.9189 76.7027 38.6757C76.8649 38.5135 76.946 38.1892 76.946 37.7838Z" fill="#333333"/>
<path d="M81.1622 39.4865H80.5946V38.027H79.0541V39.4865H78.4865V36.0811H79.0541V37.4594H80.5946V36.0811H81.1622V39.4865Z" fill="#333333"/>
<path d="M84.973 39.4865H84.4054V38.027H82.8649V39.4865H82.2973V36.0811H82.8649V37.4594H84.4054V36.0811H84.973V39.4865Z" fill="#333333"/>
<path d="M86.027 36.0811H86.5946V37.3784C86.6757 37.3784 86.7567 37.3784 86.9189 37.2973C87.0811 37.2973 87.1621 37.2973 87.3243 37.2973C87.4865 37.2973 87.6486 37.2973 87.8108 37.3784C87.973 37.4594 88.1351 37.4594 88.2162 37.5405C88.2973 37.6216 88.4594 37.7838 88.5405 37.8648C88.6216 37.9459 88.6216 38.1892 88.6216 38.3513C88.6216 38.5946 88.6216 38.7567 88.5405 38.8378C88.4594 39 88.3784 39.0811 88.2162 39.1621C88.054 39.2432 87.9729 39.3243 87.7297 39.3243C87.5675 39.4054 87.3243 39.4054 87.1621 39.4054C87 39.4054 86.7567 39.4054 86.5135 39.4054C86.2702 39.4054 86.1081 39.3243 85.9459 39.3243V36.0811H86.027ZM87.2432 37.7838C87.1621 37.7838 87 37.7838 86.9189 37.7838C86.8378 37.7838 86.6757 37.7838 86.5946 37.8648V39H86.6757C86.7567 39 86.7567 39 86.8378 39C86.9189 39 86.9189 39 87 39C87.0811 39 87.0811 39 87.1621 39C87.4054 39 87.6486 38.9189 87.8108 38.8378C87.973 38.7567 88.054 38.5946 88.054 38.3513C88.054 38.2702 88.054 38.1892 87.973 38.1081C87.8919 38.027 87.8919 37.9459 87.8108 37.9459C87.7297 37.8648 87.6486 37.8648 87.5675 37.8648C87.4865 37.8648 87.4054 37.7838 87.2432 37.7838ZM89.9189 39.4865H89.3513V36.0811H89.9189V39.4865Z" fill="#333333"/>
<path d="M93.8108 36.0811V39.4865H93.2433V36.8919C93.0811 37.054 93 37.2162 92.8379 37.4595C92.6757 37.7027 92.5135 37.9459 92.3514 38.1081C92.1892 38.3513 92.027 38.5946 91.8649 38.8378C91.7027 39.0811 91.6216 39.2432 91.4595 39.4865H90.8919V36.0811H91.4595V38.5135C91.5406 38.3513 91.7027 38.1081 91.8649 37.8649C92.027 37.6216 92.1892 37.4595 92.2703 37.2162C92.4325 36.973 92.5946 36.8108 92.7568 36.5676C92.9189 36.3243 93.0811 36.1622 93.1622 36.0811H93.8108ZM92.3514 35.5946C92.1081 35.5946 91.8649 35.5135 91.7027 35.3513C91.5406 35.1892 91.4595 35.027 91.3784 34.7838L91.8649 34.6216C91.8649 34.7838 91.946 34.8649 92.027 34.9459C92.1081 35.027 92.1892 35.1081 92.3514 35.1081C92.5135 35.1081 92.5946 35.027 92.6757 34.9459C92.7568 34.8649 92.8379 34.7838 92.8379 34.6216L93.3243 34.7838C93.3243 35.027 93.1622 35.1892 93 35.3513C92.8379 35.5135 92.5946 35.5946 92.3514 35.5946Z" fill="#333333"/>
<path d="M97.7838 39.5676C97.5405 39.5676 97.2973 39.4865 97.0541 39.4054C96.8108 39.3243 96.6487 39.1622 96.5676 39.0811C96.4054 38.9189 96.3243 38.7568 96.2433 38.5135C96.1622 38.2703 96.1622 38.027 96.1622 37.7838C96.1622 37.5405 96.1622 37.2973 96.2433 37.0541C96.3243 36.8108 96.4054 36.6486 96.5676 36.4865C96.7297 36.3243 96.8919 36.2432 97.0541 36.0811C97.2162 35.9189 97.4595 35.9189 97.7027 35.9189C97.8649 35.9189 98.027 35.9189 98.1892 35.9189C98.3514 35.9189 98.5135 36 98.5946 36.0811L98.4324 36.5676C98.3514 36.4865 98.2703 36.4865 98.1081 36.4865C98.027 36.4865 97.8649 36.4865 97.7027 36.4865C97.3784 36.4865 97.1351 36.5676 96.8919 36.8108C96.7297 37.0541 96.6487 37.2973 96.6487 37.7027C96.6487 37.8649 96.6487 38.027 96.7297 38.1892C96.8108 38.3513 96.8108 38.4324 96.8919 38.5946C96.973 38.7568 97.0541 38.7568 97.2162 38.8378C97.3784 38.9189 97.5405 38.9189 97.7027 38.9189C97.8649 38.9189 98.027 38.9189 98.1081 38.8378C98.2703 38.8378 98.3514 38.7568 98.4324 38.7568L98.5135 39.2432C98.5135 39.2432 98.4324 39.3243 98.3514 39.3243C98.2703 39.3243 98.1892 39.3243 98.1081 39.4054C98.027 39.4054 97.9459 39.4054 97.8649 39.4054C97.9459 39.5676 97.8649 39.5676 97.7838 39.5676Z" fill="#333333"/>
<path d="M99.1622 37.7838C99.1622 37.4595 99.2432 37.2162 99.3243 36.973C99.4054 36.7297 99.4865 36.5676 99.6487 36.4054C99.8108 36.2432 99.973 36.1622 100.135 36.0811C100.297 36 100.541 36 100.703 36C101.189 36 101.514 36.1622 101.757 36.4054C102 36.6486 102.081 37.1351 102.081 37.7027V37.7838V37.8649H99.7297C99.7297 38.1892 99.8919 38.5135 100.054 38.6757C100.216 38.8378 100.541 38.9189 100.865 38.9189C101.108 38.9189 101.27 38.9189 101.432 38.8378C101.595 38.7568 101.676 38.7568 101.757 38.7568L101.838 39.2432C101.757 39.2432 101.676 39.3243 101.432 39.4054C101.27 39.4865 101.027 39.4865 100.784 39.4865C100.459 39.4865 100.216 39.4054 100.054 39.3243C99.8108 39.2432 99.6487 39.0811 99.4865 38.9189C99.3243 38.7568 99.2433 38.5946 99.1622 38.3513C99.1622 38.2703 99.1622 38.027 99.1622 37.7838ZM101.432 37.4595C101.432 37.2162 101.351 36.973 101.189 36.8108C101.027 36.6486 100.865 36.5676 100.622 36.5676C100.459 36.5676 100.378 36.5676 100.216 36.6486C100.135 36.7297 100.054 36.8108 99.973 36.8919C99.8919 36.973 99.8108 37.0541 99.8108 37.2162C99.8108 37.3784 99.7297 37.4595 99.7297 37.5405H101.432V37.4595Z" fill="#333333"/>
<path d="M105.892 37.7838C105.892 38.027 105.892 38.2702 105.811 38.5135C105.73 38.7567 105.649 38.9189 105.486 39.0811C105.324 39.2432 105.162 39.3243 105 39.4054C104.838 39.4865 104.595 39.5675 104.351 39.5675C104.189 39.5675 103.946 39.5675 103.865 39.4865C103.703 39.4054 103.622 39.4054 103.541 39.3243V40.7027H102.973V36.2432C103.135 36.2432 103.297 36.1621 103.541 36.1621C103.784 36.0811 104.027 36.0811 104.27 36.0811C104.514 36.0811 104.757 36.1621 105 36.2432C105.243 36.3243 105.405 36.4054 105.568 36.5675C105.73 36.7297 105.811 36.8919 105.892 37.1351C105.892 37.2973 105.892 37.5405 105.892 37.7838ZM105.324 37.7838C105.324 37.3784 105.243 37.054 105 36.8919C104.757 36.7297 104.514 36.5675 104.189 36.5675C104.027 36.5675 103.865 36.5675 103.784 36.5675C103.703 36.5675 103.622 36.5675 103.541 36.6486V38.7567C103.622 38.8378 103.703 38.8378 103.865 38.9189C104.027 39 104.189 39 104.351 39C104.514 39 104.676 39 104.757 38.9189C104.919 38.8378 105 38.7567 105.081 38.6757C105.162 38.5946 105.243 38.4324 105.243 38.2702C105.243 38.1081 105.324 37.9459 105.324 37.7838Z" fill="#333333"/>
<path d="M108 39.5675C107.757 39.5675 107.514 39.5675 107.27 39.5675C107.027 39.5675 106.865 39.4865 106.784 39.4865V36.2432C106.946 36.2432 107.108 36.1621 107.27 36.1621C107.514 36.1621 107.757 36.1621 108 36.1621C108.162 36.1621 108.324 36.1621 108.487 36.2432C108.649 36.2432 108.811 36.3243 108.973 36.4054C109.135 36.4865 109.216 36.5675 109.297 36.7297C109.378 36.8919 109.378 36.973 109.378 37.2162C109.378 37.3784 109.297 37.5405 109.216 37.6216C109.135 37.7027 109.054 37.8648 108.892 37.8648C109.054 37.9459 109.216 38.027 109.297 38.1892C109.378 38.3513 109.46 38.5135 109.46 38.7567C109.46 39 109.459 39.1621 109.378 39.2432C109.297 39.4054 109.216 39.4865 109.054 39.5675C108.892 39.6486 108.73 39.7297 108.568 39.7297C108.405 39.5675 108.243 39.5675 108 39.5675ZM108 37.4594C108.081 37.4594 108.243 37.4594 108.324 37.4594C108.405 37.4594 108.487 37.3784 108.568 37.3784C108.649 37.3784 108.73 37.2973 108.73 37.2162C108.73 37.1351 108.811 37.054 108.811 36.973C108.811 36.8919 108.811 36.8108 108.73 36.7297C108.649 36.6486 108.649 36.6486 108.487 36.5675C108.405 36.5675 108.324 36.4865 108.162 36.4865C108.081 36.4865 107.919 36.4865 107.838 36.4865C107.757 36.4865 107.676 36.4865 107.514 36.4865C107.432 36.4865 107.351 36.4865 107.27 36.4865V37.4594H108ZM107.351 39H107.432C107.432 39 107.514 39 107.595 39C107.676 39 107.757 39 107.757 39C107.838 39 107.919 39 107.919 39C108.081 39 108.162 39 108.243 39C108.324 39 108.487 38.9189 108.568 38.9189C108.649 38.8378 108.73 38.8378 108.73 38.7567C108.811 38.6757 108.811 38.5946 108.811 38.5135C108.811 38.4324 108.811 38.3513 108.73 38.2702C108.649 38.1892 108.649 38.1081 108.568 38.1081C108.487 38.027 108.405 38.027 108.324 38.027C108.243 38.027 108.081 38.027 108 38.027H107.27V39H107.351Z" fill="#333333"/>
<path d="M113.189 36.0811V39.4865H112.622V36.8919C112.459 37.054 112.378 37.2162 112.216 37.4594C112.054 37.7027 111.892 37.9459 111.73 38.1081C111.568 38.3513 111.405 38.5946 111.243 38.8378C111.081 39.0811 111 39.2432 110.838 39.4865H110.27V36.0811H110.838V38.5135C110.919 38.3513 111.081 38.1081 111.243 37.8648C111.405 37.6216 111.568 37.4594 111.649 37.2162C111.811 36.9729 111.973 36.8108 112.135 36.5675C112.297 36.3243 112.459 36.1621 112.541 36.0811H113.189Z" fill="#333333"/>
<path d="M115.703 39.5676C115.459 39.5676 115.216 39.4865 114.973 39.4054C114.73 39.3243 114.568 39.1622 114.487 39.0811C114.324 38.9189 114.243 38.7568 114.162 38.5135C114.081 38.2703 114.081 38.027 114.081 37.7838C114.081 37.5405 114.081 37.2973 114.162 37.0541C114.243 36.8108 114.324 36.6486 114.487 36.4865C114.649 36.3243 114.811 36.2432 114.973 36.0811C115.135 35.9189 115.378 35.9189 115.622 35.9189C115.784 35.9189 115.946 35.9189 116.108 35.9189C116.27 35.9189 116.432 36 116.514 36.0811L116.351 36.5676C116.27 36.4865 116.189 36.4865 116.027 36.4865C115.946 36.4865 115.784 36.4865 115.622 36.4865C115.297 36.4865 115.054 36.5676 114.811 36.8108C114.649 37.0541 114.568 37.2973 114.568 37.7027C114.568 37.8649 114.568 38.027 114.649 38.1892C114.73 38.3513 114.73 38.4324 114.811 38.5946C114.892 38.7568 114.973 38.7568 115.135 38.8378C115.297 38.9189 115.46 38.9189 115.622 38.9189C115.784 38.9189 115.946 38.9189 116.027 38.8378C116.189 38.8378 116.27 38.7568 116.351 38.7568L116.432 39.2432C116.432 39.2432 116.351 39.3243 116.27 39.3243C116.189 39.3243 116.108 39.3243 116.027 39.4054C115.946 39.4054 115.865 39.4054 115.784 39.4054C115.865 39.5676 115.784 39.5676 115.703 39.5676Z" fill="#333333"/>
<path d="M121.135 36.0811V36.5675H120V39.4054H119.432V36.5675H118.297V36.0811H121.135Z" fill="#333333"/>
<path d="M122.919 39.5675C122.676 39.5675 122.432 39.5675 122.189 39.5675C121.946 39.5675 121.784 39.4865 121.703 39.4865V36.2432C121.865 36.2432 122.027 36.1621 122.189 36.1621C122.432 36.1621 122.676 36.1621 122.919 36.1621C123.081 36.1621 123.243 36.1621 123.405 36.2432C123.568 36.2432 123.73 36.3243 123.892 36.4054C124.054 36.4865 124.135 36.5675 124.216 36.7297C124.297 36.8919 124.297 36.973 124.297 37.2162C124.297 37.3784 124.216 37.5405 124.135 37.6216C124.054 37.7027 123.973 37.8648 123.811 37.8648C123.973 37.9459 124.135 38.027 124.216 38.1892C124.297 38.3513 124.378 38.5135 124.378 38.7567C124.378 39 124.378 39.1621 124.297 39.2432C124.216 39.4054 124.135 39.4865 123.973 39.5675C123.811 39.6486 123.649 39.7297 123.486 39.7297C123.324 39.5675 123.162 39.5675 122.919 39.5675ZM122.919 37.4594C123 37.4594 123.162 37.4594 123.243 37.4594C123.324 37.4594 123.405 37.3784 123.486 37.3784C123.568 37.3784 123.649 37.2973 123.649 37.2162C123.649 37.1351 123.73 37.054 123.73 36.973C123.73 36.8919 123.73 36.8108 123.649 36.7297C123.568 36.6486 123.568 36.6486 123.405 36.5675C123.324 36.5675 123.243 36.4865 123.081 36.4865C123 36.4865 122.838 36.4865 122.757 36.4865C122.676 36.4865 122.595 36.4865 122.432 36.4865C122.351 36.4865 122.27 36.4865 122.189 36.4865V37.4594H122.919ZM122.27 39H122.351C122.351 39 122.432 39 122.514 39C122.595 39 122.676 39 122.676 39C122.757 39 122.838 39 122.838 39C123 39 123.081 39 123.162 39C123.243 39 123.405 38.9189 123.486 38.9189C123.568 38.8378 123.649 38.8378 123.649 38.7567C123.73 38.6757 123.73 38.5946 123.73 38.5135C123.73 38.4324 123.73 38.3513 123.649 38.2702C123.568 38.1892 123.568 38.1081 123.486 38.1081C123.405 38.027 123.324 38.027 123.243 38.027C123.162 38.027 123 38.027 122.919 38.027H122.189V39H122.27Z" fill="#333333"/>
<path d="M128.27 37.7838C128.27 38.027 128.27 38.2703 128.189 38.5135C128.108 38.7568 128.027 38.9189 127.865 39.0811C127.703 39.2432 127.541 39.3243 127.378 39.4054C127.216 39.4865 126.973 39.5676 126.73 39.5676C126.487 39.5676 126.324 39.4865 126.081 39.4054C125.919 39.3243 125.757 39.1622 125.595 39.0811C125.432 38.9189 125.351 38.7568 125.27 38.5135C125.189 38.2703 125.189 38.027 125.189 37.7838C125.189 37.5405 125.189 37.2973 125.27 37.0541C125.351 36.8108 125.432 36.6486 125.595 36.4865C125.757 36.3243 125.919 36.2432 126.081 36.1622C126.243 36.0811 126.487 36 126.73 36C126.973 36 127.135 36.0811 127.378 36.1622C127.541 36.2432 127.703 36.4054 127.865 36.4865C128.027 36.6486 128.108 36.8108 128.189 37.0541C128.189 37.2973 128.27 37.5405 128.27 37.7838ZM127.622 37.7838C127.622 37.3784 127.541 37.1351 127.378 36.8919C127.216 36.6486 126.973 36.5676 126.649 36.5676C126.324 36.5676 126.162 36.6486 125.919 36.8919C125.757 37.1351 125.676 37.3784 125.676 37.7838C125.676 38.1892 125.757 38.4324 125.919 38.6757C126.081 38.9189 126.324 39 126.649 39C126.973 39 127.135 38.9189 127.378 38.6757C127.541 38.5135 127.622 38.1892 127.622 37.7838Z" fill="#333333"/>
<path d="M128.919 37.7838C128.919 37.4595 129 37.2162 129.081 36.973C129.162 36.7297 129.243 36.5676 129.405 36.4054C129.568 36.2432 129.73 36.1622 129.892 36.0811C130.054 36 130.297 36 130.459 36C130.946 36 131.27 36.1622 131.514 36.4054C131.757 36.6486 131.838 37.1351 131.838 37.7027V37.7838V37.8649H129.568C129.568 38.1892 129.73 38.5135 129.892 38.6757C130.054 38.8378 130.378 38.9189 130.703 38.9189C130.946 38.9189 131.108 38.9189 131.27 38.8378C131.432 38.7568 131.514 38.7568 131.595 38.7568L131.676 39.2432C131.595 39.2432 131.514 39.3243 131.27 39.4054C131.108 39.4865 130.865 39.4865 130.622 39.4865C130.297 39.4865 130.054 39.4054 129.892 39.3243C129.649 39.2432 129.487 39.0811 129.324 38.9189C129.162 38.7568 129.081 38.5946 129 38.3513C128.919 38.2703 128.919 38.027 128.919 37.7838ZM131.189 37.4595C131.189 37.2162 131.108 36.973 130.946 36.8108C130.784 36.6486 130.622 36.5676 130.378 36.5676C130.216 36.5676 130.135 36.5676 129.973 36.6486C129.892 36.7297 129.811 36.8108 129.73 36.8919C129.649 36.973 129.568 37.0541 129.568 37.2162C129.568 37.3784 129.487 37.4595 129.487 37.5405H131.189V37.4595Z" fill="#333333"/>
<path d="M134.838 36.6486H133.378V39.4865H132.811V36.0811H134.919V36.6486H134.838Z" fill="#333333"/>
<path d="M138.405 37.7838C138.405 38.027 138.405 38.2703 138.324 38.5135C138.243 38.7568 138.162 38.9189 138 39.0811C137.838 39.2432 137.676 39.3243 137.514 39.4054C137.351 39.4865 137.108 39.5676 136.865 39.5676C136.622 39.5676 136.459 39.4865 136.216 39.4054C136.054 39.3243 135.892 39.1622 135.73 39.0811C135.568 38.9189 135.487 38.7568 135.405 38.5135C135.324 38.2703 135.324 38.027 135.324 37.7838C135.324 37.5405 135.324 37.2973 135.405 37.0541C135.487 36.8108 135.568 36.6486 135.73 36.4865C135.892 36.3243 136.054 36.2432 136.216 36.1622C136.378 36.0811 136.622 36 136.865 36C137.108 36 137.27 36.0811 137.514 36.1622C137.676 36.2432 137.838 36.4054 138 36.4865C138.162 36.6486 138.243 36.8108 138.324 37.0541C138.405 37.2973 138.405 37.5405 138.405 37.7838ZM137.757 37.7838C137.757 37.3784 137.676 37.1351 137.514 36.8919C137.351 36.6486 137.108 36.5676 136.784 36.5676C136.459 36.5676 136.297 36.6486 136.054 36.8919C135.892 37.1351 135.811 37.3784 135.811 37.7838C135.811 38.1892 135.892 38.4324 136.054 38.6757C136.216 38.9189 136.459 39 136.784 39C137.108 39 137.27 38.9189 137.514 38.6757C137.676 38.5135 137.757 38.1892 137.757 37.7838Z" fill="#333333"/>
<path d="M142.865 36.6486H141.405V39.4865H140.838V36.0811H142.946V36.6486H142.865Z" fill="#333333"/>
<path d="M146.432 37.7838C146.432 38.027 146.432 38.2703 146.351 38.5135C146.27 38.7568 146.189 38.9189 146.027 39.0811C145.865 39.2432 145.703 39.3243 145.541 39.4054C145.378 39.4865 145.135 39.5676 144.892 39.5676C144.649 39.5676 144.487 39.4865 144.243 39.4054C144.081 39.3243 143.919 39.1622 143.757 39.0811C143.595 38.9189 143.514 38.7568 143.432 38.5135C143.351 38.2703 143.351 38.027 143.351 37.7838C143.351 37.5405 143.351 37.2973 143.432 37.0541C143.514 36.8108 143.595 36.6486 143.757 36.4865C143.919 36.3243 144.081 36.2432 144.243 36.1622C144.405 36.0811 144.649 36 144.892 36C145.135 36 145.297 36.0811 145.541 36.1622C145.703 36.2432 145.865 36.4054 146.027 36.4865C146.189 36.6486 146.27 36.8108 146.351 37.0541C146.432 37.2973 146.432 37.5405 146.432 37.7838ZM145.784 37.7838C145.784 37.3784 145.703 37.1351 145.541 36.8919C145.378 36.6486 145.135 36.5676 144.811 36.5676C144.487 36.5676 144.324 36.6486 144.081 36.8919C143.919 37.1351 143.838 37.3784 143.838 37.7838C143.838 38.1892 143.919 38.4324 144.081 38.6757C144.243 38.9189 144.487 39 144.811 39C145.135 39 145.297 38.9189 145.541 38.6757C145.703 38.5135 145.784 38.1892 145.784 37.7838Z" fill="#333333"/>
<path d="M150.243 37.7838C150.243 38.027 150.243 38.2702 150.162 38.5135C150.081 38.7567 150 38.9189 149.838 39.0811C149.676 39.2432 149.514 39.3243 149.351 39.4054C149.189 39.4865 148.946 39.5675 148.703 39.5675C148.541 39.5675 148.297 39.5675 148.216 39.4865C148.054 39.4054 147.973 39.4054 147.892 39.3243V40.7027H147.324V36.2432C147.487 36.2432 147.649 36.1621 147.892 36.1621C148.135 36.0811 148.378 36.0811 148.622 36.0811C148.865 36.0811 149.108 36.1621 149.351 36.2432C149.595 36.3243 149.757 36.4054 149.919 36.5675C150.081 36.7297 150.162 36.8919 150.243 37.1351C150.243 37.2973 150.243 37.5405 150.243 37.7838ZM149.676 37.7838C149.676 37.3784 149.595 37.054 149.351 36.8919C149.108 36.7297 148.865 36.5675 148.541 36.5675C148.378 36.5675 148.216 36.5675 148.135 36.5675C148.054 36.5675 147.973 36.5675 147.892 36.6486V38.7567C147.973 38.8378 148.054 38.8378 148.216 38.9189C148.378 39 148.541 39 148.703 39C148.865 39 149.027 39 149.108 38.9189C149.27 38.8378 149.351 38.7567 149.432 38.6757C149.514 38.5946 149.595 38.4324 149.595 38.2702C149.595 38.1081 149.676 37.9459 149.676 37.7838Z" fill="#333333"/>
<path d="M154.135 37.7838C154.135 38.027 154.135 38.2703 154.054 38.5135C153.973 38.7568 153.892 38.9189 153.73 39.0811C153.568 39.2432 153.405 39.3243 153.243 39.4054C153.081 39.4865 152.838 39.5676 152.595 39.5676C152.351 39.5676 152.189 39.4865 151.946 39.4054C151.784 39.3243 151.622 39.1622 151.459 39.0811C151.297 38.9189 151.216 38.7568 151.135 38.5135C151.054 38.2703 151.054 38.027 151.054 37.7838C151.054 37.5405 151.054 37.2973 151.135 37.0541C151.216 36.8108 151.297 36.6486 151.459 36.4865C151.622 36.3243 151.784 36.2432 151.946 36.1622C152.108 36.0811 152.351 36 152.595 36C152.838 36 153 36.0811 153.243 36.1622C153.405 36.2432 153.568 36.4054 153.73 36.4865C153.892 36.6486 153.973 36.8108 154.054 37.0541C154.054 37.2973 154.135 37.5405 154.135 37.7838ZM153.487 37.7838C153.487 37.3784 153.405 37.1351 153.243 36.8919C153.081 36.6486 152.838 36.5676 152.514 36.5676C152.189 36.5676 152.027 36.6486 151.784 36.8919C151.622 37.1351 151.541 37.3784 151.541 37.7838C151.541 38.1892 151.622 38.4324 151.784 38.6757C151.946 38.9189 152.189 39 152.514 39C152.838 39 153 38.9189 153.243 38.6757C153.405 38.5135 153.487 38.1892 153.487 37.7838Z" fill="#333333"/>
<path d="M154.541 39H154.865C155.027 38.7567 155.108 38.5946 155.189 38.3513C155.27 38.1081 155.351 37.8648 155.351 37.7027C155.432 37.4594 155.432 37.2162 155.432 36.973C155.432 36.7297 155.432 36.4054 155.432 36.1621H157.622V39.0811H158.108V40.5405H157.541V39.5675H155.027V40.5405H154.459V39H154.541ZM157.135 39V36.6486H156.081C156.081 36.8919 156.081 37.054 156.081 37.2973C156.081 37.5405 156 37.7027 156 37.9459C156 38.1892 155.919 38.3513 155.838 38.5135C155.757 38.6757 155.676 38.9189 155.595 39.0811H157.135V39Z" fill="#333333"/>
<path d="M159.973 36C160.216 36 160.378 36 160.622 36.0811C160.784 36.1622 160.946 36.2432 161.027 36.3243C161.108 36.4054 161.189 36.5676 161.27 36.7297C161.351 36.8919 161.351 37.0541 161.351 37.2162V39.3243C161.27 39.3243 161.189 39.3243 161.108 39.3243C161.027 39.3243 160.946 39.3243 160.784 39.4054C160.703 39.4054 160.541 39.4054 160.378 39.4054C160.216 39.4054 160.135 39.4054 159.973 39.4054C159.811 39.4054 159.568 39.4054 159.487 39.3243C159.324 39.3243 159.162 39.2432 159.081 39.1622C159 39.0811 158.838 39 158.838 38.8378C158.757 38.6757 158.757 38.5135 158.757 38.3513C158.757 38.1892 158.757 38.027 158.838 37.8649C158.919 37.7027 159 37.6216 159.162 37.5405C159.324 37.4595 159.405 37.3784 159.649 37.3784C159.811 37.3784 159.973 37.2973 160.216 37.2973C160.297 37.2973 160.378 37.2973 160.378 37.2973C160.459 37.2973 160.541 37.2973 160.541 37.2973C160.622 37.2973 160.622 37.2973 160.703 37.2973C160.784 37.2973 160.784 37.2973 160.784 37.2973V37.1351C160.784 37.0541 160.784 36.973 160.784 36.8108C160.784 36.7297 160.703 36.6486 160.703 36.5676C160.703 36.4865 160.541 36.4054 160.459 36.4054C160.378 36.4054 160.216 36.3243 160.054 36.3243C159.892 36.3243 159.649 36.3243 159.568 36.4054C159.405 36.4054 159.324 36.4865 159.243 36.4865L159.162 36C159.243 36 159.405 35.9189 159.568 35.9189C159.568 36.0811 159.73 36 159.973 36ZM159.973 39.0811C160.135 39.0811 160.216 39.0811 160.378 39.0811C160.459 39.0811 160.541 39.0811 160.622 39.0811V38.1081C160.541 38.1081 160.541 38.1081 160.378 38.027C160.216 37.9459 160.135 38.027 160.054 38.027C159.973 38.027 159.892 38.027 159.73 38.027C159.649 38.027 159.568 38.027 159.487 38.1081C159.405 38.1892 159.324 38.1892 159.243 38.2703C159.162 38.3514 159.162 38.4324 159.162 38.5135C159.162 38.7568 159.243 38.9189 159.405 39C159.568 39 159.73 39.0811 159.973 39.0811Z" fill="#333333"/>
<path d="M50.4324 8.67565C49.054 8.67565 47.7567 8.67565 46.3784 8.67565C46.2973 10.054 46.2162 11.3513 45.4865 12.8108C44.3513 11.5135 44.5946 10.054 44.4324 8.67565C39.8919 8.67565 35.2703 8.59457 30.7297 8.59457C30.7297 9.48647 30.5676 10.3784 30.6486 11.1892C30.7297 11.9189 30.5676 12.3243 29.9189 12.4054C29.1081 12.4865 29.1892 11.7567 29.1081 11.2702C29.027 10.3784 29.027 9.48647 28.9459 8.67565C26.5946 8.67565 24.1622 8.67565 21.8108 8.67565C20.8378 8.67565 19.8649 8.83782 19.8649 10.054C19.8649 11.1892 20.8378 11.4324 21.8108 11.4324C22.4594 11.4324 23.1081 11.4324 23.7567 11.4324C24.8919 11.4324 26.3513 11.2702 26.4324 12.8919C26.5135 14.6757 24.973 14.3513 23.9189 14.3513C20.027 14.3513 16.2162 14.2702 12.3243 14.4324C11.027 14.4324 8.83783 13.6216 8.83783 15.8919C8.83783 17.9189 10.8649 17.1892 12.1622 17.2703C13.2973 17.3513 14.4324 17.2703 15.6486 17.2703C16.7838 17.2703 18.2432 16.9459 18.2432 18.7297C18.2432 20.3513 16.8649 19.9459 15.8108 20.027C15.4054 20.027 15 20.1081 14.5946 20.1081C13.6216 20.1892 12.7297 20.3513 12.7297 21.5675C12.7297 22.7838 13.7027 23.027 14.6757 23.027C16.4594 23.1081 18.3243 23.027 20.1081 23.027C20.8378 23.027 21.5676 23.2703 21.6486 24.2432C21.6486 25.2973 21 25.7027 20.1081 25.7027C19.5405 25.7027 18.973 25.7027 18.4054 25.7027C13.6216 25.7027 8.83783 25.7027 4.13512 25.7027C3.08107 25.7027 2.02701 25.9459 2.1081 27.2432C2.18918 28.3784 3.16215 28.5405 4.13512 28.5405C6.64864 28.5405 9.24323 28.5405 11.7567 28.5405C12.7297 28.5405 13.8649 28.5405 13.8649 30C13.8649 31.3784 12.7297 31.4594 11.7567 31.4594C10.1351 31.4594 8.43242 31.4594 6.8108 31.4594C5.75674 31.4594 4.70269 31.6216 4.70269 32.9189C4.78377 34.1351 5.75674 34.3784 6.89188 34.3784C7.37837 34.3784 7.86485 34.3784 8.35134 34.3784C12.2432 34.3784 16.054 34.3784 19.9459 34.3784C21 34.3784 22.2973 34.2162 22.2973 35.7567C22.2973 37.3784 20.9189 37.054 19.8649 37.054C19.2162 37.054 18.5676 37.054 17.9189 37.054C16.8649 37.054 15.4865 36.973 15.4054 38.4324C15.3243 40.054 16.7027 40.054 17.8378 40.054C20.3513 40.054 22.9459 40.054 25.4594 40.054C26.3513 40.054 27.4865 40.1351 27.4865 41.3513C27.5676 42.7297 26.4324 42.8108 25.3784 42.8108C24.4054 42.8108 23.4324 42.8108 22.4594 42.8108C21.4054 42.8108 20.6757 43.2162 20.7567 44.4324C20.8378 45.4865 21.5676 45.7297 22.4594 45.7297C30.8919 45.6486 39.4054 45.6486 47.8378 45.5676C48.4865 39.8919 49.054 34.2973 49.6216 28.6216C50.1892 23.1081 50.6757 17.5946 51.2432 12.0811C51.3243 11.2702 51 10.4594 51.6486 9.72971C51.8919 8.75674 51.1622 8.67565 50.4324 8.67565ZM22.2973 31.4594C21.4865 31.4594 20.6757 31.4594 19.6216 31.4594C18.5676 31.1351 16.2973 32.3513 16.2973 30.0811C16.2973 27.8108 18.4865 28.7838 19.7838 28.6216C20.5946 28.4594 21.4054 28.6216 22.2162 28.6216C23.1081 28.6216 23.8378 29.1081 23.9189 30.0811C24 30.973 23.2703 31.4594 22.2973 31.4594ZM25.054 20.027C24 20.027 22.9459 20.027 21.8919 20.027C20.7567 20.027 19.8649 19.6216 19.9459 18.3243C20.027 17.1892 21 17.027 21.973 17.027C22.4594 17.027 22.9459 17.027 23.4324 17.027C24 17.027 24.5676 17.027 25.1351 17.027C25.9459 17.1081 26.5946 17.5135 26.5946 18.4054C26.5946 19.4594 26.027 20.027 25.054 20.027Z" fill="#FFD85A"/>
<path d="M47.8378 45.6486C48.4865 39.973 49.054 34.3784 49.6216 28.7027C50.1892 23.1892 50.6757 17.6757 51.2432 12.1621C51.3243 11.3513 51 10.5405 51.6486 9.81079C52.6216 20.5135 53.5946 31.2162 54.5676 41.9189C54.6486 43.054 54.4054 43.7027 53.1892 44.027C51.4054 44.4324 49.6216 45.0811 47.8378 45.6486Z" fill="#FFBA31"/>
<path d="M15.3243 11.4324C14.2703 11.3513 12.8919 11.5946 12.8919 10.054C12.8919 8.10809 14.5135 8.59458 15.6487 8.59458C16.7027 8.5135 18 8.5135 17.9189 10.054C17.8379 11.6757 16.3784 11.3513 15.3243 11.4324Z" fill="#FFBA31"/>
<path d="M10.6216 40.1351C9.4865 40.1351 8.1892 40.1351 8.27028 38.6757C8.35136 37.054 9.64866 37.1351 10.8649 37.2162C12 37.2162 13.3784 37.1351 13.2973 38.8378C13.2162 40.3784 11.6757 39.973 10.6216 40.1351Z" fill="#FFBA31"/>
<path d="M8.51348 22.9459C7.29726 22.7838 5.91888 23.1081 5.91888 21.3243C5.91888 19.7838 7.21618 19.8648 8.27024 19.9459C9.32429 19.9459 10.7837 19.6216 10.8648 21.3243C10.9459 23.1081 9.48645 22.7838 8.51348 22.9459Z" fill="#FFBA31"/>
<path d="M16.6216 45.7297C15.5676 45.7297 14.2703 45.8919 14.1892 44.4324C14.1081 42.8108 15.4865 42.8919 16.6216 42.8919C17.6757 42.8919 18.973 42.8108 19.0541 44.2702C19.1352 45.8108 17.7568 45.7297 16.6216 45.7297Z" fill="#FFBA31"/>
<path d="M30.6486 12C30.4864 10.8649 30.4864 8.91891 30.8919 7.54053C31.7837 4.29728 34.3783 2.67566 37.7027 2.67566C40.9459 2.67566 43.5405 4.2162 44.3513 7.54053C44.6756 8.99999 44.6756 10.6216 44.4324 12C44.1892 13.1351 45.9729 13.6216 46.1351 12.4865C46.8648 8.91891 46.2162 4.37836 42.9729 2.27026C40.3783 0.486473 36.4865 0.405392 33.6486 1.62161C31.2162 2.67566 29.6756 4.86485 29.1081 7.37837C28.7027 8.99999 28.7027 10.7838 28.9459 12.4054C29.1081 13.6216 30.8919 13.1351 30.6486 12Z" fill="black"/>
</svg>
