<svg width="161" height="22" viewBox="0 0 161 22" fill="none" xmlns="http://www.w3.org/2000/svg">
<path fill-rule="evenodd" clip-rule="evenodd" d="M17.1468 1.97052L12.0141 17.6496L6.85303 1.97052H3.07393L0 21.9705H3.75083L5.61218 8.62737L10.068 21.9705H13.8189L18.1621 8.94874L20.1362 21.9705H24L20.8976 1.97052H17.1468Z" fill="#ffffff"/>
<path fill-rule="evenodd" clip-rule="evenodd" d="M32.9518 11.4891C32.0222 11.4891 31.2493 11.8229 30.6331 12.4907C30.0168 13.1587 29.7087 14.0056 29.7087 15.0311C29.7087 16.038 30.0168 16.875 30.6331 17.5429C31.2493 18.2106 32.0222 18.5444 32.9518 18.5444C33.8806 18.5444 34.6535 18.2106 35.2701 17.5429C35.886 16.875 36.1945 16.038 36.1945 15.0311C36.1945 14.0056 35.886 13.1587 35.2701 12.4907C34.6535 11.8229 33.8806 11.4891 32.9518 11.4891ZM32.9518 8.06293C34.9615 8.06293 36.6212 8.72127 37.9298 10.0373C39.2384 11.354 39.8928 13.0184 39.8928 15.0311C39.8928 17.025 39.2336 18.6802 37.9157 19.9964C36.5973 21.3129 34.9429 21.9704 32.9518 21.9704C30.9605 21.9704 29.3055 21.3129 27.9876 19.9964C26.6693 18.6802 26.0104 17.025 26.0104 15.0311C26.0104 13.0184 26.665 11.354 27.9735 10.0373C29.282 8.72127 30.9412 8.06293 32.9518 8.06293Z" fill="#ffffff"/>
<path fill-rule="evenodd" clip-rule="evenodd" d="M50.1908 17.6445C50.1908 17.1993 49.9725 16.8654 49.5365 16.6426C49.1001 16.4204 48.4649 16.3088 47.6306 16.3088H45.2125V13.5796H47.5452C48.3034 13.5796 48.8866 13.4683 49.2947 13.2456C49.7021 13.0233 49.9063 12.7084 49.9063 12.3019C49.9063 11.8954 49.7117 11.5715 49.3231 11.3292C48.9341 11.0875 48.4081 10.9662 47.7444 10.9662C47.0616 10.9662 46.3975 11.0924 45.7531 11.3439C45.1081 11.5956 44.4822 11.9635 43.8756 12.447L42.1972 10.1823C43.1076 9.4666 44.0271 8.9338 44.9567 8.58544C45.8855 8.23708 46.8626 8.0629 47.8865 8.0629C49.5741 8.0629 50.9447 8.39687 51.9971 9.06448C53.0498 9.73242 53.576 10.6086 53.576 11.6922C53.576 12.3311 53.3719 12.9218 52.9643 13.4633C52.5563 14.0055 51.9732 14.4505 51.215 14.7989C52.1438 15.0701 52.855 15.4769 53.3484 16.0185C53.8414 16.5605 54.0879 17.2088 54.0879 17.9639C54.0879 19.1643 53.5141 20.1316 52.367 20.8671C51.2194 21.6032 49.6974 21.9704 47.8011 21.9704C46.5114 21.9704 45.3499 21.7818 44.3164 21.4043C43.2828 21.0269 42.3488 20.4512 41.5145 19.6769L43.3066 17.3831C43.9511 17.9252 44.6482 18.3412 45.3974 18.6315C46.1464 18.9218 46.9287 19.0672 47.7444 19.0672C48.5217 19.0672 49.1239 18.9415 49.5508 18.6896C49.9773 18.4383 50.1908 18.0898 50.1908 17.6445Z" fill="#ffffff"/>
<path fill-rule="evenodd" clip-rule="evenodd" d="M60.8013 21.6801H57.0177V8.35327H66.8035V11.663H60.8013V21.6801Z" fill="#ffffff"/>
<path fill-rule="evenodd" clip-rule="evenodd" d="M75.0814 11.4891C74.152 11.4891 73.3789 11.8229 72.7628 12.4907C72.1464 13.1587 71.8383 14.0056 71.8383 15.0311C71.8383 16.038 72.1464 16.875 72.7628 17.5429C73.3789 18.2106 74.152 18.5444 75.0814 18.5444C76.0102 18.5444 76.7833 18.2106 77.3999 17.5429C78.0158 16.875 78.3243 16.038 78.3243 15.0311C78.3243 14.0056 78.0158 13.1587 77.3999 12.4907C76.7833 11.8229 76.0102 11.4891 75.0814 11.4891ZM75.0814 8.06293C77.0914 8.06293 78.7509 8.72127 80.0594 10.0373C81.3681 11.354 82.0225 13.0184 82.0225 15.0311C82.0225 17.025 81.3632 18.6802 80.0453 19.9964C78.7271 21.3129 77.0726 21.9704 75.0814 21.9704C73.0901 21.9704 71.4351 21.3129 70.1174 19.9964C68.799 18.6802 68.1402 17.025 68.1402 15.0311C68.1402 13.0184 68.7946 11.354 70.1031 10.0373C71.4118 8.72127 73.0709 8.06293 75.0814 8.06293Z" fill="#ffffff"/>
<path fill-rule="evenodd" clip-rule="evenodd" d="M90.8979 11.4891C89.9685 11.4891 89.1954 11.8229 88.5793 12.4907C87.9631 13.1586 87.6548 14.0056 87.6548 15.0311C87.6548 16.0574 87.9631 16.8995 88.5793 17.5573C89.1954 18.2155 89.9685 18.5443 90.8979 18.5443C91.8267 18.5443 92.5998 18.2155 93.2164 17.5573C93.8323 16.8995 94.1408 16.0574 94.1408 15.0311C94.1408 14.0056 93.8323 13.1586 93.2164 12.4907C92.5998 11.8229 91.8267 11.4891 90.8979 11.4891ZM90.8979 8.06292C92.9079 8.06292 94.5676 8.72126 95.8761 10.0373C97.1846 11.354 97.839 13.0184 97.839 15.0311C97.839 17.025 97.1797 18.6801 95.8618 19.9963C94.5436 21.3129 92.8891 21.9704 90.8979 21.9704C88.9066 21.9704 87.2518 21.3129 85.9339 19.9963C84.6155 18.6801 83.9567 17.025 83.9567 15.0311C83.9567 14.412 84.023 13.8167 84.1559 13.2457C84.2884 12.6748 84.4875 12.1379 84.7534 11.6342C84.4875 11.0344 84.2884 10.4583 84.1559 9.90662C84.023 9.35513 83.9567 8.79851 83.9567 8.2371C83.9567 6.66898 84.4448 5.37726 85.4219 4.36096C86.3982 3.34483 87.7411 2.68847 89.5609 2.40114C92.5021 1.9365 95.1181 0 95.1181 0L96.483 2.78639C96.483 2.78639 93.6927 4.82809 90.6988 5.56583C89.3212 5.90543 88.6932 6.06439 88.1529 6.48041C87.6122 6.89675 87.3421 7.47272 87.3421 8.20815C87.3421 8.34379 87.3464 8.46917 87.3562 8.58546C87.3656 8.70141 87.3891 8.81786 87.4273 8.93382C87.9393 8.64352 88.4892 8.42567 89.0773 8.2806C89.6648 8.13553 90.2722 8.06292 90.8979 8.06292Z" fill="#ffffff"/>
<path fill-rule="evenodd" clip-rule="evenodd" d="M106.715 11.4891C105.785 11.4891 105.012 11.8229 104.396 12.4907C103.78 13.1587 103.471 14.0056 103.471 15.0311C103.471 16.038 103.78 16.875 104.396 17.5429C105.012 18.2106 105.785 18.5444 106.715 18.5444C107.643 18.5444 108.416 18.2106 109.033 17.5429C109.649 16.875 109.957 16.038 109.957 15.0311C109.957 14.0056 109.649 13.1587 109.033 12.4907C108.416 11.8229 107.643 11.4891 106.715 11.4891ZM106.715 8.06293C108.724 8.06293 110.384 8.72127 111.693 10.0373C113.001 11.354 113.656 13.0184 113.656 15.0311C113.656 17.025 112.996 18.6802 111.679 19.9964C110.36 21.3129 108.706 21.9704 106.715 21.9704C104.723 21.9704 103.068 21.3129 101.75 19.9964C100.432 18.6802 99.7732 17.025 99.7732 15.0311C99.7732 13.0184 100.428 11.354 101.736 10.0373C103.045 8.72127 104.704 8.06293 106.715 8.06293Z" fill="#ffffff"/>
<path fill-rule="evenodd" clip-rule="evenodd" d="M145.317 21.6801H141.59V16.512H136.441V21.6801H132.686V8.35327H136.441V13.202H141.59V8.35327H145.317V21.6801Z" fill="#ffffff"/>
<path fill-rule="evenodd" clip-rule="evenodd" d="M152.485 12.7084C152.485 13.2121 152.679 13.594 153.068 13.8554C153.457 14.1166 154.002 14.2473 154.704 14.2473H157.179V11.1405H154.704C154.002 11.1405 153.457 11.2763 153.068 11.547C152.679 11.8183 152.485 12.2054 152.485 12.7084ZM148.673 12.6793C148.673 11.3439 149.18 10.2891 150.195 9.51461C151.21 8.74064 152.551 8.35324 154.22 8.35324H160.906V21.6801H157.179V17.0636H155.301L152.144 21.6801H147.991L151.831 16.454C150.807 16.1637 150.024 15.6946 149.484 15.0459C148.944 14.3976 148.673 13.6084 148.673 12.6793Z" fill="#ffffff"/>
<path fill-rule="evenodd" clip-rule="evenodd" d="M128.932 21.7062H125.461V13.6343L119.999 21.7062H116.5V8.37912H119.999V16.4219L125.461 8.37912H128.932V21.7062Z" fill="#ffffff"/>
<path fill-rule="evenodd" clip-rule="evenodd" d="M122.747 6.77017C121.388 6.77017 120.266 6.38906 119.379 5.62849C118.49 4.86775 118.047 3.89992 118.047 2.72432V2.03058H120.907V2.55147C120.907 3.14861 121.068 3.61077 121.388 3.93763C121.708 4.26565 122.162 4.42924 122.747 4.42924C123.351 4.42924 123.81 4.27507 124.121 3.96707C124.432 3.65891 124.588 3.20634 124.588 2.60903V2.03058H127.503V2.78189C127.503 3.97634 127.06 4.93954 126.174 5.67183C125.287 6.40444 124.144 6.77017 122.747 6.77017Z" fill="#ffffff"/>
</svg>
