<svg xmlns="http://www.w3.org/2000/svg" fill="none" viewBox="0 0 24 29"><path fill="#F8F9FA" fill-rule="evenodd" d="M10.075 9.825a.75.75 0 0 1 .425.675v12a.75.75 0 0 1-1.218.585L5.737 20.25H2.25a.75.75 0 0 1-.75-.75v-6a.75.75 0 0 1 .75-.75h3.487l3.545-2.835a.75.75 0 0 1 .793-.09zM9 12.06l-2.532 2.025A.75.75 0 0 1 6 14.25H3v4.5h3a.75.75 0 0 1 .468.165L9 20.94v-8.88zm11.781.909a.751.751 0 0 1 0 1.062l-6 6a.75.75 0 1 1-1.062-1.062l6-6a.75.75 0 0 1 1.062 0z" clip-rule="evenodd"/><path fill="#F8F9FA" fill-rule="evenodd" d="M13.718 12.969a.75.75 0 0 0 0 1.062l6 6a.752.752 0 0 0 1.062-1.062l-6-6a.75.75 0 0 0-1.062 0z" clip-rule="evenodd"/></svg>