<svg width="775" height="497" fill="none" xmlns="http://www.w3.org/2000/svg"><path d="m774 296.259-4.6 8.962-2.299 3.585-2.556 2.817-17.376 15.109-3.067 1.28-3.577-.512-6.644-3.073-22.488-3.329-6.132.256-5.622 1.793-22.743 12.292-2.555 1.024-3.067.256-8.688-.512-13.288 3.841-4.855-.256-5.111-2.561-9.711-4.097-9.454-2.049-5.367.256-9.965 3.073-21.21-1.28-5.111-1.793-9.199-4.609-5.111-1.024-18.399 4.097-6.644 2.817-4.344 4.609-2.3 3.585-6.388 4.61-3.066 2.817-1.534 4.353.511 4.353 1.278 4.354.511 4.609-1.533 4.609-2.556 2.817-6.899 3.842-5.622 5.121-4.599 6.914-2.811 8.195-1.022 23.047-.512 3.585-2.044 3.329-9.199 7.17-4.344 6.914-5.622 15.877-3.833 6.402-4.6 4.61-14.821 9.73-5.366 5.378-2.811 1.024-2.556-2.816-2.811-13.829-1.788-3.841-5.111-1.536-4.855 5.633-5.111 7.427-5.877 3.585-3.322-.768-6.389-3.586-3.322-1.024-4.088.512-15.333 7.427-2.299 2.816-2.045 3.842-2.811 3.841-3.322 2.305-3.577.768-3.833-.256-10.988-2.817-3.833-.256-3.578.512-7.921 3.329-3.834.256-2.81-3.073-1.534-3.841-2.811-9.987-.255-4.354 1.278-4.353 2.299-3.073 1.789-3.073-.511-4.097-1.789-2.561-4.855-4.609-1.789-2.817-1.277-4.353-.767-12.804-3.066-9.731-4.856-4.866h-6.133l-7.155 4.353-37.564 30.73-1.788 1.024-2.045.512-2.044.769-1.022 1.792-.767 2.049-1.277 1.792-3.067.769-3.066-1.537-3.322-2.305-3.067-1.28-4.344.768-8.432 3.841-4.345.513-6.388-1.281-6.133-2.817-14.821-10.243-3.833-1.792-3.578.256-.511.768-4.599-1.793-13.288.256-3.067-.256-2.044-.512-.767-.768-1.533-2.305-1.278-1.536-12.521-2.305-2.555-1.28-1.278-1.281.767-2.56.511-1.281.511-1.28.255-1.281v-2.56l-.511-1.537-1.022-1.536-2.3-2.305-1.789-1.28-23.765-8.707-3.577-2.049-6.9-6.146-2.81-3.329-1.278-1.792-1.533-3.073-1.278-1.793-5.622-5.633-6.388-6.146-2.811-1.793-1.789-1.792-.767-1.025-.255-1.024-.256-2.817-.255-1.792-1.022-2.561-1.023-1.537-1.277-1.28-4.344-2.817-18.654-16.645-.767-.768-2.3-3.585 15.077-18.438 2.3-3.585.255-2.049-13.288-10.755-.51-1.537.255-1.536 1.533-3.329 1.022-1.28 1.278-.769h1.277l1.278.256h1.789l1.533-.768 1.789-2.305 1.022-1.024 1.278-.512 2.81-.768 1.534-.769 4.6-3.072.766-.257 8.688-.256 13.799-3.073h1.023l1.277.257 3.067 1.28 1.788.512 2.556-.512.766-.512.256-.512-.256-.513-.766-.768-1.022-1.024-4.6-6.658-1.022-1.793-2.3-5.633v-1.793l.767-1.024 1.788-1.025 13.544-4.865 4.599-2.817 2.811-1.024 2.556-.769 10.732-1.536 2.811-.768 6.133-3.073 5.111-1.793 1.533-1.024 1.278-1.28 5.877-8.451 1.022-2.049 2.3-6.402 2.044-8.706 1.534-4.866.511-2.304.255-7.427.511-2.304 2.3-5.122.511-1.537v-1.28l-.255-.768-1.534-1.537-4.855-3.329-1.277-.256h-2.3l-1.278.512-1.022.769-.511.768-.511 1.536-.256.513-.255.512-.256.256-1.533 1.024-21.465 9.219-2.811.512-1.278-.512-1.789-.512-2.044-.256-3.322.256-1.789.768-3.577 3.073-3.578 1.793-2.044.256-1.789-.513-1.277-1.024-1.278-.512-9.199-1.28-8.689.256-3.833.768-2.555 1.024-1.533 1.025-1.022.256-1.278-.256-1.022-.769-2.556-2.561-1.788-1.28-2.3-1.024-4.089-.512-2.81.256-5.367 1.536-2.044.256-2.045-.256-1.788-.768-1.79-1.024-3.577-3.586-1.022-.768-1.022-.256-1.278-.256-1.022-.512-1.022-.768-1.789-2.305-1.277-1.28-1.79-1.025-2.044-.768-2.81.768-1.023-1.792-2.555-6.146-1.789-2.817h-.766l-.256-1.28 1.022-.769 4.089-3.841 1.022-.768 1.022-.256 1.278-.256 7.155 1.024 3.322.768 1.533.769 1.533 1.024 1.534 1.536 1.022 1.793.766 2.049.256 1.792v3.073l-.511 3.329 1.022 1.793 2.3 1.536 5.622 1.793h2.3l1.277-.769v-1.536l-2.044-18.182-1.022-4.865-.767-2.049-.767-1.024-1.277-.768-5.622-1.281-7.41-.256-6.133-1.28-.512-.512-.255-.513v-1.024l.767-12.548v-3.585l-.512-3.329-.766-1.792-.767-1.281-.766-.768-.767-.512-4.089-1.281-2.044-1.024-.767-.256h-.51l-4.6 2.561-1.023.256-.766-.512-2.044-1.793-1.278-.768-5.622-2.561h-.51v.512l.255 2.305-.256 1.537-.511 1.28-1.022 1.28-1.278 1.025-1.533.512-1.533-.256-1.79-1.025-2.043-1.792-3.833-4.866-1.278-1.28-1.022-.768-1.278-1.025L1 131.6v-.768l.511-.512.767-.256h2.3l1.277-.256 1.022-.513 1.022-1.024.512-1.024 1.022-2.305 3.833-5.89 1.022-2.817 20.443-2.048 2.81.256 3.323-1.281 6.9-5.633 1.277 2.048.511 1.025 1.022 2.817.511 1.28.767 1.024 1.789 1.537.766 1.024 2.045 3.585 1.022 1.024 1.022 1.025 1.533.768 1.278.512h1.533l1.278-.256 4.088-1.28h1.022l.767.512.511.768.256 1.28v1.537l-.767 5.121v1.537l.256 1.28.51 1.025.512.768.766.512 1.022.256 1.023-.768.766-1.537.767-5.633.51-2.049.767-1.536 1.534-1.537 4.855-3.329 1.022-.256h1.022l.767.256.767.512 1.533 1.281.766.512 1.023.512 1.533-.256 1.788-.768 2.045-1.537 1.022-1.536.511-1.793-.255-3.841.255-1.793.511-1.536 1.533-2.049 4.344-4.865.767-1.793.256-1.792-.767-3.841v-1.28l.255-1.281.767-2.305.767-1.536.766-1.28 2.3-2.818 1.533-1.536 2.045-1.537.255-.768-.255-.768-1.278-1.537-1.533-.768-4.344-1.024-.511-2.56-.256-2.562 3.067-19.206.511-2.304.511-.256 1.022-.513 1.022-.256h4.089l6.899 1.28 1.789.77 1.022.767 1.789.512 30.409-4.609 4.088.256 1.022 1.024.511 1.025.256 1.024.511 1.024h2.044l4.089-5.89 6.644-9.218 3.322-1.793 13.288-1.28h1.277l3.834 1.28 1.277.256 1.278-.256 1.022-.768-.255-2.56-1.278-3.074-7.922-12.804-3.322-8.194 2.045-1.025 24.787-3.84 2.3-1.025 1.533-1.024.766-.769 1.534.256 1.788.769 4.6 5.633 5.622-1.792 2.3-1.793.766-1.024 1.022-.512 1.534-.256 6.899 2.305 26.065 1.024 2.044-.256 4.855-1.793 1.278-.768.767-.768 1.022-.512h1.278l7.155 3.329 1.277.256h2.556l12.521-3.073 2.811-1.28h1.022l1.022.768.767 1.024.511 1.024.255 1.025v1.28l-.511 4.097v1.28l1.278.257 2.555-.769 8.944-5.89 2.3-2.56.511-1.025L330.899 1l.255 2.049 2.3 7.426.511 1.024.767.768 4.344.513 1.277.512 1.278.512 1.022.768 4.855 2.305 1.278.768 1.022 1.024 2.556 5.634.766.768.767.769 1.533.256 12.521-.768 2.045-.769 1.022-.512 1.533-1.28.767-1.025.511-1.024.511-1.28.511-1.28.767-1.025H378.173l4.344 1.024 1.278.768 1.022 1.28.767 2.562.511 3.329v2.56l.255 1.28.767 1.025 3.066 2.049 2.045 2.305.511 1.024.511 1.28.766 2.305v2.816l-2.811 8.195-.511 1.537-1.022 5.633v1.28l.256 1.281.766 1.025 1.278.512 1.789.256 1.022.512.766 1.024.256 1.793-.256 3.073.512 1.536 1.277 1.537 6.389 4.097 1.277 1.024 1.278 1.537 1.533 2.817.511 1.792v1.793l-.255 1.536-.767 2.817-.511 1.28-.767 1.025-1.533 1.792-3.577 3.073-3.578 2.561-.766.768-.767 1.025-.511 1.28-.256 1.28.511 1.281 1.023 1.024 2.555.768h1.533l1.533-.256 13.033-3.841 4.088-2.048 1.023-.257 1.788.769 2.3 1.28 4.089 3.073 2.3 1.28 1.788.769h1.278l1.022-.256 4.344-1.537h1.278l1.278.256 6.644 1.793 3.833 2.561 5.11 2.048 1.278.256 12.777.512 2.555.513 14.055 7.426 5.366 2.048 2.811.513h1.278l1.278-.257 3.833-2.048 1.022-.256.766.256.511.768-3.322 7.682-1.533 5.634-.255 1.281-.256 3.841-.766 1.28-1.278 1.024-5.367.513-10.988-.769-3.833.256-1.277.257-2.045 1.024-1.788 1.536-2.556 4.866 2.811 3.329.256 1.024.766 1.281.767.768 22.998 1.024 3.322-.768 2.811-1.537 1.022-.256 2.045.513 2.555 1.024 4.6 2.305 3.833 2.56.766.769.511 1.024.256 1.28v1.281l-.767 4.097-.511 1.28-2.555 4.354-.511 1.28-.511 1.28-.256 1.537-.511 4.097-.255 1.281-.767 2.816-1.789 3.329-2.811 4.098-.511 1.024-.511 1.28.511 1.025 1.278.512 2.811-.768 3.066-1.281h1.533l2.045.768 1.022 1.025.766 1.024.512 1.024.511 1.025 1.022.768 1.533.512 8.433 1.024 3.833-.256 3.577-1.024 5.367-2.561 2.044-.768h2.044l12.266 1.28 9.71 2.305 30.92-.768 1.789-.512 2.3-1.281 1.533-1.024 2.045-1.536 1.533-.769 5.622-1.536 3.322-1.281 2.555-2.048H624l1.277 4.353-1.022 9.731-1.277 5.634-3.067 7.938-1.278 1.025-1.277.512h-1.789l-1.533-.768h-.511v.768l.766 2.304.767 2.049 1.022 2.817.767 4.609v1.281l.255 1.28 2.3 2.561 8.944 4.097 5.622 3.585 1.022.769 1.278 1.28.255 1.024-.255 1.025-.512 1.024-2.81 4.097-.512 1.281-.255 1.28-.256 2.561-2.044 7.17-.511 1.28-.767 1.025-.766 1.024-1.789 1.536-.767.769-.766 1.024v1.024l.766.769 5.622-.769 28.109-7.938 5.878-2.817 2.044-.256 5.622.256 2.555.512 1.533 1.281.512 1.28v1.28l-.512 1.281-2.299 5.121-.511 1.281-.256 1.28v2.561l.511 2.305.511 1.024 1.533.768 2.3.512 16.099-.256 21.976 5.89h12.777l8.177-1.024 4.344-1.025 7.667-4.353 2.555-2.049 3.577-2.304 2.045-1.025h1.277l1.534.256 1.788.513 1.534.512 1.277 1.28 1.022 1.793 1.534 3.329 1.277 3.585 1.022 2.048 2.045 2.305 2.044 1.537Z" fill="#F8F9FA" stroke="#155724" stroke-width=".5" stroke-linecap="round" stroke-linejoin="round"/></svg>