<svg width="580" height="440" fill="none" xmlns="http://www.w3.org/2000/svg"><path d="m573.632 145.207-2.046 3.074-.766 2.305-.256.768-1.278 4.099-2.045 4.866-1.279 4.611 1.279 3.33 8.18 7.428 2.045 3.073 1.534 7.428-5.624 1.281-14.316-3.842-3.834-.256-3.324 1.281-8.691 8.964-2.812 2.05-6.647 3.586-5.624 4.354-15.339 16.649-18.406 14.856-6.135 2.818-5.368.768-5.369-.768-5.879-2.306-5.88-1.28-6.135.768-5.88 2.562-5.369 3.586-5.368 2.561-11.248 1.537-4.602 3.842-1.789 2.305-1.534 2.562-1.022 3.073-.512 3.33-1.022 5.379-2.812 3.842-3.324 3.586-2.556 4.355-1.278 9.221-.767 2.561-1.278 1.793-4.858 4.098-2.045 3.33-1.533 4.098-.767 4.355.255 4.354 1.79 4.354 2.3 1.537 2.813.769 3.323 2.049 2.556 3.842 1.023 4.61.767 9.478 3.834 12.038-.767 2.306-3.834 2.305-2.812 2.305-2.045 3.33-2.045 5.123-1.79 7.684-1.789 3.074-3.068 1.793-32.211 4.354-4.857-2.561-15.849-1.793-6.136.512-18.661 4.61-4.091 2.818-1.278 3.33-.255 3.073-1.279 2.306-9.714 1.793-17.383 6.147-5.369.512-6.135-1.793-3.068-1.537-2.045-.768-2.301.512-8.436 4.611-2.556.256-3.068-1.025-10.737-2.305-3.579-.256-7.413 1.537h-2.557l-31.699-8.453-2.812-.256-3.067 1.025-1.79 1.537-3.323 4.098-2.045 1.28h-2.812l-4.346-2.817-2.557-.768-1.789.768-5.369 5.635-2.812.512-2.812-.256-5.624-1.537h-3.067l-6.391 3.33-3.835.512-3.068 1.025-2.045 3.33-3.834 12.038-7.158 15.369-2.045.256-1.79-2.561-1.534-3.586-.511-2.05v-1.793l-.511-1.28-3.579-1.793-2.557-2.049-1.533-.769-7.414-1.28-3.579-1.537-1.534-3.33-.255-4.611-1.023-5.635-1.79-4.866-3.067-2.306-3.068.513-6.135 3.329-6.391 1.281-2.812 1.537-16.872 12.039-6.136 2.817-6.39.769-3.324-1.025-3.068-2.305-2.556-3.586-1.278-4.355.256-4.61 1.79-2.818 2.3-2.305 2.045-3.33.767-4.354-.512-5.635-1.533-5.123-2.812-2.561h-3.324l-17.383 3.586-8.436-.513-7.158-3.33L1 371.891l1.534-3.586 4.346-6.403 1.022-3.33-1.022-3.586-2.557-3.33-.255-.256 1.533-3.586 1.534-6.403.512-1.537 3.579-7.172 4.09-3.842 13.293-3.33 3.068-1.793 2.045-2.049 1.79-2.818 1.277-1.024 2.046-.769h3.067l2.301.512 1.278 1.025 1.023 3.074 1.278 1.28 2.3 1.281 2.557 1.025 25.308 5.122 2.557 1.281 1.022 1.025 1.279.768 3.578 2.818 2.301 1.024 3.58.769 2.556.256 2.556-.256 1.278.512 3.323 2.305h1.79l1.789-.512 3.579-1.537 2.812-.768 5.369-.513 10.737 1.793 6.135-1.024 3.835-1.793 5.368-1.537 2.556-1.025 2.045-1.28 4.602-4.099 8.18-3.585 8.436-2.818 6.136-3.074 1.534-1.024 1.022-1.025.767-1.024 1.023-2.562 2.3-2.817-3.834-7.172-3.579-4.611-2.301-2.305-1.022-2.049-1.023-4.867-1.023-1.281-1.789-.512-1.534.769-3.067 2.305h-1.79l-2.812-1.537-3.579-5.635-2.556-5.379-1.79-2.561-2.045-1.537-2.812-1.793-2.301-1.025-4.346-1.024-1.789-.769-.767-1.28-.256-1.537.256-1.793.767-2.306 1.023-1.793.511-2.049-.256-2.305-1.534-3.586-.511-1.537v-1.793l1.023-1.537.511-1.536-.256-2.306-1.022-1.537-1.534-1.536-5.624-2.562-.256-1.024.767-1.025 3.579-3.33 1.023-2.561-.256-3.33-1.278-2.305-2.557-1.793-7.158-3.074-1.533-1.537-.512-1.537.767-1.024 1.79-1.025 1.278-1.28.511-2.05-1.022-2.561-.256-1.793v-2.305l1.023-4.098.255-2.05-1.278-3.585-1.789-1.537-2.557-.513-15.083 4.099-8.436 3.329-6.135.257-1.278-.769-4.857-2.305-3.324-2.305-1.278-3.33 1.023-3.074 14.827-7.684 4.601-4.611 2.557-6.403 1.022-4.098 1.534-2.306 11.504-6.403 2.812-.769 7.925-.512h1.278l3.068.256 1.533 1.281-.767 2.305-2.556.769-2.812.256-2.045.512-.767 2.049 2.301.769 7.669-.256 2.556 1.024 10.226 5.891 4.601 1.793 4.091-.768 3.579-4.867 1.789-5.635.256-5.379-1.023-2.561-1.022-2.306-7.414-5.378-1.534-2.05v-2.561l1.278-3.586v-4.098l-3.579-6.148.512-3.842 5.113-2.305 5.624 5.123 5.624 6.66 4.857 2.561 6.646.768 12.015 8.453 6.903-.512 2.556-2.049 1.534-2.818.767-3.33.255-3.33 1.279-3.842h3.067l6.391 2.818 5.113-2.305 2.045-15.113 4.09-6.403 6.136-2.562 12.27-3.073 14.828-9.221 16.105-5.892 8.18-4.61 5.369-6.916-1.023-4.61-1.534-.257 3.068-2.561 4.601-4.867 9.97-4.61 2.301-1.793 1.534-1.793.511-1.537.256-1.28V51.46l-.511-1.537-.512-1.281-.255-1.28v-1.025l.511-2.562.256-1.536-.512-3.33v-2.05l.767-2.56 1.278-1.794 1.534-1.537 8.948-6.66 1.022-.511h1.023l1.022.512.767 1.024.767 1.281 1.023 2.05.511.511.511.256h1.278l1.279-.256 1.534-.768 1.533-3.33 1.278-2.049 1.279-1.28 2.045-1.538 1.278-1.536 3.323-5.38 1.023-1.28.767-.512 1.022.512.767.256 5.88-.256 14.571 1.28 1.79-.255 2.556-.769 1.023-.512.511-1.025v-.768l-.256-1.025-.511-1.024-.255-1.281-.256-1.28.767-2.05.767-.768 1.022-.512L374.233 1h1.023l.511.512 1.278 2.05 2.301 2.817.511.768.256.769.255 1.024-.255 1.281-.767 1.537-14.572 13.831-2.045 2.306-.767 1.28-.255 1.025.255.768.767.513 4.346.256.767.512.511 1.025.256 1.28v1.281l.256 1.28.767.77 1.278.511 3.067.513 1.023.256.767.512 2.045 1.793 1.534 1.025 2.301.768 1.022-.256.767-.512.256-1.025v-1.28l-.256-3.074v-1.793l.256-1.793.767-1.793 1.534-2.05 2.045-2.048 6.646-4.611 1.023-1.024L404.91 6.89l2.812-3.33 2.812-.512 1.789.768.767.769.256 1.28-.511 3.074.255 2.05 1.023 1.28 3.579 2.818.767 1.537.255 2.305-.255 2.817.255 3.33.767 1.793.767 1.025 19.684 10.245 2.301 3.586.767.769 18.662 16.649 4.346 2.817 1.278 1.281 1.022 1.537 1.023 2.561.255 1.793.256 2.818.256 1.024.767 1.025 1.789 1.793 2.812 1.793 6.391 6.147 5.624 5.635 1.278 1.793 1.534 3.074 1.278 1.793 2.812 3.33 6.903 6.147 3.579 2.049 23.774 8.709 1.79 1.281 2.3 2.305 1.023 1.537.511 1.537v2.561l-.255 1.281-.512 1.281-.511 1.28-.767 2.562 1.278 1.28 2.557 1.281 12.526 2.305 1.278 1.537 1.534 2.305.767.769 2.045.512 3.068.256 13.293-.256 3.068 3.33Z" fill="#F8F9FA" stroke="#155724" stroke-width=".5" stroke-linecap="round" stroke-linejoin="round"/></svg>