<svg width="10" height="15" viewBox="0 0 10 15" fill="none" xmlns="http://www.w3.org/2000/svg">
<path fill-rule="evenodd" clip-rule="evenodd" d="M9.0755 0.825148C9.20257 0.886361 9.3098 0.982164 9.38489 1.10156C9.45997 1.22096 9.49987 1.3591 9.5 1.50015V13.5001C9.4998 13.6413 9.45978 13.7795 9.38455 13.8989C9.30932 14.0183 9.20193 14.114 9.07471 14.1751C8.9475 14.2362 8.80562 14.2602 8.6654 14.2443C8.52517 14.2284 8.39228 14.1732 8.282 14.0851L4.7375 11.2501H1.25C1.05109 11.2501 0.860322 11.1711 0.71967 11.0305C0.579018 10.8898 0.5 10.6991 0.5 10.5001V4.50015C0.5 4.30124 0.579018 4.11047 0.71967 3.96982C0.860322 3.82917 1.05109 3.75015 1.25 3.75015H4.7375L8.282 0.915148C8.39236 0.82693 8.52539 0.771678 8.66578 0.755755C8.80616 0.739832 8.94819 0.763887 9.0755 0.825148V0.825148ZM8 3.06015L5.468 5.08515C5.33524 5.19166 5.1702 5.24985 5 5.25015H2V9.75015H5C5.1702 9.75045 5.33524 9.80864 5.468 9.91515L8 11.9401V3.06015Z" fill="#F8F9FA"/>
</svg>
