<svg width="490" height="183" fill="none" xmlns="http://www.w3.org/2000/svg"><path d="m9.427 115.949 2.043-1.792 5.618-6.912 1.277-2.816-.511-1.536-1.021-1.537-.256-2.56 1.022-4.608 2.043-4.608 2.553-3.84 2.554-2.56 8.171 5.376 2.81.256 2.298-1.28 1.532-2.304.255-2.816-1.532-2.56-5.873-5.377-1.788-2.304-1.532-8.704 6.384-3.84 14.811-2.305 2.81-2.816 1.02-3.584-.255-9.216.511-4.864 1.532-2.304 6.384-2.049 2.81-1.792 2.042-3.072 3.575-6.912 2.81-1.536 3.83 1.28 4.086 2.048 3.575.768 3.064-1.28 2.554-2.56 2.298-3.328 1.788-3.329 3.064-2.816 4.086-.256 8.171 2.816 2.809-1.28 1.788-.256 1.787 1.024 6.64 5.889 2.043.768 3.064-.512 18.897-12.289 5.618-1.792 12.002-.512 5.874-2.048L173.37 1l2.554 1.28 2.554 1.792 2.809 1.28 10.47 2.56 19.918 11.009 5.618 1.536 2.554-.256 4.852-2.304 2.553-.768 21.962 1.024 11.236 4.608 20.173 13.825 6.129 1.28 12.257-.256 24.26 5.888 5.363 3.072 4.085 4.608 5.874 11.009 4.341 4.096 5.873 2.816 5.874 1.536 5.873.256 21.961-3.584 7.661.256 6.384 2.816 3.32 2.56 2.809 1.536 3.065.768 12.257.768 3.83 1.536 2.554 3.073-.511 7.168.256 5.12 2.043 3.072 15.577 2.816 10.214 4.097 4.852-1.025v-4.352l4.852.512 4.341-3.84 1.277-2.816-.255-1.024-.256-1.024-.255-1.28.255-2.816.766-2.048 1.277-1.793h.766l.511.769 1.022 4.096.51 1.024.511 1.024.766.768 1.022.768 1.276.512 1.533.256h1.787l4.852-.512h.766l1.788.512 2.298 3.072.511 1.792.255 2.816-.511 1.792-.766 1.28-4.596 4.353-2.809 4.096-1.022 2.048-.511 3.84-4.851 6.656-2.554 1.536-10.47 4.353-3.575 1.024h-2.809l-4.597-2.816-1.276-.512-6.64-1.025-4.086.256-3.064.769-6.64 2.816-2.553.256-2.554-.512-2.043-.768-3.064-.512-2.554.256-3.319 1.024-3.32.256-4.086 1.28-4.852 2.304-.766.512-.766.768-1.788 2.56-2.043 1.536-2.298.512h-5.618l-2.043.768-1.277 1.28-.51 1.792-1.532 6.913v1.28l.255 1.536.511 1.28 1.021.768 6.384 2.048.766.512.511.512.255.768v.768l-.51 1.28-1.788 3.584-5.363 1.792-1.787-.512-2.043-1.024-1.532-1.536-1.277-.256-16.599 4.096-4.596 2.048-2.809 2.56-.256 2.561v2.56l-.51 2.048-2.043 2.304-3.575 1.28-5.363.768-2.809-.256-2.554-1.024-8.171-8.704-3.32-2.561-3.575-2.048-9.448-3.584-5.618-3.328-2.809.256-6.895 2.304-2.809-1.024-5.874-3.84-5.873-.256-5.363.256-3.064-.768-2.043-1.536-1.021-2.304-1.277-2.56-2.554-2.304-2.298-.769h-5.363l-12.768 2.049-3.064 1.024-4.086 1.792-2.298 2.304-1.533 2.816-1.021 3.072-1.788 7.168-1.787 4.353-3.831 4.608-3.319 1.792-3.065.768-11.236-.512-4.341-3.84-3.064-2.048-3.32-1.28-19.152-8.193-5.618-1.024-1.277.512-2.043.256-2.554-.768-28.6-13.056-4.597-1.281-21.45.769-1.788.512-3.575 1.792-6.129 1.792-2.553.256-2.043-.256-22.728-5.12-4.34 1.28-5.364-1.793-24.004-17.408-5.362-2.304-5.363.768-7.66 5.632-3.831 3.584-5.108-1.28-3.575-1.792-6.895-6.912L1 124.397l2.043-3.584 6.384-4.864Z" fill="#F8F9FA" stroke="#155724" stroke-width=".5" stroke-linecap="round" stroke-linejoin="round"/></svg>