<svg width="32" height="32" fill="none" xmlns="http://www.w3.org/2000/svg"><path d="M31.998 13.12c-3.144.006-6.212-.852-8.769-2.454v11.17c0 2.07-.723 4.088-2.071 5.788-1.348 1.7-3.257 2.999-5.471 3.724-2.215.725-4.63.84-6.921.332-2.292-.508-4.352-1.616-5.904-3.177C1.309 26.944.338 25.005.078 22.95c-.26-2.056.204-4.133 1.33-5.952 1.125-1.82 2.858-3.295 4.968-4.23a13.075 13.075 0 0 1 6.837-.998v5.618a6.056 6.056 0 0 0-3.288.026c-1.066.311-1.992.91-2.646 1.709-.653.8-1.002 1.759-.995 2.742.006.983.368 1.939 1.032 2.731.665.793 1.599 1.382 2.668 1.682 1.07.3 2.221.297 3.289-.009 1.067-.306 1.997-.899 2.656-1.695.66-.796 1.015-1.754 1.014-2.737V0h6.286c-.004.464.04.928.133 1.386a7.14 7.14 0 0 0 1.335 2.854 8.301 8.301 0 0 0 2.516 2.16c1.42.82 3.084 1.258 4.785 1.258v5.461Z" fill="#F8F9FA"/></svg>