<svg width="24" height="25" viewBox="0 0 24 25" fill="none" xmlns="http://www.w3.org/2000/svg">
<path fill-rule="evenodd" clip-rule="evenodd" d="M10.0755 5.8249C10.2026 5.88612 10.3098 5.98192 10.3849 6.10132C10.46 6.22071 10.4999 6.35886 10.5 6.4999V18.4999C10.4998 18.641 10.4598 18.7792 10.3846 18.8986C10.3093 19.018 10.2019 19.1138 10.0747 19.1749C9.9475 19.236 9.80562 19.26 9.6654 19.244C9.52517 19.2281 9.39228 19.173 9.282 19.0849L5.7375 16.2499H2.25C2.05109 16.2499 1.86032 16.1709 1.71967 16.0302C1.57902 15.8896 1.5 15.6988 1.5 15.4999V9.4999C1.5 9.30099 1.57902 9.11023 1.71967 8.96957C1.86032 8.82892 2.05109 8.7499 2.25 8.7499H5.7375L9.282 5.9149C9.39236 5.82669 9.52539 5.77143 9.66578 5.75551C9.80616 5.73959 9.94819 5.76364 10.0755 5.8249ZM9 8.0599L6.468 10.0849C6.33524 10.1914 6.1702 10.2496 6 10.2499H3V14.7499H6C6.1702 14.7502 6.33524 14.8084 6.468 14.9149L9 16.9399V8.0599ZM20.781 8.9689C20.8508 9.03857 20.9063 9.12134 20.9441 9.21245C20.9819 9.30357 21.0013 9.40125 21.0013 9.4999C21.0013 9.59856 20.9819 9.69624 20.9441 9.78735C20.9063 9.87847 20.8508 9.96124 20.781 10.0309L14.781 16.0309C14.6402 16.1717 14.4492 16.2509 14.25 16.2509C14.0508 16.2509 13.8598 16.1717 13.719 16.0309C13.5782 15.8901 13.4991 15.6991 13.4991 15.4999C13.4991 15.3007 13.5782 15.1097 13.719 14.9689L19.719 8.9689C19.7887 8.89906 19.8714 8.84364 19.9626 8.80584C20.0537 8.76803 20.1513 8.74856 20.25 8.74856C20.3487 8.74856 20.4463 8.76803 20.5374 8.80584C20.6286 8.84364 20.7113 8.89906 20.781 8.9689Z" fill="#F8F9FA"/>
<path fill-rule="evenodd" clip-rule="evenodd" d="M13.719 8.96888C13.6492 9.03854 13.5937 9.12131 13.5559 9.21242C13.5181 9.30354 13.4987 9.40122 13.4987 9.49988C13.4987 9.59853 13.5181 9.69621 13.5559 9.78733C13.5937 9.87844 13.6492 9.96121 13.719 10.0309L19.719 16.0309C19.7887 16.1006 19.8715 16.1559 19.9626 16.1937C20.0537 16.2314 20.1514 16.2508 20.25 16.2508C20.3486 16.2508 20.4463 16.2314 20.5374 16.1937C20.6285 16.1559 20.7113 16.1006 20.781 16.0309C20.8507 15.9611 20.906 15.8784 20.9438 15.7873C20.9815 15.6961 21.0009 15.5985 21.0009 15.4999C21.0009 15.4013 20.9815 15.3036 20.9438 15.2125C20.906 15.1214 20.8507 15.0386 20.781 14.9689L14.781 8.96888C14.7113 8.89903 14.6286 8.84362 14.5374 8.80581C14.4463 8.768 14.3486 8.74854 14.25 8.74854C14.1513 8.74854 14.0537 8.768 13.9625 8.80581C13.8714 8.84362 13.7887 8.89903 13.719 8.96888Z" fill="#F8F9FA"/>
</svg>
