<svg width="24" height="25" viewBox="0 0 24 25" fill="none" xmlns="http://www.w3.org/2000/svg">
<path fill-rule="evenodd" clip-rule="evenodd" d="M10.0755 5.8249C10.2026 5.88612 10.3098 5.98192 10.3849 6.10132C10.46 6.22071 10.4999 6.35886 10.5 6.4999V18.4999C10.4998 18.641 10.4598 18.7792 10.3846 18.8986C10.3093 19.018 10.2019 19.1138 10.0747 19.1749C9.9475 19.236 9.80562 19.26 9.6654 19.244C9.52517 19.2281 9.39228 19.173 9.282 19.0849L5.7375 16.2499H2.25C2.05109 16.2499 1.86032 16.1709 1.71967 16.0302C1.57902 15.8896 1.5 15.6988 1.5 15.4999V9.4999C1.5 9.30099 1.57902 9.11023 1.71967 8.96957C1.86032 8.82892 2.05109 8.7499 2.25 8.7499H5.7375L9.282 5.9149C9.39236 5.82669 9.52539 5.77143 9.66578 5.75551C9.80616 5.73959 9.94819 5.76364 10.0755 5.8249ZM9 8.0599L6.468 10.0849C6.33524 10.1914 6.1702 10.2496 6 10.2499H3V14.7499H6C6.1702 14.7502 6.33524 14.8084 6.468 14.9149L9 16.9399V8.0599Z" fill="#F8F9FA"/>
<path d="M15.1815 19.394C16.0882 18.4896 16.8073 17.415 17.2974 16.2319C17.7875 15.0488 18.039 13.7806 18.0375 12.5C18.039 11.2194 17.7875 9.95107 17.2974 8.76797C16.8073 7.58487 16.0882 6.51028 15.1815 5.60596L14.121 6.66646C14.8882 7.43168 15.4966 8.34096 15.9113 9.34207C16.326 10.3432 16.5388 11.4164 16.5375 12.5C16.5392 13.5837 16.3268 14.6571 15.9123 15.6585C15.4979 16.6598 14.8896 17.5694 14.1225 18.335L15.1815 19.394Z" fill="#F8F9FA"/>
<path d="M13.0605 17.2731C13.6882 16.6469 14.186 15.903 14.5253 15.0838C14.8646 14.2647 15.0387 13.3866 15.0375 12.5001C15.0387 11.6135 14.8646 10.7354 14.5253 9.91626C14.186 9.09715 13.6882 8.35316 13.0605 7.72705L12 8.78755C12.4882 9.27455 12.8754 9.85324 13.1393 10.4904C13.4031 11.1275 13.5385 11.8105 13.5375 12.5001C13.5384 13.1896 13.403 13.8726 13.1391 14.5097C12.8753 15.1468 12.4882 15.7255 12 16.2126L13.0605 17.2731Z" fill="#F8F9FA"/>
</svg>
