<svg width="793" height="407" fill="#F8F9FA" xmlns="http://www.w3.org/2000/svg"><path d="m784.08 172.376 1.022 3.586.511 7.429.766 3.842 1.789 3.331 2.044 2.817 1.532 3.331.256 4.354-4.599 7.429-8.431 2.818-42.923-.512-8.686 2.305-6.388 2.562-2.81 2.305-2.299 3.331-1.533 4.098-2.044 8.71-1.533 4.099-6.132 5.891-7.665 1.025-8.175-.256-7.665 1.793-9.709 6.917-10.986 4.355-13.541 9.478-3.577 1.281h-4.088l-10.73-3.587-3.833 1.025-3.065 2.049-8.176 7.685-3.577 2.818-3.577 1.537-7.92 1.793-6.643 2.818-19.162 14.089-10.219 2.05-3.066 1.537-15.33 11.015-23.249 9.222-2.3 1.281-2.299 2.049-1.278 2.562-1.533 5.635-1.788 2.306-6.132 2.818-12.519 2.561-15.84 12.296-6.899 3.074-3.065 2.05-2.811 3.586-.766 4.099 3.065 8.709.512 4.099-1.789 3.843-3.066 2.561-6.898 4.099-2.811 2.818-4.343 6.404-3.321 6.404-3.577-2.305-2.044-2.306-1.022-2.049-1.277-3.587-1.533-3.33-1.022-1.793-1.278-1.281-1.533-.512-1.788-.512-1.533-.257h-1.278l-2.043 1.025-3.577 2.306-2.555 2.049-7.665 4.355-4.343 1.024-8.176 1.025h-12.775l-21.972-5.892-16.096.256-2.299-.512-1.533-.769-.511-1.024-.511-2.306v-2.561l.255-1.281.511-1.281 2.3-5.123.511-1.281v-1.281l-.511-1.281-1.533-1.281-2.555-.512-5.621-.256-2.044.256-5.876 2.818-28.104 7.941-5.621.768-.766-.768v-1.025l.766-1.024.767-.769 1.788-1.537.766-1.025.767-1.024.511-1.281 2.044-7.173.255-2.561.256-1.281.511-1.281 2.81-4.099.511-1.024.256-1.025-.256-1.025-1.277-1.281-1.022-.768-5.621-3.586-8.942-4.099-2.3-2.562-.255-1.281v-1.28l-.767-4.611-1.022-2.818-.766-2.05-.767-2.305v-.769h.511l1.534.769h1.788l1.277-.512 1.278-1.025 3.066-7.941 1.277-5.636 1.022-9.734-1.277-4.355H291.493l-2.555 2.049-3.321 1.281-5.621 1.537-1.533.769-2.044 1.537-1.533 1.024-2.299 1.281-1.788.512-30.915.769-9.709-2.306-12.263-1.28h-2.044l-2.044.768-5.365 2.562-3.577 1.024-3.833.257-8.431-1.025-1.533-.512-1.022-.769-.766-.768-.511-1.025-.767-1.025-1.022-1.024-2.044-.769h-1.532l-3.066 1.281-2.811.768-1.277-.512-.511-1.025.511-1.28.511-1.025 2.81-4.099 1.789-3.33.766-2.818.256-1.281.511-4.098.255-1.537.511-1.281.511-1.281 2.555-4.355.511-1.281.766-4.098v-1.281l-.255-1.281-.511-1.025-.766-.768-3.833-2.562-4.599-2.305-2.555-1.025-2.044-.512-1.021.256-2.811 1.537-3.321.768-22.995-1.024-.766-.769-.766-1.281-.256-1.024-2.81-3.331 2.555-4.867 1.788-1.537 2.044-1.024 1.277-.257 3.833-.256 10.986.769 5.365-.513 1.278-1.024.766-1.281.256-3.843.255-1.28 1.533-5.636 3.321-7.685-.511-.769-.766-.256-1.022.256-3.832 2.05-1.278.256h-1.277l-2.811-.512-5.365-2.05-14.052-7.429-2.555-.512-12.774-.512-1.278-.256-5.11-2.05-3.832-2.561-6.643-1.794-1.277-.256h-1.278l-3.321.769-1.022.256h-1.278l-1.788-.769-2.3-1.28-4.087-3.074-2.3-1.281-1.788-.769-1.022.256-4.088 2.05-13.03 3.842-1.533.256h-1.533l-2.555-.768-1.022-1.025-.51-1.281.255-1.28.51-1.281.767-1.025.767-.768 3.577-2.562 3.576-3.074 1.533-1.793.767-1.025.51-1.281.767-2.818.256-1.537v-1.793l-.511-1.793-1.533-2.818-1.278-1.537-1.277-1.024-6.387-4.099-1.278-1.537-.51-1.537.255-3.074-.256-1.793-.766-1.025-1.022-.512-1.789-.256-1.277-.513-.767-1.024-.255-1.281v-1.281l1.022-5.636.51-1.537 2.811-8.197V148.296l-.766-2.305-.511-1.281-.511-1.025-2.044-2.305-3.066-2.05-.766-1.025-.256-1.28v-2.562l-.51-3.33-.767-2.562-1.022-1.281-1.278-.768-4.343-1.025H45.71l-.767 1.025-.51 1.281-.511 1.281-.512 1.024-.766 1.025-1.533 1.281-1.022.512-2.044.769-12.519.768-1.533-.256-.766-.769-.767-.768-2.555-5.636-1.022-1.024-1.277-.769-4.854-2.306-1.022-.768-1.278-.512-1.277-.513-4.344-.512-.766-.769-.511-1.024-2.3-7.429L1 109.359l6.643-4.355 1.277-1.025.767-1.025.766-2.305.256-.769v-3.586l.51-1.025 1.023-.768 2.3-.256 2.043-.513 2.3-1.024 4.087-3.587 2.3-1.536 4.343-2.05 1.789-1.28 1.021-1.025 1.789-3.843 1.533-1.025 2.3-.512 13.03 1.28 3.065-.255 23.76-5.892h4.089l2.81 1.793 2.044.512 1.022.257h1.277l1.533-.257 1.789-.768 4.088-3.074 1.022-1.025 9.197-11.271 3.577-2.818 3.833-2.305 12.008-5.38 12.774-3.074 1.022-.512 1.022-.769 3.322-7.172.766-1.025 1.022-.512 1.788.256 10.731 2.561 4.599-.256 5.365 2.05h2.044l2.299-.513 9.198-4.867 1.278-.256 1.788.256 7.92 3.33 5.365.769 1.278-.256 1.277-.513 1.022-1.537.767-1.537.511-1.537.511-1.537.766-1.28 1.022-1.025 2.3-.256 40.367.768 3.577-.768 4.599-1.537 1.277-1.025 1.022-1.537 1.022-4.355.767-1.793 4.343-4.867.767-.769 1.022-.512h1.022l2.299.768h1.277l1.022-.512.511-1.537.256-2.05-1.789-5.891h3.066l16.863 2.818 5.62-1.537 7.154-3.587L306.567 1l2.555.256 4.854 1.537h6.899l3.321 1.793 3.066 2.562 3.321 1.793h2.811l8.942-4.355 3.577-.768 11.241.512 11.498 2.818 1.021 1.28.767 1.538 1.022 1.28 2.044 1.538 4.343-2.05 2.811-1.793 1.532-.768 3.833-.513 4.088.513 3.832 1.537 9.709 5.891 7.665 1.281 18.395-1.793 7.92.512 7.92-1.024 3.322.512 7.153 2.562 3.577.256 3.066-1.025 6.132-4.098 3.577-1.281 7.664-.512 11.498 1.28 16.862 5.892 7.154 4.099 5.876 4.867 3.066 1.537 20.695 2.05 13.796 5.635 11.242.769 6.643 2.561 6.387.256 13.285-6.916 6.643-1.281 4.344 1.28 1.277 2.306-1.022 8.966.256 5.38 1.021 4.867 1.789 4.355 2.555 4.355 6.132 6.148 13.541 6.404 5.365 5.892 7.665 18.7 4.598 6.404 8.687 3.586 16.352 1.025 13.796-2.562 7.409.256 38.068 8.198 7.154 4.867 2.3 2.818 6.642 9.734 11.242 10.247 5.621 7.429 4.599 7.941 5.109 6.916 6.388 5.124Z" stroke="#155724" stroke-width=".5" stroke-linecap="round" stroke-linejoin="round"/></svg>